<?xml version="1.0" encoding="UTF-8" standalone="no"?>
<!-- Created with Inkscape (http://www.inkscape.org/) -->

<svg
   width="29.010107mm"
   height="35.197159mm"
   viewBox="0 0 29.010107 35.197159"
   version="1.1"
   id="svg1"
   xml:space="preserve"
   sodipodi:docname="community-science-museum-logo-with-name.svg"
   inkscape:export-filename="logo-with-name.png"
   inkscape:export-xdpi="96"
   inkscape:export-ydpi="96"
   inkscape:version="1.4.2 (f4327f4, 2025-05-13)"
   xmlns:inkscape="http://www.inkscape.org/namespaces/inkscape"
   xmlns:sodipodi="http://sodipodi.sourceforge.net/DTD/sodipodi-0.dtd"
   xmlns="http://www.w3.org/2000/svg"
   xmlns:svg="http://www.w3.org/2000/svg"><sodipodi:namedview
     id="namedview1"
     pagecolor="#ffffff"
     bordercolor="#000000"
     borderopacity="0.25"
     inkscape:showpageshadow="2"
     inkscape:pageopacity="0.0"
     inkscape:pagecheckerboard="0"
     inkscape:deskcolor="#d1d1d1"
     inkscape:document-units="mm"
     inkscape:zoom="4.6669634"
     inkscape:cx="61.281818"
     inkscape:cy="66.852892"
     inkscape:window-width="1920"
     inkscape:window-height="1057"
     inkscape:window-x="-8"
     inkscape:window-y="131"
     inkscape:window-maximized="1"
     inkscape:current-layer="svg1" /><defs
     id="defs1" /><g
     id="layer1"
     transform="translate(-62.254621,-256.79777)"><g
       id="g779"
       transform="matrix(1,0,0,0.84622252,-84.837739,55.596003)"
       style="stroke-width:1.08707"><path
         d="m 163.68514,259.8904 c -0.19047,-0.90197 -0.28733,-1.84172 -0.28732,-2.79053 -3e-5,-1.81618 0.35479,-3.59383 1.03508,-5.13095 0.49321,-1.11424 1.14228,-2.06084 1.89859,-2.78588 a 6.1025973,9.0094715 0 0 0 -4.57181,-3.04116 6.1025973,9.0094715 0 0 0 -5.10873,4.08089 6.1025973,9.0094715 0 0 0 -0.18966,0.45785 c 0.92904,0.75859 1.72163,1.83503 2.30012,3.14193 0.68029,1.53711 1.03719,3.31426 1.03715,5.13044 0,0.3121 -0.0105,0.62358 -0.0315,0.93276 a 11.75315,5.1231983 0 0 0 1.99265,0.0739 11.75315,5.1231983 0 0 0 1.92546,-0.0692 z"
         style="fill:#2c2c2c;stroke-width:1.08707;stroke-linecap:round;stroke-linejoin:round;paint-order:markers stroke fill"
         id="path737-0" /><path
         d="m 161.75968,237.76462 a 3.158237,3.7903905 0 0 0 -3.15847,3.78994 3.158237,3.7903905 0 0 0 3.15847,3.79047 3.158237,3.7903905 0 0 0 3.15846,-3.79047 3.158237,3.7903905 0 0 0 -3.15846,-3.78994 z"
         style="fill:#2c2c2c;stroke-width:1.08707;stroke-linecap:round;stroke-linejoin:round;paint-order:markers stroke fill"
         id="path738-0" /><path
         d="m 170,248.09112 a 6.1025973,9.0094715 0 0 0 -3.41581,1.54305 6.1025973,9.0094715 0 0 0 -1.69292,2.53783 6.1025973,9.0094715 0 0 0 -0.99374,4.92839 6.1025973,9.0094715 0 0 0 0.29094,2.74867 6.1025973,9.0094715 0 0 0 0.42685,1.49086 11.75315,5.1231983 0 0 0 5.38468,0.56896 11.75315,5.1231983 0 0 0 5.38469,-0.56896 6.1025973,9.0094715 0 0 0 0.71778,-4.23953 A 6.1025973,9.0094715 0 0 0 175.10873,252.172 6.1025973,9.0094715 0 0 0 170,248.09112 Z"
         style="baseline-shift:baseline;display:inline;overflow:visible;vector-effect:none;fill:#2c2c2c;stroke-width:1.08707;stroke-linecap:round;stroke-linejoin:round;paint-order:markers stroke fill;enable-background:accumulate;stop-color:#000000"
         id="path739-8" /><path
         d="M 170,239.71385 A 3.158237,3.7903905 0 0 0 166.84154,243.5038 3.158237,3.7903905 0 0 0 170,247.29427 3.158237,3.7903905 0 0 0 173.15846,243.5038 3.158237,3.7903905 0 0 0 170,239.71385 Z"
         style="baseline-shift:baseline;display:inline;overflow:visible;vector-effect:none;fill:#2c2c2c;stroke-width:1.08707;stroke-linecap:round;stroke-linejoin:round;paint-order:markers stroke fill;enable-background:accumulate;stop-color:#000000"
         id="path740-3" /><path
         d="m 153.19534,249.94423 a 6.1025973,9.0094715 0 0 0 -5.10873,4.08141 6.1025973,9.0094715 0 0 0 -0.99425,4.92786 6.1025973,9.0094715 0 0 0 0.71778,4.23954 11.75315,5.1231983 0 0 0 5.3852,0.56947 11.75315,5.1231983 0 0 0 5.38469,-0.56947 6.1025973,9.0094715 0 0 0 0.68781,-3.34967 6.1025973,9.0094715 0 0 0 0.03,-0.88987 6.1025973,9.0094715 0 0 0 -0.99374,-4.92786 6.1025973,9.0094715 0 0 0 -2.02261,-2.84427 6.1025973,9.0094715 0 0 0 -3.08612,-1.23714 z"
         style="baseline-shift:baseline;display:inline;overflow:visible;vector-effect:none;fill:#2c2c2c;stroke-width:1.08707;stroke-linecap:round;stroke-linejoin:round;paint-order:markers stroke fill;enable-background:accumulate;stop-color:#000000"
         id="path742-4" /><path
         d="m 153.19534,241.56697 a 3.158237,3.7903905 0 0 0 -3.15846,3.79046 3.158237,3.7903905 0 0 0 3.15846,3.79047 3.158237,3.7903905 0 0 0 3.15795,-3.79047 3.158237,3.7903905 0 0 0 -3.15795,-3.79046 z"
         style="baseline-shift:baseline;display:inline;overflow:visible;vector-effect:none;fill:#2c2c2c;stroke-width:1.08707;stroke-linecap:round;stroke-linejoin:round;paint-order:markers stroke fill;enable-background:accumulate;stop-color:#000000"
         id="path741-5" /></g><text
       xml:space="preserve"
       style="font-style:normal;font-variant:normal;font-weight:normal;font-stretch:normal;font-size:4.56036px;line-height:1;font-family:poppins;-inkscape-font-specification:poppins;text-align:center;letter-spacing:0px;writing-mode:lr-tb;direction:ltr;text-anchor:middle;fill:#2c2c2c;fill-opacity:1;stroke:none;stroke-width:0.999998;stroke-linecap:round;stroke-linejoin:round;stroke-opacity:1;paint-order:markers stroke fill"
       x="76.691269"
       y="282.84229"
       id="text695-4-8"><tspan
         id="tspan695-8-3"
         style="text-align:center;text-anchor:middle;fill:#2c2c2c;fill-opacity:1;stroke-width:0.999998"
         x="76.691269"
         y="282.84229">COMMUNITY</tspan><tspan
         style="text-align:center;text-anchor:middle;fill:#2c2c2c;fill-opacity:1;stroke-width:0.999998"
         x="76.691269"
         y="287.40265"
         id="tspan696-2-7">SCIENCE</tspan><tspan
         style="text-align:center;text-anchor:middle;fill:#2c2c2c;fill-opacity:1;stroke-width:0.999998"
         x="76.691269"
         y="291.96301"
         id="tspan697-1-1">MUSEUM</tspan></text></g></svg>
