<?xml version="1.0" encoding="UTF-8" standalone="no"?>
<!-- Created with Inkscape (http://www.inkscape.org/) -->

<svg
   width="210mm"
   height="297mm"
   viewBox="0 0 210 297"
   version="1.1"
   id="svg1"
   xml:space="preserve"
   sodipodi:docname="desing-ideas.svg"
   inkscape:version="1.4.2 (f4327f4, 2025-05-13)"
   xmlns:inkscape="http://www.inkscape.org/namespaces/inkscape"
   xmlns:sodipodi="http://sodipodi.sourceforge.net/DTD/sodipodi-0.dtd"
   xmlns="http://www.w3.org/2000/svg"
   xmlns:svg="http://www.w3.org/2000/svg"><sodipodi:namedview
     id="namedview1"
     pagecolor="#ffffff"
     bordercolor="#000000"
     borderopacity="0.25"
     inkscape:showpageshadow="2"
     inkscape:pageopacity="0.0"
     inkscape:pagecheckerboard="0"
     inkscape:deskcolor="#d1d1d1"
     inkscape:document-units="mm"
     showguides="false"
     showgrid="true"
     inkscape:zoom="2"
     inkscape:cx="424.5"
     inkscape:cy="612"
     inkscape:window-width="3440"
     inkscape:window-height="1417"
     inkscape:window-x="1912"
     inkscape:window-y="-8"
     inkscape:window-maximized="1"
     inkscape:current-layer="layer1"><inkscape:grid
       id="grid599"
       units="mm"
       originx="0"
       originy="0"
       spacingx="0.99999998"
       spacingy="1"
       empcolor="#0099e5"
       empopacity="0.30196078"
       color="#0099e5"
       opacity="0.14901961"
       empspacing="5"
       enabled="true"
       visible="true" /></sodipodi:namedview><defs
     id="defs1"><inkscape:path-effect
       effect="fillet_chamfer"
       id="path-effect522"
       is_visible="true"
       lpeversion="1"
       nodesatellites_param="F,0,0,1,0,3.8678007,0,1 @ F,0,0,1,0,5.37487,0,1 @ F,0,0,1,0,5.37487,0,1"
       radius="0"
       unit="px"
       method="auto"
       mode="F"
       chamfer_steps="1"
       flexible="false"
       use_knot_distance="true"
       apply_no_radius="true"
       apply_with_radius="true"
       only_selected="false"
       hide_knots="false" /><inkscape:path-effect
       effect="fillet_chamfer"
       id="path-effect522-4"
       is_visible="true"
       lpeversion="1"
       nodesatellites_param="F,0,0,1,0,3.8678007,0,1 @ F,0,0,1,0,5.37487,0,1 @ F,0,0,1,0,5.37487,0,1"
       radius="0"
       unit="px"
       method="auto"
       mode="F"
       chamfer_steps="1"
       flexible="false"
       use_knot_distance="true"
       apply_no_radius="true"
       apply_with_radius="true"
       only_selected="false"
       hide_knots="false" /></defs><g
     inkscape:label="Layer 1"
     inkscape:groupmode="layer"
     id="layer1"><text
       xml:space="preserve"
       style="font-style:normal;font-variant:normal;font-weight:normal;font-stretch:normal;font-size:11.1237px;line-height:1;font-family:poppins;-inkscape-font-specification:poppins;text-align:center;letter-spacing:0px;writing-mode:lr-tb;direction:ltr;text-anchor:middle;fill:#2141ca;fill-opacity:1;stroke:#7df184;stroke-width:0.264584;stroke-linecap:round;stroke-linejoin:round;paint-order:markers stroke fill"
       x="100.80441"
       y="86.770691"
       id="text443"
       transform="scale(0.9842543,1.0159976)"><tspan
         sodipodi:role="line"
         id="tspan443"
         style="stroke-width:0.264584"
         x="100.80441"
         y="86.770691">Community Science Museum</tspan></text><g
       id="g598"
       transform="translate(91.210468,5.0136812)"><path
         d="m 55.573171,19.447654 c -1.31781,0 -2.46352,0.283545 -3.43648,0.850077 -0.97296,0.554217 -1.72403,1.336204 -2.253611,2.34611 -0.517269,1.009906 -0.775661,2.161398 -0.775661,3.45457 0,1.293173 0.258392,2.444663 0.775661,3.454569 0.529581,1.009907 1.280651,1.798181 2.253611,2.364714 0.97296,0.554217 2.11867,0.831473 3.43648,0.831473 0.37867,0 0.74385,-0.02297 1.09503,-0.06976 V 28.65433 c -0.341,0.205107 -0.73075,0.307475 -1.16892,0.307475 -0.68969,0 -1.23793,-0.258394 -1.64435,-0.775664 -0.39411,-0.517269 -0.59118,-1.213295 -0.59118,-2.087727 0,-0.874432 0.19707,-1.570458 0.59118,-2.087728 0.40642,-0.517268 0.95466,-0.775664 1.64435,-0.775664 0.43817,0 0.82792,0.108096 1.16892,0.324012 0.003,0.0021 0.007,0.0041 0.01,0.0062 0.0198,0.01272 0.0394,0.02582 0.0589,0.03927 0.36948,0.234003 0.65251,0.566297 0.84956,0.997355 h 4.32325 c -0.0394,-0.220452 -0.0875,-0.434669 -0.14418,-0.643372 -0.002,-0.0079 -0.004,-0.01587 -0.006,-0.02377 -0.20969,-0.76115 -0.53546,-1.444162 -0.97668,-2.048453 -0.40057,-0.560793 -0.8911,-1.027865 -1.47175,-1.401982 -0.006,-0.0037 -0.0113,-0.0077 -0.017,-0.01137 -0.21762,-0.139091 -0.44813,-0.26519 -0.69092,-0.378271 -0.0808,-0.03929 -0.16259,-0.07643 -0.24546,-0.112138 -0.51958,-0.223888 -1.07943,-0.377744 -1.67948,-0.460954 -0.35423,-0.04912 -0.72259,-0.0739 -1.10485,-0.0739 z"
         style="font-size:18.4739px;line-height:1;font-family:poppins;-inkscape-font-specification:poppins;text-align:center;letter-spacing:0px;text-anchor:middle;fill:#2c2c2c;stroke-width:0.264583;stroke-linecap:round;stroke-linejoin:round;paint-order:markers stroke fill"
         id="path479" /><path
         d="m 70.186231,20.132366 c 0.0148,0.134574 0.0248,0.271888 0.03,0.411861 a 0.28252825,0.28252825 0 0 1 -0.28319,0.293005 h -2.4877 l -0.31626,0.885218 c 0.41782,0.176994 0.78593,0.35038 1.10587,0.521415 l 0.002,0.0016 c 0.57703,0.302082 1.07757,0.724294 1.49397,1.257805 0.43666,0.559477 0.6506,1.264293 0.6506,2.076359 0,0.846779 -0.21133,1.62517 -0.63303,2.310453 a 0.28252825,0.28252825 0 0 1 0,0.0021 c -0.28772,0.458545 -0.66617,0.84979 -1.12707,1.171505 v 4.148067 h 4.08244 V 20.132366 Z"
         style="font-size:18.4739px;line-height:1;font-family:poppins;-inkscape-font-specification:poppins;text-align:center;letter-spacing:0px;text-anchor:middle;fill:#2c2c2c;stroke-width:0.264583;stroke-linecap:round;stroke-linejoin:round;paint-order:markers stroke fill"
         id="path469" /><path
         d="m 67.737291,29.55298 c -0.75805,0.32572 -1.63516,0.483691 -2.62568,0.483691 -1.21085,0 -2.27943,-0.213333 -3.1936,-0.645955 l 1.17977,3.820955 h 3.50986 z"
         style="font-size:18.4739px;line-height:1;font-family:poppins;-inkscape-font-specification:poppins;text-align:center;letter-spacing:0px;text-anchor:middle;fill:#2c2c2c;stroke-width:0.264583;stroke-linecap:round;stroke-linejoin:round;paint-order:markers stroke fill"
         id="path468" /><path
         d="m 62.174321,24.222556 c 0.0232,0.105614 0.0447,0.212659 0.0641,0.32091 a 0.33253326,0.33253326 0 0 1 -0.32608,0.390674 h -4.32428 a 0.33253326,0.33253326 0 0 1 -0.30283,-0.19327 c -0.0853,-0.186497 -0.18567,-0.348165 -0.30282,-0.487825 v 4.292244 a 0.33253326,0.33253326 0 0 1 0.0186,0.109554 v 4.025077 a 0.33253326,0.33253326 0 0 1 -0.0186,0.107487 v 0.424264 h 4.10104 l 5.2e-4,-4.306714 c -0.005,-0.0035 -0.0101,-0.0073 -0.015,-0.01085 a 0.28252825,0.28252825 0 0 1 -0.004,-0.0021 c -1.07621,-0.787471 -1.66949,-1.963039 -1.75959,-3.443201 a 0.28252825,0.28252825 0 0 1 0.28319,-0.298689 h 4.26072 l -0.11951,-0.327598 c -0.0437,-0.01567 -0.0886,-0.03114 -0.13384,-0.04703 a 0.28252825,0.28252825 0 0 1 -0.002,0 c -0.52739,-0.186136 -1.0002,-0.370201 -1.41955,-0.552937 z"
         style="font-size:18.4739px;line-height:1;font-family:poppins;-inkscape-font-specification:poppins;text-align:center;letter-spacing:0px;text-anchor:middle;fill:#2c2c2c;stroke-width:0.264583;stroke-linecap:round;stroke-linejoin:round;paint-order:markers stroke fill"
         id="path489" /><path
         d="m 64.631021,16.32433 c -0.94834,0 -1.80421,0.153573 -2.5678,0.46147 -0.75127,0.307899 -1.34876,0.763878 -1.79214,1.367359 -0.42757,0.586387 -0.6425,1.3001 -0.64596,2.140954 0.55772,0.381038 1.03584,0.848981 1.42937,1.399915 0.46432,0.636847 0.80815,1.35672 1.02733,2.152323 a 0.33253326,0.33253326 0 0 1 0.002,0.0078 c 0.002,0.0062 0.003,0.01187 0.004,0.01757 l 5.2e-4,0.0021 c 0,0 5.1e-4,0 5.1e-4,0 0.45879,0.208088 0.99183,0.419457 1.59991,0.634069 0.70201,0.246319 1.2188,0.468021 1.55132,0.665076 0.33254,0.18474 0.4992,0.431075 0.4992,0.738973 0,0.221686 -0.0802,0.388351 -0.2403,0.499194 -0.1478,0.09853 -0.33281,0.147795 -0.55449,0.147795 -0.60344,0 -0.93574,-0.375791 -0.99735,-1.127063 h -4.35994 c 0.0862,1.416332 0.63443,2.493922 1.64434,3.232878 1.02222,0.726641 2.31521,1.089856 3.87935,1.089856 1.03452,0 1.92764,-0.178206 2.67891,-0.535368 0.75128,-0.357161 1.32413,-0.849833 1.71824,-1.477946 0.3941,-0.640428 0.59066,-1.361088 0.59066,-2.161625 0,-0.763586 -0.19656,-1.397774 -0.59066,-1.902727 -0.39411,-0.504953 -0.86214,-0.899089 -1.40405,-1.182356 -0.52959,-0.283266 -1.20727,-0.57887 -2.03243,-0.886768 -0.71433,-0.270951 -1.23791,-0.498941 -1.57045,-0.683679 -0.3202,-0.197055 -0.48007,-0.443391 -0.48007,-0.738973 0,-0.209372 0.0556,-0.36923 0.16639,-0.480074 0.11085,-0.123158 0.25236,-0.185002 0.42478,-0.185002 0.24633,0 0.45546,0.08019 0.62787,0.240296 0.1724,0.160107 0.26515,0.424789 0.27751,0.794266 h 4.41523 c -0.0492,-1.342437 -0.54822,-2.382817 -1.49655,-3.121773 -0.93601,-0.738955 -2.20438,-1.108459 -3.80545,-1.108459 z"
         style="font-size:18.4739px;line-height:1;font-family:poppins;-inkscape-font-specification:poppins;text-align:center;letter-spacing:0px;text-anchor:middle;fill:#2c2c2c;stroke-width:0.264583;stroke-linecap:round;stroke-linejoin:round;paint-order:markers stroke fill"
         id="path488" /></g><g
       id="g597"
       transform="translate(-63.417487,92.671297)"><g
         id="g596"><g
           id="g522"
           transform="translate(-30.920332,-136.33452)"><path
             d="m 136.98494,152.96073 v 5.78621 0.87799 c 0.92729,0.39181 1.69911,0.76977 2.32131,1.13946 l 0.002,0.002 c 0.70631,0.4107 1.31571,0.98235 1.82211,1.70326 0.52786,0.75146 0.7829,1.68901 0.7829,2.77915 0,1.13804 -0.25227,2.17901 -0.76326,3.10162 a 0.33253326,0.33253326 0 0 1 -0.002,0.004 c -0.51377,0.90979 -1.26894,1.62875 -2.23862,2.14096 -0.17948,0.0948 -0.36478,0.1808 -0.55604,0.25786 h 3.65301 v -8.87079 l 2.46496,8.87078 h 4.29742 l 2.46548,-8.87078 v 8.87078 h 4.99866 v -17.7922 h -6.12986 l -3.43751,10.68049 -3.52847,-10.68049 h -4.88187 z"
             style="font-size:23.841px;line-height:1;font-family:poppins;-inkscape-font-specification:poppins;text-align:center;letter-spacing:0px;text-anchor:middle;fill:#2c2c2c;stroke-width:0.665;stroke-linecap:round;stroke-linejoin:round;paint-order:markers stroke fill"
             id="path516" /><path
             d="m 134.88688,152.65894 c -1.16104,0 -2.20913,0.20955 -3.144,0.62839 -0.44265,0.20157 -0.84154,0.44992 -1.19682,0.74466 -0.38297,0.31769 -0.71525,0.68932 -0.99684,1.11517 -0.52775,0.80418 -0.79168,1.78387 -0.79168,2.93987 -0.0101,0.77428 0.0912,1.45473 0.30437,2.04122 0.10509,0.28916 0.23754,0.5555 0.39687,0.79892 0.48252,0.73716 1.05531,1.29829 1.71876,1.68362 0.53339,0.30291 1.17412,0.6108 1.92185,0.92397 h 0.28732 a 0.33253326,0.33253326 0 0 1 0.32091,0.2465 c 0.009,0.003 0.0172,0.007 0.0258,0.0103 0.85948,0.33507 1.49251,0.6368 1.89963,0.90485 0.40712,0.25131 0.61081,0.58627 0.61081,1.00511 0,0.30157 -0.098,0.52773 -0.29404,0.67851 -0.18094,0.13403 -0.40709,0.20102 -0.67851,0.20102 -0.73884,0 -1.14623,-0.51075 -1.22163,-1.53272 h -0.57516 c -0.26574,0.99186 -0.66165,1.89206 -1.18959,2.69544 -0.42682,0.66342 -0.93668,1.24071 -1.52601,1.72858 1.24622,0.97093 2.8181,1.45676 4.716,1.45676 0.4158,0 0.81273,-0.0261 1.19114,-0.0786 0.77425,-0.10725 1.47041,-0.32425 2.08824,-0.65061 0.91979,-0.48585 1.62124,-1.15577 2.10375,-2.01021 0.48251,-0.87119 0.72347,-1.8514 0.72347,-2.94039 0,-1.03873 -0.24096,-1.90157 -0.72347,-2.58847 -0.48251,-0.6869 -1.05582,-1.22284 -1.71928,-1.60817 -0.64826,-0.38527 -1.47716,-0.78788 -2.48718,-1.20665 h -5.2e-4 c -0.87455,-0.36858 -1.51576,-0.67835 -1.92288,-0.92966 -0.39204,-0.26805 -0.58756,-0.60301 -0.58756,-1.0051 0,-0.28481 0.0674,-0.50241 0.20309,-0.65319 0.1357,-0.16754 0.30928,-0.25167 0.52038,-0.25167 0.30157,0 0.55785,0.1088 0.76894,0.3266 0.21113,0.2178 0.32447,0.57846 0.33952,1.08107 h 0.67903 v -5.45342 a 0.33253326,0.33253326 0 0 1 0.031,-0.14004 c -0.55483,-0.10792 -1.15351,-0.16175 -1.79576,-0.16175 z"
             style="font-size:23.841px;line-height:1;font-family:poppins;-inkscape-font-specification:poppins;text-align:center;letter-spacing:0px;text-anchor:middle;fill:#2c2c2c;stroke-width:0.665;stroke-linecap:round;stroke-linejoin:round;paint-order:markers stroke fill"
             id="path520" /><path
             d="m 125.62853,152.78452 c -1.6134,0 -3.01578,0.38533 -4.20698,1.156 -1.1912,0.75391 -2.11063,1.81773 -2.75901,3.19153 -0.63329,1.3738 -0.94981,2.94033 -0.94981,4.69946 0,1.75913 0.31652,3.32565 0.94981,4.69945 0.64838,1.3738 1.56781,2.44619 2.75901,3.21686 1.1912,0.75392 2.59358,1.13068 4.20698,1.13068 1.38722,0 2.62368,-0.28459 3.70933,-0.85421 0.31651,-0.16861 0.61548,-0.35638 0.8971,-0.56379 0.69779,-0.5139 1.28857,-1.14713 1.77199,-1.89911 0.5505,-0.8377 0.95367,-1.78645 1.20974,-2.84582 0.0562,-0.23249 0.10527,-0.46997 0.14728,-0.71313 0.008,-0.0449 0.0155,-0.0902 0.0227,-0.1354 h -0.35347 -4.93923 c -0.24126,0.58638 -0.58789,1.04727 -1.04025,1.38235 -0.43727,0.31832 -0.94268,0.47749 -1.51567,0.47749 -0.84439,0 -1.5152,-0.35158 -2.01279,-1.05523 -0.48251,-0.70366 -0.72399,-1.65063 -0.72399,-2.84014 0,-1.18951 0.24148,-2.13597 0.72399,-2.83962 0.49759,-0.70365 1.1684,-1.05523 2.01279,-1.05523 0.57299,0 1.0784,0.16722 1.51567,0.50229 0.45236,0.31832 0.79899,0.77065 1.04025,1.35702 h 0.51831 c -0.1336,-0.51816 -0.19483,-1.0895 -0.18706,-1.70945 v -0.002 c 1e-5,-8.5e-4 -1e-5,-8.2e-4 0,-0.002 6.5e-4,-1.20484 0.27828,-2.25343 0.84542,-3.11764 a 0.33253326,0.33253326 0 0 1 0,-0.002 c 0.21838,-0.33025 0.46672,-0.63064 0.74414,-0.90072 -0.21607,-0.14404 -0.4416,-0.27715 -0.67696,-0.39894 -1.08565,-0.58638 -2.32211,-0.87954 -3.70933,-0.87954 z"
             style="font-size:23.841px;line-height:1;font-family:poppins;-inkscape-font-specification:poppins;text-align:center;letter-spacing:0px;text-anchor:middle;fill:#2c2c2c;stroke-width:0.665;stroke-linecap:round;stroke-linejoin:round;paint-order:markers stroke fill"
             id="path512" /></g></g><path
         id="rect520"
         style="fill:#2c2c2c;stroke:none;stroke-width:0.780516;stroke-linecap:round;stroke-linejoin:round;paint-order:markers stroke fill"
         d="m 141.16053,145.21298 15.3631,5.26954 a 0.89616447,0.89616447 99.465981 0 1 -0.29076,1.74385 h -37.46181 a 0.89616483,0.89616483 80.534015 0 1 -0.29076,-1.74385 l 15.36309,-5.26954 a 11.276388,11.276388 180 0 1 7.31714,0 z"
         sodipodi:nodetypes="cccc"
         inkscape:path-effect="#path-effect522"
         inkscape:original-d="m 137.50196,143.95809 24.10578,8.26828 h -48.21155 z"
         transform="matrix(1.2281903,0,0,1,-62.296942,-136.33452)" /><rect
         style="fill:#2c2c2c;fill-opacity:1;stroke:none;stroke-width:0.865001;stroke-linecap:round;stroke-linejoin:round;paint-order:markers stroke fill"
         id="rect522"
         width="48.211552"
         height="4.3943882"
         x="82.475853"
         y="35.032059"
         ry="1.3890646"
         rx="1.3890646" /></g><g
       id="g595"
       transform="matrix(0.78639046,0,0,0.78639046,-33.107876,13.051996)"
       style="stroke-width:1.27163"><path
         d="m 175.76996,123.28227 h 3.57291 a 3.5902479,3.5902483 0 0 1 -3.57291,-3.57446 z"
         style="fill:#ff634d;stroke:#2c2c2c;stroke-width:0.134805;stroke-linecap:round;stroke-linejoin:round;paint-order:markers stroke fill"
         id="path587" /><path
         d="m 184.61283,118.01747 a 5.2887908,5.2887915 0 0 1 -5.26428,5.2648 h 5.26428 z"
         style="fill:#03b1a8;stroke:#2c2c2c;stroke-width:0.134805;stroke-linecap:round;stroke-linejoin:round;paint-order:markers stroke fill"
         id="path586" /><path
         d="m 177.46081,119.70781 h -1.69085 a 3.5902479,3.5902483 0 0 0 3.57291,3.57446 h 0.002 v -3.57446 z"
         style="fill:#24906e;stroke:#2c2c2c;stroke-width:0.134805;stroke-linecap:round;stroke-linejoin:round;paint-order:markers stroke fill"
         id="path585" /><path
         d="m 175.76996,118.01644 v 1.69137 a 1.6985408,1.698541 0 0 1 1.69085,-1.69137 z"
         style="fill:#2c2c2c;stroke:#2c2c2c;stroke-width:0.134805;stroke-linecap:round;stroke-linejoin:round;paint-order:markers stroke fill"
         id="path584" /><path
         d="m 177.46081,118.01644 a 1.6985408,1.698541 0 0 0 -1.69085,1.69137 h 1.69085 z"
         style="fill:#feec06;stroke:#2c2c2c;stroke-width:0.134805;stroke-linecap:round;stroke-linejoin:round;paint-order:markers stroke fill"
         id="path583" /><path
         d="m 179.34442,119.70781 v -1.69137 h -1.88258 a 1.8917061,1.698538 0 0 1 1.88258,1.69137 z"
         style="fill:#6c5e5d;stroke:#2c2c2c;stroke-width:0.134805;stroke-linecap:round;stroke-linejoin:round;paint-order:markers stroke fill"
         id="path582" /><path
         d="m 177.46081,118.01644 v 1.69137 h 1.88361 a 1.8917061,1.698538 0 0 0 -1.88361,-1.69137 z"
         style="fill:#ffb395;stroke:#2c2c2c;stroke-width:0.134805;stroke-linecap:round;stroke-linejoin:round;paint-order:markers stroke fill"
         id="path581" /><path
         d="m 179.347,118.01644 v 5.26583 h 0.002 a 5.2887908,5.2887915 0 0 0 5.26428,-5.26583 z"
         style="fill:#7df184;stroke:#2c2c2c;stroke-width:0.134805;stroke-linecap:round;stroke-linejoin:round;paint-order:markers stroke fill"
         id="path580" /><path
         d="m 175.76996,109.17357 v 8.84287 h 1.69085 a 1.8917061,1.698538 0 0 1 0.001,0 h 1.88258 0.003 5.26583 a 8.8816214,8.8816224 0 0 0 -8.84287,-8.84287 z"
         style="fill:#fcba59;stroke:#2c2c2c;stroke-width:0.134805;stroke-linecap:round;stroke-linejoin:round;paint-order:markers stroke fill"
         id="path579" /><path
         d="m 175.76996,109.17357 a 8.8816214,8.8816224 0 0 1 8.84287,8.84235 v -8.84235 z"
         style="fill:#7b45a5;stroke:#2c2c2c;stroke-width:0.134805;stroke-linecap:round;stroke-linejoin:round;paint-order:markers stroke fill"
         id="path578" /><path
         d="m 161.66074,109.17357 v 14.1087 a 14.170413,14.170415 0 0 1 14.10922,-14.1087 z"
         style="fill:#fb882d;stroke:#2c2c2c;stroke-width:0.134805;stroke-linecap:round;stroke-linejoin:round;paint-order:markers stroke fill"
         id="path577" /><path
         d="m 175.76996,109.17357 a 14.170413,14.170415 0 0 0 -14.10922,14.1087 h 8.84184 a 8.8816232,8.8816214 0 0 1 0.002,0 5.2887919,5.2887908 0 0 1 0.002,0 h 5.26428 v -3.57446 -1.69137 z"
         style="fill:#cf3046;stroke:#2c2c2c;stroke-width:0.134805;stroke-linecap:round;stroke-linejoin:round;paint-order:markers stroke fill"
         id="path576" /><path
         d="m 175.76996,128.55171 a 3.5902486,3.5902479 0 0 1 -3.57498,3.57343 h 3.57498 z"
         style="fill:#03b1a8;stroke:#2c2c2c;stroke-width:0.134805;stroke-linecap:round;stroke-linejoin:round;paint-order:markers stroke fill"
         id="path595" /><path
         d="m 175.76996,128.55068 h -3.57498 v 1.88361 1.69085 a 3.5902486,3.5902479 0 0 0 3.57498,-3.57446 z"
         style="fill:#4f4e53;stroke:#2c2c2c;stroke-width:0.134805;stroke-linecap:round;stroke-linejoin:round;paint-order:markers stroke fill"
         id="path594" /><path
         d="m 172.19498,132.12514 a 1.6985411,1.6985408 0 0 1 -1.69085,-1.69085 v 1.69085 z"
         style="fill:#3b5fcf;stroke:#2c2c2c;stroke-width:0.134805;stroke-linecap:round;stroke-linejoin:round;paint-order:markers stroke fill"
         id="path593" /><path
         d="m 172.19498,132.12514 v -1.69085 h -1.69085 a 1.6985411,1.6985408 0 0 0 1.69085,1.69085 z"
         style="fill:#ffb395;stroke:#2c2c2c;stroke-width:0.134805;stroke-linecap:round;stroke-linejoin:round;paint-order:markers stroke fill"
         id="path592" /><path
         d="m 170.50413,130.43429 h 1.69085 v -1.88361 a 1.6985381,1.8917061 0 0 0 -1.69085,1.88361 z"
         style="fill:#ff634d;stroke:#2c2c2c;stroke-width:0.134805;stroke-linecap:round;stroke-linejoin:round;paint-order:markers stroke fill"
         id="path591" /><path
         d="m 170.50413,130.43274 a 1.6985381,1.8917061 0 0 1 1.69085,-1.88206 h -1.69085 z"
         style="fill:#cf3046;stroke:#2c2c2c;stroke-width:0.134805;stroke-linecap:round;stroke-linejoin:round;paint-order:markers stroke fill"
         id="path590" /><path
         d="m 170.50413,123.28227 v 5.26583 h 5.26583 a 5.2887919,5.2887908 0 0 0 -5.26583,-5.26583 z"
         style="fill:#029dd5;stroke:#2c2c2c;stroke-width:0.134805;stroke-linecap:round;stroke-linejoin:round;paint-order:markers stroke fill"
         id="path589" /><path
         d="m 170.50568,123.28227 a 5.2887919,5.2887908 0 0 1 5.26428,5.26531 v -5.26531 z"
         style="fill:#5d8acd;stroke:#2c2c2c;stroke-width:0.134805;stroke-linecap:round;stroke-linejoin:round;paint-order:markers stroke fill"
         id="path588" /><path
         d="m 198.72153,123.28227 a 23.052038,23.052033 0 0 1 -14.1087,21.14651 23.052038,23.052033 0 0 1 -4.42144,1.35754 23.052038,23.052033 0 0 1 -4.42143,0.44752 h 8.84235 5.2e-4 14.1087 z"
         style="fill:#fa9bed;stroke:#2c2c2c;stroke-width:0.134805;stroke-linecap:round;stroke-linejoin:round;paint-order:markers stroke fill"
         id="path575" /><path
         d="m 175.76996,123.28227 v 5.26531 a 5.2887919,5.2887908 0 0 1 0,5.2e-4 v 0.003 a 3.5902486,3.5902479 0 0 1 0,0.001 v 3.57343 12.30364 1.80506 a 23.052038,23.052033 0 0 0 4.42092,-0.44752 23.052033,23.052036 0 0 0 5.1e-4,0 23.052038,23.052033 0 0 0 4.42144,-1.35754 23.052038,23.052033 0 0 0 14.1087,-21.14651 h -14.1087 z"
         style="fill:#fcfd0c;stroke:#2c2c2c;stroke-width:0.134805;stroke-linecap:round;stroke-linejoin:round;paint-order:markers stroke fill"
         id="path574" /><path
         d="m 161.66074,132.12514 a 14.170416,14.170413 0 0 0 14.10922,14.1087 v -1.80506 -12.30364 h -3.57498 -1.69085 -7.03781 z"
         style="fill:#d93490;stroke:#2c2c2c;stroke-width:0.134805;stroke-linecap:round;stroke-linejoin:round;paint-order:markers stroke fill"
         id="path573" /><path
         d="m 170.50413,123.28227 a 8.8816232,8.8816214 0 0 0 -8.14007,5.42602 8.8816232,8.8816214 0 0 0 -0.70332,3.41685 h 1.80558 7.03781 v -1.69085 a 1.6985381,1.8917061 0 0 1 0,-0.002 v -1.88206 -0.003 z"
         style="fill:#7df184;stroke:#2c2c2c;stroke-width:0.134805;stroke-linecap:round;stroke-linejoin:round;paint-order:markers stroke fill"
         id="path572" /><path
         d="m 161.66074,123.28227 v 8.84287 a 8.8816232,8.8816214 0 0 1 0.70332,-3.41685 8.8816232,8.8816214 0 0 1 8.13852,-5.42602 z"
         style="fill:#f16a7b;stroke:#2c2c2c;stroke-width:0.134805;stroke-linecap:round;stroke-linejoin:round;paint-order:markers stroke fill"
         id="path571" /><path
         d="m 175.76996,146.23384 a 14.170416,14.170413 0 0 1 -14.10922,-14.1087 v 14.1087 z"
         style="fill:#824080;stroke:#2c2c2c;stroke-width:0.134805;stroke-linecap:round;stroke-linejoin:round;paint-order:markers stroke fill"
         id="path570" /><path
         style="opacity:1;fill:none;fill-opacity:1;stroke:#2c2c2c;stroke-width:1.09996;stroke-linecap:round;stroke-linejoin:round;paint-order:markers stroke fill"
         d="m 167.63504,143.6233 -3.72275,6.11626 0.89296,1.85208"
         id="path569"
         sodipodi:nodetypes="ccc" /><path
         style="opacity:1;fill:none;fill-opacity:1;stroke:#2c2c2c;stroke-width:1.09996;stroke-linecap:round;stroke-linejoin:round;paint-order:markers stroke fill"
         d="m 162.73831,137.48366 -4.1177,0.24789"
         id="path568" /><path
         d="m 160.15282,125.01188 a 4.8490546,6.7258897 59.664394 0 0 -5.44566,2.15284 4.8490546,6.7258897 59.664394 0 0 -1.2547,7.54734 4.8490546,6.7258897 59.664394 0 0 0.15658,0.12713 l 3.52691,-3.52692 1.55443,1.55443 -2.86184,2.86184 a 4.8490546,6.7258897 59.664394 0 0 5.8322,-1.61024 4.8490546,6.7258897 59.664394 0 0 0.13591,-0.0987 14.170416,14.170413 0 0 0 13.97331,12.21424 23.052038,23.052033 0 0 0 4.42143,-0.44752 23.052033,23.052036 0 0 1 -4.42143,-1.35754 23.052033,23.052036 0 0 1 -12.23181,-12.13414 4.8490546,6.7258897 59.664394 0 0 0.1235,-0.1695 4.8490546,6.7258897 59.664394 0 0 0.154,-5.76037 4.8490546,6.7258897 59.664394 0 0 -0.28732,-0.27337 4.8490546,6.7258897 59.664394 0 0 -1.77974,-0.89762 4.8490546,6.7258897 59.664394 0 0 -0.0879,-0.0217 4.8490546,6.7258897 59.664394 0 0 -1.50792,-0.1602 z m -1.40921,2.99568 a 1.2628485,0.61973119 0 0 1 1.26297,0.6196 1.2628485,0.61973119 0 0 1 -1.26297,0.6196 1.2628485,0.61973119 0 0 1 -1.26298,-0.6196 1.2628485,0.61973119 0 0 1 1.26298,-0.6196 z"
         style="fill:#20ba34;stroke:none;stroke-width:0.134805;stroke-linecap:round;stroke-linejoin:round;paint-order:markers stroke fill"
         id="path565" /><path
         style="opacity:1;fill:none;fill-opacity:1;stroke:#2c2c2c;stroke-width:1.09996;stroke-linecap:round;stroke-linejoin:round;paint-order:markers stroke fill"
         d="m 169.93155,143.38957 -4.11654,7.13005 2.24539,3.88912"
         id="path566" /><path
         style="opacity:1;fill:none;fill-opacity:1;stroke:#2c2c2c;stroke-width:1.09996;stroke-linecap:round;stroke-linejoin:round;paint-order:markers stroke fill"
         d="m 165.03676,138.16405 -3.37577,2.84427 -4.03256,-0.1323"
         id="path567" /><text
         xml:space="preserve"
         style="font-style:normal;font-variant:normal;font-weight:normal;font-stretch:normal;font-size:16.5255px;line-height:1;font-family:poppins;-inkscape-font-specification:poppins;text-align:center;letter-spacing:0px;writing-mode:lr-tb;direction:ltr;text-anchor:middle;fill:#2c2c2c;fill-opacity:1;stroke:none;stroke-width:1.09996;stroke-linecap:round;stroke-linejoin:round;paint-order:markers stroke fill"
         x="180.19141"
         y="123.28246"
         id="text522"><tspan
           sodipodi:role="line"
           id="tspan522"
           style="stroke-width:1.09996"
           x="180.19141"
           y="123.28246">CSM</tspan></text></g><g
       id="g610"
       transform="translate(-120,-109.99999)"><path
         style="opacity:1;fill:none;fill-opacity:1;stroke:#2c2c2c;stroke-width:0.865;stroke-linecap:round;stroke-linejoin:round;paint-order:markers stroke fill"
         d="m 145,174.99999 v -20 h 10 l 5,-5 h 10 v -5 V 135 h -10 -5 l -5,4.99999 h -5 V 135 h -10"
         id="path600" /><path
         style="opacity:1;fill:none;fill-opacity:1;stroke:#2c2c2c;stroke-width:0.865;stroke-linecap:round;stroke-linejoin:round;paint-order:markers stroke fill"
         d="m 150,174.99999 v -15 l 10,1e-5 5,-5 10,-1e-5 V 130 h -20 l -5,5 v -5 h -15"
         id="path601"
         sodipodi:nodetypes="cccccccccc" /><path
         style="opacity:1;fill:none;fill-opacity:1;stroke:#2c2c2c;stroke-width:0.865;stroke-linecap:round;stroke-linejoin:round;paint-order:markers stroke fill"
         d="m 155,174.99999 v -10 h 10 l 5,-5 h 10 v -35 h -25 -20"
         id="path602" /><path
         style="opacity:1;fill:none;fill-opacity:1;stroke:#2c2c2c;stroke-width:0.865;stroke-linecap:round;stroke-linejoin:round;paint-order:markers stroke fill"
         d="m 160,174.99999 v -5 h 10 l 5,-5 h 10 v -45 L 135,120"
         id="path603" /><path
         style="opacity:1;fill:none;fill-opacity:1;stroke:#2c2c2c;stroke-width:0.865;stroke-linecap:round;stroke-linejoin:round;paint-order:markers stroke fill"
         d="m 140,174.99999 v -25 h 10 l 5,-5 h 10 v -5 h -10 l -5,5 h -10 v -5 h -5"
         id="path604" /><circle
         style="opacity:1;fill:#2c2c2c;fill-opacity:1;stroke:none;stroke-width:0.865;stroke-linecap:round;stroke-linejoin:round;paint-order:markers stroke fill"
         id="path605"
         cx="160"
         cy="170"
         r="1.1651582" /><circle
         style="fill:#2c2c2c;fill-opacity:1;stroke:none;stroke-width:0.865;stroke-linecap:round;stroke-linejoin:round;paint-order:markers stroke fill"
         id="path605-3"
         cx="170"
         cy="170"
         r="1.1651582" /><circle
         style="fill:#2c2c2c;fill-opacity:1;stroke:none;stroke-width:0.865;stroke-linecap:round;stroke-linejoin:round;paint-order:markers stroke fill"
         id="path605-0"
         cx="175"
         cy="165"
         r="1.1651582" /><circle
         style="fill:#2c2c2c;fill-opacity:1;stroke:none;stroke-width:0.865;stroke-linecap:round;stroke-linejoin:round;paint-order:markers stroke fill"
         id="path605-6"
         cx="185"
         cy="165"
         r="1.1651582" /><circle
         style="fill:#2c2c2c;fill-opacity:1;stroke:none;stroke-width:0.865;stroke-linecap:round;stroke-linejoin:round;paint-order:markers stroke fill"
         id="path605-9"
         cx="185"
         cy="120"
         r="1.1651582" /><circle
         style="fill:#2c2c2c;fill-opacity:1;stroke:none;stroke-width:0.865;stroke-linecap:round;stroke-linejoin:round;paint-order:markers stroke fill"
         id="path605-8"
         cx="155"
         cy="165"
         r="1.1651582" /><circle
         style="fill:#2c2c2c;fill-opacity:1;stroke:none;stroke-width:0.865;stroke-linecap:round;stroke-linejoin:round;paint-order:markers stroke fill"
         id="path605-5"
         cx="165"
         cy="165"
         r="1.1651582" /><circle
         style="fill:#2c2c2c;fill-opacity:1;stroke:none;stroke-width:0.865;stroke-linecap:round;stroke-linejoin:round;paint-order:markers stroke fill"
         id="path605-7"
         cx="170.16516"
         cy="160"
         r="1.1651582" /><circle
         style="fill:#2c2c2c;fill-opacity:1;stroke:none;stroke-width:0.865;stroke-linecap:round;stroke-linejoin:round;paint-order:markers stroke fill"
         id="path605-88"
         cx="180"
         cy="160"
         r="1.1651582" /><circle
         style="fill:#2c2c2c;fill-opacity:1;stroke:none;stroke-width:0.865;stroke-linecap:round;stroke-linejoin:round;paint-order:markers stroke fill"
         id="path605-98"
         cx="180"
         cy="125"
         r="1.1651582" /><circle
         style="fill:#2c2c2c;fill-opacity:1;stroke:none;stroke-width:0.865;stroke-linecap:round;stroke-linejoin:round;paint-order:markers stroke fill"
         id="path605-82"
         cx="150"
         cy="160"
         r="1.1651582" /><circle
         style="fill:#2c2c2c;fill-opacity:1;stroke:none;stroke-width:0.865;stroke-linecap:round;stroke-linejoin:round;paint-order:markers stroke fill"
         id="path605-81"
         cx="160"
         cy="160"
         r="1.1651582" /><circle
         style="fill:#2c2c2c;fill-opacity:1;stroke:none;stroke-width:0.865;stroke-linecap:round;stroke-linejoin:round;paint-order:markers stroke fill"
         id="path605-2"
         cx="165.16516"
         cy="155"
         r="1.1651582" /><circle
         style="fill:#2c2c2c;fill-opacity:1;stroke:none;stroke-width:0.865;stroke-linecap:round;stroke-linejoin:round;paint-order:markers stroke fill"
         id="path605-62"
         cx="175"
         cy="155"
         r="1.1651582" /><circle
         style="fill:#2c2c2c;fill-opacity:1;stroke:none;stroke-width:0.865;stroke-linecap:round;stroke-linejoin:round;paint-order:markers stroke fill"
         id="path605-24"
         cx="175"
         cy="130"
         r="1.1651582" /><circle
         style="fill:#2c2c2c;fill-opacity:1;stroke:none;stroke-width:0.865;stroke-linecap:round;stroke-linejoin:round;paint-order:markers stroke fill"
         id="path605-1"
         cx="155"
         cy="130"
         r="1.1651582" /><circle
         style="fill:#2c2c2c;fill-opacity:1;stroke:none;stroke-width:0.865;stroke-linecap:round;stroke-linejoin:round;paint-order:markers stroke fill"
         id="path605-29"
         cx="149.83484"
         cy="135"
         r="1.1651582" /><circle
         style="fill:#2c2c2c;fill-opacity:1;stroke:none;stroke-width:0.865;stroke-linecap:round;stroke-linejoin:round;paint-order:markers stroke fill"
         id="path605-39"
         cx="149.83484"
         cy="130"
         r="1.1651582" /><circle
         style="fill:#2c2c2c;fill-opacity:1;stroke:none;stroke-width:0.865;stroke-linecap:round;stroke-linejoin:round;paint-order:markers stroke fill"
         id="path605-53"
         cx="144.83484"
         cy="135"
         r="1.1651582" /><circle
         style="fill:#2c2c2c;fill-opacity:1;stroke:none;stroke-width:0.865;stroke-linecap:round;stroke-linejoin:round;paint-order:markers stroke fill"
         id="path605-86"
         cx="144.83484"
         cy="140"
         r="1.1651582" /><circle
         style="fill:#2c2c2c;fill-opacity:1;stroke:none;stroke-width:0.865;stroke-linecap:round;stroke-linejoin:round;paint-order:markers stroke fill"
         id="path605-94"
         cx="149.83484"
         cy="140"
         r="1.1651582" /><circle
         style="fill:#2c2c2c;fill-opacity:1;stroke:none;stroke-width:0.865;stroke-linecap:round;stroke-linejoin:round;paint-order:markers stroke fill"
         id="path605-825"
         cx="154.83484"
         cy="135"
         r="1.1651582" /><circle
         style="fill:#2c2c2c;fill-opacity:1;stroke:none;stroke-width:0.865;stroke-linecap:round;stroke-linejoin:round;paint-order:markers stroke fill"
         id="path605-25"
         cx="169.83484"
         cy="135"
         r="1.1651582" /><circle
         style="fill:#2c2c2c;fill-opacity:1;stroke:none;stroke-width:0.865;stroke-linecap:round;stroke-linejoin:round;paint-order:markers stroke fill"
         id="path605-396"
         cx="165"
         cy="140"
         r="1.1651582" /><circle
         style="fill:#2c2c2c;fill-opacity:1;stroke:none;stroke-width:0.865;stroke-linecap:round;stroke-linejoin:round;paint-order:markers stroke fill"
         id="path605-69"
         cx="165"
         cy="145"
         r="1.1651582" /><circle
         style="fill:#2c2c2c;fill-opacity:1;stroke:none;stroke-width:0.865;stroke-linecap:round;stroke-linejoin:round;paint-order:markers stroke fill"
         id="path605-65"
         cx="154.83484"
         cy="145"
         r="1.1651582" /><circle
         style="fill:#2c2c2c;fill-opacity:1;stroke:none;stroke-width:0.865;stroke-linecap:round;stroke-linejoin:round;paint-order:markers stroke fill"
         id="path605-4"
         cx="150"
         cy="150"
         r="1.1651582" /><circle
         style="fill:#2c2c2c;fill-opacity:1;stroke:none;stroke-width:0.865;stroke-linecap:round;stroke-linejoin:round;paint-order:markers stroke fill"
         id="path605-33"
         cx="140"
         cy="150"
         r="1.1651582" /><circle
         style="fill:#2c2c2c;fill-opacity:1;stroke:none;stroke-width:0.865;stroke-linecap:round;stroke-linejoin:round;paint-order:markers stroke fill"
         id="path605-8253"
         cx="145"
         cy="155"
         r="1.1651582" /><circle
         style="fill:#2c2c2c;fill-opacity:1;stroke:none;stroke-width:0.865;stroke-linecap:round;stroke-linejoin:round;paint-order:markers stroke fill"
         id="path605-21"
         cx="155.08258"
         cy="155"
         r="1.1651582" /><circle
         style="fill:#2c2c2c;fill-opacity:1;stroke:none;stroke-width:0.865;stroke-linecap:round;stroke-linejoin:round;paint-order:markers stroke fill"
         id="path605-15"
         cx="160"
         cy="150"
         r="1.1651582" /><circle
         style="fill:#2c2c2c;fill-opacity:1;stroke:none;stroke-width:0.865;stroke-linecap:round;stroke-linejoin:round;paint-order:markers stroke fill"
         id="path605-92"
         cx="170"
         cy="150"
         r="1.1651582" /></g><g
       id="g687"
       transform="matrix(0.70318183,0,0,0.70318183,57.775672,-1.0613261)"
       style="stroke-width:1.42211"><g
         id="g686"
         transform="translate(0,-0.99999794)"
         style="stroke-width:1.42211"><path
           id="rect520-8"
           style="fill:#2c2c2c;stroke:none;stroke-width:1.10998;stroke-linecap:round;stroke-linejoin:round;paint-order:markers stroke fill"
           d="m 141.16053,145.21298 15.3631,5.26954 a 0.89616447,0.89616447 99.465981 0 1 -0.29076,1.74385 h -37.46181 a 0.89616483,0.89616483 80.534015 0 1 -0.29076,-1.74385 l 15.36309,-5.26954 a 11.276388,11.276388 180 0 1 7.31714,0 z"
           sodipodi:nodetypes="cccc"
           inkscape:path-effect="#path-effect522-4"
           inkscape:original-d="m 137.50196,143.95809 24.10578,8.26828 h -48.21155 z"
           transform="matrix(1.2281903,0,0,1,-105.09329,-123.46124)" /><rect
           style="fill:#2c2c2c;fill-opacity:1;stroke:none;stroke-width:1.23012;stroke-linecap:round;stroke-linejoin:round;paint-order:markers stroke fill"
           id="rect522-8"
           width="48.211552"
           height="4.3943882"
           x="39.679508"
           y="60.802803"
           ry="1.9753988"
           rx="1.9753988" /></g><g
         id="g685"
         transform="matrix(0.64495103,0,0,0.64495103,2.5148373,-18.6593)"
         style="stroke-width:2.20499"><ellipse
           style="fill:#4f4e53;fill-opacity:1;stroke:none;stroke-width:1.90736;stroke-linecap:round;stroke-linejoin:round;paint-order:markers stroke fill"
           id="path599"
           cx="129.95515"
           cy="36.435478"
           transform="matrix(0.86855322,0.49559592,-0.50441705,0.86346016,0,0)"
           rx="22.699944"
           ry="22.566845" /><path
           d="m 95.012142,87.771037 v 5.78621 0.87799 c 0.92729,0.39181 1.69911,0.76977 2.32131,1.13946 l 0.002,0.002 c 0.70631,0.4107 1.31571,0.98235 1.82211,1.70326 0.52786,0.75146 0.7829,1.68901 0.7829,2.779153 0,1.13804 -0.25227,2.17901 -0.76326,3.10162 a 0.33253326,0.33253326 0 0 1 -0.002,0.004 c -0.51377,0.90979 -1.26894,1.62875 -2.23862,2.14096 -0.17948,0.0948 -0.36478,0.1808 -0.55604,0.25786 h 3.653008 v -8.870793 l 2.46496,8.870783 h 4.29742 l 2.46548,-8.870783 v 8.870783 h 4.99866 V 87.771337 h -6.12986 l -3.43751,10.68049 -3.52847,-10.68049 h -4.881868 z"
           style="font-size:23.841px;line-height:1;font-family:poppins;-inkscape-font-specification:poppins;text-align:center;letter-spacing:0px;text-anchor:middle;fill:#2c2c2c;stroke-width:1.46632;stroke-linecap:round;stroke-linejoin:round;paint-order:markers stroke fill"
           id="path516-3" /><path
           d="m 92.914082,87.469247 c -1.16104,0 -2.20913,0.20955 -3.144,0.62839 -0.44265,0.20157 -0.84154,0.44992 -1.19682,0.74466 -0.38297,0.31769 -0.71525,0.68932 -0.99684,1.11517 -0.52775,0.80418 -0.79168,1.78387 -0.79168,2.93987 -0.0101,0.77428 0.0912,1.45473 0.30437,2.04122 0.10509,0.28916 0.23754,0.5555 0.39687,0.79892 0.48252,0.73716 1.05531,1.29829 1.71876,1.68362 0.53339,0.30291 1.17412,0.6108 1.92185,0.92397 h 0.28732 a 0.33253326,0.33253326 0 0 1 0.32091,0.2465 c 0.009,0.003 0.0172,0.007 0.0258,0.0103 0.85948,0.33507 1.49251,0.6368 1.89963,0.90485 0.40712,0.25131 0.61081,0.586273 0.61081,1.005113 0,0.30157 -0.098,0.52773 -0.29404,0.67851 -0.18094,0.13403 -0.40709,0.20102 -0.67851,0.20102 -0.73884,0 -1.14623,-0.51075 -1.22163,-1.532723 h -0.57516 c -0.26574,0.991863 -0.66165,1.892063 -1.18959,2.695443 -0.42682,0.66342 -0.93668,1.24071 -1.52601,1.72858 1.24622,0.97093 2.8181,1.45676 4.716,1.45676 0.4158,0 0.81273,-0.0261 1.19114,-0.0786 0.77425,-0.10725 1.47041,-0.32425 2.08824,-0.65061 0.91979,-0.48585 1.62124,-1.15577 2.10375,-2.01021 0.48251,-0.87119 0.72347,-1.8514 0.72347,-2.94039 0,-1.038733 -0.24096,-1.901573 -0.72347,-2.588473 -0.48251,-0.6869 -1.05582,-1.22284 -1.71928,-1.60817 -0.64826,-0.38527 -1.47716,-0.78788 -2.48718,-1.20665 h -5.2e-4 c -0.87455,-0.36858 -1.51576,-0.67835 -1.92288,-0.92966 -0.39204,-0.26805 -0.58756,-0.60301 -0.58756,-1.0051 0,-0.28481 0.0674,-0.50241 0.20309,-0.65319 0.1357,-0.16754 0.30928,-0.25167 0.52038,-0.25167 0.30157,0 0.55785,0.1088 0.76894,0.3266 0.21113,0.2178 0.32447,0.57846 0.33952,1.08107 h 0.67903 v -5.45342 a 0.33253326,0.33253326 0 0 1 0.031,-0.14004 c -0.55483,-0.10792 -1.15351,-0.16175 -1.79576,-0.16175 z"
           style="font-size:23.841px;line-height:1;font-family:poppins;-inkscape-font-specification:poppins;text-align:center;letter-spacing:0px;text-anchor:middle;fill:#2c2c2c;stroke-width:1.46632;stroke-linecap:round;stroke-linejoin:round;paint-order:markers stroke fill"
           id="path520-4" /><path
           d="m 75.793823,95.418465 c -0.03586,0.396844 -0.05374,0.804517 -0.05374,1.223181 0,1.75913 0.316523,3.325652 0.949813,4.699454 0.64838,1.3738 1.567804,2.44619 2.759004,3.21686 1.1912,0.75392 2.593579,1.13068 4.206979,1.13068 1.38722,0 2.623684,-0.28459 3.709334,-0.85421 0.31651,-0.16861 0.615483,-0.35638 0.897103,-0.56379 0.122851,-0.0905 0.242419,-0.18429 0.358634,-0.28216 0.543884,-0.45802 1.01504,-0.99736 1.413351,-1.61695 0.5505,-0.8377 0.953675,-1.78645 1.209745,-2.845822 0.01804,-0.07463 0.0351,-0.149632 0.05168,-0.225309 0.03506,-0.160088 0.06708,-0.322717 0.0956,-0.487826 0.008,-0.0449 0.01554,-0.09019 0.02274,-0.135392 H 91.0606 90.267883 86.121366 c -0.24126,0.58638 -0.587886,1.047262 -1.040246,1.382349 -0.43727,0.31832 -0.94268,0.47749 -1.51567,0.47749 -0.242305,0 -0.47047,-0.0289 -0.684196,-0.0868 -0.465562,-0.12615 -0.863124,-0.38952 -1.193209,-0.79065 -2.073494,-1.391986 -4.04911,-2.813316 -5.894214,-4.241085 z"
           style="font-size:23.841px;line-height:1;font-family:poppins;-inkscape-font-specification:poppins;text-align:center;letter-spacing:0px;text-anchor:middle;fill:#2c2c2c;stroke-width:1.46632;stroke-linecap:round;stroke-linejoin:round;paint-order:markers stroke fill"
           id="path678" /><path
           d="m 78.858752,89.16665 c 1.059901,1.255013 2.303883,2.52592 3.701583,3.780648 0.302066,-0.133568 0.637146,-0.200504 1.005107,-0.200504 0.57299,0 1.0784,0.167225 1.51567,0.502295 0.45236,0.31832 0.798986,0.770653 1.040246,1.357023 h 0.518315 c -0.1336,-0.51816 -0.194839,-1.089507 -0.187069,-1.709457 v -0.0021 c 1e-5,-8.5e-4 -10e-6,-3.7e-4 0,-0.0015 6.5e-4,-1.20484 0.278287,-2.253429 0.845427,-3.117639 a 0.33253326,0.33253326 0 0 1 0,-0.0021 c 0.21838,-0.33025 0.46672,-0.630641 0.74414,-0.900721 -0.21607,-0.14404 -0.441601,-0.277152 -0.676961,-0.398942 -1.08565,-0.58638 -2.322114,-0.879532 -3.709334,-0.879532 v 5.16e-4 c -1.6134,0 -3.015779,0.385332 -4.206979,1.156002 -0.204612,0.129499 -0.401565,0.268208 -0.590145,0.415995 z"
           style="font-size:23.841px;line-height:1;font-family:poppins;-inkscape-font-specification:poppins;text-align:center;letter-spacing:0px;text-anchor:middle;fill:#2c2c2c;stroke-width:1.46632;stroke-linecap:round;stroke-linejoin:round;paint-order:markers stroke fill"
           id="path677" /><path
           d="m 96.068038,105.67882 c -0.418069,0.14303 -0.861735,0.24679 -1.329635,0.31161 -0.3949,0.0548 -0.80639,0.0822 -1.2361,0.0822 -0.07955,0 -0.15864,-9.1e-4 -0.237195,-0.003 a 36.91683,10.54403 29.657214 0 0 15.968532,6.94376 36.91683,10.54403 29.657214 0 0 17.83302,0.27802 36.91683,10.54403 29.657214 0 0 -6.98717,-13.12633 36.91683,10.54403 29.657214 0 0 -2.88303,-2.611725 22.499999,22.766202 89.999987 0 1 -2.69492,9.048025 25.693048,10.543968 29.590854 0 1 -8.57105,-0.70538 h -3.43235 a 0.33253326,0.33253326 0 0 1 -0.3204,-0.24391 l -0.25735,-0.92553 a 25.693048,10.543968 29.590854 0 1 -1.55494,-0.55965 v 1.39733 a 0.33253326,0.33253326 0 0 1 -0.33228,0.33176 h -3.65249 a 0.33253326,0.33253326 0 0 1 -0.312642,-0.21756 z"
           style="fill:#3b5fcf;stroke-width:1.90732;stroke-linecap:round;stroke-linejoin:round;paint-order:markers stroke fill"
           id="path669" /><path
           d="m 69.174072,74.574776 a 36.91683,10.54403 29.657214 0 0 -6.235795,2.125452 36.91683,10.54403 29.657214 0 0 9.160165,15.124141 36.91683,10.54403 29.657214 0 0 11.171927,8.363311 c 0.09502,0.0117 0.193576,0.0176 0.296106,0.0176 0.511414,0 0.936916,-0.13683 1.318266,-0.414442 0.399434,-0.296505 0.708103,-0.701744 0.929659,-1.240234 a 0.33253326,0.33253326 0 0 1 0.306441,-0.206706 H 88.93514 A 25.693048,10.543968 29.590854 0 1 75.083272,84.109595 22.499999,22.766202 89.999987 0 1 81.663749,77.279004 36.91683,10.54403 29.657214 0 0 77.934261,76.117318 36.91683,10.54403 29.657214 0 0 69.174072,74.574776 Z"
           style="fill:#3b5fcf;stroke-width:1.90732;stroke-linecap:round;stroke-linejoin:round;paint-order:markers stroke fill"
           id="path685" /></g></g><g
       id="g689"><circle
         style="opacity:1;fill:#3b5fcf;fill-opacity:1;stroke:none;stroke-width:1;stroke-linecap:round;stroke-linejoin:round;stroke-opacity:1;paint-order:markers stroke fill"
         id="path687"
         cx="135.13139"
         cy="124.05444"
         r="13.967873"
         transform="rotate(30)" /><path
         d="m 48.3935,162.69324 a 34.671652,7.8283154 30 0 0 -23.420122,-5.02927 34.671652,7.8283154 30 0 0 16.065277,17.76824 34.671652,7.8283154 30 0 0 10.046685,6.34704 34.671652,7.8283154 30 0 0 10.520949,5.52769 34.671652,7.8283154 30 0 0 23.420384,5.02881 34.671652,7.8283154 30 0 0 -16.065539,-17.76778 13.967873,13.967873 0 0 1 -0.342971,3.53856 22.603613,5.1035414 30 0 1 5.95687,8.19496 22.603613,5.1035414 30 0 1 -10.07574,-1.06087 22.603613,5.1035414 30 0 1 -12.051503,-5.8212 22.603613,5.1035414 30 0 1 -11.065714,-7.52553 22.603613,5.1035414 30 0 1 -5.957506,-8.19593 22.603613,5.1035414 30 0 1 10.076376,1.06184 13.967873,13.967873 0 0 1 2.892554,-2.06656 z"
         style="opacity:1;fill:#2c2c2c;stroke-linecap:round;stroke-linejoin:round;paint-order:markers stroke fill"
         id="path689" /></g><text
       xml:space="preserve"
       style="font-style:normal;font-variant:normal;font-weight:normal;font-stretch:normal;font-size:4.23333px;line-height:1;font-family:poppins;-inkscape-font-specification:poppins;text-align:center;letter-spacing:0px;writing-mode:lr-tb;direction:ltr;text-anchor:middle;opacity:1;fill:#24906e;fill-opacity:1;stroke:none;stroke-width:1;stroke-linecap:round;stroke-linejoin:round;stroke-opacity:1;paint-order:markers stroke fill"
       x="160.73427"
       y="153.66159"
       id="text695"><tspan
         sodipodi:role="line"
         id="tspan695"
         style="text-align:center;text-anchor:middle;stroke-width:1"
         x="160.73427"
         y="153.66159">COMMUNITY</tspan><tspan
         sodipodi:role="line"
         style="text-align:center;text-anchor:middle;stroke-width:1"
         x="160.73427"
         y="157.89493"
         id="tspan696">SCIENCE</tspan><tspan
         sodipodi:role="line"
         style="text-align:center;text-anchor:middle;stroke-width:1"
         x="160.73427"
         y="162.12825"
         id="tspan697">MUSEUM</tspan></text></g></svg>
