<?xml version="1.0" encoding="UTF-8" standalone="no"?>
<!-- Created with Inkscape (http://www.inkscape.org/) -->

<svg
   width="29.010107mm"
   height="22.000013mm"
   viewBox="0 0 29.010107 22.000013"
   version="1.1"
   id="svg1"
   xml:space="preserve"
   xmlns="http://www.w3.org/2000/svg"
   xmlns:svg="http://www.w3.org/2000/svg"><defs
     id="defs1" /><g
     id="layer1"
     transform="translate(-127.09236,-252.76463)"><g
       id="g1"
       transform="matrix(1,0,0,0.84622252,0,38.869504)"
       style="stroke-width:1.08707"><path
         d="m 143.68514,274.89039 c -0.19047,-0.90197 -0.28733,-1.84172 -0.28732,-2.79053 -3e-5,-1.81618 0.35479,-3.59383 1.03508,-5.13095 0.49321,-1.11424 1.14228,-2.06084 1.89859,-2.78588 a 6.1025973,9.0094715 0 0 0 -4.57181,-3.04116 6.1025973,9.0094715 0 0 0 -5.10873,4.08089 6.1025973,9.0094715 0 0 0 -0.18966,0.45785 c 0.92904,0.75859 1.72163,1.83503 2.30012,3.14193 0.68029,1.53711 1.03719,3.31426 1.03715,5.13044 0,0.3121 -0.0105,0.62358 -0.0315,0.93276 a 11.75315,5.1231983 0 0 0 1.99265,0.0739 11.75315,5.1231983 0 0 0 1.92546,-0.0692 z"
         style="fill:#2c2c2c;stroke-width:1.08707;stroke-linecap:round;stroke-linejoin:round;paint-order:markers stroke fill"
         id="path737-0-6" /><path
         d="m 141.75968,252.76461 a 3.158237,3.7903905 0 0 0 -3.15847,3.78994 3.158237,3.7903905 0 0 0 3.15847,3.79047 3.158237,3.7903905 0 0 0 3.15846,-3.79047 3.158237,3.7903905 0 0 0 -3.15846,-3.78994 z"
         style="fill:#2c2c2c;stroke-width:1.08707;stroke-linecap:round;stroke-linejoin:round;paint-order:markers stroke fill"
         id="path738-0-7" /><path
         d="m 150,263.09111 a 6.1025973,9.0094715 0 0 0 -3.41581,1.54305 6.1025973,9.0094715 0 0 0 -1.69292,2.53783 6.1025973,9.0094715 0 0 0 -0.99374,4.92839 6.1025973,9.0094715 0 0 0 0.29094,2.74867 6.1025973,9.0094715 0 0 0 0.42685,1.49086 11.75315,5.1231983 0 0 0 5.38468,0.56896 11.75315,5.1231983 0 0 0 5.38469,-0.56896 6.1025973,9.0094715 0 0 0 0.71778,-4.23953 6.1025973,9.0094715 0 0 0 -0.99374,-4.92839 A 6.1025973,9.0094715 0 0 0 150,263.09111 Z"
         style="baseline-shift:baseline;display:inline;overflow:visible;vector-effect:none;fill:#2c2c2c;stroke-width:1.08707;stroke-linecap:round;stroke-linejoin:round;paint-order:markers stroke fill;enable-background:accumulate;stop-color:#000000"
         id="path739-8-7" /><path
         d="m 150,254.71384 a 3.158237,3.7903905 0 0 0 -3.15846,3.78995 3.158237,3.7903905 0 0 0 3.15846,3.79047 3.158237,3.7903905 0 0 0 3.15846,-3.79047 A 3.158237,3.7903905 0 0 0 150,254.71384 Z"
         style="baseline-shift:baseline;display:inline;overflow:visible;vector-effect:none;fill:#2c2c2c;stroke-width:1.08707;stroke-linecap:round;stroke-linejoin:round;paint-order:markers stroke fill;enable-background:accumulate;stop-color:#000000"
         id="path740-3-1" /><path
         d="m 133.19534,264.94422 a 6.1025973,9.0094715 0 0 0 -5.10873,4.08141 6.1025973,9.0094715 0 0 0 -0.99425,4.92786 6.1025973,9.0094715 0 0 0 0.71778,4.23954 11.75315,5.1231983 0 0 0 5.3852,0.56947 11.75315,5.1231983 0 0 0 5.38469,-0.56947 6.1025973,9.0094715 0 0 0 0.68781,-3.34967 6.1025973,9.0094715 0 0 0 0.03,-0.88987 6.1025973,9.0094715 0 0 0 -0.99374,-4.92786 6.1025973,9.0094715 0 0 0 -2.02261,-2.84427 6.1025973,9.0094715 0 0 0 -3.08612,-1.23714 z"
         style="baseline-shift:baseline;display:inline;overflow:visible;vector-effect:none;fill:#2c2c2c;stroke-width:1.08707;stroke-linecap:round;stroke-linejoin:round;paint-order:markers stroke fill;enable-background:accumulate;stop-color:#000000"
         id="path742-4-9" /><path
         d="m 133.19534,256.56696 a 3.158237,3.7903905 0 0 0 -3.15846,3.79046 3.158237,3.7903905 0 0 0 3.15846,3.79047 3.158237,3.7903905 0 0 0 3.15795,-3.79047 3.158237,3.7903905 0 0 0 -3.15795,-3.79046 z"
         style="baseline-shift:baseline;display:inline;overflow:visible;vector-effect:none;fill:#2c2c2c;stroke-width:1.08707;stroke-linecap:round;stroke-linejoin:round;paint-order:markers stroke fill;enable-background:accumulate;stop-color:#000000"
         id="path741-5-1" /></g></g></svg>
