<?xml version="1.0" encoding="UTF-8" standalone="no"?>
<!-- Created with Inkscape (http://www.inkscape.org/) -->

<svg
   width="33.901489mm"
   height="30.978996mm"
   viewBox="0 0 33.901489 30.978996"
   version="1.1"
   id="svg1"
   xml:space="preserve"
   xmlns="http://www.w3.org/2000/svg"
   xmlns:svg="http://www.w3.org/2000/svg"><defs
     id="defs1" /><g
     id="layer1"
     transform="translate(-85.677571,-13.101979)"><g
       id="g725"><g
         id="g686"
         transform="matrix(0.70318183,0,0,0.70318183,57.775672,-1.7645065)"
         style="stroke-width:1.42211"><path
           id="rect520-8"
           style="fill:#2c2c2c;stroke:none;stroke-width:1.10998;stroke-linecap:round;stroke-linejoin:round;paint-order:markers stroke fill"
           d="m 141.16053,145.21298 15.3631,5.26954 a 0.89616447,0.89616447 99.465981 0 1 -0.29076,1.74385 h -37.46181 a 0.89616483,0.89616483 80.534015 0 1 -0.29076,-1.74385 l 15.36309,-5.26954 a 11.276388,11.276388 180 0 1 7.31714,0 z"
           transform="matrix(1.2281903,0,0,1,-105.09329,-123.46124)" /><rect
           style="fill:#2c2c2c;fill-opacity:1;stroke:none;stroke-width:1.23012;stroke-linecap:round;stroke-linejoin:round;paint-order:markers stroke fill"
           id="rect522-8"
           width="48.211552"
           height="4.3943882"
           x="39.679508"
           y="60.802803"
           ry="1.9753988"
           rx="1.9753988" /></g><ellipse
         style="fill:#4f4e53;fill-opacity:1;stroke:none;stroke-width:0.865022;stroke-linecap:round;stroke-linejoin:round;paint-order:markers stroke fill"
         id="path599"
         cx="103.19946"
         cy="-25.305824"
         transform="matrix(0.86855321,0.49559592,-0.50441705,0.86346016,0,0)"
         rx="10.294829"
         ry="10.234468" /><path
         d="m 102.63376,25.623525 v 2.62415 0.398184 c 0.42054,0.177692 0.77058,0.349104 1.05276,0.516765 l 9e-4,9.07e-4 c 0.32033,0.18626 0.5967,0.445513 0.82636,0.772459 0.2394,0.3408 0.35506,0.765996 0.35506,1.260395 0,0.516122 -0.11441,0.98822 -0.34615,1.40664 a 0.15080977,0.15080977 0 0 1 -9.1e-4,0.0018 c -0.233,0.412606 -0.57548,0.738667 -1.01525,0.970963 -0.0814,0.04299 -0.16543,0.082 -0.25217,0.116944 h 1.6567 v -4.023063 l 1.1179,4.023059 h 1.94896 l 1.11814,-4.023059 v 4.023059 h 2.26698 v -8.069082 h -2.78 l -1.55897,4.843793 -1.60023,-4.843793 h -2.21401 z"
         style="font-size:23.841px;line-height:1;font-family:poppins;-inkscape-font-specification:poppins;text-align:center;letter-spacing:0px;text-anchor:middle;fill:#feec06;stroke-width:0.665002;stroke-linecap:round;stroke-linejoin:round;paint-order:markers stroke fill"
         id="path516-3" /><path
         d="m 101.68225,25.486658 c -0.52655,0 -1.00188,0.09504 -1.42586,0.284986 -0.20075,0.09142 -0.381649,0.204047 -0.542775,0.337717 -0.173683,0.144078 -0.324378,0.312618 -0.452084,0.505749 -0.239344,0.36471 -0.359041,0.809017 -0.359041,1.333284 -0.0046,0.351149 0.04136,0.659746 0.138037,0.925729 0.04766,0.131139 0.107728,0.251929 0.179987,0.362325 0.218832,0.334315 0.478602,0.588797 0.779486,0.763551 0.2419,0.137376 0.53249,0.277009 0.8716,0.419037 h 0.1303 a 0.15080977,0.15080977 0 0 1 0.14554,0.111792 c 0.004,0.0014 0.008,0.0032 0.0117,0.0047 0.38979,0.15196 0.67688,0.2888 0.86152,0.410365 0.18463,0.113974 0.27701,0.265886 0.27701,0.455837 0,0.136767 -0.0444,0.239335 -0.13335,0.307716 -0.0821,0.06078 -0.18463,0.09117 -0.30772,0.09117 -0.33508,0 -0.51984,-0.231635 -0.55403,-0.695118 h -0.26085 c -0.12051,0.449828 -0.30007,0.858085 -0.5395,1.222432 -0.19357,0.300873 -0.4248,0.562684 -0.692069,0.783942 0.565179,0.440334 1.278059,0.660666 2.138789,0.660666 0.18857,0 0.36859,-0.01184 0.5402,-0.03565 0.35114,-0.04864 0.66686,-0.147053 0.94706,-0.295063 0.41714,-0.220342 0.73526,-0.524163 0.95409,-0.911666 0.21882,-0.395101 0.3281,-0.839643 0.3281,-1.33352 0,-0.471084 -0.10928,-0.862397 -0.3281,-1.173919 -0.21883,-0.311521 -0.47884,-0.554579 -0.77973,-0.729333 -0.29399,-0.174727 -0.66992,-0.357318 -1.12798,-0.547238 h -2.3e-4 c -0.39663,-0.167157 -0.68743,-0.307643 -0.87206,-0.421617 -0.1778,-0.121565 -0.26647,-0.273476 -0.26647,-0.455831 0,-0.129166 0.0306,-0.227852 0.0921,-0.296233 0.0615,-0.07598 0.14027,-0.114137 0.236,-0.114137 0.13677,0 0.253,0.04934 0.34873,0.148119 0.0957,0.09878 0.14715,0.262342 0.15398,0.490284 h 0.30795 v -2.473223 a 0.15080977,0.15080977 0 0 1 0.0141,-0.06351 c -0.25162,-0.04894 -0.52314,-0.07336 -0.81441,-0.07336 z"
         style="font-size:23.841px;line-height:1;font-family:poppins;-inkscape-font-specification:poppins;text-align:center;letter-spacing:0px;text-anchor:middle;fill:#feec06;stroke-width:0.665002;stroke-linecap:round;stroke-linejoin:round;paint-order:markers stroke fill"
         id="path520-4" /><path
         d="m 93.917912,29.09177 c -0.01626,0.179976 -0.02437,0.364863 -0.02437,0.554735 0,0.797796 0.143548,1.508242 0.430757,2.131286 0.294052,0.623043 0.711027,1.109391 1.251257,1.458903 0.540231,0.341916 1.176235,0.512784 1.90794,0.512784 0.629129,0 1.189888,-0.129067 1.68225,-0.3874 0.143542,-0.07647 0.279132,-0.161624 0.406852,-0.255689 0.05571,-0.04104 0.109941,-0.08358 0.162647,-0.127964 0.246661,-0.20772 0.460335,-0.452321 0.640975,-0.733316 0.24966,-0.379912 0.43251,-0.810187 0.54864,-1.290631 0.008,-0.03385 0.0159,-0.06786 0.0234,-0.102182 0.0159,-0.0726 0.0304,-0.146357 0.0434,-0.221237 0.004,-0.02036 0.007,-0.0409 0.0103,-0.0614 h -0.1603 -0.35951 -1.880521 c -0.109416,0.265934 -0.266617,0.474952 -0.47177,0.62692 -0.19831,0.144364 -0.427523,0.21655 -0.687384,0.21655 -0.109889,0 -0.213366,-0.01311 -0.310295,-0.03937 -0.211141,-0.05721 -0.391442,-0.176654 -0.541141,-0.358574 -0.940367,-0.631291 -1.836344,-1.275889 -2.673132,-1.923408 z"
         style="font-size:23.841px;line-height:1;font-family:poppins;-inkscape-font-specification:poppins;text-align:center;letter-spacing:0px;text-anchor:middle;fill:#feec06;stroke-width:0.665002;stroke-linecap:round;stroke-linejoin:round;paint-order:markers stroke fill"
         id="path678" /><path
         d="m 95.307912,26.25646 c 0.480684,0.569171 1.044852,1.14555 1.678734,1.714592 0.136992,-0.06058 0.288957,-0.09093 0.455834,-0.09093 0.259861,0 0.489073,0.07584 0.687383,0.227799 0.205153,0.144364 0.362354,0.349505 0.47177,0.615435 h 0.235065 c -0.06059,-0.234995 -0.08836,-0.494111 -0.08484,-0.77527 v -9.52e-4 c 5e-6,-3.86e-4 -4e-6,-1.68e-4 0,-6.8e-4 2.95e-4,-0.546417 0.126208,-1.021971 0.383416,-1.413905 a 0.15080977,0.15080977 0 0 1 0,-9.53e-4 c 0.09904,-0.149774 0.211666,-0.286007 0.337481,-0.408493 -0.09799,-0.06532 -0.200274,-0.125693 -0.307014,-0.180927 -0.492361,-0.265934 -1.05312,-0.398884 -1.682249,-0.398884 v 2.34e-4 c -0.731706,0 -1.36771,0.174755 -1.90794,0.524268 -0.09279,0.05873 -0.182117,0.121637 -0.267641,0.188661 z"
         style="font-size:23.841px;line-height:1;font-family:poppins;-inkscape-font-specification:poppins;text-align:center;letter-spacing:0px;text-anchor:middle;fill:#feec06;stroke-width:0.665002;stroke-linecap:round;stroke-linejoin:round;paint-order:markers stroke fill"
         id="path677" /><path
         d="m 103.11263,33.745024 c -0.1896,0.06487 -0.39081,0.111924 -0.60301,0.141321 -0.1791,0.02485 -0.36572,0.03728 -0.5606,0.03728 -0.0361,0 -0.0719,-4.13e-4 -0.10757,-0.0014 a 16.742441,4.7819058 29.657214 0 0 7.24202,3.149119 16.742441,4.7819058 29.657214 0 0 8.08759,0.126087 16.742441,4.7819058 29.657214 0 0 -3.16881,-5.953025 16.742441,4.7819058 29.657214 0 0 -1.3075,-1.184464 10.204151,10.324879 89.999987 0 1 -1.2222,4.103441 11.652256,4.7818777 29.590854 0 1 -3.88712,-0.319903 h -1.55663 a 0.15080977,0.15080977 0 0 1 -0.14531,-0.110617 l -0.11671,-0.419745 a 11.652256,4.7818777 29.590854 0 1 -0.7052,-0.253811 v 0.633714 a 0.15080977,0.15080977 0 0 1 -0.15069,0.150459 h -1.65647 a 0.15080977,0.15080977 0 0 1 -0.14179,-0.09867 z"
         style="fill:#3b5fcf;stroke-width:0.865004;stroke-linecap:round;stroke-linejoin:round;paint-order:markers stroke fill"
         id="path669" /><path
         d="m 90.915736,19.638785 a 16.742441,4.7819058 29.657214 0 0 -2.828044,0.96393 16.742441,4.7819058 29.657214 0 0 4.154298,6.859068 16.742441,4.7819058 29.657214 0 0 5.066669,3.792911 c 0.04309,0.0053 0.08779,0.008 0.134289,0.008 0.231935,0 0.424908,-0.06205 0.597857,-0.187957 0.181151,-0.13447 0.321138,-0.318253 0.421617,-0.562468 a 0.15080977,0.15080977 0 0 1 0.138977,-0.09374 h 1.276334 a 11.652256,4.7818777 29.590854 0 1 -6.282069,-6.45551 10.204151,10.324879 89.999987 0 1 2.984364,-3.097795 16.742441,4.7819058 29.657214 0 0 -1.69139,-0.526846 16.742441,4.7819058 29.657214 0 0 -3.972902,-0.69957 z"
         style="fill:#3b5fcf;stroke-width:0.865004;stroke-linecap:round;stroke-linejoin:round;paint-order:markers stroke fill"
         id="path685" /></g></g></svg>
