<?xml version="1.0" encoding="UTF-8" standalone="no"?>
<!-- Created with Inkscape (http://www.inkscape.org/) -->

<svg
   width="189.67232mm"
   height="62.794857mm"
   viewBox="0 0 189.67232 62.794857"
   version="1.1"
   id="svg1"
   xml:space="preserve"
   xmlns="http://www.w3.org/2000/svg"
   xmlns:svg="http://www.w3.org/2000/svg"><defs
     id="defs1" /><g
     id="layer1"
     transform="translate(-13.583455,-148.5)"><g
       id="layer1-8"
       transform="translate(6.451174,111.10953)"><path
         d="m 54.392546,42.977738 c -0.758293,0 -1.368392,0.610615 -1.368392,1.368909 v 31.970142 c 0,0.758293 0.610099,1.368908 1.368392,1.368908 l 23.87769,4e-6 a 2.2221256,2.2221256 47.917093 0 1 2.210615,2.448004 l -0.02621,0.256476 a 8.1703862,8.1703862 130.71203 0 1 -6.094777,7.082822 l -2.434406,0.625507 a 2.0964379,2.0964379 127.79494 0 0 -1.574717,2.030483 v 0.418038 a 0.6680729,0.6680729 45 0 0 0.668073,0.668073 H 93.892047 A 0.6680729,0.6680729 135 0 0 94.56012,90.547031 V 90.128993 A 2.0964379,2.0964379 52.205055 0 0 92.985403,88.09851 L 90.550997,87.473003 A 8.1709237,8.1709237 49.286199 0 1 84.45587,80.390216 l -0.02623,-0.256527 a 2.2219877,2.2219877 132.08114 0 1 2.210464,-2.447988 l 23.877693,-4e-6 c 0.75829,0 1.36839,-0.610615 1.36839,-1.368908 V 44.346647 c 0,-0.758294 -0.6101,-1.368909 -1.36839,-1.368909 z m 1.600935,1.985409 h 52.923389 c 0.47638,0 0.85989,0.38352 0.85989,0.859896 v 29.016833 c 0,0.476377 -0.38351,0.859896 -0.85989,0.859896 H 55.993481 c -0.476376,0 -0.859895,-0.383519 -0.859895,-0.859896 V 45.823043 c 0,-0.476376 0.383519,-0.859896 0.859895,-0.859896 z"
         style="fill:#0a3641;fill-opacity:1;stroke-width:1.50001"
         id="path8"
         transform="translate(-45.891873,1.9616773)" /><text
         xml:space="preserve"
         style="font-size:4.23333px;line-height:1;font-family:'Clincher Mono';-inkscape-font-specification:'Clincher Mono';text-align:center;writing-mode:lr-tb;direction:ltr;text-anchor:middle;fill:#ff0000;stroke:none;stroke-width:1.5"
         x="36.544247"
         y="99.31749"
         id="text10"><tspan
           id="tspan10"
           style="font-style:normal;font-variant:normal;font-weight:normal;font-stretch:normal;font-family:'Source Sans 3';-inkscape-font-specification:'Source Sans 3, ';fill:#0a3641;fill-opacity:1;stroke-width:1.5"
           x="36.544247"
           y="99.31749">Width: 1280 - 3840 px</tspan></text><text
         xml:space="preserve"
         style="font-size:4.23333px;line-height:1;font-family:'Clincher Mono';-inkscape-font-specification:'Clincher Mono';text-align:center;writing-mode:lr-tb;direction:ltr;text-anchor:middle;fill:#ff0000;stroke:none;stroke-width:1.5"
         x="112.45639"
         y="99.31749"
         id="text10-7"><tspan
           id="tspan10-7"
           style="font-style:normal;font-variant:normal;font-weight:normal;font-stretch:normal;font-family:'Source Sans 3';-inkscape-font-specification:'Source Sans 3, ';fill:#0a3641;fill-opacity:1;stroke-width:1.5"
           x="112.45639"
           y="99.31749">Width: 600 - 1366 px</tspan></text><text
         xml:space="preserve"
         style="font-size:4.23333px;line-height:1;font-family:'Clincher Mono';-inkscape-font-specification:'Clincher Mono';text-align:center;writing-mode:lr-tb;direction:ltr;text-anchor:middle;fill:#ff0000;stroke:none;stroke-width:1.5"
         x="177.86154"
         y="99.31749"
         id="text10-7-8"><tspan
           id="tspan10-7-6"
           style="font-style:normal;font-variant:normal;font-weight:normal;font-stretch:normal;font-family:'Source Sans 3';-inkscape-font-specification:'Source Sans 3, ';fill:#0a3641;fill-opacity:1;stroke-width:1.5"
           x="177.86154"
           y="99.31749">Width:  320-960 px</tspan></text><text
         xml:space="preserve"
         style="font-style:normal;font-variant:normal;font-weight:normal;font-stretch:normal;font-size:4.23333px;line-height:1;font-family:'Source Sans 3';-inkscape-font-specification:'Source Sans 3, ';text-align:center;writing-mode:lr-tb;direction:ltr;text-anchor:middle;fill:#000000;stroke:none;stroke-width:1.5"
         x="81.664207"
         y="107.01472"
         id="text11-8"><tspan
           id="tspan11-2"
           style="stroke-width:1.5"
           x="81.664207"
           y="107.01472" /></text><text
         xml:space="preserve"
         style="font-style:normal;font-variant:normal;font-weight:normal;font-stretch:normal;font-size:5.29167px;line-height:1;font-family:'Source Sans 3';-inkscape-font-specification:'Source Sans 3, ';text-align:center;writing-mode:lr-tb;direction:ltr;text-anchor:middle;fill:#0a3641;fill-opacity:1;stroke:none;stroke-width:1.5"
         x="14.448023"
         y="41.136959"
         id="text12-4"><tspan
           id="tspan12-5"
           style="font-style:normal;font-variant:normal;font-weight:bold;font-stretch:semi-condensed;font-size:5.29167px;font-family:'Barlow Semi Condensed';-inkscape-font-specification:'Barlow Semi Condensed,  Bold Semi-Condensed';stroke-width:1.5"
           x="14.448023"
           y="41.136959">Screen</tspan></text><text
         xml:space="preserve"
         style="font-style:normal;font-variant:normal;font-weight:normal;font-stretch:normal;font-size:5.29167px;line-height:1;font-family:'Source Sans 3';-inkscape-font-specification:'Source Sans 3, ';text-align:center;writing-mode:lr-tb;direction:ltr;text-anchor:middle;fill:#0a3641;fill-opacity:1;stroke:none;stroke-width:1.5"
         x="87.529533"
         y="41.136959"
         id="text13-5"><tspan
           id="tspan13-1"
           style="font-style:normal;font-variant:normal;font-weight:normal;font-stretch:normal;font-size:5.29167px;font-family:'Barlow Semi Condensed';-inkscape-font-specification:'Barlow Semi Condensed, ';stroke-width:1.5"
           x="87.529533"
           y="41.136959">Tablet</tspan></text><text
         xml:space="preserve"
         style="font-style:normal;font-variant:normal;font-weight:normal;font-stretch:normal;font-size:5.29167px;line-height:1;font-family:'Source Sans 3';-inkscape-font-specification:'Source Sans 3, ';text-align:center;writing-mode:lr-tb;direction:ltr;text-anchor:middle;fill:#0a3641;fill-opacity:1;stroke:none;stroke-width:1.5"
         x="165.35422"
         y="41.136959"
         id="text14-7"><tspan
           id="tspan14-1"
           style="font-style:normal;font-variant:normal;font-weight:normal;font-stretch:normal;font-size:5.29167px;font-family:'Barlow Semi Condensed';-inkscape-font-specification:'Barlow Semi Condensed, ';stroke-width:1.5"
           x="165.35422"
           y="41.136959">Phone</tspan></text><g
         id="g1"
         transform="translate(0,9.5250005)"><path
           d="m 82.303796,45.771366 c -0.72553,0 -1.30948,0.583951 -1.30948,1.309481 v 31.721061 c 0,0.72553 0.58395,1.309481 1.30948,1.309481 h 23.123134 c 0.72553,0 1.30949,-0.583951 1.30949,-1.309481 V 47.080847 c 0,-0.72553 -0.58396,-1.309481 -1.30949,-1.309481 z m 0.338998,0.75706 h 22.445146 c 0.5423,0 0.97875,0.436444 0.97875,0.978752 v 30.8684 c 0,0.542307 -0.43645,0.979268 -0.97875,0.979268 H 82.642794 c -0.542308,0 -0.978752,-0.436961 -0.978752,-0.979268 v -30.8684 c 0,-0.542308 0.436444,-0.978752 0.978752,-0.978752 z"
           style="fill:#0a3641;stroke-width:1.5"
           id="path15" /><path
           d="m 143.95657,55.678769 c 0,-0.72553 -0.58395,-1.30948 -1.30948,-1.30948 h -31.72106 c -0.72553,0 -1.30948,0.58395 -1.30948,1.30948 v 23.12313 c 0,0.72553 0.58395,1.30949 1.30948,1.30949 h 31.72106 c 0.72553,0 1.30948,-0.583959 1.30948,-1.30949 z m -0.75706,0.33899 v 22.44515 c 0,0.5423 -0.43644,0.97875 -0.97875,0.97875 h -30.8684 c -0.54231,0 -0.97927,-0.43645 -0.97927,-0.97875 v -22.44515 c 0,-0.5423 0.43696,-0.97875 0.97927,-0.97875 h 30.8684 c 0.54231,0 0.97875,0.43645 0.97875,0.97875 z"
           style="fill:#0a3641;stroke-width:1.5"
           id="path15-3" /></g><g
         id="g2"
         transform="translate(-30.063927,12.324831)"><path
           d="m 190.3305,53.999805 c -0.72553,0 -1.31,0.583949 -1.31,1.30948 v 20.692794 c 0,0.725531 0.58447,1.309481 1.31,1.309481 h 9.03666 c 0.72553,0 1.30948,-0.58395 1.30948,-1.309481 V 55.309285 c 0,-0.725531 -0.58395,-1.30948 -1.30948,-1.30948 z m 0.11627,0.347265 h 8.80412 c 0.57006,0 1.02887,0.458817 1.02887,1.028878 v 20.559469 c 0,0.570061 -0.45881,1.028877 -1.02887,1.028877 h -8.80412 c -0.57006,0 -1.02939,-0.458816 -1.02939,-1.028877 V 55.375948 c 0,-0.570061 0.45933,-1.028878 1.02939,-1.028878 z"
           style="fill:#0a3641;stroke-width:1.5"
           id="path16" /><path
           d="m 226.86853,66.437547 c 0,-0.72553 -0.58395,-1.31 -1.30948,-1.31 h -20.6928 c -0.72553,0 -1.30948,0.58447 -1.30948,1.31 v 9.03666 c 0,0.72553 0.58395,1.30948 1.30948,1.30948 h 20.6928 c 0.72553,0 1.30948,-0.583949 1.30948,-1.30948 z m -0.34727,0.11627 v 8.80412 c 0,0.57006 -0.45881,1.02887 -1.02888,1.02887 h -20.55946 c -0.57007,0 -1.02888,-0.45881 -1.02888,-1.02887 v -8.80412 c 0,-0.57006 0.45881,-1.02939 1.02888,-1.02939 h 20.55946 c 0.57007,0 1.02888,0.45933 1.02888,1.02939 z"
           style="fill:#0a3641;stroke-width:1.5"
           id="path16-8" /></g></g></g></svg>
