<?xml version="1.0" encoding="UTF-8" standalone="no"?>
<!-- Created with Inkscape (http://www.inkscape.org/) -->

<svg
   width="50.529175mm"
   height="50.529167mm"
   viewBox="0 0 50.529175 50.529167"
   version="1.1"
   id="svg1"
   xmlns="http://www.w3.org/2000/svg"
   xmlns:svg="http://www.w3.org/2000/svg">
  <defs
     id="defs1" />
  <g
     id="layer1"
     transform="translate(-110.94094,-114.16942)">
    <path
       style="fill:#000000;fill-opacity:1;stroke:#000000;stroke-width:0.529167;stroke-linecap:round;stroke-linejoin:round;stroke-opacity:1;paint-order:markers stroke fill"
       d="m 161.20553,139.434 c 0,-0.105 0,-0.21 0,-0.314 0,-0.105 0,-0.21 0,-0.315 0,-0.105 0,-0.21 0,-0.316 0,-0.105 0,-0.21 0,-0.315 0,-0.105 0,-0.21 0,-0.316 0,-0.105 0,-0.21 0,-0.316 0,-0.106 0,-0.211 0,-0.317 -0.001,-0.106 -0.001,-0.211 -0.001,-0.317 0,-0.106 0,-0.213 0,-0.319 0,-0.106 0,-0.213 -0.001,-0.319 0,-0.107 0,-0.213 0,-0.32 -0.001,-0.107 -0.001,-0.214 -0.001,-0.322 -0.001,-0.107 -0.001,-0.214 -0.002,-0.322 0,-0.108 -10e-4,-0.216 -10e-4,-0.324 -0.001,-0.108 -0.002,-0.216 -0.002,-0.325 -0.001,-0.108 -0.002,-0.217 -0.003,-0.326 -10e-4,-0.109 -0.002,-0.219 -0.003,-0.328 -0.001,-0.11 -0.002,-0.22 -0.004,-0.33 -0.001,-0.11 -0.003,-0.22 -0.004,-0.331 -0.002,-0.111 -0.003,-0.222 -0.005,-0.333 -0.002,-0.111 -0.004,-0.223 -0.007,-0.335 -0.002,-0.112 -0.004,-0.224 -0.007,-0.336 -0.002,-0.113 -0.005,-0.226 -0.008,-0.339 -0.003,-0.113 -0.006,-0.226 -0.01,-0.34 -0.003,-0.114 -0.007,-0.228 -0.011,-0.342 -0.004,-0.115 -0.008,-0.23 -0.013,-0.345 -0.004,-0.115 -0.009,-0.23 -0.014,-0.346 -0.005,-0.116 -0.011,-0.232 -0.016,-0.348 -0.006,-0.117 -0.012,-0.234 -0.019,-0.351 -0.006,-0.117 -0.013,-0.234 -0.021,-0.352 -0.007,-0.118 -0.015,-0.236 -0.023,-0.355 -0.008,-0.118 -0.017,-0.237 -0.026,-0.356 -0.009,-0.119 -0.019,-0.238 -0.029,-0.358 -0.011,-0.12 -0.022,-0.239 -0.033,-0.36 -0.011,-0.12 -0.023,-0.24 -0.036,-0.361 -0.013,-0.121 -0.026,-0.242 -0.04,-0.363 -0.014,-0.121 -0.029,-0.243 -0.044,-0.365 -0.016,-0.121 -0.032,-0.243 -0.049,-0.365 -0.017,-0.122 -0.035,-0.244 -0.054,-0.367 -0.018,-0.122 -0.038,-0.244 -0.058,-0.367 -0.021,-0.122 -0.042,-0.245 -0.065,-0.368 -0.022,-0.122 -0.046,-0.245 -0.07,-0.368 -0.024,-0.122 -0.05,-0.245 -0.077,-0.367 -0.026,-0.123 -0.054,-0.245 -0.083,-0.368 -0.029,-0.122 -0.059,-0.244 -0.091,-0.366 -0.031,-0.122 -0.064,-0.244 -0.098,-0.365 -0.034,-0.121 -0.069,-0.243 -0.106,-0.363 -0.036,-0.121 -0.074,-0.242 -0.114,-0.362 -0.039,-0.119 -0.08,-0.239 -0.123,-0.358 -0.042,-0.119 -0.086,-0.237 -0.132,-0.355 -0.045,-0.118 -0.092,-0.235 -0.141,-0.351 -0.049,-0.117 -0.099,-0.233 -0.151,-0.347 -0.052,-0.115 -0.106,-0.229 -0.161,-0.343 -0.055,-0.113 -0.112,-0.225 -0.171,-0.336 -0.059,-0.111 -0.12,-0.222 -0.182,-0.331 -0.062,-0.109 -0.126,-0.217 -0.192,-0.324 -0.066,-0.106 -0.133,-0.212 -0.203,-0.316 -0.069,-0.105 -0.141,-0.208 -0.213,-0.309 -0.073,-0.102 -0.148,-0.202 -0.225,-0.301 -0.076,-0.099 -0.155,-0.196 -0.235,-0.292 -0.08,-0.096 -0.162,-0.19 -0.245,-0.283 -0.084,-0.093 -0.169,-0.184 -0.256,-0.273 -0.087,-0.09 -0.176,-0.177 -0.266,-0.264 -0.09,-0.086 -0.182,-0.17 -0.276,-0.253 -0.093,-0.083 -0.188,-0.164 -0.285,-0.243 -0.097,-0.079 -0.195,-0.156 -0.294,-0.232 -0.1,-0.076 -0.201,-0.15 -0.303,-0.222 -0.102,-0.072 -0.206,-0.142 -0.311,-0.211 -0.105,-0.068 -0.211,-0.135 -0.319,-0.2 -0.107,-0.065 -0.215,-0.128 -0.325,-0.189 -0.11,-0.062 -0.221,-0.121 -0.332,-0.179 -0.112,-0.058 -0.225,-0.114 -0.338,-0.169 -0.114,-0.054 -0.228,-0.107 -0.344,-0.158 -0.115,-0.052 -0.231,-0.101 -0.348,-0.149 -0.117,-0.048 -0.234,-0.094 -0.352,-0.139 -0.118,-0.045 -0.237,-0.088 -0.356,-0.13 -0.119,-0.041 -0.239,-0.082 -0.359,-0.12 -0.12,-0.039 -0.241,-0.076 -0.362,-0.112 -0.121,-0.036 -0.242,-0.071 -0.364,-0.104 -0.121,-0.034 -0.243,-0.066 -0.365,-0.097 -0.122,-0.03 -0.245,-0.06 -0.367,-0.088 -0.122,-0.029 -0.245,-0.056 -0.367,-0.082 -0.123,-0.026 -0.246,-0.051 -0.368,-0.075 -0.123,-0.024 -0.246,-0.047 -0.368,-0.069 -0.123,-0.022 -0.245,-0.043 -0.368,-0.063 -0.122,-0.02 -0.245,-0.039 -0.367,-0.057 -0.122,-0.018 -0.244,-0.036 -0.366,-0.052 -0.122,-0.017 -0.244,-0.033 -0.365,-0.048 -0.122,-0.015 -0.243,-0.029 -0.364,-0.043 -0.122,-0.014 -0.242,-0.027 -0.363,-0.039 -0.121,-0.012 -0.241,-0.024 -0.361,-0.035 -0.12,-0.011 -0.24,-0.022 -0.36,-0.032 -0.119,-0.01 -0.238,-0.019 -0.357,-0.028 -0.119,-0.009 -0.238,-0.018 -0.356,-0.026 -0.118,-0.008 -0.236,-0.015 -0.354,-0.023 -0.117,-0.007 -0.235,-0.013 -0.352,-0.02 -0.117,-0.006 -0.233,-0.012 -0.35,-0.018 -0.116,-0.005 -0.232,-0.011 -0.347,-0.016 -0.116,-0.005 -0.231,-0.009 -0.346,-0.014 -0.115,-0.004 -0.23,-0.008 -0.344,-0.012 -0.114,-0.004 -0.228,-0.007 -0.342,-0.011 -0.114,-0.003 -0.227,-0.006 -0.34,-0.009 -0.113,-0.003 -0.226,-0.005 -0.338,-0.008 -0.112,-0.002 -0.224,-0.005 -0.336,-0.007 -0.112,-0.002 -0.223,-0.004 -0.334,-0.006 -0.111,-0.002 -0.222,-0.003 -0.333,-0.005 -0.11,-0.001 -0.22,-0.003 -0.33,-0.004 -0.11,-10e-4 -0.22,-0.003 -0.33,-0.004 -0.109,-0.001 -0.218,-0.002 -0.327,-0.003 -0.109,0 -0.218,-0.001 -0.326,-0.002 -0.109,-10e-4 -0.217,-10e-4 -0.325,-0.002 -0.108,0 -0.216,-0.001 -0.323,-0.001 -0.108,-10e-4 -0.215,-10e-4 -0.323,-0.002 -0.107,0 -0.214,0 -0.321,-10e-4 -0.106,0 -0.213,0 -0.32,0 -0.106,0 -0.212,-0.001 -0.319,-0.001 -0.106,0 -0.212,0 -0.318,0 -0.106,0 -0.211,0 -0.317,0 -0.106,0 -0.211,0 -0.317,-0.001 -0.105,0 -0.211,0 -0.316,0 -0.105,0 -0.211,0 -0.316,0 -0.105,0 -0.21,0 -0.315,0 -0.105,0 -0.21,0 -0.315,0 -0.105,0 -0.21,0 -0.315,0 -0.105,0 -0.21,0 -0.315,0 -0.105,0 -0.21,0 -0.315,0 -0.105,0 -0.21,0 -0.315,0 -0.105,0 -0.21,0 -0.315,0 -0.105,0 -0.21,0 -0.315,0 -0.105,0 -0.211,0 -0.316,0 -0.106,0 -0.211,0 -0.317,0.001 -0.105,0 -0.211,0 -0.317,0 -0.105,0 -0.211,0 -0.317,0 -0.106,0 -0.213,0 -0.319,0 -0.106,0.001 -0.213,0.001 -0.319,0.001 -0.107,0 -0.214,10e-4 -0.321,10e-4 -0.107,0 -0.214,0.001 -0.322,0.001 -0.107,0 -0.215,10e-4 -0.322,10e-4 -0.108,0.001 -0.216,0.001 -0.324,0.002 -0.109,10e-4 -0.217,10e-4 -0.326,0.002 -0.108,0.001 -0.217,0.002 -0.327,0.003 -0.109,0.001 -0.218,0.002 -0.328,0.003 -0.11,0.001 -0.22,0.003 -0.33,0.004 -0.11,10e-4 -0.221,0.003 -0.332,0.005 -0.11,0.001 -0.221,0.003 -0.333,0.005 -0.111,0.002 -0.223,0.004 -0.335,0.006 -0.112,0.003 -0.224,0.005 -0.337,0.008 -0.113,0.003 -0.226,0.006 -0.339,0.009 -0.113,0.003 -0.227,0.006 -0.341,0.01 -0.114,0.003 -0.228,0.007 -0.343,0.011 -0.114,0.004 -0.229,0.009 -0.344,0.013 -0.116,0.005 -0.231,0.01 -0.347,0.015 -0.116,0.005 -0.233,0.011 -0.349,0.017 -0.117,0.006 -0.234,0.012 -0.351,0.019 -0.117,0.007 -0.235,0.014 -0.353,0.021 -0.118,0.008 -0.236,0.016 -0.355,0.025 -0.118,0.008 -0.237,0.017 -0.357,0.026 -0.119,0.01 -0.238,0.02 -0.358,0.031 -0.12,0.01 -0.24,0.021 -0.36,0.033 -0.121,0.012 -0.241,0.024 -0.362,0.037 -0.121,0.013 -0.242,0.027 -0.364,0.041 -0.121,0.014 -0.242,0.029 -0.364,0.045 -0.122,0.016 -0.244,0.033 -0.366,0.05 -0.122,0.018 -0.244,0.036 -0.367,0.055 -0.122,0.019 -0.245,0.039 -0.367,0.06 -0.123,0.021 -0.245,0.043 -0.368,0.066 -0.123,0.023 -0.245,0.047 -0.368,0.072 -0.122,0.025 -0.245,0.051 -0.368,0.078 -0.122,0.027 -0.244,0.056 -0.367,0.085 -0.122,0.03 -0.244,0.061 -0.366,0.093 -0.122,0.032 -0.243,0.065 -0.364,0.1 -0.122,0.034 -0.243,0.07 -0.363,0.108 -0.121,0.037 -0.241,0.076 -0.361,0.116 -0.119,0.04 -0.239,0.082 -0.357,0.125 -0.119,0.043 -0.237,0.088 -0.355,0.134 -0.117,0.047 -0.234,0.095 -0.35,0.144 -0.116,0.05 -0.231,0.101 -0.346,0.154 -0.114,0.052 -0.228,0.107 -0.341,0.163 -0.112,0.056 -0.224,0.114 -0.335,0.174 -0.11,0.06 -0.22,0.121 -0.329,0.184 -0.108,0.063 -0.216,0.128 -0.322,0.195 -0.106,0.067 -0.211,0.135 -0.315,0.206 -0.103,0.07 -0.206,0.142 -0.307,0.216 -0.101,0.074 -0.2,0.149 -0.298,0.227 -0.098,0.077 -0.195,0.156 -0.29,0.237 -0.095,0.081 -0.189,0.164 -0.28,0.249 -0.092,0.084 -0.183,0.17 -0.271,0.258 -0.089,0.088 -0.176,0.177 -0.261,0.268 -0.086,0.091 -0.169,0.184 -0.251,0.278 -0.082,0.095 -0.162,0.191 -0.24,0.288 -0.079,0.097 -0.155,0.196 -0.23,0.296 -0.075,0.101 -0.148,0.202 -0.219,0.305 -0.071,0.103 -0.14,0.208 -0.208,0.313 -0.068,0.106 -0.133,0.213 -0.198,0.321 -0.064,0.107 -0.126,0.217 -0.186,0.327 -0.061,0.11 -0.12,0.221 -0.177,0.333 -0.057,0.113 -0.112,0.226 -0.166,0.34 -0.054,0.114 -0.106,0.229 -0.156,0.344 -0.05,0.116 -0.099,0.233 -0.146,0.35 -0.047,0.117 -0.093,0.235 -0.137,0.353 -0.044,0.118 -0.086,0.237 -0.127,0.357 -0.041,0.119 -0.08,0.239 -0.119,0.36 -0.038,0.12 -0.074,0.241 -0.11,0.362 -0.035,0.121 -0.069,0.243 -0.102,0.364 -0.032,0.122 -0.064,0.244 -0.094,0.366 -0.03,0.122 -0.059,0.245 -0.087,0.367 -0.027,0.122 -0.054,0.245 -0.08,0.368 -0.025,0.122 -0.05,0.245 -0.073,0.367 -0.023,0.123 -0.046,0.246 -0.067,0.368 -0.022,0.123 -0.042,0.245 -0.062,0.368 -0.019,0.122 -0.038,0.245 -0.056,0.367 -0.018,0.122 -0.035,0.244 -0.051,0.366 -0.016,0.122 -0.032,0.243 -0.046,0.365 -0.015,0.121 -0.029,0.242 -0.043,0.363 -0.013,0.121 -0.026,0.242 -0.038,0.363 -0.012,0.12 -0.023,0.24 -0.034,0.36 -0.011,0.12 -0.021,0.24 -0.031,0.359 -0.009,0.12 -0.019,0.239 -0.027,0.358 -0.009,0.118 -0.017,0.237 -0.025,0.355 -0.008,0.118 -0.015,0.236 -0.022,0.353 -0.007,0.118 -0.014,0.235 -0.02,0.352 -0.006,0.116 -0.012,0.233 -0.017,0.349 -0.006,0.116 -0.011,0.232 -0.016,0.347 -0.004,0.116 -0.009,0.231 -0.013,0.346 -0.004,0.114 -0.008,0.229 -0.012,0.343 -0.004,0.114 -0.007,0.228 -0.01,0.341 -0.004,0.114 -0.007,0.227 -0.009,0.34 -0.003,0.113 -0.006,0.225 -0.008,0.337 -0.003,0.112 -0.005,0.224 -0.007,0.336 -0.002,0.111 -0.004,0.223 -0.005,0.334 -0.002,0.111 -0.004,0.221 -0.005,0.332 -0.002,0.11 -0.003,0.22 -0.004,0.33 -0.002,0.11 -0.003,0.22 -0.004,0.329 -10e-4,0.109 -0.002,0.218 -0.003,0.327 0,0.109 -10e-4,0.217 -0.002,0.326 0,0.108 -0.001,0.216 -0.002,0.324 0,0.108 -0.001,0.216 -0.001,0.323 -0.001,0.108 -0.001,0.215 -0.001,0.322 -10e-4,0.107 -10e-4,0.214 -10e-4,0.321 0,0.107 -0.001,0.213 -0.001,0.32 0,0.106 0,0.212 0,0.318 0,0.107 0,0.213 -0.001,0.318 0,0.106 0,0.212 0,0.318 0,0.105 0,0.211 0,0.316 0,0.106 0,0.211 0,0.316 0,0.106 0,0.211 0,0.316 0,0.105 0,0.21 0,0.315 0,0.105 0,0.21 0,0.315 0,0.105 0,0.21 0,0.315 0,0.105 0,0.21 0,0.315 0,0.105 0,0.21 0,0.315 0,0.105 0,0.21 0,0.315 0,0.105 0,0.21 0,0.315 0,0.105 0,0.21 0,0.315 0,0.106 0,0.211 0,0.316 0,0.106 0,0.211 0,0.317 0,0.106 0,0.211 0,0.317 0.001,0.106 0.001,0.212 0.001,0.318 0,0.106 0,0.213 0,0.319 0,0.106 0.001,0.213 0.001,0.32 0,0.106 0,0.213 10e-4,0.32 0,0.108 0,0.215 0.001,0.322 0,0.108 0.001,0.216 0.001,0.323 10e-4,0.108 0.002,0.216 0.002,0.325 0.001,0.108 0.002,0.217 0.002,0.326 0.001,0.108 0.002,0.217 0.003,0.327 0.001,0.109 0.002,0.219 0.004,0.329 0.001,0.109 0.002,0.219 0.004,0.33 10e-4,0.11 0.003,0.221 0.005,0.332 0.001,0.111 0.003,0.222 0.005,0.334 0.002,0.111 0.004,0.223 0.007,0.335 0.002,0.113 0.005,0.225 0.008,0.338 0.002,0.113 0.005,0.226 0.009,0.339 0.003,0.114 0.006,0.227 0.01,0.342 0.004,0.114 0.008,0.228 0.012,0.343 0.004,0.115 0.009,0.23 0.013,0.345 0.005,0.116 0.01,0.231 0.016,0.348 0.005,0.116 0.011,0.232 0.017,0.349 0.006,0.117 0.013,0.234 0.02,0.351 0.007,0.118 0.014,0.236 0.022,0.354 0.008,0.118 0.016,0.236 0.025,0.355 0.008,0.119 0.018,0.238 0.027,0.357 0.01,0.12 0.02,0.239 0.031,0.359 0.011,0.12 0.022,0.24 0.034,0.361 0.012,0.12 0.025,0.241 0.038,0.362 0.014,0.121 0.028,0.242 0.043,0.364 0.014,0.121 0.03,0.243 0.046,0.365 0.016,0.122 0.033,0.244 0.051,0.366 0.018,0.122 0.037,0.244 0.056,0.367 0.02,0.122 0.04,0.245 0.062,0.367 0.021,0.123 0.044,0.246 0.067,0.368 0.023,0.123 0.048,0.245 0.073,0.368 0.026,0.123 0.053,0.245 0.08,0.368 0.028,0.122 0.057,0.244 0.087,0.367 0.03,0.122 0.062,0.244 0.094,0.365 0.033,0.122 0.067,0.243 0.102,0.365 0.036,0.121 0.072,0.242 0.11,0.362 0.039,0.12 0.078,0.24 0.119,0.36 0.041,0.119 0.083,0.238 0.127,0.357 0.044,0.118 0.09,0.236 0.137,0.353 0.047,0.117 0.096,0.233 0.146,0.349 0.05,0.116 0.102,0.231 0.156,0.345 0.054,0.114 0.109,0.227 0.166,0.339 0.057,0.112 0.116,0.224 0.177,0.334 0.06,0.11 0.122,0.219 0.186,0.327 0.065,0.108 0.13,0.215 0.198,0.32 0.068,0.106 0.137,0.21 0.208,0.313 0.071,0.103 0.144,0.205 0.219,0.305 0.075,0.101 0.151,0.199 0.23,0.297 0.078,0.097 0.158,0.193 0.24,0.287 0.082,0.094 0.165,0.187 0.251,0.278 0.085,0.091 0.172,0.181 0.261,0.269 0.088,0.088 0.179,0.174 0.271,0.258 0.091,0.085 0.185,0.167 0.28,0.248 0.095,0.081 0.192,0.16 0.29,0.238 0.098,0.077 0.197,0.153 0.298,0.227 0.101,0.074 0.204,0.146 0.307,0.216 0.104,0.07 0.209,0.139 0.315,0.206 0.106,0.066 0.214,0.131 0.322,0.194 0.109,0.064 0.219,0.125 0.329,0.185 0.111,0.059 0.223,0.117 0.335,0.174 0.113,0.056 0.227,0.11 0.341,0.163 0.115,0.053 0.23,0.104 0.346,0.154 0.116,0.049 0.233,0.097 0.35,0.143 0.118,0.047 0.236,0.091 0.355,0.135 0.118,0.043 0.238,0.084 0.357,0.125 0.12,0.04 0.24,0.079 0.361,0.116 0.12,0.037 0.241,0.073 0.363,0.108 0.121,0.035 0.242,0.068 0.364,0.1 0.122,0.032 0.244,0.063 0.366,0.092 0.123,0.03 0.245,0.058 0.367,0.086 0.123,0.027 0.246,0.053 0.368,0.078 0.123,0.025 0.245,0.049 0.368,0.072 0.123,0.023 0.245,0.045 0.368,0.065 0.122,0.021 0.245,0.041 0.367,0.061 0.123,0.019 0.245,0.037 0.367,0.054 0.122,0.018 0.244,0.034 0.366,0.05 0.122,0.016 0.243,0.031 0.364,0.046 0.122,0.014 0.243,0.028 0.364,0.041 0.121,0.013 0.241,0.025 0.362,0.037 0.12,0.011 0.24,0.023 0.36,0.033 0.12,0.011 0.239,0.021 0.358,0.03 0.12,0.01 0.239,0.019 0.357,0.027 0.119,0.009 0.237,0.017 0.355,0.024 0.118,0.008 0.236,0.015 0.353,0.022 0.117,0.006 0.234,0.013 0.351,0.019 0.116,0.006 0.233,0.011 0.349,0.017 0.116,0.005 0.231,0.01 0.347,0.014 0.115,0.005 0.23,0.009 0.344,0.014 0.115,0.004 0.229,0.007 0.343,0.011 0.114,0.004 0.228,0.007 0.341,0.01 0.113,0.003 0.226,0.006 0.339,0.009 0.113,0.002 0.225,0.005 0.337,0.007 0.112,0.002 0.224,0.005 0.335,0.007 0.112,0.002 0.223,0.003 0.333,0.005 0.111,0.002 0.222,0.003 0.332,0.005 0.11,0.001 0.22,0.002 0.33,0.004 0.11,0.001 0.219,0.002 0.328,0.003 0.11,0.001 0.219,0.002 0.327,0.002 0.109,10e-4 0.217,0.002 0.326,0.003 0.108,0 0.216,0.001 0.324,0.001 0.107,0.001 0.215,0.001 0.322,0.002 0.108,0 0.215,0 0.322,10e-4 0.107,0 0.214,0 0.321,0.001 0.106,0 0.213,0 0.319,0 0.106,0 0.213,0 0.319,0.001 0.106,0 0.212,0 0.317,0 0.106,0 0.212,0 0.317,0 0.106,0 0.211,0 0.317,0 0.105,0 0.211,0 0.316,0 0.105,0 0.21,0 0.315,0 0.105,0 0.21,0 0.315,0 0.105,0 0.21,0 0.315,0 0.105,0 0.21,0 0.315,0 0.105,0 0.21,0 0.315,0 0.105,0 0.21,0 0.315,0 0.105,0 0.21,0 0.315,0 0.105,0 0.21,0 0.315,0 0.105,0 0.211,0 0.316,0 0.105,0 0.211,0 0.316,0 0.106,0 0.211,0 0.317,0 0.106,0 0.211,0 0.317,0 0.106,0 0.212,0 0.318,-0.001 0.107,0 0.213,0 0.319,0 0.107,0 0.214,-0.001 0.32,-0.001 0.107,0 0.214,0 0.321,-10e-4 0.108,0 0.215,-0.001 0.323,-0.001 0.107,0 0.215,-0.001 0.323,-0.002 0.108,0 0.216,-0.001 0.325,-0.001 0.108,-0.001 0.217,-0.002 0.326,-0.003 0.109,-0.001 0.218,-0.002 0.327,-0.003 0.11,-0.001 0.22,-0.002 0.33,-0.003 0.11,-0.002 0.22,-0.003 0.33,-0.005 0.111,-0.001 0.222,-0.003 0.333,-0.005 0.111,-10e-4 0.222,-0.003 0.334,-0.006 0.112,-0.002 0.224,-0.004 0.336,-0.006 0.112,-0.003 0.225,-0.006 0.338,-0.009 0.113,-0.002 0.226,-0.006 0.34,-0.009 0.114,-0.003 0.228,-0.007 0.342,-0.011 0.114,-0.003 0.229,-0.007 0.344,-0.012 0.115,-0.004 0.23,-0.009 0.346,-0.014 0.115,-0.005 0.231,-0.01 0.347,-0.016 0.117,-0.005 0.233,-0.011 0.35,-0.018 0.117,-0.006 0.235,-0.013 0.352,-0.02 0.118,-0.007 0.236,-0.015 0.354,-0.023 0.118,-0.008 0.237,-0.016 0.356,-0.025 0.119,-0.009 0.238,-0.018 0.357,-0.028 0.12,-0.01 0.24,-0.021 0.36,-0.032 0.12,-0.011 0.24,-0.023 0.361,-0.035 0.121,-0.013 0.241,-0.026 0.363,-0.039 0.121,-0.014 0.242,-0.028 0.364,-0.043 0.121,-0.016 0.243,-0.031 0.365,-0.048 0.122,-0.017 0.244,-0.034 0.366,-0.052 0.122,-0.019 0.245,-0.038 0.367,-0.058 0.123,-0.02 0.245,-0.041 0.368,-0.063 0.122,-0.022 0.245,-0.045 0.368,-0.068 0.122,-0.024 0.245,-0.049 0.368,-0.076 0.122,-0.026 0.245,-0.053 0.367,-0.081 0.122,-0.029 0.245,-0.058 0.367,-0.089 0.122,-0.031 0.244,-0.063 0.365,-0.096 0.122,-0.033 0.243,-0.068 0.364,-0.104 0.121,-0.036 0.242,-0.073 0.362,-0.112 0.12,-0.039 0.24,-0.079 0.359,-0.121 0.119,-0.041 0.238,-0.085 0.356,-0.129 0.118,-0.045 0.235,-0.091 0.352,-0.139 0.117,-0.048 0.233,-0.098 0.348,-0.149 0.116,-0.051 0.23,-0.104 0.344,-0.158 0.113,-0.055 0.226,-0.111 0.338,-0.169 0.111,-0.058 0.222,-0.118 0.332,-0.179 0.11,-0.061 0.218,-0.125 0.325,-0.19 0.108,-0.065 0.214,-0.131 0.319,-0.2 0.105,-0.068 0.209,-0.139 0.311,-0.211 0.102,-0.072 0.203,-0.146 0.303,-0.221 0.099,-0.076 0.197,-0.153 0.294,-0.233 0.097,-0.079 0.192,-0.16 0.285,-0.243 0.094,-0.082 0.186,-0.167 0.276,-0.253 0.09,-0.086 0.179,-0.174 0.266,-0.263 0.087,-0.09 0.172,-0.181 0.256,-0.274 0.083,-0.092 0.165,-0.187 0.245,-0.282 0.08,-0.096 0.159,-0.194 0.235,-0.292 0.077,-0.099 0.152,-0.2 0.225,-0.301 0.072,-0.102 0.144,-0.205 0.213,-0.309 0.07,-0.104 0.137,-0.21 0.203,-0.317 0.066,-0.107 0.13,-0.215 0.192,-0.324 0.062,-0.109 0.123,-0.219 0.182,-0.33 0.059,-0.111 0.116,-0.224 0.171,-0.337 0.055,-0.113 0.109,-0.227 0.161,-0.342 0.052,-0.115 0.102,-0.231 0.151,-0.347 0.049,-0.116 0.096,-0.234 0.141,-0.351 0.046,-0.118 0.09,-0.237 0.132,-0.355 0.043,-0.119 0.084,-0.239 0.123,-0.359 0.04,-0.12 0.078,-0.24 0.114,-0.361 0.037,-0.121 0.072,-0.242 0.106,-0.363 0.034,-0.122 0.067,-0.243 0.098,-0.365 0.032,-0.122 0.062,-0.245 0.091,-0.367 0.029,-0.122 0.057,-0.245 0.083,-0.367 0.027,-0.123 0.053,-0.245 0.077,-0.368 0.024,-0.122 0.048,-0.245 0.07,-0.368 0.023,-0.122 0.044,-0.245 0.065,-0.367 0.02,-0.123 0.04,-0.245 0.058,-0.368 0.019,-0.122 0.037,-0.244 0.054,-0.366 0.017,-0.122 0.033,-0.244 0.049,-0.366 0.015,-0.121 0.03,-0.243 0.044,-0.364 0.014,-0.121 0.027,-0.242 0.04,-0.363 0.013,-0.121 0.025,-0.241 0.036,-0.362 0.011,-0.12 0.022,-0.24 0.033,-0.359 0.01,-0.12 0.02,-0.24 0.029,-0.359 0.009,-0.119 0.018,-0.237 0.026,-0.356 0.008,-0.118 0.016,-0.236 0.023,-0.354 0.008,-0.118 0.015,-0.235 0.021,-0.353 0.007,-0.117 0.013,-0.233 0.019,-0.35 0.005,-0.116 0.011,-0.233 0.016,-0.348 0.005,-0.116 0.01,-0.232 0.014,-0.347 0.005,-0.115 0.009,-0.23 0.013,-0.344 0.004,-0.114 0.008,-0.229 0.011,-0.342 0.004,-0.114 0.007,-0.228 0.01,-0.341 0.003,-0.113 0.006,-0.226 0.008,-0.338 0.003,-0.113 0.005,-0.225 0.007,-0.337 0.003,-0.112 0.005,-0.223 0.007,-0.334 0.002,-0.112 0.003,-0.223 0.005,-0.333 0.001,-0.111 0.003,-0.221 0.004,-0.332 0.002,-0.11 0.003,-0.219 0.004,-0.329 0.001,-0.11 0.002,-0.219 0.003,-0.328 0.001,-0.109 0.002,-0.218 0.003,-0.326 0,-0.109 0.001,-0.217 0.002,-0.326 0,-0.108 10e-4,-0.216 10e-4,-0.323 0.001,-0.108 0.001,-0.215 0.002,-0.323 0,-0.107 0,-0.214 0.001,-0.321 0,-0.107 0,-0.214 0,-0.32 0.001,-0.107 0.001,-0.213 0.001,-0.32 0,-0.106 0,-0.212 0,-0.318 0,-0.106 0,-0.212 0.001,-0.317 0,-0.106 0,-0.212 0,-0.317 0,-0.106 0,-0.211 0,-0.317 0,-0.105 0,-0.21 0,-0.315 0,-0.106 0,-0.211 0,-0.316 0,-0.105 0,-0.21 0,-0.315 0,-0.105 0,-0.21 0,-0.315 0,-0.105 0,-0.21 0,-0.315"
       title="(abs(cos(x))**4 + abs(sin(x))**4)**(-1/4)"
       id="path2" />
  </g>
</svg>
