<?xml version="1.0" encoding="UTF-8" standalone="no"?>
<!-- Created with Inkscape (http://www.inkscape.org/) -->

<svg
   width="29.999996mm"
   height="30.000004mm"
   viewBox="0 0 29.999996 30.000004"
   version="1.1"
   id="svg1"
   xml:space="preserve"
   xmlns="http://www.w3.org/2000/svg"
   xmlns:svg="http://www.w3.org/2000/svg"><defs
     id="defs1"><style
       id="style1">.cls-1{fill:none;}</style></defs><g
     id="layer1"
     transform="translate(-61.951324,-77.844932)"><g
       id="g135"
       transform="matrix(0.87523624,0,0,0.87524934,7.7292803,9.7112069)"
       style="stroke-width:1.14254"><path
         d="m 63.573449,102.26102 2.079459,-1.51567 h -2.703711 a 17.13802,17.13802 0 0 0 0.624252,1.51567 z"
         style="fill:#012169;stroke-width:5.78228"
         id="path135" /><path
         d="m 66.631143,106.7517 7.715292,-5.62395 v -0.3824 h -3.162598 -3.687114 l -3.42408,2.49597 a 17.13802,17.13802 0 0 0 2.5585,3.51038 z"
         style="baseline-shift:baseline;display:inline;overflow:visible;vector-effect:none;fill:#c8102e;stroke-width:5.78228;enable-background:accumulate;stop-color:#000000;stop-opacity:1"
         id="path134" /><path
         d="m 74.346435,111.45167 v -8.98033 l -6.934978,5.05499 a 17.13802,17.13802 0 0 0 6.934978,3.92534 z"
         style="fill:#012169;stroke-width:5.78228"
         id="path133" /><path
         d="m 76.243476,111.88317 v -10.79469 -1.343595 -1.30483 h -1.897041 -3.687114 -1.843298 -6.512264 a 17.13802,17.13802 0 0 0 0.645438,2.305295 h 2.703711 l -2.079459,1.51567 a 17.13802,17.13802 0 0 0 0.499194,0.9803 l 3.42408,-2.49597 h 3.687114 3.162598 v 0.3824 l -7.715292,5.62395 a 17.13802,17.13802 0 0 0 0.780314,0.77463 l 6.934978,-5.05499 v 8.98033 a 17.13802,17.13802 0 0 0 1.897041,0.4315 z"
         style="baseline-shift:baseline;display:inline;overflow:visible;vector-effect:none;fill:#ffffff;stroke-width:5.78228;enable-background:accumulate;stop-color:#000000;stop-opacity:1"
         id="path132" /><path
         d="m 90.767654,107.52633 -6.934977,-5.05499 v 8.98033 a 17.13802,17.13802 0 0 0 6.934977,-3.92534 z"
         style="fill:#012169;stroke-width:5.78228"
         id="path131" /><path
         d="m 95.229914,100.74535 h -2.703711 l 2.07946,1.51567 a 17.13802,17.13802 0 0 0 0.624251,-1.51567 z"
         style="fill:#012169;stroke-width:5.78228"
         id="path130" /><path
         d="m 94.106469,103.24132 -3.424081,-2.49597 h -3.687113 -3.162598 v 0.38292 l 7.715292,5.62343 a 17.13802,17.13802 0 0 0 2.5585,-3.51038 z"
         style="baseline-shift:baseline;display:inline;overflow:visible;vector-effect:none;fill:#c8102e;stroke-width:5.78228;enable-background:accumulate;stop-color:#000000;stop-opacity:1"
         id="path129" /><path
         d="m 95.875353,98.440055 h -6.512264 -1.843298 -3.687114 -1.897042 v 1.30535 1.343075 10.79469 a 17.13802,17.13802 0 0 0 1.897042,-0.4315 v -8.98033 l 6.934977,5.05499 a 17.13802,17.13802 0 0 0 0.780315,-0.77463 l -7.715292,-5.62343 v -0.38292 h 3.162598 3.687113 l 3.424081,2.49597 a 17.13802,17.13802 0 0 0 0.499194,-0.9803 l -2.07946,-1.51567 h 2.703711 a 17.13802,17.13802 0 0 0 0.645439,-2.305295 z"
         style="baseline-shift:baseline;display:inline;overflow:visible;vector-effect:none;fill:#ffffff;stroke-width:5.78228;enable-background:accumulate;stop-color:#000000;stop-opacity:1"
         id="path128" /><path
         d="m 94.605663,87.704796 -2.07946,1.51567 h 2.703711 a 17.13802,17.13802 0 0 0 -0.624251,-1.51567 z"
         style="fill:#012169;stroke-width:5.78228"
         id="path127" /><path
         d="m 91.547969,83.214114 -7.715292,5.623429 v 0.382923 h 3.162598 3.68763 l 3.42408,-2.495455 a 17.13802,17.13802 0 0 0 -2.559016,-3.510897 z"
         style="baseline-shift:baseline;display:inline;overflow:visible;vector-effect:none;fill:#c8102e;stroke-width:5.78228;enable-background:accumulate;stop-color:#000000;stop-opacity:1"
         id="path126" /><path
         d="m 81.935635,78.083161 v 10.794173 1.343071 1.305346 h 1.897042 3.687114 1.843298 6.512264 a 17.13802,17.13802 0 0 0 -0.645439,-2.305285 h -2.703711 l 2.07946,-1.51567 a 17.13802,17.13802 0 0 0 -0.498678,-0.979785 l -3.42408,2.495455 h -3.68763 -3.162598 v -0.382923 l 7.715292,-5.623429 a 17.13802,17.13802 0 0 0 -0.780315,-0.774113 l -6.934977,5.054472 v -8.979814 a 17.13802,17.13802 0 0 0 -1.897042,-0.431498 z"
         style="baseline-shift:baseline;display:inline;overflow:visible;vector-effect:none;fill:#ffffff;stroke-width:5.78228;enable-background:accumulate;stop-color:#000000;stop-opacity:1"
         id="path125" /><path
         d="m 83.832677,78.514659 v 8.979814 l 6.934977,-5.054472 a 17.13802,17.13802 0 0 0 -6.934977,-3.925342 z"
         style="fill:#012169;stroke-width:5.78228"
         id="path124" /><path
         d="m 76.243476,78.083161 v 10.794173 1.343588 1.304829 h -1.897041 -3.687114 -1.843298 -6.512264 a 17.13802,17.13802 0 0 0 -0.352433,3.457154 17.13802,17.13802 0 0 0 0.352433,3.45715 h 6.512264 1.843298 3.687114 1.897041 v 1.30483 1.343595 10.79469 a 17.13802,17.13802 0 0 0 2.846338,0.23771 17.13802,17.13802 0 0 0 2.845821,-0.23771 v -10.79469 -1.343075 -1.30535 h 1.897042 3.687114 1.843298 6.512264 a 17.13802,17.13802 0 0 0 0.352433,-3.45715 17.13802,17.13802 0 0 0 -0.352433,-3.457154 H 89.363089 87.519791 83.832677 81.935635 V 90.220405 88.877334 78.083161 a 17.13802,17.13802 0 0 0 -2.845821,-0.238228 17.13802,17.13802 0 0 0 -2.846338,0.238228 z"
         style="baseline-shift:baseline;display:inline;overflow:visible;vector-effect:none;fill:#c8102e;stroke-width:5.78228;enable-background:accumulate;stop-color:#000000;stop-opacity:1"
         id="path123" /><path
         d="m 67.411457,82.440001 6.934978,5.054472 v -8.979814 a 17.13802,17.13802 0 0 0 -6.934978,3.925342 z"
         style="fill:#012169;stroke-width:5.78228"
         id="path122" /><path
         d="m 64.072126,86.725011 a 17.13802,17.13802 0 0 0 -0.498677,0.979785 l 2.079459,1.51567 h -2.703711 a 17.13802,17.13802 0 0 0 -0.645438,2.305285 h 6.512264 1.843298 3.687114 1.897041 V 90.220922 88.877334 78.083161 a 17.13802,17.13802 0 0 0 -1.897041,0.431498 v 8.979814 l -6.934978,-5.054472 a 17.13802,17.13802 0 0 0 -0.780314,0.77463 l 7.715292,5.623429 v 0.382406 h -3.162598 -3.68763 z"
         style="baseline-shift:baseline;display:inline;overflow:visible;vector-effect:none;fill:#ffffff;stroke-width:5.78228;enable-background:accumulate;stop-color:#000000;stop-opacity:1"
         id="path121" /><path
         d="m 64.072126,86.725011 3.424081,2.495455 h 3.68763 3.162598 V 88.83806 l -7.715292,-5.623429 a 17.13802,17.13802 0 0 0 -2.559017,3.51038 z"
         style="baseline-shift:baseline;display:inline;overflow:visible;vector-effect:none;fill:#c8102e;stroke-width:5.78228;enable-background:accumulate;stop-color:#000000;stop-opacity:1"
         id="path120" /><path
         d="m 62.949197,89.220466 h 2.703711 l -2.079459,-1.51567 a 17.13802,17.13802 0 0 0 -0.624252,1.51567 z"
         style="fill:#012169;stroke-width:5.78228"
         id="path119" /></g></g></svg>
