<?xml version="1.0" encoding="UTF-8" standalone="no"?>
<!-- Created with Inkscape (http://www.inkscape.org/) -->

<svg
   width="541.26929mm"
   height="73.000168mm"
   viewBox="0 0 541.26929 73.000168"
   version="1.1"
   id="svg1"
   sodipodi:docname="squircle-resized.svg"
   inkscape:version="1.4.2 (f4327f4, 2025-05-13)"
   inkscape:export-filename="squircle.svg"
   inkscape:export-xdpi="96"
   inkscape:export-ydpi="96"
   xmlns:inkscape="http://www.inkscape.org/namespaces/inkscape"
   xmlns:sodipodi="http://sodipodi.sourceforge.net/DTD/sodipodi-0.dtd"
   xmlns="http://www.w3.org/2000/svg"
   xmlns:svg="http://www.w3.org/2000/svg">
  <sodipodi:namedview
     id="namedview1"
     pagecolor="#ffffff"
     bordercolor="#000000"
     borderopacity="0.25"
     inkscape:showpageshadow="2"
     inkscape:pageopacity="0.0"
     inkscape:pagecheckerboard="0"
     inkscape:deskcolor="#d1d1d1"
     inkscape:document-units="mm"
     inkscape:zoom="0.1436696"
     inkscape:cx="1155.4288"
     inkscape:cy="229.69369"
     inkscape:window-width="3440"
     inkscape:window-height="1417"
     inkscape:window-x="1912"
     inkscape:window-y="-8"
     inkscape:window-maximized="1"
     inkscape:current-layer="svg1" />
  <defs
     id="defs1" />
  <path
     d="M 541.26929,72.579033 V 0 H 0 c 0.066059,0.272893 0.1349538,0.547134 0.206189,0.821139 0.108872,0.41202 0.2214507,0.82408 0.3426147,1.2361 0.121164,0.41202 0.2473993,0.827698 0.3808553,1.239718 0.135212,0.4158 0.2755203,0.831669 0.4247803,1.247469 0.147504,0.41202 0.304158,0.827889 0.469222,1.247469 0.163308,0.4158 0.3353796,0.831506 0.5162476,1.251086 0.179112,0.4158 0.3686681,0.835124 0.5653401,1.254704 0.198428,0.4158 0.4036125,0.83564 0.6196005,1.25522 0.215988,0.41958 0.4411405,0.842876 0.6764445,1.262456 0.235304,0.41958 0.4791853,0.842875 0.7338053,1.262455 0.25462,0.42336 0.5199194,0.843229 0.7973674,1.266589 0.275692,0.42336 0.5618925,0.84633 0.8604125,1.26969 0.29852,0.42336 0.6072775,0.846847 0.9286255,1.270207 0.321348,0.42336 0.6550405,0.846847 1.0009726,1.270207 0.345932,0.42336 0.704354,0.850464 1.07487,1.273824 0.370516,0.42336 0.7550107,0.850464 1.1518667,1.273824 0.396856,0.42336 0.808048,0.850464 1.233,1.273824 0.424952,0.42336 0.862117,0.850464 1.315165,1.273824 0.453048,0.42336 0.921871,0.846847 1.403015,1.270207 0.4829,0.42714 0.979664,0.850464 1.492416,1.273824 0.512752,0.42336 1.041589,0.842712 1.585949,1.266072 0.54436,0.42336 1.104344,0.84701 1.682068,1.26659 0.575968,0.42336 1.169682,0.842875 1.78077,1.262455 0.609332,0.41958 1.237604,0.839258 1.882056,1.258838 0.644452,0.4158 1.306353,0.835286 1.985925,1.251086 0.681328,0.4158 1.378515,0.831669 2.094963,1.247469 0.716448,0.41202 1.450676,0.82786 2.204,1.2361 0.753324,0.41202 1.524387,0.823727 2.314587,1.231967 0.791956,0.40824 1.601511,0.816491 2.430343,1.224731 0.828832,0.40446 1.678633,0.808903 2.546097,1.213363 0.86922,0.40068 1.756068,0.801314 2.66392,1.201994 0.907852,0.3969 1.835053,0.794241 2.783293,1.191141 0.94824,0.39312 1.915588,0.785782 2.904216,1.175122 0.988628,0.39312 1.996639,0.77871 3.025655,1.16427 1.029016,0.38556 2.077485,0.771284 3.148645,1.149284 1.069404,0.38178 2.15957,0.760078 3.271118,1.134298 1.109792,0.378 2.240622,0.748355 3.392558,1.118795 1.151936,0.37044 2.32529,0.736794 3.517614,1.099674 1.192324,0.36288 2.40562,0.725751 3.640088,1.081071 1.232712,0.3591 2.486361,0.710928 3.759461,1.062468 1.274856,0.35154 2.568962,0.699367 3.88245,1.043347 1.313488,0.34398 2.646397,0.684189 4.000273,1.020609 1.35212,0.33642 2.72507,0.669012 4.117578,0.997872 1.390752,0.32886 2.802916,0.653672 4.2323,0.978752 1.43114,0.3213 2.879728,0.639173 4.345988,0.952913 1.46626,0.31374 2.951889,0.623479 4.455025,0.929659 1.503136,0.3024 3.02529,0.604684 4.563546,0.903304 1.53826,0.29862 3.094244,0.590023 4.665864,0.881083 1.57338,0.28728 3.16269,0.574492 4.76767,0.854212 1.60674,0.27972 3.2272,0.555696 4.86379,0.827856 1.63835,0.27216 3.29087,0.540519 4.95732,0.805119 1.6682,0.26082 3.35042,0.52137 5.04672,0.77463 1.69629,0.25704 3.40656,0.506709 5.13095,0.752409 1.72264,0.2457 3.46104,0.487559 5.21002,0.721919 1.75073,0.23814 3.51222,0.468603 5.28753,0.699183 1.77356,0.2268 3.55967,0.449969 5.35781,0.669209 1.79815,0.21924 3.6065,0.434793 5.42396,0.646473 1.81922,0.21168 3.64899,0.41548 5.48752,0.6196 1.84029,0.20034 3.68755,0.396848 5.5454,0.589628 1.85785,0.19656 3.7227,0.385967 5.59811,0.567407 1.87365,0.18522 3.75619,0.366493 5.64565,0.544153 1.88946,0.17388 3.78762,0.347861 5.69112,0.514181 1.90351,0.1701 3.81409,0.33252 5.72989,0.49506 1.91579,0.15876 3.83848,0.313725 5.76657,0.468705 1.92633,0.1512 3.85968,0.29871 5.79655,0.44235 1.93686,0.14742 3.87932,0.28715 5.82496,0.42323 1.9439,0.13608 3.89452,0.268193 5.84719,0.400493 1.95267,0.12852 3.90889,0.253531 5.86683,0.378271 1.95794,0.12096 3.91943,0.241617 5.88439,0.355017 1.96321,0.11718 3.92853,0.226794 5.89525,0.336414 1.96848,0.10962 3.9369,0.21575 5.90713,0.31781 1.96848,0.10206 3.94032,0.200056 5.9123,0.294556 1.97024,0.09828 3.94218,0.189366 5.91592,0.280086 1.97199,0.09072 3.94393,0.177289 5.91592,0.260449 1.97374,0.08316 3.946,0.1666 5.91798,0.24598 1.97024,0.0756 3.94207,0.151259 5.91231,0.226859 1.96847,0.07182 3.93886,0.143317 5.90558,0.211357 1.96847,0.06804 3.93493,0.132627 5.8999,0.196887 1.96496,0.06048 3.92811,0.120904 5.88956,0.181384 1.96145,0.0567 3.92129,0.113479 5.87923,0.166399 1.95794,0.05292 3.91415,0.105889 5.86682,0.155029 1.95443,0.04914 3.90527,0.0983 5.85443,0.14366 1.94916,0.04536 3.89502,0.08658 5.83892,0.128158 1.94564,0.04158 3.88582,0.08312 5.82445,0.120923 1.93862,0.0378 3.87559,0.07227 5.80894,0.110071 1.93336,0.03402 3.86484,0.06417 5.79293,0.09819 1.92633,0.03024 3.85275,0.06036 5.77381,0.08682 1.92282,0.03024 3.84199,0.0569 5.75779,0.07958 1.91755,0.02646 3.83175,0.04915 5.74228,0.07183 1.91053,0.02268 3.81739,0.04518 5.72265,0.06408 1.90526,0.0189 3.80715,0.03794 5.70715,0.05684 1.89823,0.0189 3.79485,0.03397 5.68957,0.04909 1.89297,0.01512 3.78379,0.03 5.67149,0.04134 1.8877,0.01512 3.77355,0.02638 5.65599,0.03772 1.88243,0.01134 3.76331,0.02277 5.64048,0.03411 1.87892,0.0076 3.75412,0.0188 5.62601,0.02636 1.87365,0.0076 3.74419,0.01518 5.61258,0.02274 1.86838,0.0076 3.73323,0.01156 5.59811,0.01912 1.86311,0.0038 3.72455,0.0074 5.58415,0.01499 1.85961,0.0038 3.71721,0.0076 5.5733,0.01137 1.8561,0 3.71039,0.004 5.56297,0.0078 1.85434,0.0038 3.70512,0.0035 5.55419,0.0072 1.85082,0 3.70015,3.54e-4 5.54746,0.0041 h 5.53816 c 1.67808,0.0034 3.35653,0.0036 5.03329,0.0036 h 28.236 c 1.81627,-1.16e-4 3.63249,-0.0036 5.44876,-0.0036 1.84732,0 3.69478,-3.54e-4 5.54385,-0.0041 1.84731,0 3.69819,-0.0036 5.54902,-0.0036 1.85082,-0.0038 3.70346,-0.004 5.5578,-0.0078 1.85609,-0.0038 3.71008,-0.0076 5.56968,-0.01137 1.85785,-0.0038 3.71763,-0.0076 5.57899,-0.01137 1.86136,-0.0076 3.72425,-0.01104 5.59087,-0.0186 1.86663,-0.0038 3.73345,-0.01156 5.60535,-0.01912 1.87014,-0.0076 3.74233,-0.01502 5.61774,-0.02636 1.87541,-0.0076 3.75257,-0.01501 5.63325,-0.02636 1.88068,-0.01134 3.76281,-0.02277 5.64875,-0.03411 1.88594,-0.01512 3.77356,-0.02622 5.66477,-0.04134 1.88946,-0.01512 3.78431,-0.03036 5.68079,-0.04547 1.89648,-0.0189 3.79455,-0.03433 5.69629,-0.05323 1.90351,-0.0189 3.80716,-0.03778 5.71593,-0.06046 1.53197,-0.01822 3.0673,-0.03604 4.60334,-0.05426 z"
     style="fill:#000000;stroke-width:0.229;stroke-linecap:round;stroke-linejoin:round;stroke-dasharray:7.99999, 2, 0.0999998, 2;paint-order:markers stroke fill"
     id="path2" />
</svg>
