<?xml version="1.0" encoding="UTF-8" standalone="no"?>
<!-- Created with Inkscape (http://www.inkscape.org/) -->

<svg
   width="50.529167mm"
   height="50.529167mm"
   viewBox="0 0 50.529167 50.529167"
   version="1.1"
   id="svg1"
   sodipodi:docname="squircle.svg"
   inkscape:version="1.4.2 (f4327f4, 2025-05-13)"
   inkscape:export-filename="squircle.svg"
   inkscape:export-xdpi="96"
   inkscape:export-ydpi="96"
   xmlns:inkscape="http://www.inkscape.org/namespaces/inkscape"
   xmlns:sodipodi="http://sodipodi.sourceforge.net/DTD/sodipodi-0.dtd"
   xmlns="http://www.w3.org/2000/svg"
   xmlns:svg="http://www.w3.org/2000/svg">
  <sodipodi:namedview
     id="namedview1"
     pagecolor="#ffffff"
     bordercolor="#000000"
     borderopacity="0.25"
     inkscape:showpageshadow="2"
     inkscape:pageopacity="0.0"
     inkscape:pagecheckerboard="0"
     inkscape:deskcolor="#d1d1d1"
     inkscape:document-units="mm"
     inkscape:zoom="2.2987136"
     inkscape:cx="115.49938"
     inkscape:cy="167.48498"
     inkscape:window-width="1920"
     inkscape:window-height="1057"
     inkscape:window-x="-8"
     inkscape:window-y="131"
     inkscape:window-maximized="1"
     inkscape:current-layer="svg1" />
  <defs
     id="defs1" />
  <g
     id="layer1"
     transform="translate(-40.998714,-114.16942)"
     style="stroke:none;fill:#000000;stroke-width:0">
    <path
       style="fill:#000000;fill-opacity:1;stroke:none;stroke-width:0;stroke-linecap:round;stroke-linejoin:round;stroke-opacity:1;paint-order:markers stroke fill"
       d="m 91.2633,139.434 c 0,-0.105 0,-0.21 0,-0.315 0,-0.105 0,-0.21 -1e-4,-0.315 -1e-4,-0.105 -2e-4,-0.21 -3e-4,-0.315 -2e-4,-0.105 -4e-4,-0.21 -6e-4,-0.315 -3e-4,-0.105 -6e-4,-0.211 -0.0011,-0.316 -4e-4,-0.105 -9e-4,-0.211 -0.0015,-0.316 -6e-4,-0.106 -0.0013,-0.211 -0.0021,-0.317 -8e-4,-0.105 -0.0018,-0.211 -0.0029,-0.317 -0.0011,-0.106 -0.0023,-0.212 -0.0036,-0.318 -0.0014,-0.106 -0.0029,-0.212 -0.0047,-0.318 -0.0017,-0.107 -0.0035,-0.213 -0.0056,-0.32 -0.0021,-0.106 -0.0043,-0.213 -0.0068,-0.32 -0.0025,-0.107 -0.0052,-0.214 -0.0081,-0.321 -0.0029,-0.107 -0.0061,-0.214 -0.0095,-0.322 -0.0034,-0.107 -0.0071,-0.215 -0.011,-0.323 -0.0039,-0.107 -0.0082,-0.215 -0.0127,-0.323 -0.0045,-0.109 -0.0093,-0.217 -0.0144,-0.325 -0.0051,-0.109 -0.0106,-0.217 -0.0163,-0.326 -0.0058,-0.109 -0.012,-0.218 -0.0184,-0.327 -0.0065,-0.109 -0.0134,-0.218 -0.0206,-0.327 -0.0073,-0.11 -0.0149,-0.219 -0.0229,-0.329 -0.0081,-0.11 -0.0165,-0.219 -0.0254,-0.329 -0.0089,-0.11 -0.0183,-0.221 -0.0281,-0.331 -0.0097,-0.11 -0.02,-0.221 -0.0308,-0.331 -0.0107,-0.111 -0.022,-0.222 -0.0337,-0.333 -0.0118,-0.111 -0.0241,-0.222 -0.0369,-0.333 -0.0128,-0.111 -0.0262,-0.222 -0.0401,-0.334 -0.014,-0.111 -0.0285,-0.223 -0.0436,-0.335 -0.0151,-0.111 -0.0308,-0.223 -0.0472,-0.335 -0.0163,-0.112 -0.0333,-0.224 -0.0509,-0.336 -0.0177,-0.112 -0.036,-0.224 -0.055,-0.336 -0.0189,-0.112 -0.0386,-0.224 -0.059,-0.337 -0.0204,-0.112 -0.0415,-0.224 -0.0634,-0.336 -0.0219,-0.113 -0.0445,-0.225 -0.0679,-0.337 -0.0233,-0.113 -0.0475,-0.225 -0.0725,-0.337 -0.025,-0.113 -0.0508,-0.225 -0.0774,-0.337 -0.0266,-0.112 -0.0541,-0.224 -0.0824,-0.337 -0.0283,-0.112 -0.0576,-0.224 -0.0876,-0.335 -0.0301,-0.112 -0.0611,-0.224 -0.0931,-0.336 -0.0319,-0.111 -0.0647,-0.223 -0.0985,-0.334 -0.0338,-0.111 -0.0686,-0.223 -0.1043,-0.333 -0.0357,-0.111 -0.0724,-0.222 -0.1101,-0.332 -0.0378,-0.111 -0.0765,-0.221 -0.1162,-0.331 -0.0398,-0.11 -0.0806,-0.22 -0.1224,-0.329 -0.0418,-0.109 -0.0847,-0.218 -0.1286,-0.327 -0.044,-0.108 -0.089,-0.216 -0.1352,-0.324 -0.0461,-0.108 -0.0933,-0.216 -0.1416,-0.323 -0.0484,-0.106 -0.0978,-0.213 -0.1484,-0.319 -0.0505,-0.106 -0.1022,-0.212 -0.155,-0.317 -0.0529,-0.105 -0.1069,-0.209 -0.162,-0.313 -0.0551,-0.104 -0.1114,-0.207 -0.1688,-0.31 -0.0574,-0.102 -0.116,-0.204 -0.1758,-0.306 -0.0598,-0.101 -0.1207,-0.202 -0.1828,-0.302 -0.0621,-0.1 -0.1253,-0.199 -0.1898,-0.298 -0.0644,-0.098 -0.13,-0.196 -0.1967,-0.293 -0.0668,-0.097 -0.1347,-0.193 -0.2038,-0.289 -0.0691,-0.095 -0.1393,-0.19 -0.2107,-0.283 -0.0714,-0.094 -0.144,-0.187 -0.2176,-0.279 -0.0737,-0.092 -0.1485,-0.183 -0.2245,-0.273 -0.0759,-0.09 -0.153,-0.179 -0.2311,-0.267 -0.0782,-0.088 -0.1575,-0.175 -0.2378,-0.261 -0.0804,-0.086 -0.1618,-0.171 -0.2443,-0.255 -0.0825,-0.084 -0.1661,-0.167 -0.2506,-0.249 -0.0846,-0.082 -0.1702,-0.163 -0.2569,-0.243 -0.0866,-0.08 -0.1742,-0.159 -0.2628,-0.236 -0.0886,-0.078 -0.1781,-0.154 -0.2686,-0.23 -0.0905,-0.075 -0.182,-0.149 -0.2743,-0.222 -0.0923,-0.074 -0.1856,-0.146 -0.2797,-0.216 -0.0941,-0.071 -0.189,-0.141 -0.2848,-0.209 -0.0958,-0.069 -0.1924,-0.136 -0.2898,-0.202 -0.0974,-0.067 -0.1956,-0.132 -0.2945,-0.195 -0.0989,-0.064 -0.1986,-0.127 -0.299,-0.188 -0.1003,-0.062 -0.2014,-0.122 -0.3031,-0.181 -0.1017,-0.06 -0.2041,-0.118 -0.3071,-0.175 -0.1029,-0.056 -0.2065,-0.112 -0.3107,-0.167 -0.1042,-0.054 -0.2089,-0.108 -0.3142,-0.16 -0.1052,-0.052 -0.211,-0.103 -0.3173,-0.153 -0.1062,-0.05 -0.213,-0.099 -0.3202,-0.147 -0.1072,-0.048 -0.2148,-0.094 -0.3228,-0.14 -0.108,-0.045 -0.2165,-0.09 -0.3252,-0.133 -0.1088,-0.044 -0.2179,-0.086 -0.3274,-0.127 -0.1094,-0.042 -0.2192,-0.082 -0.3293,-0.121 -0.11,-0.04 -0.2203,-0.078 -0.3309,-0.115 -0.1105,-0.037 -0.2213,-0.073 -0.3323,-0.109 -0.1111,-0.035 -0.2223,-0.069 -0.3336,-0.102 -0.1114,-0.034 -0.223,-0.066 -0.3347,-0.098 -0.1116,-0.031 -0.2235,-0.062 -0.3354,-0.091 -0.1119,-0.03 -0.224,-0.059 -0.3361,-0.087 -0.1121,-0.027 -0.2243,-0.054 -0.3365,-0.081 -0.1122,-0.026 -0.2245,-0.051 -0.3368,-0.076 -0.1123,-0.024 -0.2247,-0.048 -0.337,-0.071 -0.1123,-0.023 -0.2247,-0.045 -0.337,-0.067 -0.1123,-0.021 -0.2245,-0.042 -0.3368,-0.062 -0.1122,-0.02 -0.2244,-0.04 -0.3365,-0.058 -0.1122,-0.019 -0.2242,-0.037 -0.3362,-0.054 -0.112,-0.017 -0.2239,-0.034 -0.3357,-0.05 -0.1118,-0.016 -0.2235,-0.032 -0.3351,-0.046 -0.1116,-0.015 -0.2231,-0.029 -0.3345,-0.043 -0.1114,-0.014 -0.2226,-0.027 -0.3338,-0.039 -0.1111,-0.013 -0.2221,-0.025 -0.3329,-0.036 -0.1109,-0.012 -0.2216,-0.023 -0.3321,-0.033 -0.1106,-0.011 -0.221,-0.021 -0.3313,-0.031 -0.1102,-0.009 -0.2203,-0.018 -0.3303,-0.027 -0.1099,-0.009 -0.2197,-0.017 -0.3294,-0.025 -0.1096,-0.008 -0.2191,-0.015 -0.3284,-0.022 -0.1093,-0.007 -0.2184,-0.014 -0.3274,-0.02 -0.1089,-0.006 -0.2178,-0.012 -0.3264,-0.018 -0.1087,-0.006 -0.2171,-0.011 -0.3255,-0.016 -0.1083,-0.005 -0.2164,-0.009 -0.3244,-0.014 -0.108,-0.004 -0.2159,-0.008 -0.3235,-0.012 -0.1077,-0.004 -0.2152,-0.007 -0.3226,-0.011 -0.1074,-0.003 -0.2146,-0.006 -0.3217,-0.009 -0.1071,-0.003 -0.214,-0.005 -0.3208,-0.007 -0.1068,-0.003 -0.2134,-0.005 -0.3199,-0.007 -0.1066,-0.002 -0.2129,-0.004 -0.3192,-0.005 -0.1063,-0.002 -0.2124,-0.003 -0.3184,-0.005 -0.106,-10e-4 -0.2119,-0.002 -0.3177,-0.003 -0.1059,-10e-4 -0.2115,-0.002 -0.3172,-0.003 -0.1056,-10e-4 -0.2111,-10e-4 -0.3165,-0.002 -0.1054,0 -0.2108,-10e-4 -0.316,-10e-4 -0.1053,-0.001 -0.2105,-0.001 -0.3157,-0.001 -0.1051,0 -0.2102,-0.001 -0.3153,-0.001 -0.105,0 -0.21,0 -0.315,0 -0.105,0 -0.2099,0 -0.3149,0 -0.1049,0 -0.2098,0 -0.3148,0 -0.1049,0 -0.2098,0 -0.3148,0 -0.1049,0 -0.2099,0 -0.3149,0 -0.105,0 -0.2101,0 -0.3152,0.001 -0.1051,0 -0.2102,0 -0.3154,0 -0.1052,0.001 -0.2105,0.001 -0.3159,0.001 -0.1053,10e-4 -0.2107,10e-4 -0.3163,0.002 -0.1055,10e-4 -0.2111,0.002 -0.3168,0.002 -0.1057,0.001 -0.2115,0.002 -0.3174,0.003 -0.1059,0.002 -0.2119,0.003 -0.318,0.004 -0.1062,0.002 -0.2124,0.003 -0.3188,0.005 -0.1064,0.002 -0.2129,0.004 -0.3196,0.006 -0.1066,0.002 -0.2134,0.005 -0.3204,0.007 -0.1069,0.003 -0.214,0.006 -0.3212,0.009 -0.1072,0.003 -0.2146,0.006 -0.3221,0.01 -0.1075,0.003 -0.2152,0.007 -0.323,0.011 -0.1079,0.004 -0.2159,0.008 -0.324,0.013 -0.1082,0.005 -0.2165,0.01 -0.325,0.015 -0.1085,0.005 -0.2171,0.011 -0.3259,0.017 -0.1088,0.006 -0.2178,0.012 -0.327,0.019 -0.1091,0.006 -0.2184,0.013 -0.3279,0.021 -0.1094,0.007 -0.2191,0.015 -0.3288,0.023 -0.1098,0.009 -0.2198,0.017 -0.3299,0.026 -0.1101,0.01 -0.2204,0.019 -0.3308,0.029 -0.1104,0.01 -0.2209,0.021 -0.3317,0.032 -0.1107,0.011 -0.2215,0.022 -0.3325,0.034 -0.111,0.012 -0.2221,0.025 -0.3334,0.038 -0.1112,0.013 -0.2226,0.027 -0.3341,0.041 -0.1115,0.014 -0.2231,0.029 -0.3348,0.044 -0.1117,0.016 -0.2235,0.032 -0.3354,0.048 -0.1119,0.017 -0.2239,0.034 -0.336,0.052 -0.112,0.018 -0.2242,0.037 -0.3363,0.056 -0.1122,0.02 -0.2245,0.04 -0.3367,0.06 -0.1123,0.021 -0.2246,0.043 -0.337,0.065 -0.1123,0.022 -0.2246,0.045 -0.3369,0.069 -0.1124,0.024 -0.2247,0.048 -0.3369,0.074 -0.1123,0.025 -0.2246,0.051 -0.3367,0.078 -0.1122,0.027 -0.2243,0.055 -0.3364,0.084 -0.112,0.029 -0.2239,0.058 -0.3357,0.089 -0.1119,0.03 -0.2236,0.062 -0.3351,0.094 -0.1115,0.033 -0.2229,0.066 -0.3341,0.1 -0.1112,0.035 -0.2223,0.07 -0.333,0.106 -0.1108,0.036 -0.2214,0.073 -0.3317,0.112 -0.1103,0.038 -0.2204,0.077 -0.3301,0.117 -0.1098,0.041 -0.2193,0.082 -0.3284,0.124 -0.1091,0.043 -0.2179,0.086 -0.3263,0.131 -0.1084,0.044 -0.2165,0.09 -0.3241,0.136 -0.1076,0.047 -0.2148,0.095 -0.3215,0.144 -0.1068,0.048 -0.213,0.098 -0.3188,0.15 -0.1058,0.051 -0.211,0.103 -0.3158,0.156 -0.1047,0.054 -0.2089,0.108 -0.3125,0.164 -0.1035,0.056 -0.2065,0.113 -0.3089,0.171 -0.1024,0.058 -0.2041,0.117 -0.3051,0.177 -0.1011,0.061 -0.2014,0.122 -0.3011,0.185 -0.0997,0.062 -0.1986,0.126 -0.2967,0.191 -0.0982,0.065 -0.1956,0.131 -0.2922,0.199 -0.0966,0.067 -0.1924,0.136 -0.2874,0.205 -0.0949,0.07 -0.189,0.141 -0.2823,0.213 -0.0932,0.072 -0.1855,0.145 -0.277,0.219 -0.0914,0.074 -0.1819,0.15 -0.2715,0.226 -0.0895,0.077 -0.1781,0.154 -0.2657,0.233 -0.0876,0.079 -0.1743,0.159 -0.2599,0.239 -0.0856,0.081 -0.1702,0.163 -0.2537,0.246 -0.0835,0.083 -0.166,0.167 -0.2475,0.252 -0.0814,0.086 -0.1618,0.172 -0.241,0.259 -0.0793,0.087 -0.1575,0.175 -0.2345,0.264 -0.0771,0.089 -0.153,0.179 -0.2278,0.27 -0.0748,0.091 -0.1485,0.183 -0.2211,0.276 -0.0725,0.093 -0.1439,0.186 -0.2141,0.281 -0.0703,0.094 -0.1394,0.19 -0.2073,0.286 -0.0679,0.096 -0.1347,0.193 -0.2003,0.291 -0.0656,0.098 -0.13,0.196 -0.1932,0.296 -0.0633,0.099 -0.1254,0.199 -0.1863,0.3 -0.061,0.1 -0.1207,0.202 -0.1793,0.304 -0.0586,0.102 -0.116,0.204 -0.1723,0.308 -0.0563,0.103 -0.1114,0.207 -0.1654,0.311 -0.054,0.105 -0.1068,0.21 -0.1585,0.315 -0.0517,0.106 -0.1022,0.212 -0.1517,0.318 -0.0494,0.107 -0.0978,0.214 -0.145,0.321 -0.0472,0.108 -0.0933,0.216 -0.1384,0.324 -0.045,0.108 -0.0889,0.217 -0.1318,0.326 -0.0429,0.108 -0.0847,0.218 -0.1255,0.327 -0.0408,0.11 -0.0805,0.22 -0.1193,0.33 -0.0387,0.11 -0.0764,0.221 -0.1131,0.331 -0.0367,0.111 -0.0725,0.222 -0.1072,0.333 -0.0348,0.111 -0.0686,0.222 -0.1014,0.334 -0.0329,0.111 -0.0648,0.223 -0.0958,0.335 -0.031,0.112 -0.0611,0.223 -0.0903,0.335 -0.0292,0.112 -0.0575,0.224 -0.085,0.337 -0.0275,0.112 -0.0541,0.224 -0.0799,0.336 -0.0258,0.112 -0.0507,0.225 -0.0749,0.337 -0.0242,0.112 -0.0476,0.225 -0.0702,0.337 -0.0226,0.112 -0.0445,0.225 -0.0656,0.337 -0.0211,0.112 -0.0415,0.225 -0.0612,0.337 -0.0197,0.112 -0.0386,0.224 -0.057,0.336 -0.0183,0.112 -0.0359,0.224 -0.0529,0.336 -0.017,0.112 -0.0333,0.224 -0.049,0.336 -0.0158,0.112 -0.0309,0.223 -0.0454,0.335 -0.0145,0.111 -0.0284,0.223 -0.0418,0.334 -0.0134,0.111 -0.0262,0.223 -0.0385,0.334 -0.0123,0.111 -0.024,0.222 -0.0353,0.332 -0.0112,0.111 -0.022,0.222 -0.0322,0.332 -0.0103,0.111 -0.0201,0.221 -0.0294,0.331 -0.0094,0.111 -0.0183,0.221 -0.0267,0.33 -0.0085,0.11 -0.0165,0.22 -0.0242,0.33 -0.0076,0.109 -0.0148,0.219 -0.0217,0.328 -0.0069,0.109 -0.0133,0.218 -0.0195,0.327 -0.0061,0.109 -0.0119,0.218 -0.0173,0.326 -0.0055,0.109 -0.0106,0.217 -0.0154,0.325 -0.0048,0.109 -0.0093,0.217 -0.0135,0.325 -0.0042,0.107 -0.0082,0.215 -0.0118,0.323 -0.0037,0.107 -0.0071,0.215 -0.0103,0.322 -0.0031,0.107 -0.0061,0.215 -0.0087,0.322 -0.0027,0.107 -0.0052,0.213 -0.0075,0.32 -0.0023,0.107 -0.0043,0.213 -0.0062,0.32 -0.0019,0.106 -0.0036,0.213 -0.0051,0.319 -0.0016,0.106 -0.0029,0.212 -0.0041,0.318 -0.0013,0.106 -0.0023,0.212 -0.0033,0.318 -9e-4,0.105 -0.0018,0.211 -0.0025,0.317 -7e-4,0.105 -0.0013,0.211 -0.0018,0.316 -5e-4,0.105 -9e-4,0.211 -0.0013,0.316 -3e-4,0.105 -6e-4,0.21 -8e-4,0.316 -2e-4,0.105 -3e-4,0.21 -4e-4,0.315 -10e-5,0.105 -2e-4,0.21 -2e-4,0.315 -10e-5,0.105 -10e-5,0.21 -10e-5,0.315 0,0.105 0,0.209 0,0.314 0,0.105 0,0.21 10e-5,0.315 0,0.105 1e-4,0.21 2e-4,0.315 1e-4,0.105 2e-4,0.21 4e-4,0.315 2e-4,0.106 5e-4,0.211 8e-4,0.316 4e-4,0.105 8e-4,0.211 0.0013,0.316 5e-4,0.105 0.0011,0.211 0.0018,0.316 7e-4,0.106 0.0016,0.212 0.0025,0.317 10e-4,0.106 0.002,0.212 0.0033,0.318 0.0012,0.106 0.0025,0.212 0.0041,0.318 0.0015,0.106 0.0032,0.213 0.0051,0.319 0.0019,0.107 0.0039,0.213 0.0062,0.32 0.0023,0.107 0.0048,0.213 0.0075,0.32 0.0026,0.107 0.0056,0.215 0.0087,0.322 0.0032,0.107 0.0066,0.215 0.0103,0.322 0.0036,0.108 0.0076,0.216 0.0118,0.323 0.0042,0.108 0.0087,0.216 0.0135,0.325 0.0048,0.108 0.0099,0.216 0.0154,0.325 0.0054,0.108 0.0112,0.217 0.0173,0.326 0.0062,0.109 0.0126,0.218 0.0195,0.327 0.0069,0.109 0.0141,0.219 0.0217,0.328 0.0077,0.11 0.0157,0.22 0.0242,0.33 0.0084,0.109 0.0173,0.219 0.0267,0.33 0.0093,0.11 0.0191,0.22 0.0294,0.331 0.0102,0.11 0.021,0.221 0.0322,0.332 0.0113,0.11 0.023,0.221 0.0353,0.332 0.0123,0.111 0.0251,0.223 0.0385,0.334 0.0134,0.111 0.0273,0.223 0.0418,0.334 0.0145,0.112 0.0296,0.223 0.0454,0.335 0.0157,0.112 0.032,0.224 0.049,0.336 0.017,0.112 0.0346,0.224 0.0529,0.336 0.0183,0.112 0.0373,0.224 0.057,0.336 0.0197,0.112 0.0401,0.225 0.0612,0.337 0.0211,0.112 0.043,0.225 0.0656,0.337 0.0226,0.112 0.046,0.225 0.0702,0.337 0.0242,0.112 0.0491,0.225 0.0749,0.337 0.0258,0.112 0.0525,0.224 0.0799,0.336 0.0275,0.113 0.0558,0.225 0.085,0.337 0.0292,0.112 0.0593,0.223 0.0903,0.335 0.031,0.112 0.0629,0.224 0.0958,0.335 0.0328,0.112 0.0666,0.223 0.1014,0.334 0.0347,0.111 0.0705,0.222 0.1072,0.333 0.0367,0.11 0.0744,0.221 0.1131,0.331 0.0388,0.11 0.0785,0.22 0.1193,0.33 0.0408,0.109 0.0826,0.219 0.1255,0.327 0.0429,0.109 0.0868,0.218 0.1318,0.326 0.0451,0.108 0.0912,0.216 0.1384,0.324 0.0472,0.107 0.0956,0.214 0.145,0.321 0.0495,0.106 0.1,0.212 0.1517,0.318 0.0517,0.105 0.1045,0.21 0.1585,0.315 0.054,0.104 0.1091,0.208 0.1654,0.311 0.0563,0.104 0.1137,0.206 0.1723,0.308 0.0586,0.102 0.1183,0.204 0.1793,0.304 0.0609,0.101 0.123,0.201 0.1863,0.3 0.0632,0.1 0.1276,0.198 0.1932,0.296 0.0656,0.098 0.1324,0.195 0.2003,0.291 0.0679,0.096 0.137,0.192 0.2073,0.286 0.0702,0.095 0.1416,0.188 0.2141,0.281 0.0726,0.093 0.1463,0.185 0.2211,0.276 0.0748,0.091 0.1507,0.181 0.2278,0.27 0.077,0.089 0.1552,0.177 0.2345,0.264 0.0792,0.087 0.1596,0.173 0.241,0.259 0.0815,0.085 0.164,0.169 0.2475,0.252 0.0835,0.083 0.1681,0.165 0.2537,0.246 0.0856,0.08 0.1723,0.16 0.2599,0.239 0.0876,0.079 0.1762,0.156 0.2657,0.233 0.0896,0.076 0.1801,0.152 0.2715,0.226 0.0915,0.074 0.1838,0.147 0.277,0.219 0.0933,0.072 0.1874,0.143 0.2823,0.213 0.095,0.069 0.1908,0.138 0.2874,0.205 0.0966,0.068 0.194,0.134 0.2922,0.199 0.0981,0.065 0.1971,0.129 0.2967,0.191 0.0997,0.063 0.2,0.124 0.3011,0.185 0.101,0.06 0.2027,0.119 0.3051,0.177 0.1024,0.058 0.2054,0.115 0.3089,0.171 0.1036,0.056 0.2078,0.11 0.3125,0.164 0.1048,0.053 0.21,0.105 0.3158,0.156 0.1058,0.052 0.212,0.102 0.3188,0.15 0.1067,0.049 0.2139,0.097 0.3215,0.144 0.1076,0.046 0.2157,0.092 0.3241,0.136 0.1084,0.045 0.2172,0.088 0.3263,0.131 0.1091,0.042 0.2186,0.083 0.3284,0.124 0.1097,0.04 0.2198,0.079 0.3301,0.117 0.1103,0.039 0.2209,0.076 0.3317,0.112 0.1107,0.036 0.2218,0.071 0.333,0.106 0.1112,0.034 0.2226,0.067 0.3341,0.1 0.1115,0.032 0.2232,0.064 0.3351,0.094 0.1118,0.031 0.2237,0.06 0.3357,0.089 0.1121,0.029 0.2242,0.057 0.3364,0.084 0.1121,0.027 0.2244,0.053 0.3367,0.078 0.1122,0.026 0.2245,0.05 0.3369,0.074 0.1123,0.024 0.2246,0.047 0.3369,0.069 0.1124,0.022 0.2247,0.044 0.337,0.065 0.1122,0.02 0.2245,0.04 0.3367,0.06 0.1121,0.019 0.2243,0.038 0.3363,0.056 0.1121,0.018 0.2241,0.035 0.336,0.052 0.1119,0.016 0.2237,0.032 0.3354,0.048 0.1117,0.015 0.2233,0.03 0.3348,0.044 0.1115,0.014 0.2229,0.028 0.3341,0.041 0.1113,0.013 0.2224,0.026 0.3334,0.038 0.111,0.012 0.2218,0.023 0.3325,0.034 0.1108,0.011 0.2213,0.022 0.3317,0.032 0.1104,0.01 0.2207,0.019 0.3308,0.029 0.1101,0.009 0.2201,0.017 0.3299,0.026 0.1097,0.008 0.2194,0.016 0.3288,0.023 0.1095,0.008 0.2188,0.015 0.3279,0.021 0.1092,0.007 0.2182,0.013 0.327,0.019 0.1088,0.006 0.2174,0.012 0.3259,0.017 0.1085,0.005 0.2168,0.01 0.325,0.015 0.1081,0.005 0.2161,0.009 0.324,0.013 0.1078,0.004 0.2155,0.008 0.323,0.011 0.1075,0.004 0.2149,0.007 0.3221,0.01 0.1072,0.003 0.2143,0.006 0.3212,0.009 0.107,0.002 0.2138,0.005 0.3204,0.007 0.1067,0.002 0.2132,0.004 0.3196,0.006 0.1064,0.002 0.2126,0.003 0.3188,0.005 0.1061,0.001 0.2121,0.002 0.318,0.004 0.1059,10e-4 0.2117,0.002 0.3174,0.003 0.1057,0 0.2113,0.001 0.3168,0.002 0.1056,0.001 0.211,0.001 0.3163,0.002 0.1054,0 0.2107,0 0.3159,0.001 0.1052,0 0.2103,0 0.3154,0 0.1051,0.001 0.2102,0.001 0.3152,0.001 0.105,0 0.21,0 0.3149,0 0.105,0 0.2099,0 0.3148,0 0.105,0 0.2099,0 0.3148,0 0.105,0 0.2099,0 0.3149,0 0.105,0 0.21,0 0.315,0 0.1051,0 0.2102,-0.001 0.3153,-0.001 0.1052,0 0.2104,0 0.3157,-0.001 0.1052,0 0.2106,-10e-4 0.316,-10e-4 0.1054,-0.001 0.2109,-0.001 0.3165,-0.002 0.1057,-0.001 0.2113,-0.002 0.3172,-0.003 0.1058,-10e-4 0.2117,-0.002 0.3177,-0.003 0.106,-0.002 0.2121,-0.003 0.3184,-0.005 0.1063,-0.001 0.2126,-0.003 0.3192,-0.005 0.1065,-0.002 0.2131,-0.004 0.3199,-0.007 0.1068,-0.002 0.2137,-0.004 0.3208,-0.007 0.1071,-0.003 0.2143,-0.006 0.3217,-0.009 0.1074,-0.004 0.2149,-0.007 0.3226,-0.011 0.1076,-0.004 0.2155,-0.008 0.3235,-0.012 0.108,-0.005 0.2161,-0.009 0.3244,-0.014 0.1084,-0.005 0.2168,-0.01 0.3255,-0.016 0.1086,-0.006 0.2175,-0.012 0.3264,-0.018 0.109,-0.006 0.2181,-0.013 0.3274,-0.02 0.1093,-0.007 0.2188,-0.014 0.3284,-0.022 0.1097,-0.008 0.2195,-0.016 0.3294,-0.025 0.11,-0.009 0.2201,-0.018 0.3303,-0.027 0.1103,-0.01 0.2207,-0.02 0.3313,-0.031 0.1105,-0.01 0.2212,-0.021 0.3321,-0.033 0.1108,-0.011 0.2218,-0.023 0.3329,-0.036 0.1112,-0.012 0.2224,-0.025 0.3338,-0.039 0.1114,-0.014 0.2229,-0.028 0.3345,-0.043 0.1116,-0.014 0.2233,-0.03 0.3351,-0.046 0.1118,-0.016 0.2237,-0.033 0.3357,-0.05 0.112,-0.017 0.224,-0.035 0.3362,-0.054 0.1121,-0.018 0.2243,-0.038 0.3365,-0.058 0.1123,-0.02 0.2245,-0.041 0.3368,-0.062 0.1123,-0.022 0.2247,-0.044 0.337,-0.067 0.1123,-0.023 0.2247,-0.047 0.337,-0.071 0.1123,-0.025 0.2246,-0.05 0.3368,-0.076 0.1122,-0.027 0.2244,-0.054 0.3365,-0.081 0.1121,-0.028 0.2242,-0.057 0.3361,-0.087 0.1119,-0.029 0.2237,-0.06 0.3354,-0.091 0.1117,-0.032 0.2233,-0.064 0.3347,-0.098 0.1113,-0.033 0.2225,-0.067 0.3336,-0.102 0.111,-0.036 0.2218,-0.072 0.3323,-0.109 0.1106,-0.037 0.2209,-0.076 0.3309,-0.115 0.1101,-0.039 0.2199,-0.079 0.3293,-0.121 0.1095,-0.041 0.2186,-0.083 0.3274,-0.127 0.1088,-0.043 0.2172,-0.088 0.3252,-0.133 0.108,-0.046 0.2156,-0.092 0.3228,-0.14 0.1072,-0.048 0.214,-0.097 0.3202,-0.147 0.1063,-0.05 0.2121,-0.101 0.3173,-0.153 0.1053,-0.052 0.21,-0.106 0.3142,-0.16 0.1042,-0.055 0.2078,-0.111 0.3107,-0.167 0.103,-0.057 0.2054,-0.115 0.3071,-0.175 0.1017,-0.059 0.2028,-0.119 0.3031,-0.181 0.1004,-0.061 0.2001,-0.124 0.299,-0.188 0.0989,-0.063 0.1971,-0.128 0.2945,-0.195 0.0974,-0.066 0.194,-0.133 0.2898,-0.202 0.0958,-0.068 0.1907,-0.138 0.2848,-0.209 0.0941,-0.07 0.1874,-0.142 0.2797,-0.216 0.0923,-0.073 0.1838,-0.147 0.2743,-0.222 0.0905,-0.076 0.18,-0.152 0.2686,-0.23 0.0886,-0.077 0.1762,-0.156 0.2628,-0.236 0.0867,-0.08 0.1723,-0.161 0.2569,-0.243 0.0845,-0.082 0.1681,-0.165 0.2506,-0.249 0.0825,-0.084 0.1639,-0.169 0.2443,-0.255 0.0803,-0.086 0.1596,-0.173 0.2378,-0.261 0.0781,-0.088 0.1552,-0.177 0.2311,-0.267 0.076,-0.09 0.1508,-0.181 0.2245,-0.273 0.0736,-0.092 0.1462,-0.185 0.2176,-0.279 0.0714,-0.093 0.1416,-0.188 0.2107,-0.283 0.0691,-0.096 0.137,-0.192 0.2038,-0.289 0.0667,-0.097 0.1323,-0.195 0.1967,-0.293 0.0645,-0.099 0.1277,-0.198 0.1898,-0.298 0.0621,-0.1 0.123,-0.201 0.1828,-0.302 0.0598,-0.102 0.1184,-0.204 0.1758,-0.306 0.0574,-0.103 0.1137,-0.206 0.1688,-0.31 0.0551,-0.104 0.1091,-0.208 0.162,-0.313 0.0528,-0.105 0.1045,-0.211 0.155,-0.317 0.0506,-0.106 0.1,-0.213 0.1484,-0.319 0.0483,-0.107 0.0955,-0.215 0.1416,-0.323 0.0462,-0.108 0.0912,-0.216 0.1352,-0.324 0.0439,-0.109 0.0868,-0.218 0.1286,-0.327 0.0419,-0.109 0.0826,-0.219 0.1224,-0.329 0.0397,-0.11 0.0784,-0.22 0.1162,-0.331 0.0377,-0.11 0.0744,-0.221 0.1101,-0.332 0.0357,-0.11 0.0705,-0.222 0.1043,-0.333 0.0338,-0.111 0.0666,-0.223 0.0985,-0.334 0.032,-0.112 0.063,-0.224 0.0931,-0.336 0.0301,-0.111 0.0593,-0.223 0.0876,-0.335 0.0283,-0.113 0.0558,-0.225 0.0824,-0.337 0.0266,-0.112 0.0524,-0.224 0.0774,-0.337 0.025,-0.112 0.0492,-0.224 0.0725,-0.337 0.0234,-0.112 0.046,-0.224 0.0679,-0.337 0.0219,-0.112 0.043,-0.224 0.0634,-0.336 0.0204,-0.113 0.0401,-0.225 0.059,-0.337 0.019,-0.112 0.0373,-0.224 0.055,-0.336 0.0176,-0.112 0.0346,-0.224 0.0509,-0.336 0.0164,-0.112 0.0321,-0.224 0.0472,-0.335 0.0151,-0.112 0.0296,-0.224 0.0436,-0.335 0.0139,-0.112 0.0273,-0.223 0.0401,-0.334 0.0128,-0.111 0.0251,-0.222 0.0369,-0.333 0.0117,-0.111 0.023,-0.222 0.0337,-0.333 0.0108,-0.11 0.021,-0.221 0.0308,-0.331 0.0098,-0.11 0.0192,-0.221 0.0281,-0.331 0.0089,-0.11 0.0173,-0.219 0.0254,-0.329 0.008,-0.11 0.0156,-0.219 0.0229,-0.329 0.0072,-0.109 0.0141,-0.218 0.0206,-0.327 0.0065,-0.109 0.0126,-0.218 0.0184,-0.327 0.0057,-0.109 0.0112,-0.217 0.0163,-0.326 0.0051,-0.108 0.0099,-0.216 0.0144,-0.325 0.0045,-0.108 0.0088,-0.216 0.0127,-0.323 0.0039,-0.108 0.0076,-0.216 0.011,-0.323 0.0034,-0.108 0.0066,-0.215 0.0095,-0.322 0.0029,-0.107 0.0056,-0.214 0.0081,-0.321 0.0025,-0.107 0.0047,-0.214 0.0068,-0.32 0.0021,-0.107 0.0039,-0.213 0.0056,-0.32 0.0018,-0.106 0.0033,-0.212 0.0047,-0.318 0.0013,-0.106 0.0025,-0.212 0.0036,-0.318 0.0011,-0.106 0.0021,-0.212 0.0029,-0.317 8e-4,-0.106 0.0015,-0.211 0.0021,-0.317 6e-4,-0.105 0.0011,-0.211 0.0015,-0.316 5e-4,-0.105 8e-4,-0.211 0.0011,-0.316 2e-4,-0.105 4e-4,-0.21 6e-4,-0.315 1e-4,-0.105 2e-4,-0.21 3e-4,-0.315 1e-4,-0.105 1e-4,-0.21 1e-4,-0.315 0,-0.105 0,-0.21 0,-0.315"
       title="(abs(cos(x))**3 + abs(sin(x))**3)**(-1/3)"
       id="path1" />
  </g>
</svg>
