<?xml version="1.0" encoding="UTF-8" standalone="no"?>
<!-- Created with Inkscape (http://www.inkscape.org/) -->

<svg
   width="51.465458mm"
   height="29.955927mm"
   viewBox="0 0 51.465457 29.955927"
   version="1.1"
   id="svg1"
   inkscape:version="1.4.2 (f4327f4, 2025-05-13)"
   sodipodi:docname="energy-eltech.svg"
   xmlns:inkscape="http://www.inkscape.org/namespaces/inkscape"
   xmlns:sodipodi="http://sodipodi.sourceforge.net/DTD/sodipodi-0.dtd"
   xmlns="http://www.w3.org/2000/svg"
   xmlns:svg="http://www.w3.org/2000/svg">
  <sodipodi:namedview
     id="namedview1"
     pagecolor="#ffffff"
     bordercolor="#000000"
     borderopacity="0.25"
     inkscape:showpageshadow="2"
     inkscape:pageopacity="0.0"
     inkscape:pagecheckerboard="0"
     inkscape:deskcolor="#d1d1d1"
     inkscape:document-units="mm"
     inkscape:zoom="1.5597022"
     inkscape:cx="206.44967"
     inkscape:cy="-30.775106"
     inkscape:window-width="3440"
     inkscape:window-height="1417"
     inkscape:window-x="1912"
     inkscape:window-y="-8"
     inkscape:window-maximized="1"
     inkscape:current-layer="layer1" />
  <defs
     id="defs1" />
  <g
     inkscape:label="Layer 1"
     inkscape:groupmode="layer"
     id="layer1"
     transform="translate(-37.852462,-159.00522)">
    <g
       id="text1"
       style="font-weight:500;font-size:16.9333px;line-height:1;font-family:Ruda;-inkscape-font-specification:'Ruda Medium';letter-spacing:0px;fill:none;stroke:#000000;stroke-linecap:round;stroke-linejoin:round;paint-order:markers stroke fill"
       aria-label="Energy&#10;ElTecH">
      <path
         style="font-weight:normal;font-size:medium;text-align:center;baseline-shift:baseline;text-anchor:middle;display:inline;overflow:visible;vector-effect:none;fill:#000000;stroke:none;stroke-linecap:butt;stroke-linejoin:miter;enable-background:accumulate;stop-color:#000000;stop-opacity:1;opacity:1"
         d="m 38.351562,159.00586 a 0.50005,0.50005 0 0 0 -0.5,0.5 v 11.78516 a 0.50005,0.50005 0 0 0 0.5,0.5 h 5.978516 a 0.50005,0.50005 0 0 0 0.5,-0.5 v -1.40625 a 0.50005,0.50005 0 0 0 -0.503906,-0.5 l -3.875,0.0273 -0.06641,-2.9375 h 3.539062 a 0.50005,0.50005 0 0 0 0.5,-0.5 v -1.35547 a 0.50005,0.50005 0 0 0 -0.5,-0.5 h -3.539062 l 0.06445,-2.74805 3.875,0.0391 a 0.50005,0.50005 0 0 0 0.505859,-0.5 v -1.4043 a 0.50005,0.50005 0 0 0 -0.5,-0.5 z m 0.5,1 h 0.539063 l -0.507813,0.49609 a 0.50005,0.50005 0 0 0 -0.03125,0.15039 z m 1.539063,0 h 3.439453 v 0.39844 l -3.357422,-0.0332 0.0059,-0.22851 a 0.50005,0.50005 0 0 0 -0.08789,-0.13672 z m 20.466797,0.67578 c -0.825334,0 -1.593146,0.17489 -2.277344,0.5293 -0.710005,0.3617 -1.261068,0.98607 -1.646484,1.80664 -0.398704,0.84884 -0.572266,1.95225 -0.572266,3.32812 0,1.30751 0.165015,2.38538 0.53125,3.24414 a 0.50005,0.50005 0 0 0 0.002,0.008 c 0.373019,0.83307 0.923349,1.48063 1.636719,1.87695 a 0.50005,0.50005 0 0 0 0.0059,0.002 c 0.69007,0.37059 1.483932,0.55078 2.353516,0.55078 0.582918,0 1.12199,-0.0589 1.617187,-0.18164 0.0016,-3.6e-4 0.0023,-0.002 0.0039,-0.002 0.468549,-0.10562 0.869568,-0.22304 1.208984,-0.36133 0.306421,-0.12486 0.509377,-0.2084 0.625,-0.25976 a 0.50005,0.50005 0 0 0 0.273438,-0.60743 l -0.390625,-1.23632 a 0.50005,0.50005 0 0 0 -0.597657,-0.33399 c -0.160835,0.0402 -0.35175,0.0997 -0.585937,0.18164 -0.204772,0.0645 -0.442551,0.1347 -0.714844,0.21094 -0.260457,0.062 -0.54308,0.11902 -0.847656,0.17187 -0.30581,0.0422 -0.604194,0.0645 -0.896485,0.0645 -0.291806,0 -0.515993,-0.0274 -0.669921,-0.0664 -0.144609,-0.0468 -0.258547,-0.11203 -0.357422,-0.19336 -0.03542,-0.0379 -0.124191,-0.15094 -0.232422,-0.33789 -0.07522,-0.12992 -0.171646,-0.40117 -0.244141,-0.77539 v -0.004 c -0.03094,-0.19705 -0.01631,-0.54472 -0.02344,-0.82421 h 5.353515 a 0.50005,0.50005 0 0 0 0.5,-0.5 v -1.11719 c 0,-1.19232 -0.139678,-2.17011 -0.458984,-2.94922 -0.313693,-0.76541 -0.79721,-1.36292 -1.4375,-1.71875 -0.609815,-0.34467 -1.337173,-0.50586 -2.158203,-0.50586 z m -8.908203,0.0176 c -0.412937,0 -0.824755,0.0491 -1.234375,0.14844 -0.397535,0.0964 -0.773954,0.22424 -1.128907,0.38281 -0.32797,0.14056 -0.623544,0.28117 -0.888671,0.42578 -6.55e-4,3.4e-4 -0.0013,-3.4e-4 -0.002,0 l -0.06445,-0.33203 a 0.50005,0.50005 0 0 0 -0.490234,-0.40625 h -1.050781 a 0.50005,0.50005 0 0 0 -0.5,0.5 v 9.87305 a 0.50005,0.50005 0 0 0 0.5,0.5 h 1.591797 a 0.50005,0.50005 0 0 0 0.5,-0.5 v -7.42774 c 0.10195,-0.0506 0.158628,-0.082 0.330078,-0.1582 0.278629,-0.12384 0.607407,-0.24191 0.984375,-0.34961 a 0.50005,0.50005 0 0 0 0.01172,-0.004 c 0.350931,-0.11029 0.689633,-0.16211 1.019532,-0.16211 0.138976,0 0.259457,0.0156 0.36914,0.0469 a 0.50005,0.50005 0 0 0 0.04102,0.01 c 0.0478,0.01 0.01334,-0.0121 0.0293,0.0176 a 0.50005,0.50005 0 0 0 0.03711,0.0586 c 0.03872,0.0528 0.1061,0.21652 0.125,0.5 a 0.50005,0.50005 0 0 0 0,0.002 c 0.02106,0.30534 0.03125,0.77807 0.03125,1.4043 v 6.0625 a 0.50005,0.50005 0 0 0 0.5,0.5 h 1.591797 a 0.50005,0.50005 0 0 0 0.5,-0.5 v -6.55274 c 0,-0.695 -0.06529,-1.3299 -0.199219,-1.9043 -0.129228,-0.61404 -0.401079,-1.14069 -0.822265,-1.52343 -0.442828,-0.42483 -1.06808,-0.61133 -1.78125,-0.61133 z m 19.236328,0 c -0.355557,0 -0.719873,0.0777 -1.091797,0.21875 a 0.50005,0.50005 0 0 0 -0.0039,0.002 c -0.336147,0.13205 -0.656037,0.28152 -0.958985,0.45117 -0.178098,0.0997 -0.302853,0.19509 -0.445312,0.29102 l -0.07617,-0.34961 a 0.50005,0.50005 0 0 0 -0.488281,-0.39453 h -0.998047 a 0.50005,0.50005 0 0 0 -0.5,0.5 v 9.87305 a 0.50005,0.50005 0 0 0 0.5,0.5 h 1.591797 a 0.50005,0.50005 0 0 0 0.5,-0.5 v -7.42579 c 0.103329,-0.0658 0.190116,-0.12862 0.341797,-0.20117 a 0.50005,0.50005 0 0 0 0.01563,-0.008 c 0.22122,-0.11542 0.471788,-0.20877 0.753906,-0.2793 a 0.50005,0.50005 0 0 0 0.01563,-0.004 c 0.275268,-0.0787 0.537553,-0.11719 0.792969,-0.11719 0.13396,0 0.268271,0.005 0.402343,0.0156 a 0.50005,0.50005 0 0 0 0.0039,0 l 0.236328,0.0176 a 0.50005,0.50005 0 0 0 0.533203,-0.45312 l 0.134765,-1.49024 a 0.50005,0.50005 0 0 0 -0.392578,-0.53515 l -0.228515,-0.0488 c -0.196023,-0.0452 -0.407695,-0.0625 -0.638672,-0.0625 z m 5.464844,0 c -0.753009,0 -1.471364,0.12317 -2.148438,0.36914 -0.700101,0.24694 -1.28736,0.68999 -1.714844,1.29883 a 0.50005,0.50005 0 0 0 0,0.002 c -0.439808,0.63223 -0.632812,1.45531 -0.632812,2.43555 0,0.92547 0.261129,1.75764 0.785156,2.42578 a 0.50005,0.50005 0 0 0 0.002,0.004 c 0.392754,0.49094 0.981524,0.7298 1.566406,0.9629 -0.02207,0.0517 -0.03612,0.0806 -0.06055,0.13867 a 0.50005,0.50005 0 0 0 -0.0098,0.0215 c -0.07635,0.20724 -0.156721,0.41543 -0.244141,0.62305 -0.09054,0.20407 -0.166873,0.38387 -0.226562,0.53906 -0.03054,0.0794 -0.0548,0.14685 -0.07422,0.20899 -0.01942,0.0621 -0.04492,0.0864 -0.04492,0.24218 0,0.18351 0.08358,0.30553 0.146485,0.37891 0.0629,0.0734 0.119841,0.11572 0.177734,0.1543 a 0.50005,0.50005 0 0 0 0.05469,0.0312 c 0.107478,0.0537 0.2654,0.12034 0.539063,0.23437 a 0.50005,0.50005 0 0 0 0.0059,0.004 c 0.276886,0.11075 0.72785,0.2955 1.347657,0.55468 a 0.50005,0.50005 0 0 0 0.0039,0.002 c 0.492615,0.20152 0.883577,0.36964 1.166015,0.5 a 0.50005,0.50005 0 0 0 0.0059,0.002 c 0.289621,0.12872 0.496635,0.24196 0.595703,0.31055 a 0.50005,0.50005 0 0 0 0.01367,0.01 c 0.124131,0.0798 0.178016,0.14694 0.167969,0.13086 0.0068,0.0109 0.0098,0.0115 0.0098,0.041 0,0.0365 0.0682,-0.0514 -0.0078,-0.0176 -0.03677,0.0163 -0.426848,0.0937 -1,0.0937 -0.608366,0 -1.246954,-0.0451 -1.916016,-0.13281 a 0.50005,0.50005 0 0 0 -0.0078,0 c -0.677289,-0.0777 -1.343741,-0.17879 -1.998047,-0.30078 a 0.50005,0.50005 0 0 0 -0.585938,0.42578 l -0.1875,1.38867 a 0.50005,0.50005 0 0 0 0.375,0.55078 l 0.271485,0.0684 c 0.187752,0.0469 0.432884,0.10358 0.740234,0.17188 0.327792,0.0729 0.701044,0.13303 1.121094,0.17968 0.437299,0.0473 0.895904,0.0703 1.375,0.0703 0.772237,0 1.470235,-0.0889 2.091797,-0.2754 0.623711,-0.18711 1.144929,-0.48192 1.533203,-0.89453 0.406623,-0.40996 0.634765,-0.95356 0.634765,-1.53125 0,-0.35115 -0.106125,-0.69758 -0.289062,-1.00976 -0.190167,-0.34417 -0.489645,-0.63593 -0.884766,-0.91992 -0.41257,-0.29653 -0.956075,-0.57347 -1.644531,-0.85352 -0.416952,-0.18623 -0.738381,-0.32123 -0.984375,-0.4082 l -0.02148,-0.008 c -0.09865,-0.0395 -0.133353,-0.0563 -0.201172,-0.084 0.002,-0.0147 -3.18e-4,-0.008 0.002,-0.0234 l 0.0039,-0.0195 c 0.01878,-0.0945 0.0279,-0.16415 0.04297,-0.24805 0.643389,-0.0489 1.272183,-0.12166 1.777344,-0.38476 a 0.50005,0.50005 0 0 0 0.002,-0.002 c 0.626697,-0.33254 1.12535,-0.80804 1.455078,-1.40039 0.337204,-0.58591 0.503906,-1.25339 0.503906,-1.97071 0,-0.38311 -0.05134,-0.76772 -0.152344,-1.14648 -0.06827,-0.26413 -0.139212,-0.46633 -0.210937,-0.67188 l 0.498047,-0.0762 A 0.50005,0.50005 0 0 0 80.8125,162.4375 l 2.818359,7.85547 -1.279297,3.64258 a 0.50005,0.50005 0 0 0 0.472657,0.66601 H 84.5 a 0.50005,0.50005 0 0 0 0.480469,-0.36133 l 0.978515,-3.40429 3.330078,-9.24805 a 0.50005,0.50005 0 0 0 -0.470703,-0.66992 H 87.125 a 0.50005,0.50005 0 0 0 -0.478516,0.35351 l -1.742187,5.67383 -1.75586,-5.67383 a 0.50005,0.50005 0 0 0 -0.476562,-0.35351 h -1.693359 a 0.50005,0.50005 0 0 0 -0.396485,0.20508 0.50005,0.50005 0 0 0 -0.208984,-0.22071 l -0.267578,-0.0156 h -0.002 c -0.165751,-0.011 -0.395031,-0.0284 -0.685547,-0.0508 h -0.002 c -0.284343,-0.0227 -0.595778,-0.0457 -0.935547,-0.0684 -0.332712,-0.023 -0.660581,-0.0393 -0.982422,-0.0508 -0.320536,-0.0114 -0.602669,-0.0176 -0.847656,-0.0176 z m -37.798829,0.4043 a 0.50005,0.50005 0 0 0 0.376954,0.25585 l 0.220703,0.002 -0.06641,2.75781 h -0.234375 a 0.50005,0.50005 0 0 0 -0.296875,0.21289 z m 22.00586,0.57812 c 0.691678,0 1.237255,0.13266 1.666015,0.375 a 0.50005,0.50005 0 0 0 0.0039,0.002 c 0.418507,0.23152 0.75002,0.61662 1,1.22657 0.197459,0.4818 0.267529,1.25412 0.310547,2.07031 a 0.50005,0.50005 0 0 0 -0.34961,-0.23633 L 63.25,165.125 c -0.01133,-0.29914 -0.01013,-0.65498 -0.03125,-0.91016 -0.03698,-0.59169 -0.149103,-1.08196 -0.400391,-1.47461 a 0.50005,0.50005 0 0 0 -0.01172,-0.0156 c -0.146043,-0.20863 -0.344984,-0.34948 -0.576172,-0.47266 -0.357716,-0.19945 -0.739596,-0.21484 -1.289063,-0.21484 -0.588249,0 -1.057697,0.0574 -1.449219,0.22851 -0.329715,0.13822 -0.618539,0.33409 -0.833984,0.59571 a 0.50005,0.50005 0 0 0 -0.0078,0.0117 c -0.408549,0.52527 -0.533528,1.35725 -0.572266,2.35742 l -0.296875,0.006 a 0.50005,0.50005 0 0 0 -0.271484,0.19922 c 0.07242,-0.74771 0.121358,-1.55198 0.328125,-1.99219 0.314493,-0.66957 0.71065,-1.0939 1.197265,-1.3418 a 0.50005,0.50005 0 0 0 0.002,-0.002 c 0.53458,-0.27719 1.13361,-0.41797 1.820313,-0.41797 z m -8.908203,0.0176 c 0.548844,0 0.880114,0.1296 1.091797,0.33398 a 0.50005,0.50005 0 0 0 0.01367,0.0117 c 0.24969,0.22472 0.42514,0.53754 0.521485,1 a 0.50005,0.50005 0 0 0 0.0039,0.0117 c 0.113598,0.48537 0.171875,1.04667 0.171875,1.68164 v 6.05274 h -0.591797 v -5.5625 c 0,-0.63814 -0.0091,-1.12324 -0.0332,-1.47266 -0.02521,-0.37817 -0.113206,-0.70346 -0.304687,-0.98242 -0.144705,-0.2476 -0.404308,-0.44343 -0.681641,-0.50196 -0.19734,-0.0532 -0.401778,-0.082 -0.613281,-0.082 -0.437112,0 -0.877745,0.0713 -1.316407,0.20899 -0.408845,0.11725 -0.777438,0.24678 -1.105468,0.39258 -0.312127,0.13872 -0.524617,0.23781 -0.681641,0.33203 a 0.50005,0.50005 0 0 0 -0.242187,0.42968 v 7.23829 h -0.591797 v -8.87305 h 0.136718 l 0.109375,0.56055 a 0.50005,0.50005 0 0 0 0.490235,0.40625 h 0.08398 a 0.50005,0.50005 0 0 0 0.257813,-0.0723 c 0.09608,-0.0576 0.267136,-0.15146 0.5,-0.27344 a 0.50005,0.50005 0 0 0 0.0078,-0.004 c 0.231584,-0.12632 0.498529,-0.25635 0.802735,-0.38672 a 0.50005,0.50005 0 0 0 0.0078,-0.002 c 0.29771,-0.13346 0.618037,-0.24257 0.962891,-0.32617 0.335445,-0.0813 0.667873,-0.12109 1,-0.12109 z m 19.236328,0 c 0.09431,0 0.150031,0.0119 0.222656,0.0195 l -0.04883,0.53711 0.25,0.0195 c -0.158141,-0.012 -0.316359,-0.0195 -0.474609,-0.0195 -0.354184,0 -0.711451,0.0543 -1.06836,0.15625 -0.340962,0.0865 -0.657826,0.20418 -0.949219,0.35547 -0.0023,0.001 -0.0055,7.5e-4 -0.0078,0.002 -0.274887,0.13249 -0.510232,0.27073 -0.705078,0.42383 a 0.50005,0.50005 0 0 0 -0.189453,0.39258 v 7.20508 h -0.591797 v -8.87305 h 0.0957 l 0.134766,0.62305 a 0.50005,0.50005 0 0 0 0.488281,0.39453 h 0.101562 a 0.50005,0.50005 0 0 0 0.294922,-0.0977 l 0.253906,-0.18555 a 0.50005,0.50005 0 0 0 0.01758,-0.0137 c 0.137587,-0.11007 0.343095,-0.24542 0.609375,-0.39453 0.261495,-0.14644 0.539906,-0.27824 0.835937,-0.39453 0.279916,-0.10542 0.523286,-0.15039 0.730469,-0.15039 z m 5.464844,0 c 0.229145,0 0.500858,0.005 0.8125,0.0156 0.310335,0.0111 0.627176,0.0285 0.949218,0.0508 0.336858,0.0225 0.646157,0.0441 0.925782,0.0664 a 0.50005,0.50005 0 0 0 0.002,0 c 0.294508,0.0227 0.526883,0.0393 0.699218,0.0508 a 0.50005,0.50005 0 0 0 0.002,0.002 l -0.197266,-0.0137 v 0.10157 l -0.677734,0.10351 0.130859,0.11133 0.08984,0.0781 c -0.06282,0.13412 -0.144532,0.30469 -0.144532,0.30469 0,0 -0.261718,-0.42773 -0.261718,-0.42773 0,0 -0.05078,0.0371 -0.05078,0.0371 -2.2e-5,2e-5 -0.15428,0.20894 -0.154296,0.20898 -1.7e-5,4e-5 -0.02343,0.0878 -0.02344,0.0879 -2.2e-5,1.2e-4 -0.0098,0.0936 -0.0098,0.0937 a 0.50005,0.50005 0 0 0 0.169922,0.3711 c -0.02236,-0.0209 -0.04694,-0.045 -0.04687,-0.0449 1.11e-4,1.3e-4 -0.03138,-0.0393 -0.03125,-0.0391 2.65e-4,3.8e-4 -0.01872,-0.0288 -0.02344,-0.0371 -0.01887,-0.033 -0.01762,-0.0333 -0.01758,-0.0332 7.5e-5,1.7e-4 0.0093,0.0194 0.01953,0.0449 0.02045,0.0511 0.05297,0.13662 0.09766,0.25391 a 0.50005,0.50005 0 0 0 0.0039,0.008 c 0.07857,0.19643 0.163265,0.46664 0.25,0.80273 a 0.50005,0.50005 0 0 0 0.002,0.004 c 0.07962,0.29857 0.117187,0.59445 0.117187,0.88867 0,0.56745 -0.125286,1.04775 -0.373047,1.47656 a 0.50005,0.50005 0 0 0 -0.0039,0.008 c -0.234052,0.42129 -0.57031,0.74627 -1.046875,1 -4.86e-4,2.5e-4 -0.0015,-2.6e-4 -0.002,0 -9.1e-4,4.8e-4 -0.001,0.001 -0.002,0.002 -0.45431,0.23582 -1.029246,0.36523 -1.746094,0.36523 a 0.50005,0.50005 0 0 0 -0.494141,0.42969 c -0.0207,0.14486 -0.05376,0.32933 -0.09766,0.54883 a 0.50005,0.50005 0 0 0 -0.0039,0.0195 c -0.03471,0.21983 -0.05664,0.29664 -0.05664,0.4668 0,0.30268 0.143597,0.37113 0.205078,0.42383 0.06148,0.0527 0.1109,0.0818 0.166016,0.11328 a 0.50005,0.50005 0 0 0 0.05078,0.0254 c 0.08958,0.0384 0.241639,0.10056 0.46875,0.1914 a 0.50005,0.50005 0 0 0 0.01953,0.006 c 0.199847,0.07 0.520881,0.20358 0.94336,0.39258 a 0.50005,0.50005 0 0 0 0.01563,0.006 c 0.643631,0.26182 1.127584,0.51553 1.4375,0.73828 0.323947,0.23284 0.516581,0.44707 0.597656,0.59571 a 0.50005,0.50005 0 0 0 0.0098,0.0156 c 0.107931,0.18265 0.15039,0.34237 0.15039,0.50781 0,0.34496 -0.101632,0.58796 -0.345703,0.83203 a 0.50005,0.50005 0 0 0 -0.01172,0.0117 c -0.243156,0.26053 -0.596482,0.47465 -1.097656,0.625 -0.507325,0.1522 -1.109373,0.23243 -1.804687,0.23243 -0.445905,0 -0.868086,-0.0216 -1.265625,-0.0645 h -0.002 c -0.391809,-0.0436 -0.730443,-0.0976 -1.011719,-0.16015 -0.233614,-0.0519 -0.395572,-0.0911 -0.552735,-0.12891 l 0.05859,-0.43945 c 0.509551,0.0856 1.019147,0.17044 1.541016,0.23047 0.708181,0.0929 1.388936,0.14062 2.044922,0.14062 0.623468,0 1.036615,-0.0154 1.40625,-0.17969 0.330382,-0.14683 0.601562,-0.52662 0.601562,-0.89648 0,-0.19623 -0.05409,-0.4006 -0.160156,-0.57031 -0.121377,-0.1942 -0.281985,-0.31566 -0.470703,-0.4375 -0.191877,-0.13195 -0.431243,-0.25521 -0.744141,-0.39454 l -0.0059,-0.004 c -0.302963,-0.13969 -0.69948,-0.30883 -1.195313,-0.51172 l -0.0039,-0.002 c -0.61913,-0.25889 -1.070715,-0.44587 -1.357422,-0.56055 -0.108779,-0.0454 -0.120626,-0.0517 -0.195312,-0.084 0.04635,-0.1151 0.0931,-0.23193 0.160156,-0.38282 a 0.50005,0.50005 0 0 0 0.0039,-0.008 c 0.09014,-0.21407 0.174535,-0.4301 0.253906,-0.64453 l 0.0098,-0.0215 c 0.0839,-0.19884 0.154266,-0.36086 0.205078,-0.47265 a 0.50005,0.50005 0 0 0 -0.34375,-0.69531 c -0.647314,-0.14712 -1.129282,-0.44567 -1.511719,-0.92188 v -0.002 c -0.378342,-0.48305 -0.572265,-1.06208 -0.572265,-1.80664 0,-0.84855 0.170446,-1.45888 0.453125,-1.86524 0.316752,-0.45019 0.711518,-0.74778 1.228515,-0.92968 a 0.50005,0.50005 0 0 0 0.0059,-0.002 c 0.564179,-0.20516 1.162448,-0.30859 1.808594,-0.30859 z m 5.039062,0.21875 h 0.613281 l 2.091797,6.75976 a 0.50005,0.50005 0 0 0 0.478516,0.35352 h 0.06641 a 0.50005,0.50005 0 0 0 0.478516,-0.35352 l 2.076172,-6.75976 h 0.613281 l -3.095703,8.59375 a 0.50005,0.50005 0 0 0 -0.0098,0.0312 l -0.878906,3.05859 h -0.59375 l 1.103515,-3.14453 a 0.50005,0.50005 0 0 0 0,-0.33398 z m -5.292969,0.10156 c -0.566037,0 -1.043145,0.0572 -1.449218,0.19727 -0.441576,0.15226 -0.804972,0.48002 -1.001954,0.90429 -0.199413,0.42951 -0.265624,0.95691 -0.265625,1.61719 0,0.8753 0.138463,1.56607 0.609375,2.01953 a 0.50005,0.50005 0 0 0 0.01367,0.0117 c 0.45947,0.41025 1.110324,0.55078 1.908203,0.55078 0.545038,0 0.999093,-0.0555 1.382813,-0.20312 a 0.50005,0.50005 0 0 0 0.0078,-0.004 c 0.41321,-0.16834 0.747932,-0.49339 0.929688,-0.90234 a 0.50005,0.50005 0 0 0 0.002,-0.006 c 0.177064,-0.41316 0.244141,-0.90799 0.244141,-1.50196 0,-0.61954 -0.03977,-1.12572 -0.13086,-1.54296 -0.03504,-0.19046 -0.06902,-0.34985 -0.113281,-0.48633 -0.0419,-0.12921 -0.07165,-0.25775 -0.275391,-0.41406 -0.141149,-0.11523 -0.229007,-0.13022 -0.294921,-0.14258 -0.06612,-0.0124 -0.133377,-0.0195 -0.207032,-0.0254 -0.0018,-2.6e-4 -0.004,2.5e-4 -0.0059,0 -0.175362,-0.0248 -0.36273,-0.036 -0.560547,-0.0371 -0.199927,-0.0117 -0.384762,-0.0176 -0.554687,-0.0176 h 0.03711 c -0.07386,-0.006 -0.130679,-0.009 -0.171875,-0.0117 -0.0412,-0.003 -0.01471,-0.006 -0.103516,-0.006 z m 2.527344,0.93164 a 0.50005,0.50005 0 0 0 0.02539,0.008 c -3.67e-4,4.9e-4 -0.0078,0.01 -0.0078,0.01 2.1e-5,2e-5 -0.01103,-0.0115 -0.01758,-0.0176 z m -2.527344,0.0684 c -0.07752,0 -0.0046,-7.4e-4 0.0332,0.002 0.03783,0.003 0.09313,0.008 0.166016,0.0137 a 0.50005,0.50005 0 0 0 0.03906,0.002 c 0.146162,0 0.312199,0.005 0.496093,0.0156 a 0.50005,0.50005 0 0 0 0.0293,0 c 0.168586,0 0.315259,0.0115 0.44336,0.0293 0.0194,0.073 0.03939,0.14439 0.0625,0.27149 a 0.50005,0.50005 0 0 0 0.0039,0.0176 c 0.06671,0.30496 0.107422,0.75574 0.107422,1.33203 0,0.51146 -0.07044,0.88628 -0.164063,1.10547 -0.08773,0.19469 -0.194099,0.29615 -0.384765,0.375 -0.20378,0.0775 -0.549267,0.13672 -1.017579,0.13672 -0.663457,0 -1.055191,-0.14238 -1.230468,-0.29492 -0.137908,-0.13733 -0.300782,-0.54348 -0.300782,-1.28711 0,-0.58149 0.07973,-0.99264 0.173829,-1.19531 0.09653,-0.20791 0.206742,-0.30735 0.419921,-0.38086 0.248681,-0.0858 0.627931,-0.14258 1.123047,-0.14258 z m -15.455078,0.0176 c 0.486679,0 0.80252,0.0867 0.804688,0.0879 a 0.50005,0.50005 0 0 0 0.01172,0.006 c 0.14335,0.0759 0.206053,0.14155 0.220704,0.16016 0.108523,0.17352 0.21179,0.49998 0.242187,0.98632 a 0.50005,0.50005 0 0 0 0,0.01 c 0.0194,0.23282 0.01839,0.57731 0.0293,0.85742 l -3.056641,0.0625 c 0.0737,-0.66012 0.101631,-1.52731 0.244141,-1.71289 0.09926,-0.11887 0.236116,-0.2242 0.443359,-0.31055 a 0.50005,0.50005 0 0 0 0.0098,-0.004 c 0.171998,-0.0757 0.535042,-0.14258 1.050781,-0.14258 z m -22.089844,1.98437 0.34375,0.26172 -0.34375,0.28711 z m 1.509766,0.0977 h 3.0625 v 0.35547 h -3.0625 l -0.002,-0.10547 a 0.50005,0.50005 0 0 0 -0.06445,-0.0977 0.50005,0.50005 0 0 0 0.06445,-0.0996 z m 23.53125,0.60352 c 7.47e-4,0.056 0.01953,0.0754 0.01953,0.13281 v 0.61719 h -0.658203 l 0.564453,-0.47071 a 0.50005,0.50005 0 0 0 0.07422,-0.27929 z m -6.464844,0.21875 a 0.50005,0.50005 0 0 0 0.05859,0.1914 l 0.367188,0.28516 -0.232422,0.084 a 0.50005,0.50005 0 0 0 -0.185547,0.31836 c -0.0088,-0.18836 -0.07422,-0.27141 -0.07422,-0.47461 0,-0.17946 0.0597,-0.23709 0.06641,-0.40429 z m 4.857422,0.20117 c 5.7e-5,0.0266 0.002,0.0414 0.002,0.0684 a 0.50005,0.50005 0 0 0 0.166016,0.26172 h -3.519531 a 0.50005,0.50005 0 0 0 0.103515,-0.17774 c -0.0016,-0.0459 0.01287,-0.0391 0.01172,-0.084 z m -23.433594,0.12304 a 0.50005,0.50005 0 0 0 0.296875,0.20899 h 0.236329 l 0.06641,2.94336 -0.220703,0.002 a 0.50005,0.50005 0 0 0 -0.378907,0.25781 z m 18.650391,0.9629 a 0.50005,0.50005 0 0 0 0.289063,0.24414 H 58.0625 c 0.0066,0.3339 -0.01089,0.71751 0.03125,0.98437 a 0.50005,0.50005 0 0 0 0.002,0.0137 c 0.08501,0.44933 0.191633,0.80899 0.363281,1.10547 0.135267,0.23365 0.253097,0.41131 0.402344,0.56055 a 0.50005,0.50005 0 0 0 0.02734,0.0273 c 0.211639,0.18141 0.462239,0.31446 0.734375,0.40039 a 0.50005,0.50005 0 0 0 0.02344,0.008 c 0.275055,0.0724 0.58333,0.10156 0.939453,0.10156 0.339887,0 0.684259,-0.0242 1.033204,-0.0723 a 0.50005,0.50005 0 0 0 0.01758,-0.004 c 0.33665,-0.0581 0.651101,-0.12082 0.945312,-0.19141 a 0.50005,0.50005 0 0 0 0.01758,-0.006 c 0.286271,-0.0801 0.540423,-0.15473 0.761719,-0.22461 a 0.50005,0.50005 0 0 0 0.01367,-0.004 c 0.02213,-0.008 0.02964,-0.008 0.05078,-0.0156 l 0.101563,0.32422 c -0.07413,0.0306 -0.0902,0.0381 -0.183594,0.0762 -0.269026,0.10961 -0.624142,0.21714 -1.056641,0.31445 a 0.50005,0.50005 0 0 0 -0.0098,0.002 c -0.404951,0.10123 -0.867577,0.15429 -1.386719,0.15429 -0.731098,0 -1.346995,-0.1473 -1.875,-0.42968 -0.503261,-0.28027 -0.899607,-0.72905 -1.203125,-1.4043 -0.198565,-0.46666 -0.243628,-1.23806 -0.310547,-1.96484 z m -18.650391,2.89843 a 0.50005,0.50005 0 0 0 0.03125,0.15039 l 0.525391,0.51368 h -0.556641 z m 4.978516,0.26172 v 0.40235 h -3.451172 a 0.50005,0.50005 0 0 0 0.09961,-0.1543 l -0.0059,-0.22461 z"
         id="path3" />
      <path
         style="font-weight:normal;font-size:medium;text-align:center;baseline-shift:baseline;text-anchor:middle;display:inline;overflow:visible;vector-effect:none;fill:#000000;stroke:none;stroke-linecap:butt;stroke-linejoin:miter;enable-background:accumulate;stop-color:#000000;stop-opacity:1;opacity:1"
         d="m 47.740234,174.95703 a 0.50005,0.50005 0 0 0 -0.5,0.5 v 12.76758 a 0.50005,0.50005 0 0 0 0.5,0.5 h 1.591797 a 0.50005,0.50005 0 0 0 0.5,-0.5 v -12.76758 a 0.50005,0.50005 0 0 0 -0.5,-0.5 z m -8.789062,0.98242 a 0.50005,0.50005 0 0 0 -0.5,0.5 v 11.78516 a 0.50005,0.50005 0 0 0 0.5,0.5 h 5.978515 a 0.50005,0.50005 0 0 0 0.5,-0.5 v -1.40625 a 0.50005,0.50005 0 0 0 -0.503906,-0.5 l -3.876953,0.0254 -0.06445,-2.9375 h 3.539062 a 0.50005,0.50005 0 0 0 0.5,-0.5 v -1.35352 a 0.50005,0.50005 0 0 0 -0.5,-0.5 h -3.539062 l 0.0625,-2.74804 3.876953,0.0391 a 0.50005,0.50005 0 0 0 0.505859,-0.5 v -1.4043 a 0.50005,0.50005 0 0 0 -0.5,-0.5 z m 12.074219,0 a 0.50005,0.50005 0 0 0 -0.5,0.5 v 1.4043 a 0.50005,0.50005 0 0 0 0.507812,0.5 l 2.791016,-0.043 -0.03125,9.92188 a 0.50005,0.50005 0 0 0 0.5,0.50195 h 1.609375 a 0.50005,0.50005 0 0 0 0.5,-0.50195 l -0.0332,-9.92188 2.810546,0.043 a 0.50005,0.50005 0 0 0 0.507813,-0.5 v -1.4043 a 0.50005,0.50005 0 0 0 -0.5,-0.5 z m 27.830078,0 a 0.50005,0.50005 0 0 0 -0.5,0.5 v 11.78516 a 0.50005,0.50005 0 0 0 0.5,0.5 h 1.607422 a 0.50005,0.50005 0 0 0 0.5,-0.50391 l -0.04102,-4.79687 h 3.773437 l -0.04102,4.79687 a 0.50005,0.50005 0 0 0 0.5,0.50391 h 1.607422 a 0.50005,0.50005 0 0 0 0.5,-0.5 v -11.78516 a 0.50005,0.50005 0 0 0 -0.5,-0.5 h -1.607422 a 0.50005,0.50005 0 0 0 -0.5,0.50391 l 0.04102,4.57422 h -3.773437 l 0.04102,-4.57422 a 0.50005,0.50005 0 0 0 -0.5,-0.50391 z m -30.615235,0.0176 h 0.591797 v 11.76758 h -0.591797 z m -8.789062,0.98242 h 0.539062 l -0.507812,0.4961 a 0.50005,0.50005 0 0 0 -0.03125,0.14843 z m 1.537109,0 h 3.441406 v 0.39844 l -3.359375,-0.0332 0.0059,-0.22852 a 0.50005,0.50005 0 0 0 -0.08789,-0.13672 z m 10.53711,0 H 58.6875 v 0.39649 l -2.8125,-0.043 a 0.50005,0.50005 0 0 0 -0.507813,0.50195 l 0.0332,9.92969 h -0.605469 l 0.03125,-9.92969 a 0.50005,0.50005 0 0 0 -0.507813,-0.50195 l -2.792968,0.043 z m 27.830078,0 h 0.603515 l -0.03711,4.07813 h -0.238281 a 0.50005,0.50005 0 0 0 -0.328125,0.24023 z m 6.302734,0 h 0.603516 v 4.32813 a 0.50005,0.50005 0 0 0 -0.345703,-0.25 h -0.220704 z m -21.976562,0.67578 c -0.826006,0 -1.592726,0.17432 -2.277344,0.5293 -0.70885,0.36189 -1.261503,0.987 -1.646485,1.80664 -0.398703,0.84885 -0.572265,1.95225 -0.572265,3.32813 0,1.3075 0.165016,2.38538 0.53125,3.24414 a 0.50005,0.50005 0 0 0 0.0039,0.008 c 0.373019,0.83307 0.923348,1.47868 1.636719,1.875 a 0.50005,0.50005 0 0 0 0.0059,0.004 c 0.690069,0.37058 1.483932,0.55078 2.353516,0.55078 0.582918,0 1.12199,-0.0589 1.617187,-0.18164 0.0016,-3.6e-4 0.0023,-0.002 0.0039,-0.002 0.468549,-0.10561 0.869568,-0.22304 1.208984,-0.36132 0.306421,-0.12487 0.507424,-0.20841 0.623047,-0.25977 a 0.50005,0.50005 0 0 0 0.27539,-0.60742 l -0.390625,-1.23633 a 0.50005,0.50005 0 0 0 -0.597656,-0.33398 c -0.160835,0.0402 -0.35175,0.0997 -0.585937,0.18164 -0.203924,0.0642 -0.43993,0.13306 -0.710938,0.20898 -0.0016,4.4e-4 -0.0023,0.002 -0.0039,0.002 -0.260358,0.0621 -0.543177,0.11901 -0.847656,0.17188 -0.30581,0.0422 -0.604194,0.0644 -0.896485,0.0644 -0.291807,0 -0.515993,-0.0274 -0.669922,-0.0664 -0.144607,-0.0468 -0.258545,-0.11204 -0.357421,-0.19336 -0.03541,-0.0379 -0.126132,-0.15092 -0.234375,-0.33789 -0.07522,-0.12992 -0.169694,-0.40119 -0.242188,-0.7754 v -0.004 c -0.03095,-0.19706 -0.01826,-0.54472 -0.02539,-0.82422 h 5.355469 a 0.50005,0.50005 0 0 0 0.5,-0.5 v -1.11719 c 0,-1.19231 -0.14163,-2.17206 -0.460937,-2.95117 -0.314078,-0.76635 -0.796033,-1.36308 -1.4375,-1.71875 -0.609496,-0.34406 -1.337878,-0.50391 -2.158203,-0.50391 z m 10.09375,0.0176 c -0.642336,0 -1.25608,0.0851 -1.835938,0.25781 -0.601868,0.17928 -1.140145,0.49247 -1.589844,0.92774 -0.468739,0.44195 -0.815399,1.03658 -1.060547,1.75976 -0.250593,0.73925 -0.365234,1.63056 -0.365234,2.6836 0,1.27483 0.166055,2.33704 0.53125,3.19336 a 0.50005,0.50005 0 0 0 0.002,0.01 c 0.371792,0.83035 0.911046,1.47827 1.609375,1.88672 a 0.50005,0.50005 0 0 0 0.0039,0.002 c 0.689346,0.39573 1.478221,0.58984 2.332032,0.58984 0.660281,0 1.253099,-0.076 1.777343,-0.24219 a 0.50005,0.50005 0 0 0 0.0098,-0.004 c 0.481749,-0.16451 0.862363,-0.32404 1.160156,-0.5 a 0.50005,0.50005 0 0 0 0.0059,-0.004 l 0.388672,-0.23633 a 0.50005,0.50005 0 0 0 0.205078,-0.60937 l -0.472657,-1.21875 a 0.50005,0.50005 0 0 0 -0.666015,-0.27539 l -0.271485,0.11718 c -0.1616,0.0707 -0.388222,0.15895 -0.673828,0.25782 a 0.50005,0.50005 0 0 0 -0.0059,0.002 c -0.261119,0.094 -0.554536,0.17868 -0.876953,0.2539 -0.305143,0.0712 -0.592768,0.10547 -0.867188,0.10547 -0.248874,0 -0.418343,-0.0329 -0.464843,-0.0508 -0.116287,-0.0447 -0.19473,-0.0914 -0.234375,-0.12109 a 0.50005,0.50005 0 0 0 -0.02344,-0.0156 c -0.03845,-0.0256 -0.168962,-0.1531 -0.314453,-0.36328 -0.111716,-0.17651 -0.241861,-0.49589 -0.357422,-0.93554 -5.01e-4,-0.002 -0.0015,-0.002 -0.002,-0.004 -0.09739,-0.41375 -0.152344,-1.00223 -0.152344,-1.75195 0,-0.81778 0.07132,-1.50351 0.205078,-2.04883 0.135154,-0.55101 0.309509,-0.8951 0.421875,-1.02344 0.06574,-0.063 0.179826,-0.13301 0.378907,-0.18359 0.226244,-0.0541 0.547377,-0.0879 0.949218,-0.0879 0.497549,0 0.964056,0.0319 1.400391,0.0957 a 0.50005,0.50005 0 0 0 0.01367,0.002 c 0.476063,0.0566 0.833277,0.0958 1.078125,0.11914 a 0.50005,0.50005 0 0 0 0.542969,-0.42578 l 0.185546,-1.30469 a 0.50005,0.50005 0 0 0 -0.378906,-0.55664 c -0.30724,-0.0737 -0.685669,-0.13785 -1.142578,-0.19531 -0.476338,-0.0714 -0.958079,-0.10547 -1.445312,-0.10547 z m -34.324219,0.4043 a 0.50005,0.50005 0 0 0 0.375,0.25586 l 0.222656,0.002 -0.06641,2.75781 h -0.234375 a 0.50005,0.50005 0 0 0 -0.296875,0.21289 z m 24.230469,0.57812 c 0.691678,0 1.239209,0.13266 1.667968,0.375 a 0.50005,0.50005 0 0 0 0.0039,0.002 c 0.418507,0.23151 0.75002,0.61661 1,1.22656 0.197459,0.4818 0.267528,1.25413 0.310546,2.07031 a 0.50005,0.50005 0 0 0 -0.349609,-0.23828 l -0.240234,0.006 c -0.0114,-0.30032 -0.01,-0.65808 -0.03125,-0.91406 -0.03743,-0.5885 -0.148163,-1.07769 -0.398438,-1.46875 a 0.50005,0.50005 0 0 0 -0.01172,-0.0176 c -0.146039,-0.20862 -0.344988,-0.34752 -0.576171,-0.4707 -0.357716,-0.19946 -0.739595,-0.2168 -1.289063,-0.2168 -0.588249,0 -1.057697,0.0574 -1.449219,0.22852 -0.329716,0.13821 -0.618538,0.33604 -0.833984,0.59765 a 0.50005,0.50005 0 0 0 -0.0078,0.0117 c -0.408687,0.52545 -0.533604,1.35673 -0.572265,2.35742 l -0.296875,0.006 a 0.50005,0.50005 0 0 0 -0.271485,0.20117 c 0.07235,-0.74859 0.121184,-1.55355 0.328125,-1.99414 0.314494,-0.66957 0.710651,-1.0939 1.197266,-1.34179 a 0.50005,0.50005 0 0 0 0.002,-0.002 c 0.53458,-0.27718 1.131656,-0.41797 1.81836,-0.41797 z m 10.09375,0.0176 c 0.438453,0 0.870104,0.0317 1.296875,0.0957 a 0.50005,0.50005 0 0 0 0.01172,0.002 c 0.251998,0.0315 0.407146,0.0674 0.59961,0.10156 l -0.04883,0.3418 c -0.187405,-0.0206 -0.321457,-0.0335 -0.582032,-0.0645 -0.485493,-0.0703 -0.994988,-0.10546 -1.53125,-0.10546 -0.455292,0 -0.845471,0.0341 -1.183593,0.11523 a 0.50005,0.50005 0 0 0 -0.0059,0 c -0.332755,0.0832 -0.629077,0.22478 -0.857422,0.45313 a 0.50005,0.50005 0 0 0 -0.01758,0.0195 c -0.316824,0.35017 -0.499708,0.83054 -0.65625,1.46875 -0.159754,0.65131 -0.234375,1.41155 -0.234375,2.28711 0,0.80308 0.05446,1.45999 0.181641,1.99414 a 0.50005,0.50005 0 0 0 0.0039,0.0117 c 0.131928,0.50372 0.280801,0.9047 0.484375,1.2246 a 0.50005,0.50005 0 0 0 0.0078,0.0137 c 0.18662,0.27371 0.359685,0.48278 0.58789,0.63672 0.136937,0.0999 0.28837,0.17656 0.458985,0.24218 0.247009,0.095 0.50865,0.11914 0.824218,0.11914 0.357758,0 0.723514,-0.046 1.095703,-0.13281 0.352783,-0.0823 0.678663,-0.17678 0.980469,-0.28516 l 0.0059,-0.002 c 0.214231,-0.0742 0.371648,-0.13811 0.533203,-0.20312 l 0.136718,0.35351 -0.02734,0.0156 c -0.198579,0.11734 -0.527903,0.26275 -0.970703,0.41406 -7.54e-4,2.6e-4 -0.0012,-2.6e-4 -0.002,0 -0.399955,0.12567 -0.887233,0.19336 -1.464843,0.19336 -0.702465,0 -1.301104,-0.15227 -1.830078,-0.45508 l -0.002,-0.002 c -0.49726,-0.29151 -0.894128,-0.75027 -1.199218,-1.43164 -0.287649,-0.67838 -0.447266,-1.61099 -0.447266,-2.79297 0,-0.97896 0.109586,-1.7685 0.310547,-2.36133 0.206407,-0.6089 0.4793,-1.05236 0.800781,-1.35547 a 0.50005,0.50005 0 0 0 0.0059,-0.004 c 0.339479,-0.32978 0.726607,-0.55724 1.183593,-0.69336 0.481296,-0.14337 0.996497,-0.21485 1.550782,-0.21485 z m -10.007813,1.33594 c 0.486679,0 0.802519,0.0886 0.804688,0.0898 a 0.50005,0.50005 0 0 0 0.01172,0.006 c 0.14335,0.0759 0.206053,0.14156 0.220703,0.16016 0.108524,0.17352 0.211791,0.49998 0.242188,0.98633 a 0.50005,0.50005 0 0 0 0,0.01 c 0.01936,0.23229 0.01839,0.5761 0.0293,0.85547 l -3.056641,0.0645 c 0.07379,-0.66096 0.103392,-1.52966 0.246094,-1.71484 0.09911,-0.11769 0.235805,-0.22293 0.441406,-0.30859 a 0.50005,0.50005 0 0 0 0.0078,-0.004 c 0.171997,-0.0757 0.536995,-0.14453 1.052734,-0.14453 z m 22.494141,1.79687 v 0.91016 a 0.50005,0.50005 0 0 0 -0.04883,-0.1543 l -0.40625,-0.30078 0.40625,-0.30078 a 0.50005,0.50005 0 0 0 0.04883,-0.1543 z m -6.90625,0.0449 a 0.50005,0.50005 0 0 0 0.03711,0.11328 l 0.412109,0.29687 -0.412109,0.29688 a 0.50005,0.50005 0 0 0 -0.03711,0.11328 z m -39.904297,0.14257 0.34375,0.26368 -0.34375,0.28711 z m 41.460937,0.0645 h 3.792969 v 0.0312 a 0.50005,0.50005 0 0 0 0.107422,0.17187 0.50005,0.50005 0 0 0 -0.107422,0.17383 v 0.0293 h -3.792969 v -0.0293 a 0.50005,0.50005 0 0 0 -0.107422,-0.17187 0.50005,0.50005 0 0 0 0.107422,-0.17383 z m -39.951172,0.0351 h 3.0625 v 0.35352 h -3.0625 l -0.002,-0.10352 a 0.50005,0.50005 0 0 0 -0.06445,-0.0976 0.50005,0.50005 0 0 0 0.06445,-0.0996 z m 25.757813,0.60352 c 7.47e-4,0.056 0.01953,0.0754 0.01953,0.13281 v 0.61719 h -0.660156 l 0.566406,-0.4707 a 0.50005,0.50005 0 0 0 0.07422,-0.2793 z m -6.466797,0.21484 a 0.50005,0.50005 0 0 0 0.06055,0.19532 l 0.369141,0.28515 -0.234375,0.084 a 0.50005,0.50005 0 0 0 -0.185547,0.32226 c -0.009,-0.18986 -0.07617,-0.27356 -0.07617,-0.47851 0,-0.18113 0.05958,-0.23957 0.06641,-0.40821 z m 4.859375,0.20508 c 5.7e-5,0.0266 0.002,0.0414 0.002,0.0684 a 0.50005,0.50005 0 0 0 0.166016,0.26172 h -3.519531 a 0.50005,0.50005 0 0 0 0.103515,-0.17773 c -0.0016,-0.0459 0.01287,-0.0391 0.01172,-0.084 z m 21.150391,0.0977 v 4.55078 h -0.603516 l 0.03711,-4.30078 h 0.220704 a 0.50005,0.50005 0 0 0 0.345703,-0.25 z m -6.90625,0.0117 a 0.50005,0.50005 0 0 0 0.328125,0.23828 h 0.238281 l 0.03711,4.30078 h -0.603515 z m -39.904297,0.0137 a 0.50005,0.50005 0 0 0 0.296875,0.20703 h 0.236328 l 0.06641,2.94336 -0.222656,0.002 a 0.50005,0.50005 0 0 0 -0.376953,0.25781 z m 20.873047,0.96094 a 0.50005,0.50005 0 0 0 0.292968,0.24609 h 0.271485 c 0.0066,0.33354 -0.01085,0.71579 0.03125,0.98242 a 0.50005,0.50005 0 0 0 0.002,0.0156 c 0.08501,0.44933 0.191632,0.80898 0.363281,1.10547 0.135266,0.23364 0.251144,0.4113 0.400391,0.56054 a 0.50005,0.50005 0 0 0 0.0293,0.0254 c 0.211639,0.18141 0.462239,0.31641 0.734375,0.40235 a 0.50005,0.50005 0 0 0 0.02148,0.008 c 0.275055,0.0724 0.585282,0.10156 0.941406,0.10156 0.339886,0 0.684259,-0.0261 1.033203,-0.0742 a 0.50005,0.50005 0 0 0 0.01563,-0.002 c 0.336652,-0.0581 0.653055,-0.12277 0.947266,-0.19336 a 0.50005,0.50005 0 0 0 0.01758,-0.004 c 0.286271,-0.0802 0.540424,-0.15472 0.761719,-0.22461 a 0.50005,0.50005 0 0 0 0.01367,-0.006 c 0.02135,-0.007 0.0284,-0.009 0.04883,-0.0156 l 0.103516,0.32617 c -0.07413,0.0306 -0.0902,0.0381 -0.183594,0.0762 -0.269026,0.10961 -0.624143,0.21715 -1.056641,0.31446 a 0.50005,0.50005 0 0 0 -0.01172,0.002 c -0.40495,0.10124 -0.865623,0.1543 -1.384765,0.1543 -0.731988,0 -1.348521,-0.14858 -1.876953,-0.43164 -0.502688,-0.28031 -0.899851,-0.72764 -1.203125,-1.40235 -0.198788,-0.46718 -0.245667,-1.23891 -0.3125,-1.96679 z m -20.873047,2.90039 a 0.50005,0.50005 0 0 0 0.03125,0.15039 l 0.527344,0.51367 h -0.558594 z m 4.978515,0.26172 v 0.40234 h -3.453125 a 0.50005,0.50005 0 0 0 0.09961,-0.1543 l -0.0059,-0.22656 z"
         id="path4" />
    </g>
  </g>
</svg>
