<?xml version="1.0" encoding="UTF-8" standalone="no"?>
<!-- Created with Inkscape (http://www.inkscape.org/) -->

<svg
   width="60.561344mm"
   height="37.228703mm"
   viewBox="0 0 60.561344 37.228703"
   version="1.1"
   id="svg1"
   xml:space="preserve"
   xmlns="http://www.w3.org/2000/svg"
   xmlns:svg="http://www.w3.org/2000/svg"><defs
     id="defs1" /><g
     id="layer1"
     transform="translate(-24.719219,-156.38574)"><g
       id="g689"><circle
         style="opacity:1;fill:#3b5fcf;fill-opacity:1;stroke:none;stroke-width:1;stroke-linecap:round;stroke-linejoin:round;stroke-opacity:1;paint-order:markers stroke fill"
         id="path687"
         cx="135.13139"
         cy="124.05444"
         r="13.967873"
         transform="rotate(30)" /><path
         d="m 48.3935,162.69324 a 34.671652,7.8283154 30 0 0 -23.420122,-5.02927 34.671652,7.8283154 30 0 0 16.065277,17.76824 34.671652,7.8283154 30 0 0 10.046685,6.34704 34.671652,7.8283154 30 0 0 10.520949,5.52769 34.671652,7.8283154 30 0 0 23.420384,5.02881 34.671652,7.8283154 30 0 0 -16.065539,-17.76778 13.967873,13.967873 0 0 1 -0.342971,3.53856 22.603613,5.1035414 30 0 1 5.95687,8.19496 22.603613,5.1035414 30 0 1 -10.07574,-1.06087 22.603613,5.1035414 30 0 1 -12.051503,-5.8212 22.603613,5.1035414 30 0 1 -11.065714,-7.52553 22.603613,5.1035414 30 0 1 -5.957506,-8.19593 22.603613,5.1035414 30 0 1 10.076376,1.06184 13.967873,13.967873 0 0 1 2.892554,-2.06656 z"
         style="opacity:1;fill:#2c2c2c;stroke-linecap:round;stroke-linejoin:round;paint-order:markers stroke fill"
         id="path689" /></g><path
       d="m 42.246,169.30439 a 13.967873,13.967873 0 0 0 -0.86403,2.58951 22.603613,5.1035414 30 0 0 11.065991,7.52564 22.603613,5.1035414 30 0 0 12.050944,5.82083 13.967873,13.967873 0 0 0 1.733745,-1.93838 22.603613,5.1035414 30 0 1 -0.163815,-0.0615 22.603613,5.1035414 30 0 1 -12.05146,-5.82135 22.603613,5.1035414 30 0 1 -11.065475,-7.52512 22.603613,5.1035414 30 0 1 -0.7059,-0.58963 z"
       style="opacity:1;fill:#2141ca;stroke-linecap:round;stroke-linejoin:round;paint-order:markers stroke fill"
       id="path699" /></g></svg>
