<?xml version="1.0" encoding="UTF-8" standalone="no"?>
<!-- Created with Inkscape (http://www.inkscape.org/) -->

<svg
   width="77.599846mm"
   height="34.66869mm"
   viewBox="0 0 77.599846 34.66869"
   version="1.1"
   id="svg1"
   inkscape:version="1.4.2 (f4327f4, 2025-05-13)"
   sodipodi:docname="science-fundationsvg.svg"
   xmlns:inkscape="http://www.inkscape.org/namespaces/inkscape"
   xmlns:sodipodi="http://sodipodi.sourceforge.net/DTD/sodipodi-0.dtd"
   xmlns="http://www.w3.org/2000/svg"
   xmlns:svg="http://www.w3.org/2000/svg">
  <sodipodi:namedview
     id="namedview1"
     pagecolor="#ffffff"
     bordercolor="#000000"
     borderopacity="0.25"
     inkscape:showpageshadow="2"
     inkscape:pageopacity="0.0"
     inkscape:pagecheckerboard="0"
     inkscape:deskcolor="#d1d1d1"
     inkscape:document-units="mm"
     showguides="true"
     inkscape:zoom="0.70710678"
     inkscape:cx="33.941125"
     inkscape:cy="-234.75945"
     inkscape:window-width="3440"
     inkscape:window-height="1417"
     inkscape:window-x="1912"
     inkscape:window-y="-8"
     inkscape:window-maximized="1"
     inkscape:current-layer="layer1">
    <sodipodi:guide
       position="134.26463,310.29102"
       orientation="0,-1"
       id="guide7"
       inkscape:locked="false" />
  </sodipodi:namedview>
  <defs
     id="defs1">
    <inkscape:path-effect
       effect="fillet_chamfer"
       id="path-effect7"
       is_visible="true"
       lpeversion="1"
       nodesatellites_param="F,0,0,1,0,0,0,1 @ F,0,0,1,0,0,0,1 @ F,0,0,1,0,0,0,1 @ F,0,0,1,0,0,0,1 @ F,0,0,1,0,0,0,1 @ F,0,0,1,0,0,0,1 @ F,0,0,1,0,0,0,1 @ F,0,0,1,0,0,0,1 @ F,0,0,1,0,0,0,1 @ F,0,0,1,0,0,0,1"
       radius="0"
       unit="px"
       method="auto"
       mode="F"
       chamfer_steps="1"
       flexible="false"
       use_knot_distance="true"
       apply_no_radius="true"
       apply_with_radius="true"
       only_selected="false"
       hide_knots="false" />
  </defs>
  <g
     inkscape:label="Layer 1"
     inkscape:groupmode="layer"
     id="layer1"
     transform="translate(-41.584065,-152.62101)">
    <path
       d="m 55.26193,152.62101 c -1.741548,0 -3.153379,0.23268 -3.153498,0.51971 l 0.944103,2.57804 c -0.09659,9.58874 -0.09325,9.82533 -1.635375,13.0276 -1.542134,3.20228 -5.641112,3.02905 -9.833095,16.33539 -9.7e-5,0.49178 0.477689,0.90121 1.462736,1.2286 3.023425,0.58061 7.573011,0.95744 12.686999,0.97935 5.113988,-0.0219 9.663929,-0.39874 12.687361,-0.97935 0.985047,-0.32739 1.462833,-0.73682 1.462736,-1.2286 -4.191983,-13.30634 -8.290968,-13.13311 -9.833102,-16.33539 -1.542127,-3.20227 -1.538786,-3.43886 -1.635375,-13.0276 l 0.94411,-2.57804 c -1.18e-4,-0.28703 -1.41195,-0.51971 -3.153498,-0.51971 -0.160417,0 -0.318259,0.002 -0.472232,0.006 -0.153973,-0.003 -0.31146,-0.006 -0.47187,-0.006 z"
       style="fill:#ffff00;stroke-width:0.999997;stroke-linecap:round;stroke-linejoin:round;paint-order:markers stroke fill"
       id="path11" />
    <g
       id="text1"
       style="font-weight:500;font-size:16.9333px;line-height:1;font-family:Ruda;-inkscape-font-specification:'Ruda Medium';text-align:center;letter-spacing:0px;text-anchor:middle;fill:none;stroke:#000000;stroke-linecap:round;stroke-linejoin:round;paint-order:markers stroke fill"
       aria-label="Science&#10;Fundation">
      <path
         style="font-weight:normal;font-family:Papyrus;-inkscape-font-specification:Papyrus;fill:#000080;stroke:none"
         d="m 51.574729,165.87496 q 0.0083,-0.0579 0.23151,-0.43821 l 0.09095,-0.23978 q 0.297656,-0.35554 0.305924,-0.38034 0.01654,-0.0248 0.04134,-0.19017 0.05788,-0.008 0.107487,-0.008 0.06615,0 0.107486,0.0413 0.07441,0.0744 0.14056,0.17364 0.132291,0.21497 0.132291,0.21497 l -0.04134,0.25631 0.05788,0.22325 -0.02481,0.24804 q 0.107487,0.37207 0.272851,0.57051 l 0.165364,-0.0661 h 0.0083 q 0.0248,0 0.05788,0.0248 0.04134,0.0165 0.157096,0.41341 0.04134,0.14056 0.173633,0.24804 0.479556,0.39688 0.595311,0.46302 l 1.050063,0.41342 0.297656,0.1819 q 0.297655,0.0413 0.355533,0.0579 0.04134,0.0165 0.388606,0.17364 1.01699,0.2067 1.190623,0.22324 l 0.909503,0.0331 q 0.165364,0.008 0.429947,0.008 0.124023,0 0.165364,-0.0165 0.09922,-0.0248 0.107487,-0.0248 l 0.239778,0.0661 q 0.148828,-0.0579 0.744139,-0.14056 0.06615,0.008 0.272851,0.0909 0.09095,0.008 0.115755,0.008 0.08268,0 0.223242,-0.2067 0.04134,-0.0579 0.107487,-0.0579 0.04961,0 0.124023,0.0165 0.05788,0.008 0.107487,0.008 0.0248,0 0.595311,-0.19016 l 0.206706,-0.0165 0.314192,-0.14883 q 0.620116,-0.19017 0.752407,-0.26458 0.09095,-0.0579 0.587043,-0.37207 0.330729,-0.28939 0.396874,-0.34727 0.04961,-0.0579 0.330729,-0.46302 l 0.181901,-0.14882 0.157096,-0.26459 q 0.132291,-0.16536 0.157096,-0.21497 0.01654,-0.0248 0.04134,-0.19017 -0.02481,-0.0744 0.248046,-0.47956 0.05788,-0.091 0.08268,-0.25631 0.214974,-0.0165 0.289388,-0.0579 0.06615,-0.0413 0.107486,-0.22324 l -0.03307,-0.0331 h -0.173633 l 0.107487,-0.34727 q -0.107487,-0.12402 -0.107487,-0.19017 0,-0.0413 0.107487,-0.22324 0.04961,-0.10748 0.09922,-0.45475 0.165365,-0.50436 0.173633,-0.61185 0.0083,-0.21497 0.03307,-0.44648 h 0.1819 v -0.12402 l -0.272851,0.0413 q -0.04961,-0.27285 -0.347265,-1.09968 l 0.132292,-0.15709 -0.03307,-0.0827 q 0.206705,0.008 0.305924,0.008 0.603579,0 0.603579,-0.13229 0,-0.16536 -0.959112,-0.17363 -0.07441,0.16537 -0.190169,0.16537 -0.04134,0 -0.173633,-0.10749 -0.05788,-0.0413 -0.64492,-0.28939 -0.223242,-0.14056 -0.338997,-0.17363 -0.256315,-0.0744 -0.669725,-0.13229 l -0.190169,-0.0661 q -0.429947,-0.14883 -0.46302,-0.14883 -0.0083,0 -0.02481,0 v -0.0165 l -0.04134,-0.0248 -0.0083,0.0331 q -0.03307,0.0579 -0.04134,0.0579 l -0.644921,-0.14882 -0.132291,0.0413 q -0.355533,0.0496 -0.396874,0.0496 -0.04961,0 -0.124023,-0.0661 -0.02481,-0.16536 -0.190169,-0.16536 -0.07441,0 -0.256315,0.15709 -0.05788,0.0496 -0.181901,0.0496 v 0 q -0.08268,0 -0.239778,-0.0165 -0.173632,-0.0165 -0.206705,-0.0165 -0.55397,0 -0.55397,-0.008 l -0.37207,-0.61185 q -0.05788,-0.0992 -0.132291,-0.0992 -0.198437,0 -0.421679,0.69453 -0.01654,-0.62011 -0.173633,-0.78548 -0.04134,-0.0413 -0.09922,-0.0661 -0.115755,-0.0579 -0.115755,-0.0579 -0.620116,0.89297 -0.661457,0.89297 0,0 -0.338997,-0.11576 -0.413411,-0.0496 -0.578775,-0.12402 -0.223242,-0.11576 -0.23151,-0.11576 l -0.206705,-0.0248 -0.09922,-0.0165 h -0.223241 l -0.214974,-0.10748 q -0.504361,-0.21498 -0.653189,-0.33073 -0.32246,-0.25632 -0.653189,-0.77721 -0.1819,-0.29766 -0.1819,-0.48783 0,-0.0909 0.0248,-0.23151 -0.165364,-0.19844 -0.165364,-0.38034 0.14056,-0.14056 0.148828,-0.1819 l 0.06615,-0.49609 q 0.1819,-0.42995 0.214973,-0.45475 0.355533,-0.39688 0.702798,-0.78548 l 0.347265,-0.24805 0.429947,-0.34726 0.264583,-0.12403 0.289387,-0.14882 1.29811,-0.55397 q 0.421679,-0.21498 0.587043,-0.27286 0.512629,-0.17363 0.802017,-0.24804 l 1.058331,-0.28112 0.297656,-0.0579 1.513083,-0.14056 0.686261,-0.0661 q 0.0083,0 0.347265,0.0248 l 0.421679,0.0331 0.223242,0.0579 q 0.347265,0.0496 0.983917,0.21497 l 0.06615,0.30593 q -0.198437,0.14883 -0.264583,0.19017 -0.124023,0.0909 -0.157096,0.11575 -0.14056,0.10749 -0.223242,0.14883 -0.1819,-0.0992 -0.248046,-0.10749 h -0.256315 l -0.471288,-0.15709 -0.297656,0.0165 q -0.0248,0 -0.23151,-0.26458 -0.190168,-0.25631 -0.55397,-0.25631 -0.32246,0 -0.479556,0.14056 -0.09922,0.0827 -0.214974,0.32246 -0.107486,-0.11576 -0.157096,-0.11576 h -0.115755 q -0.347265,0 -0.653189,0.12402 l -0.768943,0.14056 -0.686262,0.22325 q -0.314192,-0.0744 -0.338997,-0.0744 -0.09095,0 -0.32246,0.0909 v 0.19844 l -0.851626,0.32246 -0.08268,0.1571 q -0.504361,0.0744 -0.78548,0.42994 -0.124024,-0.0413 -0.214974,-0.0413 -0.157096,0 -0.289387,0.27285 -0.347265,0.10749 -0.595312,0.42995 -0.363801,0.47956 -0.363801,0.86816 0,0.19017 0.05788,0.57878 0.02481,0.1819 0.214974,0.35553 0.46302,0.42168 0.636652,0.47129 l 0.388606,0.10748 q 0.421679,0.14883 0.553971,0.51263 0.0083,0.0165 0.09922,0.0579 0.08268,0.0496 0.173633,0.0496 0.0248,0 0.173632,-0.0579 0.0248,-0.008 0.06615,-0.008 0.04961,0 0.115755,0.008 0.0083,-0.14882 0.06615,-0.23978 0.132291,0.0496 0.157096,0.0496 l 0.388606,-0.0496 0.628384,0.1323 q 0,0 0.206705,-0.0248 0.04961,-0.008 0.08268,-0.008 0.173633,0 0.595312,0.10749 l 0.03307,0.23151 q 0.14056,0.0331 0.223242,0.0331 0.03307,0 0.115755,-0.008 -0.08268,-0.091 -0.08268,-0.14882 0,-0.0992 0.148828,-0.0992 l 0.281119,0.0165 h 1.893421 q 0.05788,0.0579 0.05788,0.10749 0,0.0827 -0.04961,0.19017 0.124023,0.13229 0.181901,0.13229 0.08268,0 0.223241,-0.2067 0.107487,0.0413 0.173633,0.0413 0.02481,0 0.421679,-0.17363 0.148828,0.0413 0.173632,0.0496 0.537434,0.0662 0.69453,0.14883 l 0.305924,0.1571 1.025258,0.33073 q 0.02481,0.008 0.157096,0.10748 0.124024,0.0827 0.198438,0.12403 0.363801,0.2067 0.438215,0.30592 0.04134,0.0413 0.09922,0.19844 -0.07441,0.13229 -0.07441,0.21497 0,0.0331 0.0083,0.091 l 0.264583,0.0248 q 0.223241,0.38033 0.206705,0.79374 0.124023,0.55398 0.124023,0.69453 v 0.25632 0.10749 q 0,0.23977 0,0.30592 0,0.0661 0,0.10749 0,0.13229 -0.132291,0.37207 -0.01654,0.0248 -0.01654,0.0579 0,0.0661 0.04961,0.23151 -0.115755,0.1323 -0.124024,0.19017 l -0.01654,0.19844 q -0.23151,0.52917 -0.32246,0.62838 l -0.0083,0.23151 -0.214973,0.3142 -0.01654,0.0413 q -0.01654,0.0579 -0.01654,0.0744 0,0.0744 0.04134,0.17363 -0.198437,0.24805 -0.248046,0.339 -0.157096,0.23151 -0.396875,0.50436 l -0.281119,0.41341 -0.190169,0.16537 -0.330728,0.34726 q -0.289388,0.28939 -0.388606,0.41341 -0.06615,0.0827 -0.124023,0.0827 v 0 l -0.157096,-0.0744 0.07441,-0.10749 -0.429947,0.27285 0.05788,0.22325 q -0.429947,0.28938 -1.091404,0.60358 -0.60358,0.28938 -0.777212,0.31419 l -0.487825,0.0579 q -0.727603,0.14882 -1.01699,0.24804 l -0.504361,0.0744 -0.223242,0.0413 h -0.289387 l -0.338997,0.0248 q -0.281119,-0.0827 -0.32246,-0.0909 -0.09095,-0.008 -0.289388,0 -0.190169,0.008 -0.338996,-0.10749 -0.181901,0.19844 -0.396875,0.19844 -0.03307,0 -0.264582,-0.12402 -0.04961,-0.0331 -0.132292,-0.0331 l -0.545702,0.008 q -0.05788,0 -0.173632,-0.008 -0.115755,-0.28938 -0.37207,-0.28938 -0.124023,0 -0.214973,0.1819 -0.148828,-0.0744 -0.347265,-0.1571 -0.181901,-0.0744 -0.396875,-0.0744 -0.264582,-0.12402 -0.355533,-0.14883 -0.1819,-0.0413 -0.330728,-0.0827 v -0.21498 q -0.239778,-0.0579 -0.256315,-0.10748 -0.04134,-0.008 -0.107487,-0.23978 l -0.140559,0.0331 -0.02481,0.23978 q -0.07441,-0.008 -0.603579,-0.1819 l -0.992186,-0.80202 -0.02481,-0.008 q -0.0083,-0.12403 -0.04134,-0.16537 -0.0248,-0.0413 -0.1819,-0.19017 -0.04134,-0.0331 -0.338997,-0.42994 -0.173633,-0.25632 -0.32246,-0.39688 z m 16.916763,-3.18326 q 0.115755,-0.1819 0.372069,-0.73587 0.165365,-0.34727 0.23151,-0.3638 0.148828,-0.12403 0.297656,-0.25632 l 0.190169,-0.21497 0.272851,-0.23151 0.363801,-0.34727 0.206705,-0.12402 0.190169,-0.14056 0.181901,-0.0744 0.239778,-0.1819 0.438216,-0.1571 q 0.405142,-0.14056 0.504361,-0.1571 0.198437,-0.0248 0.347264,-0.0496 0.165365,0.16537 0.239779,0.17364 0.0083,0 0.41341,-0.11576 0.03307,-0.008 0.05788,-0.008 0.0083,0 0.363801,0.0909 0.04134,0.008 0.14056,0.0165 0.148828,0.008 0.214973,0.0248 0.388606,-0.11576 0.429947,-0.11576 0.165365,0 0.305924,0.10749 -0.04134,0.2067 -0.115755,0.27285 -0.07441,0.0744 -0.272851,0.13229 l -0.04961,0.22324 q -0.264583,0.12402 -0.347265,0.19844 -0.107487,0.0744 -0.148828,0.0827 0,0 -0.124023,-0.0165 -0.02481,0 -0.03307,0 l -0.297656,0.0165 h -0.0083 l -0.239778,-0.0331 -0.198437,-0.0165 q -0.281119,-0.0909 -0.471288,-0.10749 -0.05788,0 -0.181901,-0.008 -0.148828,-0.0165 -0.248046,-0.0165 -0.06615,0 -0.611848,0.0992 -0.289387,0.0331 -0.380338,0.0744 -0.09095,0.0579 -0.355533,0.32246 -0.06615,0.0744 -0.289387,0.10749 -0.02481,0.19017 -0.09095,0.24805 -0.08268,0.0661 -0.297655,0.0992 0.01654,0.0909 0.01654,0.16537 0,0.0331 -0.223242,0.35553 -0.06615,0.0992 -0.06615,1.00872 0,0.19844 0.206705,0.73587 -0.132292,0.23151 -0.14056,0.339 0.04961,0.0413 0.28112,0.0992 0.363801,0.46302 0.463019,0.67799 l 0.198438,0.0248 q 0.124023,0.16536 0.165364,0.19844 l 0.314192,0.2067 0.223242,0.16536 q 0.314192,0.12403 0.388606,0.14056 0.04961,0.0165 0.380337,0.0331 l 0.305924,0.0661 0.289388,0.0165 0.214973,0.0248 q 0.165365,-0.0165 0.545702,-0.19016 l 0.148828,0.0413 q 0.107487,-0.0661 0.14056,-0.0909 0.06615,-0.0331 0.314192,-0.22325 0.214973,-0.0248 0.380338,-0.17363 0.124023,-0.13229 0.281119,-0.22324 0.06615,-0.0413 0.14056,-0.12402 0.198437,-0.23151 0.289387,-0.23151 0.06615,0 0.132291,0.0827 -0.08268,0.339 -0.08268,0.57051 -0.165364,0.15709 -0.272851,0.33072 -0.1819,0.0579 -0.496093,0.27286 -0.132291,0.0248 -0.239778,0.0992 -0.157096,0.10749 -0.264583,0.10749 l -0.281119,-0.0165 h -0.0083 q -0.438215,0.091 -0.520897,0.11576 -0.02481,0.008 -0.223242,0.14883 -0.04134,0.0248 -0.07441,0.0248 l -0.83509,-0.008 q -0.04961,0 -0.239778,0.0248 -0.198437,-0.13229 -0.372069,-0.14883 -0.23151,-0.0248 -0.669726,-0.14883 l -0.198437,-0.0248 -0.23151,-0.0744 q -0.223241,-0.0496 -0.281119,-0.0661 -0.04961,-0.0248 -0.124023,-0.0992 -0.429947,-0.42168 -0.429947,-0.49609 0,-0.0661 0.02481,-0.1571 -0.0083,-0.0248 -0.0083,-0.0248 l -0.281119,0.0496 q 0,0 -0.01654,-0.0165 -0.148828,-0.30593 -0.214974,-0.38861 -0.132291,-0.19017 -0.140559,-0.30592 -0.0083,-0.0496 -0.03307,-0.29766 v -0.0248 l 0.04134,-0.23151 q -0.23151,-0.16537 -0.23151,-0.23151 0,-0.0248 0.388606,-0.24805 0.214973,-0.12402 0.214973,-0.37207 0,-0.23978 -0.529165,-0.30592 z m 8.078043,-2.24069 q 0,-0.11575 0.248047,-0.31419 0.545702,-0.42168 0.942576,-0.55397 l 0.248047,0.25632 q -0.08268,0.2067 -0.132292,0.57877 -0.04961,0.30592 -0.04961,0.37207 v 0.30592 l -0.14056,0.19844 q 0,0.20671 0.181901,0.39688 -0.04961,0.0909 -0.04961,0.10748 l 0.01654,0.40514 q 0,0 -0.0083,0.0909 -0.0083,0.0579 -0.0083,0.19017 l -0.04134,1.57923 q 0.0083,0.12403 0.107486,0.57051 l 0.01654,0.34726 q 0.04961,0.24805 0.04961,0.28939 0,0.17363 -0.148828,0.31419 -0.04134,0.0413 -0.314192,0.21498 -0.413411,0.32246 -0.471288,0.34726 -0.08268,0.0331 -0.148828,0.0331 -0.09922,0 -0.198437,-0.0992 0.03307,-0.20671 0.04134,-0.27285 0.0083,-0.0992 0.09095,-0.36381 l 0.0083,-0.40514 0.05788,-0.81028 -0.0083,-0.14883 q 0.0083,-0.13229 0.132291,-0.13229 0.03307,0 0.08268,0.008 0.04134,-0.1323 0.04134,-0.18191 0,-0.0661 -0.04961,-0.25631 -0.0248,-0.0827 -0.04961,-0.23151 l -0.14056,-0.10749 q 0.02481,-0.1819 0.02481,-0.27285 0,-0.0413 -0.0083,-0.12402 0,-0.0661 0,-0.11576 0,-0.10748 0.08268,-0.23977 -0.08268,-0.0992 -0.08268,-0.20671 v -0.0661 -0.0579 l -0.01654,-0.19017 q 0.537434,-0.0992 0.537434,-0.17363 0,-0.008 -0.01654,-0.0248 -0.124023,-0.10749 -0.305924,-0.10749 -0.132292,0 -0.32246,0.0165 0.0248,-0.12402 0.0248,-0.16536 0,-0.0165 -0.06615,-0.81856 -0.0083,-0.0992 -0.157097,-0.1819 z m 0.148828,-3.33209 v -0.008 q -0.01654,-0.28939 0.421679,-0.62839 0.09922,-0.0744 0.214974,-0.21497 0.0083,-0.008 0.165364,-0.13229 0.305924,-0.45476 0.380338,-0.50436 0.124023,-0.091 0.206705,-0.091 0.03307,0 0.190169,0.12403 0.157096,0.11575 0.157096,0.28112 0,0.13229 -0.148828,0.23151 -0.380338,0.27285 -0.727603,0.59531 l -0.23151,0.14883 -0.289387,0.19843 q -0.23151,0.12403 -0.264583,0.12403 -0.07441,0 -0.07441,-0.12403 z m 8.226872,2.87734 0.264582,-0.16536 q 0.124024,0.14883 0.173633,0.19017 0.01654,0.0165 0.173632,0.0827 0.08268,0.0413 0.711067,0.69453 0.198437,0.2067 0.272851,0.3886 0.06615,0.1571 0.140559,0.38034 0.04961,0.11576 0.115755,0.29766 l -0.05788,0.0579 q -0.09095,-0.0165 -0.248047,-0.0744 l -0.314192,0.11576 -0.281119,-0.0496 -0.248046,0.0661 q -0.51263,-0.3638 -0.537434,-0.3638 -0.04961,0 -0.388606,0.339 -0.529166,-0.0992 -0.562239,-0.0992 -0.132291,0 -0.314192,0.0248 l -0.04134,-0.0331 q -0.132291,0.0165 -0.719334,0.0165 l -0.305924,0.0331 -0.380338,0.0331 -0.388606,0.0662 -0.347265,-0.008 q -0.479556,0.14883 -0.653189,0.17363 -0.04134,0.28112 -0.08268,0.38861 -0.04961,0.12402 -0.198437,0.27285 0.264583,0.1819 0.281119,0.25631 0.08268,0.52917 0.157096,0.71107 l 0.148828,0.0827 -0.04134,0.30593 0.256315,0.0661 q 0.08268,0.339 0.214973,0.45475 0.124023,0.10749 0.413411,0.14883 0.04134,0.25632 0.132291,0.30593 0.06615,0.0496 0.297656,0.0661 l 0.14056,0.21498 q 0.09095,-0.0165 0.157096,-0.0165 0.04961,0 0.496092,0.2067 0.09922,0.0496 0.214974,0.0496 0.107487,0 0.421679,-0.0992 l 0.529165,-0.0579 0.405143,-0.11576 q 0.289387,-0.0165 0.388606,-0.0496 0.140559,-0.0579 0.512629,-0.28938 0.363801,-0.22325 0.421679,-0.30593 0.148828,-0.17363 0.281119,-0.39687 0.06615,-0.0992 0.23151,-0.0992 0.07441,0 0.214974,0.10749 -0.05788,0.29765 -0.107487,0.3886 -0.347265,0.58705 -0.438215,0.77721 -0.107487,-0.0496 -0.181901,-0.0496 -0.04961,0 -0.272851,0.16537 -0.148828,0.0992 -0.37207,0.11575 -0.512629,0.14056 -0.711066,0.16537 -0.338997,0.0331 -0.429947,0.0579 -0.256315,0.0827 -0.264583,0.0827 l -0.487825,-0.0744 -0.289387,0.0496 -0.14056,0.008 q -0.198437,0.0248 -0.305923,0.0248 -0.107487,0 -0.60358,-0.0579 -0.157096,-0.0165 -0.157096,-0.0165 l -0.173633,-0.10748 q -0.620115,-0.19017 -0.686261,-0.22325 -0.04134,-0.0248 -0.281119,-0.24804 -0.01654,-0.0165 -0.289388,-0.1819 -0.23151,-0.14056 -0.248046,-0.21498 l -0.148828,-0.26458 q -0.03307,-0.0661 -0.281119,-0.31419 0.08268,-0.13229 0.08268,-0.19844 0,-0.0248 -0.214974,-0.46302 -0.05788,-0.11575 -0.05788,-0.7028 0,-0.1819 0.115755,-0.59531 0.09922,-0.32246 0.140559,-0.37207 l 0.28112,-0.33073 0.1819,-0.3886 q 0.28112,-0.26459 0.644921,-0.59531 l 0.603579,-0.37207 0.611848,-0.42168 0.223242,-0.0413 0.628384,-0.19844 0.405143,-0.0331 q 0.487824,-0.1819 0.537433,-0.1819 0.46302,0 0.628385,0.43821 z m -0.959113,1.24023 0.140559,0.17364 q 0.165365,-0.0331 0.223242,-0.0414 0.223242,-0.0331 0.446484,-0.11575 l 0.471288,0.0413 q 0.0083,0 0.04134,-0.0827 0.0083,-0.0496 0.0083,-0.0827 0,-0.0744 -0.09922,-0.1819 -0.01654,-0.0165 -0.08268,-0.0992 -0.198437,-0.26459 -0.248046,-0.24805 l -0.272851,-0.13229 q -0.04961,-0.0248 -0.157096,-0.19017 -0.239778,-0.0331 -0.818553,-0.0331 l -0.165364,-0.008 -0.28112,0.16536 q -0.01654,0.0165 -0.454751,0.11576 -0.347265,0.12402 -0.611848,0.23978 -0.05788,0.0413 -0.32246,0.28112 -0.04961,0.0413 -0.190169,0.14882 v 0.0496 l 0.01654,0.0165 0.60358,0.23978 0.1819,0.1819 0.322461,-0.38861 q 0.04134,-0.0331 0.09095,-0.0331 0.02481,0 0.405143,0.10749 0.0083,0 0.01654,0 0.107487,0 0.471288,-0.0827 0.08268,-0.0248 0.264583,-0.0413 z m 4.95266,-0.70279 q 0.06615,-0.28939 0.421679,-0.44649 0.380338,-0.30592 0.562238,-0.30592 0.190169,0 0.239778,0.0992 0.01654,0.0248 0.02481,0.47955 0,0.11576 0.190169,0.44649 0.330728,-0.42168 0.388606,-0.41341 l 0.289387,-0.1819 q 0.330729,-0.27286 0.421679,-0.27286 0.107487,0 0.214974,0.1819 0.454751,-0.33072 0.901235,-0.33072 0.09095,0 0.157096,0.0248 0.165364,0.0496 0.165364,0.0496 0.322461,-0.11575 0.388606,-0.11575 0.09095,0 0.46302,0.0909 0.223242,0.0496 0.413411,0.0661 0.115755,0.14056 0.165364,0.14883 l 0.190169,0.0331 q 0.214974,0.0331 0.504361,0.46302 0.173632,0.27285 0.181901,1.20716 -0.198437,0 -0.405143,0.0744 -0.206705,0.0744 -0.206705,0.14056 0,0.008 0.55397,0.30593 0.06615,0.0331 0.06615,0.16536 0,0.14056 -0.157096,0.50436 -0.0083,0.0165 -0.0083,0.0496 0,0.0992 0.173632,0.26459 -0.02481,0.17363 -0.02481,0.29765 0,0.0827 0.124024,0.42168 l 0.01654,0.45475 0.02481,0.39688 -0.02481,0.34726 q 0,0.0827 0.08268,0.30592 -0.223242,0.16537 -0.314192,0.21498 -0.04134,0.0248 -0.372069,0.15709 -0.06615,0.0331 -0.363802,0.23151 -0.23151,-0.23977 -0.23151,-0.40514 0,-0.0579 0.148828,-0.64492 0.0083,-0.0413 0.01654,-0.19017 0.0083,-0.0744 0.0083,-0.12402 l 0.165364,-0.0579 q 0.413411,-0.0579 0.421679,-0.0992 0,0 -0.09095,-0.0579 -0.198437,-0.12403 -0.620115,-0.21498 0.04961,-0.35553 0.124023,-0.42994 l 0.248046,-0.23151 q 0.198437,-0.19017 0.198437,-0.34727 0,-0.0331 -0.545702,-0.23978 l 0.0248,-0.29765 -0.04134,-0.43822 q 0,-0.008 0.0248,-0.0661 0.03307,-0.0827 0.06615,-0.23978 -0.132291,-0.14883 -0.132291,-0.19844 l 0.0083,-0.41341 q 0,-0.0827 -0.132292,-0.22324 -0.132291,-0.14056 -0.132291,-0.28112 l -0.04134,-0.0496 q -0.198437,-0.0579 -0.223242,-0.0909 l -0.23151,-0.39688 q -0.06615,-0.10748 -0.148828,-0.10748 -0.140559,0 -0.338996,0.16536 -0.305924,0.26458 -0.545702,0.26458 -0.04134,0 -0.338997,-0.0661 l -0.157096,0.1571 v 0.0413 q -0.173633,-0.41341 -0.347265,-0.41341 -0.0083,0 -0.09095,0.0331 -0.115755,0.0579 -0.256315,0.0909 -0.173632,0.0496 -0.446483,0.22324 -0.405143,0.22324 -0.471289,0.339 -0.132291,0.19843 -0.132291,0.3886 0,0.008 0.01654,0.52917 v 0.0248 0.008 q 0,0.14883 -0.06614,0.19017 l -0.37207,0.27285 q -0.05788,0.0413 -0.05788,0.0827 0,0.0827 0.148827,0.16537 0.330729,0.17363 0.380338,0.22324 0.04134,0.0496 0.04134,0.1571 0,0.0248 -0.01654,0.16536 l 0.01654,0.61185 q 0,0.0496 -0.148828,0.24804 -0.01654,0.0248 -0.01654,0.091 0,0.14883 0.173633,0.3142 l -0.02481,0.0248 q 0.01654,0.19844 0.01654,0.26458 0.03307,0.48783 0.132292,0.75241 -0.08268,0.17363 -0.165365,0.20671 -0.03307,0.0165 -0.272851,0.0496 -0.04134,0 -0.115755,0.0413 -0.09922,0.0413 -0.132291,0.0496 -0.05788,0.008 -0.124023,0.11575 -0.06615,0.0992 -0.190169,0.0992 -0.04961,0 -0.148828,-0.11575 -0.06615,-0.0662 -0.06615,-0.14056 0,-0.0661 0.01654,-0.14883 0.05788,-0.24805 0.05788,-0.28939 l 0.0083,-0.62838 q 0.07441,-0.23978 0.07441,-0.28112 0,-0.0827 -0.03307,-0.19844 -0.04134,-0.16536 -0.04134,-0.22324 0,-0.0331 0.01654,-0.16537 0.0083,-0.0827 0.0083,-0.14056 0,-0.10748 -0.0083,-0.31419 -0.0083,-0.0992 -0.0083,-0.19844 0,-0.10748 0.05788,-0.27285 l 0.23151,-0.10748 q -0.01654,-0.0744 -0.05788,-0.11576 -0.04961,-0.0248 -0.264583,-0.0413 -0.0083,-0.1571 -0.0083,-0.25631 0,-0.0744 0.03307,-0.24805 0.0083,-0.0413 0.0083,-0.0992 0,-0.19017 -0.09095,-0.7028 l 0.190169,-0.10748 q -0.157096,-0.23151 -0.173632,-0.27285 -0.01654,-0.0248 -0.03307,-0.19017 -0.0083,-0.13229 -0.198437,-0.3638 z m 8.425308,2.158 q 0.115755,-0.1819 0.37207,-0.73587 0.165364,-0.34727 0.23151,-0.3638 0.148828,-0.12403 0.297656,-0.25632 l 0.190168,-0.21497 0.272851,-0.23151 0.363802,-0.34727 0.206705,-0.12402 0.190169,-0.14056 0.181901,-0.0744 0.239778,-0.1819 0.43822,-0.1571 q 0.40514,-0.14056 0.50436,-0.1571 0.19843,-0.0248 0.34726,-0.0496 0.16537,0.16537 0.23978,0.17364 0.008,0 0.41341,-0.11576 0.0331,-0.008 0.0579,-0.008 0.008,0 0.3638,0.0909 0.0413,0.008 0.14056,0.0165 0.14883,0.008 0.21497,0.0248 0.38861,-0.11576 0.42995,-0.11576 0.16536,0 0.30592,0.10749 -0.0413,0.2067 -0.11575,0.27285 -0.0744,0.0744 -0.27285,0.13229 l -0.0496,0.22324 q -0.26459,0.12402 -0.34727,0.19844 -0.10748,0.0744 -0.14883,0.0827 0,0 -0.12402,-0.0165 -0.0248,0 -0.0331,0 l -0.29766,0.0165 h -0.008 l -0.23977,-0.0331 -0.19844,-0.0165 q -0.28112,-0.0909 -0.47129,-0.10749 -0.0579,0 -0.1819,-0.008 -0.14883,-0.0165 -0.24805,-0.0165 -0.0661,0 -0.61184,0.0992 -0.289391,0.0331 -0.380341,0.0744 -0.09095,0.0579 -0.355533,0.32246 -0.06615,0.0744 -0.289388,0.10749 -0.0248,0.19017 -0.09095,0.24805 -0.08268,0.0661 -0.297656,0.0992 0.01654,0.0909 0.01654,0.16537 0,0.0331 -0.223242,0.35553 -0.06615,0.0992 -0.06615,1.00872 0,0.19844 0.206706,0.73587 -0.132292,0.23151 -0.14056,0.339 0.04961,0.0413 0.281119,0.0992 0.363802,0.46302 0.46302,0.67799 l 0.198437,0.0248 q 0.124023,0.16536 0.165364,0.19844 l 0.314193,0.2067 0.22324,0.16536 q 0.31419,0.12403 0.38861,0.14056 0.0496,0.0165 0.38034,0.0331 l 0.30592,0.0661 0.28939,0.0165 0.21497,0.0248 q 0.16536,-0.0165 0.5457,-0.19016 l 0.14883,0.0413 q 0.10749,-0.0661 0.14056,-0.0909 0.0661,-0.0331 0.31419,-0.22325 0.21498,-0.0248 0.38034,-0.17363 0.12402,-0.13229 0.28112,-0.22324 0.0661,-0.0413 0.14056,-0.12402 0.19844,-0.23151 0.28939,-0.23151 0.0661,0 0.13229,0.0827 -0.0827,0.339 -0.0827,0.57051 -0.16536,0.15709 -0.27285,0.33072 -0.1819,0.0579 -0.49609,0.27286 -0.13229,0.0248 -0.23978,0.0992 -0.15709,0.10749 -0.26458,0.10749 l -0.28112,-0.0165 h -0.008 q -0.43821,0.091 -0.52089,0.11576 -0.0248,0.008 -0.22325,0.14883 -0.0413,0.0248 -0.0744,0.0248 l -0.83509,-0.008 q -0.0496,0 -0.23978,0.0248 -0.19844,-0.13229 -0.37207,-0.14883 -0.231508,-0.0248 -0.669723,-0.14883 l -0.198437,-0.0248 -0.23151,-0.0744 q -0.223242,-0.0496 -0.281119,-0.0661 -0.04961,-0.0248 -0.124023,-0.0992 -0.429947,-0.42168 -0.429947,-0.49609 0,-0.0661 0.0248,-0.1571 -0.0083,-0.0248 -0.0083,-0.0248 l -0.281119,0.0496 q 0,0 -0.01654,-0.0165 -0.148828,-0.30593 -0.214973,-0.38861 -0.132292,-0.19017 -0.14056,-0.30592 -0.0083,-0.0496 -0.03307,-0.29766 v -0.0248 l 0.04134,-0.23151 q -0.23151,-0.16537 -0.23151,-0.23151 0,-0.0248 0.388606,-0.24805 0.214974,-0.12402 0.214974,-0.37207 0,-0.23978 -0.529166,-0.30592 z m 12.85707,-2.69544 0.26458,-0.16536 q 0.12403,0.14883 0.17364,0.19017 0.0165,0.0165 0.17363,0.0827 0.0827,0.0413 0.71107,0.69453 0.19843,0.2067 0.27285,0.3886 0.0661,0.1571 0.14056,0.38034 0.0496,0.11576 0.11575,0.29766 l -0.0579,0.0579 q -0.091,-0.0165 -0.24804,-0.0744 l -0.3142,0.11576 -0.28111,-0.0496 -0.24805,0.0661 q -0.51263,-0.3638 -0.53743,-0.3638 -0.0496,0 -0.38861,0.339 -0.52917,-0.0992 -0.56224,-0.0992 -0.13229,0 -0.31419,0.0248 l -0.0413,-0.0331 q -0.13229,0.0165 -0.71934,0.0165 l -0.30592,0.0331 -0.38034,0.0331 -0.3886,0.0662 -0.34727,-0.008 q -0.47956,0.14883 -0.65319,0.17363 -0.0413,0.28112 -0.0827,0.38861 -0.0496,0.12402 -0.19844,0.27285 0.26459,0.1819 0.28112,0.25631 0.0827,0.52917 0.1571,0.71107 l 0.14883,0.0827 -0.0413,0.30593 0.25632,0.0661 q 0.0827,0.339 0.21497,0.45475 0.12403,0.10749 0.41341,0.14883 0.0413,0.25632 0.13229,0.30593 0.0662,0.0496 0.29766,0.0661 l 0.14056,0.21498 q 0.091,-0.0165 0.1571,-0.0165 0.0496,0 0.49609,0.2067 0.0992,0.0496 0.21497,0.0496 0.10749,0 0.42168,-0.0992 l 0.52917,-0.0579 0.40514,-0.11576 q 0.28939,-0.0165 0.38861,-0.0496 0.14055,-0.0579 0.51262,-0.28938 0.36381,-0.22325 0.42168,-0.30593 0.14883,-0.17363 0.28112,-0.39687 0.0661,-0.0992 0.23151,-0.0992 0.0744,0 0.21498,0.10749 -0.0579,0.29765 -0.10749,0.3886 -0.34727,0.58705 -0.43822,0.77721 -0.10748,-0.0496 -0.1819,-0.0496 -0.0496,0 -0.27285,0.16537 -0.14883,0.0992 -0.37207,0.11575 -0.51263,0.14056 -0.71106,0.16537 -0.339,0.0331 -0.42995,0.0579 -0.25632,0.0827 -0.26458,0.0827 l -0.48783,-0.0744 -0.28939,0.0496 -0.14055,0.008 q -0.19844,0.0248 -0.30593,0.0248 -0.10749,0 -0.60358,-0.0579 -0.15709,-0.0165 -0.15709,-0.0165 l -0.17364,-0.10748 q -0.62011,-0.19017 -0.68626,-0.22325 -0.0413,-0.0248 -0.28112,-0.24804 -0.0165,-0.0165 -0.28939,-0.1819 -0.23151,-0.14056 -0.24804,-0.21498 l -0.14883,-0.26458 q -0.0331,-0.0661 -0.28112,-0.31419 0.0827,-0.13229 0.0827,-0.19844 0,-0.0248 -0.21497,-0.46302 -0.0579,-0.11575 -0.0579,-0.7028 0,-0.1819 0.11576,-0.59531 0.0992,-0.32246 0.14056,-0.37207 l 0.28112,-0.33073 0.1819,-0.3886 q 0.28112,-0.26459 0.64492,-0.59531 l 0.60358,-0.37207 0.61184,-0.42168 0.22325,-0.0413 0.62838,-0.19844 0.40514,-0.0331 q 0.48783,-0.1819 0.53744,-0.1819 0.46302,0 0.62838,0.43821 z m -0.95911,1.24023 0.14056,0.17364 q 0.16536,-0.0331 0.22324,-0.0414 0.22324,-0.0331 0.44648,-0.11575 l 0.47129,0.0413 q 0.008,0 0.0413,-0.0827 0.008,-0.0496 0.008,-0.0827 0,-0.0744 -0.0992,-0.1819 -0.0165,-0.0165 -0.0827,-0.0992 -0.19844,-0.26459 -0.24805,-0.24805 l -0.27285,-0.13229 q -0.0496,-0.0248 -0.15709,-0.19017 -0.23978,-0.0331 -0.81856,-0.0331 l -0.16536,-0.008 -0.28112,0.16536 q -0.0165,0.0165 -0.45475,0.11576 -0.34727,0.12402 -0.61185,0.23978 -0.0579,0.0413 -0.32246,0.28112 -0.0496,0.0413 -0.19017,0.14882 v 0.0496 l 0.0165,0.0165 0.60358,0.23978 0.1819,0.1819 0.32246,-0.38861 q 0.0413,-0.0331 0.091,-0.0331 0.0248,0 0.40514,0.10749 0.008,0 0.0165,0 0.10748,0 0.47129,-0.0827 0.0827,-0.0248 0.26458,-0.0413 z"
         id="path12" />
      <path
         style="font-weight:normal;font-family:Papyrus;-inkscape-font-specification:Papyrus;fill:#000080;stroke:none"
         d="m 45.307423,171.89429 v -0.0827 q 0.09922,-0.0744 0.272851,-0.10748 0.132292,-0.12403 0.396874,-0.25632 0.363802,-0.19017 0.46302,-0.19017 0.06615,0 0.223242,0.10749 0.148828,-0.0909 0.198437,-0.13229 0.09922,-0.0661 0.190169,-0.091 0.157096,0.15709 0.405143,0.21497 0.471288,0.10749 0.611847,0.10749 0.01654,0 0.03307,0 0.529166,-0.0496 0.529166,-0.0496 l 0.471288,0.41341 q 0.289387,-0.35553 0.330728,-0.35553 0.08268,0 0.248047,0.11575 0.04134,0.0248 0.09922,0.0248 l 0.198437,-0.008 0.529166,0.091 0.347265,-0.0331 0.347265,0.0661 0.347265,-0.008 0.545702,0.0165 q 0.239778,-0.0661 0.239778,-0.0661 l 0.471288,0.0165 0.206706,-0.008 h 0.239778 l 0.802016,-0.11575 q 0.578775,0.0496 0.69453,0.0496 0.272851,0 0.37207,-0.0579 0.124023,-0.0662 0.23151,-0.091 l 1.33945,-0.27285 q 0.0083,0.0579 0.0083,0.0992 0,0.0413 -0.04961,0.14882 -0.09095,0.21498 -0.132291,0.27286 -0.04134,0.0579 -0.198437,0.19016 -0.330729,0.27286 -0.529166,0.5209 -0.132291,-0.1819 -0.214973,-0.1819 h -0.181901 q -0.01654,0 -0.264583,-0.29765 -0.0083,-0.008 -0.0083,-0.008 -0.05788,0.008 -0.165364,0.33073 v 0.13229 q -0.223242,-0.0827 -0.256315,-0.13229 -0.107487,-0.14883 -0.223242,-0.30593 -0.0083,-0.0165 -0.01654,-0.0165 l -0.512629,0.38033 q -0.0248,0.0248 -0.107487,0.0248 -0.190169,0 -0.504361,-0.0331 -0.115755,-0.008 -0.347265,-0.0248 -0.115755,-0.17363 -0.248046,-0.16536 h -0.04134 q -0.165365,-0.008 -0.206706,-0.008 -0.107487,0 -0.380338,0.0827 -0.157096,0.0496 -0.438215,0.0496 -0.115755,0 -0.496093,-0.14056 l -0.223241,0.0248 h -0.239779 q -0.206705,0.0827 -0.214973,0.0827 -0.0083,0 -0.78548,-0.17364 l -0.206706,-0.24804 -0.256314,0.35553 -0.454752,-0.41341 q 0,0 -0.132291,0.24805 -0.124024,0.23977 -0.37207,0.23977 h -0.01654 q -0.08268,0.008 -0.206706,-0.14056 -0.248046,-0.29765 -0.380337,-0.29765 -0.165365,0 -0.239779,0.43821 0.02481,0.0331 0.02481,0.0331 l -0.768944,0.81855 0.727603,0.21497 -0.0083,0.24805 v 0.13229 q -0.0083,0.0827 -0.14056,0.24805 l 0.165364,0.16536 0.03307,0.80202 q 0.223242,-0.0165 0.330729,-0.0165 0.173632,0 0.843357,0.11576 l 1.016991,0.0413 0.206705,0.0827 0.272851,-0.0992 q 0.363801,0.0661 0.429947,0.0661 0.09922,0 0.248046,-0.0827 0.0248,-0.008 0.04961,-0.008 0.04961,0 0.1819,0.0744 l 0.04134,-0.091 q 0.08268,-0.0165 0.09095,-0.0165 l 0.55397,0.0661 q 0.363801,0.008 0.380338,0.008 0.0248,0 0.181901,-0.1571 l 0.07441,0.30593 q 0.02481,0.0579 0.08268,0.0579 0.04961,0 0.562238,-0.32246 0.09922,-0.0661 0.148828,-0.0661 0.0083,0 0.32246,0.091 0.03307,0.008 0.05788,0.008 0.124023,0 0.289387,-0.0579 0.256315,-0.091 1.01699,-0.1819 0.520898,-0.1571 0.727603,-0.19017 0,0.0579 0,0.0827 0,0.1571 -0.04134,0.23151 -0.04134,0.0827 -0.223242,0.16537 l 0.04134,0.27285 q -0.23151,0.14056 -0.446483,0.33899 -0.248047,-0.008 -0.32246,-0.008 -0.429948,-0.0165 -0.611848,-0.091 -0.206706,-0.0827 -0.380338,-0.14882 -0.214974,0.14056 -0.338997,0.17363 -0.04961,0.008 -0.64492,0.0165 l -0.181901,0.008 q -0.32246,-0.0744 -0.396874,-0.0744 -0.07441,0 -0.148828,0.008 -0.413411,0.0661 -0.46302,0.0661 -0.0083,0 -0.338997,-0.0413 -0.05788,-0.008 -0.09095,-0.008 -0.09922,0 -0.314192,0.0165 -0.07441,0.008 -0.148828,0.008 -0.05788,0 -0.314192,-0.0661 l -0.496093,0.0992 -0.281119,-0.0248 -0.281119,0.0248 h -0.223242 l -0.330729,0.0248 q -0.289387,-0.10749 -0.46302,-0.14056 l -0.03307,0.0413 -0.02481,0.1819 -0.438215,-0.0496 q -0.02481,0.0248 -0.04134,0.23151 -0.04134,0.1819 -0.04134,0.19844 0,0.0827 0.0248,0.28938 0.02481,0.59532 0.03307,0.81856 -0.09922,0.0744 -0.198437,0.0827 -0.09095,0.0992 -0.09095,0.1819 0,0.19017 0.248046,0.32246 -0.396874,0.12402 -0.529166,0.28112 -0.09922,0.12402 -0.09922,0.44648 0,0.35554 0.272851,0.47956 0.372069,0.17363 0.372069,0.23151 0,0 -0.0083,0.0165 -0.132291,0.23151 -0.132291,0.34726 0,0.0744 0.0248,0.19017 l 0.14056,0.10749 0.02481,0.0827 -0.05788,0.0579 q -0.115755,0.008 -0.173632,0.0496 0.03307,0.091 0.157096,0.17363 0,0.0992 0,0.12402 l 0.01654,1.25677 q 0,0.091 -0.05788,0.1571 -0.0083,0.0165 -0.239778,0.23151 -0.03307,0.0248 -0.03307,0.0827 0,0.16536 0.32246,0.19843 l 0.01654,0.71934 0.01654,1.33945 q 0.04961,0.28939 0.04961,0.31419 0,0.19017 -0.248046,0.37207 0.09922,0.53744 0.32246,0.50436 0,0.23978 0.0083,0.31419 0.03307,0.51263 0.03307,0.61185 0,0.24805 -0.148828,0.24805 -0.08268,0 -0.190169,-0.0413 -0.0083,0.21497 -0.06614,0.26458 -0.01654,0.0165 -0.173633,0.0662 l -0.239778,0.10748 -0.347265,0.10749 q -0.289387,0.0992 -0.289387,0.0992 -0.06615,0 -0.214974,-0.12402 0.03307,-0.0827 0.03307,-0.10749 0,-0.0909 -0.115755,-0.23978 0.09095,-0.14883 0.206705,-0.41341 0.132292,-0.19844 0.14056,-0.23978 0.0083,-0.0248 0.0083,-0.21497 0.107487,-0.56224 0.107487,-1.07487 0,-0.0496 -0.02481,-0.22324 0.04961,-0.0413 0.08268,-0.0413 0.08268,0 0.190169,0.0496 l -0.06614,-0.14883 q -0.09095,-0.0331 -0.124024,-0.0331 -0.115755,-0.0248 -0.140559,-0.0579 -0.03307,-0.0413 -0.03307,-0.38034 0,-0.5209 0.0083,-0.5457 0.01654,-0.0661 0.157096,-0.17363 -0.01654,-0.0579 -0.01654,-0.11576 0,-0.0661 0.107486,-0.11575 l 0.02481,0.0248 0.06615,-0.0496 v -0.21497 l -0.05788,0.0248 -0.04134,-0.17363 q -0.04134,0.008 -0.07441,0.008 -0.148827,0 -0.148827,-0.14056 v -0.0165 q 0,-0.12402 0.0083,-0.24804 0.01654,-0.1323 0.01654,-0.61185 0.08268,-0.17363 0.08268,-0.19844 0,-0.0579 -0.04961,-0.15709 0.14056,-0.16537 0.14056,-0.28112 0,-0.091 -0.14056,-0.19017 -0.0083,-0.21498 -0.0083,-0.32246 0,-0.13229 0.0083,-0.23978 0.01654,-0.13229 0.01654,-0.19017 0,-0.0331 -0.06615,-0.28112 -0.03307,-0.0992 -0.03307,-0.23978 0,-0.1819 0.165364,-0.25631 v -0.16537 h 0.03307 l 0.132291,-0.12402 -0.08268,-0.28112 -0.140559,-0.0413 q -0.08268,-0.20671 -0.09922,-0.26458 -0.01654,-0.0413 -0.01654,-0.678 l -0.05788,-0.32246 -0.0248,-0.26458 q -0.02481,-0.28939 -0.02481,-0.33073 0,-0.17363 0.02481,-0.43821 0.1819,0.008 0.198437,-0.0496 0.01654,-0.0248 0.04961,-0.20671 l -0.264583,-0.53743 q 0.06615,-0.20671 0.06615,-0.27285 0,-0.0413 -0.07441,-0.38034 l -0.04961,-0.44648 -0.09095,-0.40515 -0.03307,-0.48782 -0.06614,-0.27285 0.04134,-0.26459 v -0.0165 q -0.0083,-0.091 -0.157096,-0.38861 -0.05788,-0.10748 -0.05788,-0.32246 0,-0.0909 0.0083,-0.25631 l -0.297655,0.0496 z m 14.055962,9.21079 -0.248046,0.14055 q 0.04961,0.21498 0.06614,0.28112 0.01654,0.0827 0.01654,0.10749 0,0.0496 -0.04134,0.21497 -0.04134,0.19017 -0.04134,0.64492 0,0.0661 0.107487,0.28939 l -0.02481,0.27285 0.02481,0.32246 q 0.0248,0.42995 0.297655,0.60358 0.107487,0.0662 0.83509,0.28112 0.289387,0.0827 0.438215,0.0827 0.429947,0 0.545702,-0.11575 l 0.338997,-0.32246 q 0.03307,-0.0413 0.206705,-0.11576 0.14056,0.11576 0.248047,0.11576 0.04961,0 0.107486,-0.008 0.08268,-0.17363 0.14056,-0.23151 0.01654,-0.0165 0.23151,-0.14056 0.03307,-0.0331 0.305924,-0.44648 0.248046,-0.20671 0.256314,-0.22324 0.03307,-0.0496 0.132292,-0.33073 0.07441,-0.21498 0.08268,-0.34727 0,0 0,-0.0165 -0.01654,-0.17364 -0.01654,-0.23978 v -0.0165 q 0,-0.0496 0.06615,-0.28939 l -0.132291,-0.0744 -0.04961,-0.11575 v -1.1989 q 0,-0.19016 -0.08268,-0.66145 0,-0.0165 0,-0.0413 0,-0.10749 0.165365,-0.26459 -0.02481,-0.0992 -0.06615,-0.11575 l -0.107487,-0.0413 q -0.02481,-0.0165 -0.02481,-0.23151 0,-0.0248 0.01654,-0.10749 0.03307,-0.14883 0.04961,-0.29765 0.14056,0.0496 0.190169,0.0496 0.08268,0 0.487825,-0.17363 0.107486,-0.0496 0.330728,-0.10748 0.14056,0.41341 0.132292,0.53743 l -0.05788,0.93431 v 0.5457 q -0.06615,0.62838 -0.107487,0.77721 l -0.165364,-0.0579 q -0.08268,0.1819 -0.08268,0.26459 0,0.0496 0.0083,0.12402 l 0.264583,-0.0248 q 0.02481,0.14882 0.02481,0.22324 l -0.0083,0.21497 v 0.0827 0.26459 0.12402 q 0,0.29765 -0.07441,0.61185 0.115755,0.12402 0.14056,0.17363 0.01654,0.0661 0.03307,0.41341 0.0083,0.21497 0.09922,0.34726 0.05788,0.0744 0.23151,0.1571 -0.04961,0.12402 -0.132291,0.19017 -0.04134,0.0248 -0.446483,0.19017 -0.380338,0.22324 -0.454752,0.22324 -0.08268,0 -0.157096,-0.0909 -0.107487,-0.14056 -0.107487,-0.3638 0,-0.0992 0.0083,-0.24805 -0.157096,-0.0331 -0.272851,-0.0331 -0.05788,0 -0.115755,0.0248 -0.01654,0.008 -0.214973,0.19844 l -0.165365,0.0744 -0.272851,0.1571 -0.256314,0.0909 q -0.520898,0.25632 -1.107941,0.28112 -0.289387,0.0827 -0.347265,0.0827 -0.04961,0 -0.32246,-0.10748 -0.02481,-0.008 -0.04961,-0.008 -0.07441,0 -0.297656,0.11575 l -0.239778,-0.28939 q -0.01654,-0.008 -0.01654,-0.008 -0.01654,0 -0.347264,0.10748 -0.05788,0.0165 -0.115755,0.0165 -0.115755,0 -0.504361,-0.21497 -0.173633,-0.0992 -0.297656,-0.30593 -0.173633,-0.31419 -0.173633,-0.5705 0,-0.0827 0.115755,-0.23151 l -0.1819,-0.0827 v -0.94257 q 0.165364,-0.16537 0.165364,-0.27285 0,-0.0331 -0.124023,-0.27285 v -0.57051 l -0.02481,-0.40514 q 0.0083,-0.0992 0.14056,-0.23151 v -0.11576 l -0.206706,0.0661 q 0.04961,-0.47129 0.04961,-0.68626 0,-0.1323 -0.0083,-0.24805 l -0.01654,-0.1819 q -0.0083,-0.23151 -0.03307,-0.28112 -0.09095,-0.23151 -0.09095,-0.23151 0.01654,-0.0827 0.248046,-0.1571 0.148828,-0.0496 0.562239,-0.19843 l 0.07441,-0.0248 q 0.157096,-0.10749 0.206705,-0.10749 0.09095,0 0.148828,0.0579 0.03307,0.0413 0.124023,0.32246 0,0.0165 -0.06615,0.19017 -0.06614,0.19017 -0.06614,0.64492 0,0.0827 0.04961,0.37207 -0.14056,0.47956 -0.14056,0.57878 0,0.24804 0.190169,0.65319 z m 7.457929,-2.04225 q 0.06615,-0.28939 0.421679,-0.44649 0.380337,-0.30592 0.562238,-0.30592 0.190169,0 0.239778,0.0992 0.01654,0.0248 0.02481,0.47955 0,0.11576 0.190169,0.44649 0.330728,-0.42168 0.388606,-0.41341 l 0.289387,-0.1819 q 0.330729,-0.27285 0.421679,-0.27285 0.107487,0 0.214974,0.1819 0.454751,-0.33073 0.901235,-0.33073 0.09095,0 0.157096,0.0248 0.165364,0.0496 0.165364,0.0496 0.32246,-0.11575 0.388606,-0.11575 0.09095,0 0.46302,0.0909 0.223242,0.0496 0.413411,0.0661 0.115755,0.14056 0.165364,0.14883 l 0.190169,0.0331 q 0.214973,0.0331 0.504361,0.46302 0.173632,0.27285 0.1819,1.20716 -0.198437,0 -0.405142,0.0744 -0.206705,0.0744 -0.206705,0.14056 0,0.008 0.55397,0.30592 0.06615,0.0331 0.06615,0.16536 0,0.14056 -0.157096,0.50436 -0.0083,0.0165 -0.0083,0.0496 0,0.0992 0.173633,0.26459 -0.02481,0.17363 -0.02481,0.29765 0,0.0827 0.124023,0.42168 l 0.01654,0.45475 0.02481,0.39688 -0.02481,0.34726 q 0,0.0827 0.08268,0.30593 -0.223242,0.16536 -0.314192,0.21497 -0.04134,0.0248 -0.37207,0.1571 -0.06614,0.0331 -0.363801,0.23151 -0.23151,-0.23978 -0.23151,-0.40515 0,-0.0579 0.148828,-0.64492 0.0083,-0.0413 0.01654,-0.19017 0.0083,-0.0744 0.0083,-0.12402 l 0.165365,-0.0579 q 0.41341,-0.0579 0.421679,-0.0992 0,0 -0.09095,-0.0579 -0.198437,-0.12403 -0.620116,-0.21498 0.04961,-0.35553 0.124023,-0.42994 l 0.248047,-0.23151 q 0.198437,-0.19017 0.198437,-0.34727 0,-0.0331 -0.545702,-0.23978 l 0.02481,-0.29765 -0.04134,-0.43822 q 0,-0.008 0.02481,-0.0661 0.03307,-0.0827 0.06615,-0.23978 -0.132292,-0.14883 -0.132292,-0.19844 l 0.0083,-0.41341 q 0,-0.0827 -0.132292,-0.22324 -0.132291,-0.14056 -0.132291,-0.28112 l -0.04134,-0.0496 q -0.198437,-0.0579 -0.223242,-0.0909 l -0.23151,-0.39687 q -0.06615,-0.10749 -0.148828,-0.10749 -0.140559,0 -0.338997,0.16536 -0.305923,0.26459 -0.545702,0.26459 -0.04134,0 -0.338996,-0.0662 l -0.157096,0.1571 v 0.0413 q -0.173633,-0.41341 -0.347265,-0.41341 -0.0083,0 -0.09095,0.0331 -0.115755,0.0579 -0.256314,0.0909 -0.173633,0.0496 -0.446484,0.22324 -0.405142,0.22324 -0.471288,0.339 -0.132291,0.19844 -0.132291,0.3886 0,0.008 0.01654,0.52917 v 0.0248 0.008 q 0,0.14883 -0.06615,0.19017 l -0.372069,0.27285 q -0.05788,0.0413 -0.05788,0.0827 0,0.0827 0.148828,0.16536 0.330729,0.17363 0.380338,0.22324 0.04134,0.0496 0.04134,0.1571 0,0.0248 -0.01654,0.16536 l 0.01654,0.61185 q 0,0.0496 -0.148828,0.24805 -0.01654,0.0248 -0.01654,0.0909 0,0.14882 0.173632,0.31419 l -0.0248,0.0248 q 0.01654,0.19844 0.01654,0.26459 0.03307,0.48782 0.132291,0.7524 -0.08268,0.17364 -0.165364,0.20671 -0.03307,0.0165 -0.272851,0.0496 -0.04134,0 -0.115755,0.0413 -0.09922,0.0413 -0.132291,0.0496 -0.05788,0.008 -0.124023,0.11575 -0.06615,0.0992 -0.190169,0.0992 -0.04961,0 -0.148828,-0.11575 -0.06615,-0.0661 -0.06615,-0.14056 0,-0.0661 0.01654,-0.14883 0.05788,-0.24805 0.05788,-0.28939 l 0.0083,-0.62838 q 0.07441,-0.23978 0.07441,-0.28112 0,-0.0827 -0.03307,-0.19844 -0.04134,-0.16536 -0.04134,-0.22324 0,-0.0331 0.01654,-0.16537 0.0083,-0.0827 0.0083,-0.14055 0,-0.10749 -0.0083,-0.3142 -0.0083,-0.0992 -0.0083,-0.19843 0,-0.10749 0.05788,-0.27286 l 0.23151,-0.10748 q -0.01654,-0.0744 -0.05788,-0.11576 -0.04961,-0.0248 -0.264583,-0.0413 -0.0083,-0.15709 -0.0083,-0.25631 0,-0.0744 0.03307,-0.24805 0.0083,-0.0413 0.0083,-0.0992 0,-0.19017 -0.09095,-0.7028 l 0.190169,-0.10748 q -0.157096,-0.23151 -0.173632,-0.27285 -0.01654,-0.0248 -0.03307,-0.19017 -0.0083,-0.13229 -0.198437,-0.3638 z m 9.252129,1.08313 0.289388,0.0579 0.05788,-0.0579 -0.08268,-0.42994 q 0.165364,-0.10749 0.214974,-0.1323 0.03307,-0.0165 0.471288,-0.47128 l 0.223242,-0.1571 q 0.165364,-0.14056 0.256314,-0.14056 0.07441,0 0.289388,0.0413 l 0.115755,0.0909 q 0.157096,-0.11575 0.372069,-0.19017 v -0.21497 q 0.06615,-0.0579 0.380338,-0.16537 l 0.380338,-0.13229 0.281119,-0.0248 q 0.198437,-0.0661 0.23151,-0.0661 0.06615,0 0.198437,0.0909 0.239778,0.16537 0.314192,0.20671 l 0.165364,-0.20671 q 0.248047,0.0744 0.330729,0.0827 0.537434,0.0909 0.578775,0.11575 l 0.198437,0.12402 q 0.03307,0.0248 0.09095,0.0248 0.124024,0 0.305924,-0.14056 -0.115755,-0.14883 -0.124023,-0.1819 l -0.04961,-0.51263 -0.04134,-0.16537 q 0.504361,-0.34726 0.504361,-0.3886 0,-0.0662 -0.297656,-0.3638 -0.190169,-0.20671 -0.190169,-0.71107 l 0.206705,-0.10749 q -0.07441,-0.11575 -0.09922,-0.31419 -0.124023,-0.38034 -0.132292,-0.5209 l -0.0248,-0.23151 q 0.0083,-0.24804 0.01654,-0.63665 0,-0.13229 0.06615,-0.39687 l -0.09095,-0.47129 q 0,-0.0413 0.04961,-0.1571 l 0.148828,-0.0909 q -0.06615,-0.14056 -0.09095,-0.12402 -0.03307,-0.0496 -0.223241,-0.0496 l -0.04961,-0.0248 -0.0248,-0.0165 0.669725,-0.43822 -0.173633,-0.2067 -0.05788,-0.38861 q -0.01654,-0.14056 -0.272851,-0.22324 -0.396874,-0.14056 -0.396874,-0.19844 0,-0.0496 0.09095,-0.13229 0.06615,-0.0579 0.611848,-0.16536 0.157096,-0.22324 0.793748,-0.30593 0.05788,0.11576 0.06615,0.38034 l 0.01654,0.1571 v 0.008 q 0,0.008 -0.05788,0.3638 v 0.23978 l -0.01654,0.14056 v 0.34726 0.23978 0.34726 q 0,0.0661 -0.03307,0.16537 -0.07441,0.23978 -0.07441,0.25631 l 0.03307,0.61185 -0.165365,0.30592 q 0.07441,0.27286 0.206706,0.48783 l -0.07441,0.30592 0.03307,0.23978 q -0.05788,0.19017 -0.05788,0.22324 0,0.14056 0.05788,0.3638 0.01654,0.0909 0.01654,0.1571 0,0.0579 -0.04961,0.14056 l -0.181901,0.0331 q -0.09095,0.19017 -0.09095,0.28112 0,0.0496 0.0083,0.12403 0.281119,0.17363 0.297656,0.32246 0,0.0248 -0.04134,0.48782 -0.0083,0.0413 -0.0083,0.0744 0,0.22325 0.03307,0.47129 0.01654,0.0909 0.01654,0.14883 0,0.0165 -0.0083,0.0496 -0.01654,0.14883 -0.01654,0.14883 l 0.0083,0.19843 q -0.107487,0.19017 -0.107487,0.21498 0,0 0.01654,0.43821 l 0.0083,0.14056 0.01654,0.48783 0.05788,0.55397 0.0083,0.17363 0.03307,0.38861 -0.02481,0.40514 0.124024,0.71933 -0.0083,0.32246 q 0.115755,0.46302 0.124024,0.60358 0.0083,0.19017 0.01654,0.35554 0.14056,0.13229 0.14056,0.27285 0,0.0496 0,0.10748 -0.09922,0.0496 -0.587044,0.0992 -0.372069,0.0827 -0.611847,0.10749 l -0.115755,-0.0992 q -0.214974,0.14883 -0.388606,0.19844 -0.07441,0.0248 -0.69453,0.14056 -0.892967,0.22324 -1.273305,0.22324 -0.595311,0.0909 -0.744139,0.0909 -0.760676,0 -1.190623,-0.10749 l -0.148828,-0.23978 q -0.239778,0.1323 -0.305923,0.1323 -0.04961,0 -0.09095,-0.0992 -0.0083,-0.0248 -0.03307,-0.14883 -0.0083,-0.0496 -0.09095,-0.13229 -0.157096,0.0744 -0.248046,0.0744 -0.115755,0 -0.206706,-0.0827 -0.330728,-0.28112 -0.479556,-0.38034 0.02481,-0.12402 0.02481,-0.21497 0,-0.16537 -0.148828,-0.29766 -0.190169,-0.16536 -0.198437,-0.19017 l -0.0248,-0.15709 q -0.124023,-0.60358 -0.124023,-0.65319 0,-0.14056 0.04961,-0.33073 0.04134,-0.13229 0.04134,-0.38861 l 0.14056,-0.25631 q 0.314192,-0.79375 0.380338,-0.86816 0.08268,-0.0827 0.264582,-0.20671 z m 0.46302,2.69544 q 0.173633,0.0992 0.198437,0.1571 l 0.07441,0.1819 q 0.214974,0.28938 0.272851,0.37207 0.05788,0.0744 0.322461,0.28938 l 0.206705,0.20671 0.223242,0.11575 q 0.272851,0.20671 0.297655,0.20671 0.148828,0 0.239779,-0.42168 0.297655,0.17363 0.529165,0.17363 l 0.711067,-0.0248 h 0.338996 l 0.727603,-0.16537 q 0.421679,-0.0744 0.504361,-0.14882 0.198437,-0.29766 0.330728,-0.43822 -0.06614,-0.13229 -0.05788,-0.16536 l 0.04134,-0.22325 v -0.64492 l 0.0083,-0.52916 q -0.04961,-0.22324 -0.06614,-0.39688 l 0.281119,-0.10748 q -0.04961,-0.14056 -0.04961,-0.23151 0,-0.0661 0.0083,-0.16537 l -0.181901,-0.0496 0.504361,-0.41341 -0.496093,-0.5705 0.0083,-0.16537 q 0,-0.0248 -0.05788,-0.0992 v -0.28112 q -0.14056,-0.0579 -0.190169,-0.0579 -0.03307,0 -0.248046,0.0909 -0.0083,0.008 -0.09095,0.008 -0.256314,0 -0.347265,-0.0827 l -0.289387,-0.26458 -0.562239,-0.17363 -0.32246,-0.21498 q -0.338997,0.42995 -0.363801,0.43822 h -0.03307 -0.05788 q -0.132291,0 -0.41341,0.12402 l -0.223242,-0.0165 q -0.198437,0 -0.471288,0.30592 l -0.272851,-0.0413 q -0.132291,0.16536 -0.190169,0.19844 l -0.272851,0.15709 q -0.32246,0.28112 -0.305924,0.51263 -0.239778,0.16537 -0.388606,0.38861 -0.223242,0.33899 -0.223242,0.33899 -0.04134,0.10749 -0.04134,0.40515 0,0.12402 0.05788,0.32246 l 0.03307,0.1819 0.07441,0.2067 0.07441,0.21498 q 0.157097,0.25631 0.157097,0.33073 0,0.0744 -0.0083,0.16536 z m 9.897052,-1.13275 q 0.09922,-0.15709 0.190169,-0.21497 0.06615,-0.0413 0.496092,-0.13229 0.314193,-0.1571 0.421679,-0.19017 0.07441,-0.0165 0.496093,-0.0579 l 0.264583,-0.0909 0.157096,-0.0165 0.148828,-0.0165 h 0.32246 l 0.653189,-0.0827 q 0.289387,-0.0248 0.363801,-0.0744 0.148828,-0.10748 0.148828,-0.31419 0,-0.0413 -0.06615,-0.26458 l 0.429947,-0.53743 q 0,-0.008 -0.512629,-0.16537 -0.04134,-0.0165 -0.248046,-0.0165 -0.355533,-0.45475 -0.421679,-0.50436 -0.08268,-0.0331 -0.628384,-0.11575 h -0.264583 q -0.181901,-0.0496 -0.239778,-0.0496 -0.06615,0 -0.190169,0.0165 l -0.157096,-0.19844 q -0.181901,0.0661 -0.281119,0.1819 -0.08268,0.091 -0.256315,0.1571 -0.429947,0.1819 -0.711066,0.40514 l -0.115755,0.0744 q -0.107487,0.1571 -0.14056,0.17363 -0.09922,0.0579 -0.23151,0.0579 -0.04961,0 -0.305924,-0.0909 -0.281119,-0.0661 -0.347265,-0.10749 -0.07441,-0.0496 -0.190169,-0.2067 0.14056,-0.10749 0.198438,-0.1571 0.140559,-0.12402 0.190168,-0.13229 l 0.388606,-0.0909 0.248047,-0.13229 0.529165,-0.16536 0.330729,-0.14056 h 0.338997 l 0.372069,-0.10749 0.157096,-0.008 0.289388,-0.0496 q 0.405142,0.008 0.512629,0.008 0.115755,0.008 0.446484,0.11576 l 0.198437,0.0248 q 0.32246,0.0579 0.454751,0.0827 0.115755,0.008 0.297656,0.1819 -0.14056,0.12403 -0.14056,0.20671 0,0.11575 0.09922,0.11575 0.06615,0 0.190169,-0.0661 0.08268,-0.0331 0.23151,-0.0744 0.107487,0.10749 0.115755,0.28112 l 0.206705,0.14883 q 0.01654,0.0909 0.01654,0.11576 l -0.02481,0.32246 q 0.09095,0.3638 0.181901,0.45475 h 0.03307 q 0.0248,0.1819 0.06615,0.39687 0.02481,0.47956 0.03307,0.63665 -0.190169,0.11576 -0.190169,0.22325 0,0.12402 0.223242,0.22324 0.0083,0.10748 0.0083,0.1819 0,0.0744 -0.03307,0.28939 -0.0083,0.0909 -0.0083,0.1819 0,0.27285 0.09095,0.67799 -0.148828,0.14883 -0.148828,0.29766 0,0.12402 0.14056,0.32246 0.01654,0.0331 0.05788,0.15709 0.0248,0.0579 0.09095,0.22324 -0.09095,0.10749 -0.132291,0.20671 -0.06615,0.0579 -0.256315,0.13229 l -0.314192,0.14056 -0.198437,0.0579 q -0.305924,0.10748 -0.338997,0.10748 -0.08268,0 -0.181901,-0.0909 l 0.124024,-0.55397 q -0.239779,0.0579 -0.69453,0.25632 l -0.239779,0.0496 q -0.214973,0.0496 -0.223241,0.0496 l -0.305924,-0.0331 -0.305924,0.1571 -0.165364,0.0165 -0.669726,0.14056 -0.347265,-0.0248 q -0.256314,0.0909 -0.347264,0.0909 -0.115755,0 -0.644921,-0.10749 l -0.347265,-0.0331 -0.256315,-0.10748 q -0.289387,-0.10749 -0.429947,-0.21498 -0.124023,-0.0909 -0.198437,-0.31419 l -0.190169,-0.0662 q -0.03307,-0.0827 -0.07441,-0.29765 l -0.08268,-0.35553 v -0.008 q -0.0083,-0.0744 0.107487,-0.23978 0.09095,-0.12402 0.23151,-0.42168 0.405142,-0.39687 0.537434,-0.51263 0.115755,-0.0909 0.520897,-0.25631 0.23151,-0.14883 0.289388,-0.14883 0.06614,0 0.157096,0.0165 z m -0.512629,1.75287 q -0.06615,0.10748 -0.124024,0.22324 -0.09095,0.14883 -0.08268,0.19843 v 0 l 0.08268,0.1571 0.23151,-0.19844 q 0.28112,0.19844 0.388606,0.21498 0.305924,0.0827 0.330729,0.091 0.04961,0.0331 0.140559,0.17363 0.190169,0.0248 0.256315,0.0331 0.06615,0.008 0.107487,0.008 0.09095,0 0.223242,-0.11575 0.115755,0.0827 0.198437,0.0827 0.01654,0 0.1819,-0.10749 l 0.23151,0.0496 q 0,0 0.446484,-0.1571 l 0.214973,-0.0992 0.181901,0.0331 0.314192,-0.13229 0.363802,-0.14056 q 0.140559,-0.21498 0.173632,-0.24805 0.07441,-0.0744 0.289387,-0.13229 l 0.04961,-0.26458 q 0.148828,-0.0827 0.1819,-0.23151 -0.115755,-0.0827 -0.165364,-0.17364 0.0083,-0.14055 0.0083,-0.2067 v -0.13229 q -0.0083,-0.22324 -0.01654,-0.38034 -0.0083,-0.0496 -0.0083,-0.091 0,-0.0992 0.06614,-0.28939 -0.07441,-0.008 -0.190168,-0.0992 l -0.355534,0.008 -0.32246,-0.0165 -0.248046,0.008 h -0.157096 q -0.03307,0 -0.248047,-0.13229 l -0.1819,0.0579 q -0.330729,0 -0.487825,0.0496 -0.09922,0.0413 -0.165364,0.0413 -0.01654,0 -0.190169,-0.0496 -0.0083,0 -0.01654,0 -0.04134,0 -0.264582,0.14883 -0.03307,0.0248 -0.429947,0.16536 -0.529166,0.23151 -0.760676,0.43822 -0.02481,0.0248 -0.181901,0.24804 -0.04961,0.0744 -0.289387,0.14056 -0.03307,0.0579 -0.03307,0.0909 0,0.0248 0.06615,0.0992 l 0.05788,0.44649 q 0.01654,0.0579 0.132292,0.19017 z m 7.300833,-4.65501 q 0.06615,-0.32246 0.223241,-0.32246 h 0.0083 l 0.405143,0.0248 h 0.01654 q 0.46302,-0.0661 0.529166,-0.0744 0,-0.14883 0,-0.19843 0,-0.77722 -0.03307,-1.27331 -0.01654,-0.21497 -0.09922,-0.38861 l -0.08268,-0.17363 q -0.03307,-0.0661 -0.03307,-0.14056 0,-0.12402 0.198437,-0.29765 0.305924,-0.28112 0.777212,-0.37207 0.107486,-0.22324 0.23151,-0.22324 0.04961,0 0.08268,0.0413 0.115755,0.12402 0.115755,0.32246 0,0.008 -0.07441,1.30637 -0.09922,0.339 -0.124023,0.39688 -0.03307,0.11575 -0.190169,0.23978 0,0.16536 0.04961,0.32246 h 0.190169 l -0.04961,0.42168 q 0.206705,0.0165 0.859894,0.19843 0.04134,0.008 0.281119,0.008 0.148828,0 0.487825,-0.0992 l 0.545702,-0.0496 q 0.421679,-0.16536 0.496092,-0.16536 0.107487,0 0.264583,0.0248 -0.01654,0.23151 -0.04961,0.33073 -0.03307,0.12403 -0.520897,0.42168 -0.115755,0.0662 -0.165365,0.12402 -0.124023,0.14883 -0.132291,0.14883 -0.04134,0.0331 -0.198437,0.0331 -0.124023,0 -0.181901,-0.0331 l -0.338997,-0.1819 -0.206705,-0.0496 -0.248046,-0.1819 -0.421679,0.32246 -0.363802,-0.0496 q -0.04134,0 -0.165364,0.0827 0.06615,0.39688 0.06615,0.66973 0,0.13229 -0.0083,0.38861 -0.305924,0.0496 -0.305924,0.24804 0,0.0744 0.03307,0.1819 0.1819,0.0165 0.305924,0.0496 l -0.01654,1.03353 q -0.124023,-0.0331 -0.206705,-0.0331 -0.148828,0 -0.148828,0.12402 0,0.0992 0.07441,0.23978 0.115755,-0.0744 0.198437,-0.0744 0.124023,0 0.124023,0.1571 l -0.0248,0.33073 v 0.0165 q 0.01654,0.339 0.0248,0.48783 0.01654,0.1571 0.09922,0.31419 l 0.09922,0.17363 q 0.01654,0.0331 0.01654,0.0992 0,0.0744 -0.01654,0.19017 0.256315,0.14883 0.570507,0.14883 0.264583,0 0.529166,-0.13229 0.214973,-0.11576 0.23151,-0.13229 l 0.454751,-0.41341 q 0.338997,-0.28112 0.413411,-0.28112 0.07441,0 0.206705,0.0744 -0.0248,0.1571 -0.03307,0.21497 -0.05788,0.42995 -0.115755,0.50436 -0.05788,0.0661 -0.504361,0.20671 -0.338996,0.17363 -1.025258,0.40514 l -0.281119,0.091 q -0.281119,0.1571 -0.322461,0.1571 -0.07441,0 -0.165364,-0.14883 l -0.148828,-0.0413 -0.09095,0.20671 q -0.115755,0.0165 -0.198437,0.0165 -0.214974,0 -0.512629,-0.28112 -0.132292,-0.13229 -0.214974,-0.27285 -0.0083,-0.008 -0.06615,-0.21497 -0.09095,-0.27285 -0.09095,-0.31419 0,-0.0744 0.01654,-0.23978 0.01654,-0.13229 0.01654,-0.55397 0.0083,-0.27285 0.148828,-0.41341 -0.04961,-0.1571 -0.04961,-0.38034 -0.04134,-0.38034 -0.04961,-1.44694 0.198437,-0.12402 0.198437,-0.23978 0,-0.0661 -0.01654,-0.15709 l -0.239778,-0.0579 -0.01654,-0.0744 v -0.008 q 0,-0.0413 0.02481,-0.17363 0.04961,-0.21498 0.04961,-0.74414 -0.338996,-0.0744 -0.496093,-0.0744 -0.04961,0 -0.429947,0.0496 l -0.173632,0.0165 q -0.23151,0.0744 -0.248046,0.0744 -0.115755,0 -0.115755,-0.10748 0,-0.16537 0.347265,-0.35554 z m 6.217693,0.17363 q 0,-0.11575 0.248046,-0.31419 0.545702,-0.42168 0.942572,-0.55397 l 0.24805,0.25632 q -0.0827,0.2067 -0.13229,0.57877 -0.0496,0.30593 -0.0496,0.37207 v 0.30592 l -0.14056,0.19844 q 0,0.20671 0.1819,0.39688 -0.0496,0.0909 -0.0496,0.10748 l 0.0165,0.40515 q 0,0 -0.008,0.0909 -0.008,0.0579 -0.008,0.19016 l -0.0413,1.57923 q 0.008,0.12403 0.10749,0.57051 l 0.0165,0.34727 q 0.0496,0.24804 0.0496,0.28938 0,0.17363 -0.14882,0.31419 -0.0413,0.0413 -0.3142,0.21498 -0.413407,0.32246 -0.471285,0.34726 -0.08268,0.0331 -0.148827,0.0331 -0.09922,0 -0.198437,-0.0992 0.03307,-0.20671 0.04134,-0.27285 0.0083,-0.0992 0.09095,-0.36381 l 0.0083,-0.40514 0.05788,-0.81028 -0.0083,-0.14883 q 0.0083,-0.13229 0.132292,-0.13229 0.03307,0 0.08268,0.008 0.04134,-0.13229 0.04134,-0.1819 0,-0.0661 -0.04961,-0.25632 -0.02481,-0.0827 -0.04961,-0.23151 l -0.140559,-0.10749 q 0.0248,-0.1819 0.0248,-0.27285 0,-0.0413 -0.0083,-0.12402 0,-0.0661 0,-0.11575 0,-0.10749 0.08268,-0.23978 -0.08268,-0.0992 -0.08268,-0.20671 v -0.0661 -0.0579 l -0.01654,-0.19017 q 0.537434,-0.0992 0.537434,-0.17363 0,-0.008 -0.0165,-0.0248 -0.12402,-0.10748 -0.305921,-0.10748 -0.132291,0 -0.32246,0.0165 0.02481,-0.12402 0.02481,-0.16536 0,-0.0165 -0.06615,-0.81855 -0.0083,-0.0992 -0.157096,-0.18191 z m 0.148828,-3.33209 v -0.008 q -0.01654,-0.28939 0.42168,-0.62839 0.0992,-0.0744 0.21497,-0.21497 0.008,-0.008 0.16537,-0.13229 0.30592,-0.45475 0.38033,-0.50436 0.12403,-0.091 0.20671,-0.091 0.0331,0 0.19017,0.12402 0.15709,0.11575 0.15709,0.28112 0,0.13229 -0.14882,0.23151 -0.38034,0.27285 -0.72761,0.59531 l -0.23151,0.14883 -0.289383,0.19843 q -0.23151,0.12403 -0.264583,0.12403 -0.07441,0 -0.07441,-0.12403 z m 3.22461,6.68072 q 0,-0.5457 0.0661,-0.79375 0.0661,-0.21497 0.23151,-0.65319 0.339,-0.62838 0.38861,-0.71106 0.0496,-0.0744 0.38034,-0.28939 0.008,-0.008 0.12402,-0.24805 0.0744,-0.13229 0.12402,-0.15709 0.091,-0.0744 0.63665,-0.339 0.17364,-0.0827 0.39688,-0.31419 0.0331,-0.0331 0.99218,-0.38861 0.4961,-0.19017 1.44694,-0.19017 0.19017,0 0.49609,0.0661 l 0.0331,0.17363 q 0.11575,0.0496 0.19843,0.11576 0.12403,-0.0413 0.19844,-0.21498 0.45475,0.0992 0.79375,0.33073 0.25631,0.1571 0.28939,0.19844 0.0165,0.0248 0.16536,0.28939 0.16537,0.25631 0.56224,0.26458 0.19844,0.33073 0.24805,0.48782 0.0579,0.1571 0.10748,0.52917 0.0496,0.38034 0.0744,0.59531 h -0.13229 v 0.0992 l -0.16537,0.19017 q 0.0331,0.14056 0.23151,0.26458 -0.0248,0.3638 -0.0496,0.49609 -0.0165,0.0579 -0.12402,0.28939 -0.30593,0.71934 -0.42995,0.91777 -0.43821,0.52917 -0.80201,0.64492 l -0.44649,0.22324 -0.42168,0.19844 q -0.33073,0.1819 -0.3886,0.19844 -0.0579,0.008 -0.80202,0.0496 l -0.57877,0.12402 h -0.58705 l -0.26458,0.0331 q -0.7276,-0.12402 -0.9095,-0.13229 -0.11576,-0.13229 -0.17364,-0.15709 -0.0165,-0.008 -0.32246,-0.0579 -0.16536,-0.0331 -0.65319,-0.35553 -0.0744,-0.0413 -0.29765,-0.16537 -0.0496,-0.14883 -0.0662,-0.2067 -0.0331,-0.091 -0.0661,-0.12403 -0.008,0 -0.17364,-0.11575 -0.008,0 -0.0579,-0.0744 -0.1819,-0.28938 -0.1819,-0.57877 0,-0.14056 0.17363,-0.26458 -0.0744,-0.13229 -0.25632,-0.21498 z m 0.9095,-0.16536 v 0.0827 l 0.0744,0.0744 q 0.0827,-0.0744 0.16537,-0.0827 0.0661,0.28112 0.11575,0.42995 0.0413,0.091 0.42995,0.71933 0.008,0.0165 0.008,0.0496 0,0.0744 -0.0827,0.23978 0.0331,0.11575 0.22324,0.12402 0.0827,-0.0827 0.14056,-0.0827 0.0496,0 0.7276,0.34727 0.28939,0.14055 0.58704,0.14055 h 0.48783 l 0.24804,0.0579 q 0.1571,0.0413 0.27286,0.0413 0.19016,0 0.42994,-0.0579 0.1571,-0.0414 0.45475,-0.0992 0.0827,-0.0248 0.56224,-0.35554 0.32246,-0.10748 0.3638,-0.14882 0.0579,-0.0661 0.3142,-0.48783 l 0.2067,-0.41341 q 0.20671,-0.19844 0.23978,-0.24805 0.0331,-0.0579 0.0331,-0.15709 -0.13229,-0.19844 -0.12402,-0.26458 v -0.008 l 0.0331,-0.16537 q 0.0165,-0.38033 0.0992,-0.62011 -0.0661,-0.1571 -0.1571,-0.4961 l -0.13229,-0.42994 q -0.0165,-0.0827 -0.0248,-0.339 l -0.0331,-0.0331 h -0.19844 q -0.091,-0.17363 -0.37207,-0.5209 -0.16537,-0.2067 -0.19017,-0.22324 -0.0165,-0.0248 -0.1571,-0.0827 -0.11575,-0.0496 -0.41341,-0.16537 -0.0827,-0.28938 -0.26458,-0.28938 -0.0496,0 -0.25631,0.0827 -0.25632,-0.0661 -0.28939,-0.0661 -0.42995,0 -0.56224,0.0165 -0.14056,0.008 -0.42995,0.19017 l -0.17363,-0.12403 q -0.12402,0.16537 -0.19017,0.19844 l -0.35553,0.1819 -0.0579,0.0661 -0.99218,0.83509 -0.0744,0.0579 q -0.0165,0.23151 -0.0496,0.28939 l -0.16536,0.28939 q -0.0827,0.23151 -0.20671,0.38861 0.008,0.0661 0.008,0.11575 0,0.19017 -0.28939,0.30592 0,0.0248 0.0662,0.19017 0.22324,0.1571 0.22324,0.20671 0,0.0909 -0.27285,0.23978 z m 8.96274,-3.10058 q 0.0661,-0.28939 0.42168,-0.44649 0.38034,-0.30592 0.56224,-0.30592 0.19017,0 0.23978,0.0992 0.0165,0.0248 0.0248,0.47955 0,0.11576 0.19017,0.44649 0.33073,-0.42168 0.38861,-0.41341 l 0.28939,-0.1819 q 0.33073,-0.27285 0.42168,-0.27285 0.10748,0 0.21497,0.1819 0.45475,-0.33073 0.90123,-0.33073 0.091,0 0.1571,0.0248 0.16537,0.0496 0.16537,0.0496 0.32246,-0.11575 0.3886,-0.11575 0.091,0 0.46302,0.0909 0.22324,0.0496 0.41341,0.0661 0.11576,0.14056 0.16537,0.14883 l 0.19016,0.0331 q 0.21498,0.0331 0.50437,0.46302 0.17363,0.27285 0.1819,1.20716 -0.19844,0 -0.40515,0.0744 -0.2067,0.0744 -0.2067,0.14056 0,0.008 0.55397,0.30592 0.0661,0.0331 0.0661,0.16536 0,0.14056 -0.15709,0.50436 -0.008,0.0165 -0.008,0.0496 0,0.0992 0.17363,0.26459 -0.0248,0.17363 -0.0248,0.29765 0,0.0827 0.12402,0.42168 l 0.0165,0.45475 0.0248,0.39688 -0.0248,0.34726 q 0,0.0827 0.0827,0.30593 -0.22324,0.16536 -0.31419,0.21497 -0.0413,0.0248 -0.37207,0.1571 -0.0661,0.0331 -0.3638,0.23151 -0.23151,-0.23978 -0.23151,-0.40515 0,-0.0579 0.14882,-0.64492 0.008,-0.0413 0.0165,-0.19017 0.008,-0.0744 0.008,-0.12402 l 0.16536,-0.0579 q 0.41341,-0.0579 0.42168,-0.0992 0,0 -0.091,-0.0579 -0.19843,-0.12403 -0.62011,-0.21498 0.0496,-0.35553 0.12402,-0.42994 l 0.24805,-0.23151 q 0.19843,-0.19017 0.19843,-0.34727 0,-0.0331 -0.5457,-0.23978 l 0.0248,-0.29765 -0.0413,-0.43822 q 0,-0.008 0.0248,-0.0661 0.0331,-0.0827 0.0661,-0.23978 -0.13229,-0.14883 -0.13229,-0.19844 l 0.008,-0.41341 q 0,-0.0827 -0.13229,-0.22324 -0.13229,-0.14056 -0.13229,-0.28112 l -0.0413,-0.0496 q -0.19844,-0.0579 -0.22324,-0.0909 l -0.23151,-0.39687 q -0.0662,-0.10749 -0.14883,-0.10749 -0.14056,0 -0.339,0.16536 -0.30592,0.26459 -0.5457,0.26459 -0.0413,0 -0.339,-0.0662 l -0.15709,0.1571 v 0.0413 q -0.17364,-0.41341 -0.34727,-0.41341 -0.008,0 -0.091,0.0331 -0.11575,0.0579 -0.25631,0.0909 -0.17364,0.0496 -0.44649,0.22324 -0.40514,0.22324 -0.47128,0.339 -0.1323,0.19844 -0.1323,0.3886 0,0.008 0.0165,0.52917 v 0.0248 0.008 q 0,0.14883 -0.0661,0.19017 l -0.37207,0.27285 q -0.0579,0.0413 -0.0579,0.0827 0,0.0827 0.14883,0.16536 0.33072,0.17363 0.38033,0.22324 0.0413,0.0496 0.0413,0.1571 0,0.0248 -0.0165,0.16536 l 0.0165,0.61185 q 0,0.0496 -0.14882,0.24805 -0.0165,0.0248 -0.0165,0.0909 0,0.14882 0.17363,0.31419 l -0.0248,0.0248 q 0.0165,0.19844 0.0165,0.26459 0.0331,0.48782 0.1323,0.7524 -0.0827,0.17364 -0.16537,0.20671 -0.0331,0.0165 -0.27285,0.0496 -0.0413,0 -0.11575,0.0413 -0.0992,0.0413 -0.1323,0.0496 -0.0579,0.008 -0.12402,0.11575 -0.0662,0.0992 -0.19017,0.0992 -0.0496,0 -0.14883,-0.11575 -0.0661,-0.0661 -0.0661,-0.14056 0,-0.0661 0.0165,-0.14883 0.0579,-0.24805 0.0579,-0.28939 l 0.008,-0.62838 q 0.0744,-0.23978 0.0744,-0.28112 0,-0.0827 -0.0331,-0.19844 -0.0413,-0.16536 -0.0413,-0.22324 0,-0.0331 0.0165,-0.16537 0.008,-0.0827 0.008,-0.14055 0,-0.10749 -0.008,-0.3142 -0.008,-0.0992 -0.008,-0.19843 0,-0.10749 0.0579,-0.27286 l 0.23151,-0.10748 q -0.0165,-0.0744 -0.0579,-0.11576 -0.0496,-0.0248 -0.26458,-0.0413 -0.008,-0.15709 -0.008,-0.25631 0,-0.0744 0.0331,-0.24805 0.008,-0.0413 0.008,-0.0992 0,-0.19017 -0.091,-0.7028 l 0.19017,-0.10748 q -0.1571,-0.23151 -0.17364,-0.27285 -0.0165,-0.0248 -0.0331,-0.19017 -0.008,-0.13229 -0.19844,-0.3638 z"
         id="path13" />
    </g>
  </g>
</svg>
