<?xml version="1.0" encoding="UTF-8" standalone="no"?>
<!-- Created with Inkscape (http://www.inkscape.org/) -->

<svg
   width="83.178757mm"
   height="34.669022mm"
   viewBox="0 0 83.178757 34.669022"
   version="1.1"
   id="svg1"
   inkscape:version="1.4.2 (f4327f4, 2025-05-13)"
   sodipodi:docname="science-fundationsvg.svg"
   xmlns:inkscape="http://www.inkscape.org/namespaces/inkscape"
   xmlns:sodipodi="http://sodipodi.sourceforge.net/DTD/sodipodi-0.dtd"
   xmlns="http://www.w3.org/2000/svg"
   xmlns:svg="http://www.w3.org/2000/svg">
  <sodipodi:namedview
     id="namedview1"
     pagecolor="#ffffff"
     bordercolor="#000000"
     borderopacity="0.25"
     inkscape:showpageshadow="2"
     inkscape:pageopacity="0.0"
     inkscape:pagecheckerboard="0"
     inkscape:deskcolor="#d1d1d1"
     inkscape:document-units="mm"
     showguides="true"
     inkscape:zoom="4"
     inkscape:cx="230.375"
     inkscape:cy="102.75"
     inkscape:window-width="3440"
     inkscape:window-height="1417"
     inkscape:window-x="1912"
     inkscape:window-y="-8"
     inkscape:window-maximized="1"
     inkscape:current-layer="layer1">
    <sodipodi:guide
       position="139.84354,291.92817"
       orientation="0,-1"
       id="guide7"
       inkscape:locked="false" />
  </sodipodi:namedview>
  <defs
     id="defs1">
    <inkscape:path-effect
       effect="fillet_chamfer"
       id="path-effect7"
       is_visible="true"
       lpeversion="1"
       nodesatellites_param="F,0,0,1,0,0,0,1 @ F,0,0,1,0,0,0,1 @ F,0,0,1,0,0,0,1 @ F,0,0,1,0,0,0,1 @ F,0,0,1,0,0,0,1 @ F,0,0,1,0,0,0,1 @ F,0,0,1,0,0,0,1 @ F,0,0,1,0,0,0,1 @ F,0,0,1,0,0,0,1 @ F,0,0,1,0,0,0,1"
       radius="0"
       unit="px"
       method="auto"
       mode="F"
       chamfer_steps="1"
       flexible="false"
       use_knot_distance="true"
       apply_no_radius="true"
       apply_with_radius="true"
       only_selected="false"
       hide_knots="false" />
  </defs>
  <g
     inkscape:label="Layer 1"
     inkscape:groupmode="layer"
     id="layer1"
     transform="translate(-36.005154,-152.62068)">
    <path
       d="m 55.26193,152.62101 c -1.741548,0 -3.153379,0.23268 -3.153498,0.51971 l 0.944103,2.57804 c -0.09659,9.58874 -0.09325,9.82533 -1.635375,13.0276 -1.542134,3.20228 -5.641112,3.02905 -9.833095,16.33539 -9.7e-5,0.49178 0.477689,0.90121 1.462736,1.2286 3.023425,0.58061 7.573011,0.95744 12.686999,0.97935 5.113988,-0.0219 9.663929,-0.39874 12.687361,-0.97935 0.985047,-0.32739 1.462833,-0.73682 1.462736,-1.2286 -4.191983,-13.30634 -8.290968,-13.13311 -9.833102,-16.33539 -1.542127,-3.20227 -1.538786,-3.43886 -1.635375,-13.0276 l 0.94411,-2.57804 c -1.18e-4,-0.28703 -1.41195,-0.51971 -3.153498,-0.51971 -0.160417,0 -0.318259,0.002 -0.472232,0.006 -0.153973,-0.003 -0.31146,-0.006 -0.47187,-0.006 z"
       style="fill:#ffff00;stroke-width:0.999997;stroke-linecap:round;stroke-linejoin:round;paint-order:markers stroke fill"
       id="path11"
       sodipodi:nodetypes="sccscccccsccscs" />
    <path
       style="font-weight:normal;font-size:16.9333px;line-height:1;font-family:Papyrus;-inkscape-font-specification:Papyrus;text-align:center;letter-spacing:0px;text-anchor:middle;fill:#000080;stroke:none;stroke-linecap:round;stroke-linejoin:round;paint-order:markers stroke fill"
       d="m 51.574729,165.87496 q 0.0083,-0.0579 0.23151,-0.43821 l 0.09095,-0.23978 q 0.297656,-0.35554 0.305924,-0.38034 0.01654,-0.0248 0.04134,-0.19017 0.05788,-0.008 0.107487,-0.008 0.06615,0 0.107486,0.0413 0.07441,0.0744 0.14056,0.17364 0.132291,0.21497 0.132291,0.21497 l -0.04134,0.25631 0.05788,0.22325 -0.02481,0.24804 q 0.107487,0.37207 0.272851,0.57051 l 0.165364,-0.0661 h 0.0083 q 0.0248,0 0.05788,0.0248 0.04134,0.0165 0.157096,0.41341 0.04134,0.14056 0.173633,0.24804 0.479556,0.39688 0.595311,0.46302 l 1.050063,0.41342 0.297656,0.1819 q 0.297655,0.0413 0.355533,0.0579 0.04134,0.0165 0.388606,0.17364 1.01699,0.2067 1.190623,0.22324 l 0.909503,0.0331 q 0.165364,0.008 0.429947,0.008 0.124023,0 0.165364,-0.0165 0.09922,-0.0248 0.107487,-0.0248 l 0.239778,0.0661 q 0.148828,-0.0579 0.744139,-0.14056 0.06615,0.008 0.272851,0.0909 0.09095,0.008 0.115755,0.008 0.08268,0 0.223242,-0.2067 0.04134,-0.0579 0.107487,-0.0579 0.04961,0 0.124023,0.0165 0.05788,0.008 0.107487,0.008 0.0248,0 0.595311,-0.19016 l 0.206706,-0.0165 0.314192,-0.14883 q 0.620116,-0.19017 0.752407,-0.26458 0.09095,-0.0579 0.587043,-0.37207 0.330729,-0.28939 0.396874,-0.34727 0.04961,-0.0579 0.330729,-0.46302 l 0.181901,-0.14882 0.157096,-0.26459 q 0.132291,-0.16536 0.157096,-0.21497 0.01654,-0.0248 0.04134,-0.19017 -0.02481,-0.0744 0.248046,-0.47956 0.05788,-0.091 0.08268,-0.25631 0.214974,-0.0165 0.289388,-0.0579 0.06615,-0.0413 0.107486,-0.22324 l -0.03307,-0.0331 h -0.173633 l 0.107487,-0.34727 q -0.107487,-0.12402 -0.107487,-0.19017 0,-0.0413 0.107487,-0.22324 0.04961,-0.10748 0.09922,-0.45475 0.165365,-0.50436 0.173633,-0.61185 0.0083,-0.21497 0.03307,-0.44648 h 0.1819 v -0.12402 l -0.272851,0.0413 q -0.04961,-0.27285 -0.347265,-1.09968 l 0.132292,-0.15709 -0.03307,-0.0827 q 0.206705,0.008 0.305924,0.008 0.603579,0 0.603579,-0.13229 0,-0.16536 -0.959112,-0.17363 -0.07441,0.16537 -0.190169,0.16537 -0.04134,0 -0.173633,-0.10749 -0.05788,-0.0413 -0.64492,-0.28939 -0.223242,-0.14056 -0.338997,-0.17363 -0.256315,-0.0744 -0.669725,-0.13229 l -0.190169,-0.0661 q -0.429947,-0.14883 -0.46302,-0.14883 -0.0083,0 -0.02481,0 v -0.0165 l -0.04134,-0.0248 -0.0083,0.0331 q -0.03307,0.0579 -0.04134,0.0579 l -0.644921,-0.14882 -0.132291,0.0413 q -0.355533,0.0496 -0.396874,0.0496 -0.04961,0 -0.124023,-0.0661 -0.02481,-0.16536 -0.190169,-0.16536 -0.07441,0 -0.256315,0.15709 -0.05788,0.0496 -0.181901,0.0496 v 0 q -0.08268,0 -0.239778,-0.0165 -0.173632,-0.0165 -0.206705,-0.0165 -0.55397,0 -0.55397,-0.008 l -0.37207,-0.61185 q -0.05788,-0.0992 -0.132291,-0.0992 -0.198437,0 -0.421679,0.69453 -0.01654,-0.62011 -0.173633,-0.78548 -0.04134,-0.0413 -0.09922,-0.0661 -0.115755,-0.0579 -0.115755,-0.0579 -0.620116,0.89297 -0.661457,0.89297 0,0 -0.338997,-0.11576 -0.413411,-0.0496 -0.578775,-0.12402 -0.223242,-0.11576 -0.23151,-0.11576 l -0.206705,-0.0248 -0.09922,-0.0165 h -0.223241 l -0.214974,-0.10748 q -0.504361,-0.21498 -0.653189,-0.33073 -0.32246,-0.25632 -0.653189,-0.77721 -0.1819,-0.29766 -0.1819,-0.48783 0,-0.0909 0.0248,-0.23151 -0.165364,-0.19844 -0.165364,-0.38034 0.14056,-0.14056 0.148828,-0.1819 l 0.06615,-0.49609 q 0.1819,-0.42995 0.214973,-0.45475 0.355533,-0.39688 0.702798,-0.78548 l 0.347265,-0.24805 0.429947,-0.34726 0.264583,-0.12403 0.289387,-0.14882 1.29811,-0.55397 q 0.421679,-0.21498 0.587043,-0.27286 0.512629,-0.17363 0.802017,-0.24804 l 1.058331,-0.28112 0.297656,-0.0579 1.513083,-0.14056 0.686261,-0.0661 q 0.0083,0 0.347265,0.0248 l 0.421679,0.0331 0.223242,0.0579 q 0.347265,0.0496 0.983917,0.21497 l 0.06615,0.30593 q -0.198437,0.14883 -0.264583,0.19017 -0.124023,0.0909 -0.157096,0.11575 -0.14056,0.10749 -0.223242,0.14883 -0.1819,-0.0992 -0.248046,-0.10749 h -0.256315 l -0.471288,-0.15709 -0.297656,0.0165 q -0.0248,0 -0.23151,-0.26458 -0.190168,-0.25631 -0.55397,-0.25631 -0.32246,0 -0.479556,0.14056 -0.09922,0.0827 -0.214974,0.32246 -0.107486,-0.11576 -0.157096,-0.11576 h -0.115755 q -0.347265,0 -0.653189,0.12402 l -0.768943,0.14056 -0.686262,0.22325 q -0.314192,-0.0744 -0.338997,-0.0744 -0.09095,0 -0.32246,0.0909 v 0.19844 l -0.851626,0.32246 -0.08268,0.1571 q -0.504361,0.0744 -0.78548,0.42994 -0.124024,-0.0413 -0.214974,-0.0413 -0.157096,0 -0.289387,0.27285 -0.347265,0.10749 -0.595312,0.42995 -0.363801,0.47956 -0.363801,0.86816 0,0.19017 0.05788,0.57878 0.02481,0.1819 0.214974,0.35553 0.46302,0.42168 0.636652,0.47129 l 0.388606,0.10748 q 0.421679,0.14883 0.553971,0.51263 0.0083,0.0165 0.09922,0.0579 0.08268,0.0496 0.173633,0.0496 0.0248,0 0.173632,-0.0579 0.0248,-0.008 0.06615,-0.008 0.04961,0 0.115755,0.008 0.0083,-0.14882 0.06615,-0.23978 0.132291,0.0496 0.157096,0.0496 l 0.388606,-0.0496 0.628384,0.1323 q 0,0 0.206705,-0.0248 0.04961,-0.008 0.08268,-0.008 0.173633,0 0.595312,0.10749 l 0.03307,0.23151 q 0.14056,0.0331 0.223242,0.0331 0.03307,0 0.115755,-0.008 -0.08268,-0.091 -0.08268,-0.14882 0,-0.0992 0.148828,-0.0992 l 0.281119,0.0165 h 1.893421 q 0.05788,0.0579 0.05788,0.10749 0,0.0827 -0.04961,0.19017 0.124023,0.13229 0.181901,0.13229 0.08268,0 0.223241,-0.2067 0.107487,0.0413 0.173633,0.0413 0.02481,0 0.421679,-0.17363 0.148828,0.0413 0.173632,0.0496 0.537434,0.0662 0.69453,0.14883 l 0.305924,0.1571 1.025258,0.33073 q 0.02481,0.008 0.157096,0.10748 0.124024,0.0827 0.198438,0.12403 0.363801,0.2067 0.438215,0.30592 0.04134,0.0413 0.09922,0.19844 -0.07441,0.13229 -0.07441,0.21497 0,0.0331 0.0083,0.091 l 0.264583,0.0248 q 0.223241,0.38033 0.206705,0.79374 0.124023,0.55398 0.124023,0.69453 v 0.25632 0.10749 q 0,0.23977 0,0.30592 0,0.0661 0,0.10749 0,0.13229 -0.132291,0.37207 -0.01654,0.0248 -0.01654,0.0579 0,0.0661 0.04961,0.23151 -0.115755,0.1323 -0.124024,0.19017 l -0.01654,0.19844 q -0.23151,0.52917 -0.32246,0.62838 l -0.0083,0.23151 -0.214973,0.3142 -0.01654,0.0413 q -0.01654,0.0579 -0.01654,0.0744 0,0.0744 0.04134,0.17363 -0.198437,0.24805 -0.248046,0.339 -0.157096,0.23151 -0.396875,0.50436 l -0.281119,0.41341 -0.190169,0.16537 -0.330728,0.34726 q -0.289388,0.28939 -0.388606,0.41341 -0.06615,0.0827 -0.124023,0.0827 v 0 l -0.157096,-0.0744 0.07441,-0.10749 -0.429947,0.27285 0.05788,0.22325 q -0.429947,0.28938 -1.091404,0.60358 -0.60358,0.28938 -0.777212,0.31419 l -0.487825,0.0579 q -0.727603,0.14882 -1.01699,0.24804 l -0.504361,0.0744 -0.223242,0.0413 h -0.289387 l -0.338997,0.0248 q -0.281119,-0.0827 -0.32246,-0.0909 -0.09095,-0.008 -0.289388,0 -0.190169,0.008 -0.338996,-0.10749 -0.181901,0.19844 -0.396875,0.19844 -0.03307,0 -0.264582,-0.12402 -0.04961,-0.0331 -0.132292,-0.0331 l -0.545702,0.008 q -0.05788,0 -0.173632,-0.008 -0.115755,-0.28938 -0.37207,-0.28938 -0.124023,0 -0.214973,0.1819 -0.148828,-0.0744 -0.347265,-0.1571 -0.181901,-0.0744 -0.396875,-0.0744 -0.264582,-0.12402 -0.355533,-0.14883 -0.1819,-0.0413 -0.330728,-0.0827 v -0.21498 q -0.239778,-0.0579 -0.256315,-0.10748 -0.04134,-0.008 -0.107487,-0.23978 l -0.140559,0.0331 -0.02481,0.23978 q -0.07441,-0.008 -0.603579,-0.1819 l -0.992186,-0.80202 -0.02481,-0.008 q -0.0083,-0.12403 -0.04134,-0.16537 -0.0248,-0.0413 -0.1819,-0.19017 -0.04134,-0.0331 -0.338997,-0.42994 -0.173633,-0.25632 -0.32246,-0.39688 z m 16.916763,-3.18326 q 0.115755,-0.1819 0.372069,-0.73587 0.165365,-0.34727 0.23151,-0.3638 0.148828,-0.12403 0.297656,-0.25632 l 0.190169,-0.21497 0.272851,-0.23151 0.363801,-0.34727 0.206705,-0.12402 0.190169,-0.14056 0.181901,-0.0744 0.239778,-0.1819 0.438216,-0.1571 q 0.405142,-0.14056 0.504361,-0.1571 0.198437,-0.0248 0.347264,-0.0496 0.165365,0.16537 0.239779,0.17364 0.0083,0 0.41341,-0.11576 0.03307,-0.008 0.05788,-0.008 0.0083,0 0.363801,0.0909 0.04134,0.008 0.14056,0.0165 0.148828,0.008 0.214973,0.0248 0.388606,-0.11576 0.429947,-0.11576 0.165365,0 0.305924,0.10749 -0.04134,0.2067 -0.115755,0.27285 -0.07441,0.0744 -0.272851,0.13229 l -0.04961,0.22324 q -0.264583,0.12402 -0.347265,0.19844 -0.107487,0.0744 -0.148828,0.0827 0,0 -0.124023,-0.0165 -0.02481,0 -0.03307,0 l -0.297656,0.0165 h -0.0083 l -0.239778,-0.0331 -0.198437,-0.0165 q -0.281119,-0.0909 -0.471288,-0.10749 -0.05788,0 -0.181901,-0.008 -0.148828,-0.0165 -0.248046,-0.0165 -0.06615,0 -0.611848,0.0992 -0.289387,0.0331 -0.380338,0.0744 -0.09095,0.0579 -0.355533,0.32246 -0.06615,0.0744 -0.289387,0.10749 -0.02481,0.19017 -0.09095,0.24805 -0.08268,0.0661 -0.297655,0.0992 0.01654,0.0909 0.01654,0.16537 0,0.0331 -0.223242,0.35553 -0.06615,0.0992 -0.06615,1.00872 0,0.19844 0.206705,0.73587 -0.132292,0.23151 -0.14056,0.339 0.04961,0.0413 0.28112,0.0992 0.363801,0.46302 0.463019,0.67799 l 0.198438,0.0248 q 0.124023,0.16536 0.165364,0.19844 l 0.314192,0.2067 0.223242,0.16536 q 0.314192,0.12403 0.388606,0.14056 0.04961,0.0165 0.380337,0.0331 l 0.305924,0.0661 0.289388,0.0165 0.214973,0.0248 q 0.165365,-0.0165 0.545702,-0.19016 l 0.148828,0.0413 q 0.107487,-0.0661 0.14056,-0.0909 0.06615,-0.0331 0.314192,-0.22325 0.214973,-0.0248 0.380338,-0.17363 0.124023,-0.13229 0.281119,-0.22324 0.06615,-0.0413 0.14056,-0.12402 0.198437,-0.23151 0.289387,-0.23151 0.06615,0 0.132291,0.0827 -0.08268,0.339 -0.08268,0.57051 -0.165364,0.15709 -0.272851,0.33072 -0.1819,0.0579 -0.496093,0.27286 -0.132291,0.0248 -0.239778,0.0992 -0.157096,0.10749 -0.264583,0.10749 l -0.281119,-0.0165 h -0.0083 q -0.438215,0.091 -0.520897,0.11576 -0.02481,0.008 -0.223242,0.14883 -0.04134,0.0248 -0.07441,0.0248 l -0.83509,-0.008 q -0.04961,0 -0.239778,0.0248 -0.198437,-0.13229 -0.372069,-0.14883 -0.23151,-0.0248 -0.669726,-0.14883 l -0.198437,-0.0248 -0.23151,-0.0744 q -0.223241,-0.0496 -0.281119,-0.0661 -0.04961,-0.0248 -0.124023,-0.0992 -0.429947,-0.42168 -0.429947,-0.49609 0,-0.0661 0.02481,-0.1571 -0.0083,-0.0248 -0.0083,-0.0248 l -0.281119,0.0496 q 0,0 -0.01654,-0.0165 -0.148828,-0.30593 -0.214974,-0.38861 -0.132291,-0.19017 -0.140559,-0.30592 -0.0083,-0.0496 -0.03307,-0.29766 v -0.0248 l 0.04134,-0.23151 q -0.23151,-0.16537 -0.23151,-0.23151 0,-0.0248 0.388606,-0.24805 0.214973,-0.12402 0.214973,-0.37207 0,-0.23978 -0.529165,-0.30592 z m 8.078043,-2.24069 q 0,-0.11575 0.248047,-0.31419 0.545702,-0.42168 0.942576,-0.55397 l 0.248047,0.25632 q -0.08268,0.2067 -0.132292,0.57877 -0.04961,0.30592 -0.04961,0.37207 v 0.30592 l -0.14056,0.19844 q 0,0.20671 0.181901,0.39688 -0.04961,0.0909 -0.04961,0.10748 l 0.01654,0.40514 q 0,0 -0.0083,0.0909 -0.0083,0.0579 -0.0083,0.19017 l -0.04134,1.57923 q 0.0083,0.12403 0.107486,0.57051 l 0.01654,0.34726 q 0.04961,0.24805 0.04961,0.28939 0,0.17363 -0.148828,0.31419 -0.04134,0.0413 -0.314192,0.21498 -0.413411,0.32246 -0.471288,0.34726 -0.08268,0.0331 -0.148828,0.0331 -0.09922,0 -0.198437,-0.0992 0.03307,-0.20671 0.04134,-0.27285 0.0083,-0.0992 0.09095,-0.36381 l 0.0083,-0.40514 0.05788,-0.81028 -0.0083,-0.14883 q 0.0083,-0.13229 0.132291,-0.13229 0.03307,0 0.08268,0.008 0.04134,-0.1323 0.04134,-0.18191 0,-0.0661 -0.04961,-0.25631 -0.0248,-0.0827 -0.04961,-0.23151 l -0.14056,-0.10749 q 0.02481,-0.1819 0.02481,-0.27285 0,-0.0413 -0.0083,-0.12402 0,-0.0661 0,-0.11576 0,-0.10748 0.08268,-0.23977 -0.08268,-0.0992 -0.08268,-0.20671 v -0.0661 -0.0579 l -0.01654,-0.19017 q 0.537434,-0.0992 0.537434,-0.17363 0,-0.008 -0.01654,-0.0248 -0.124023,-0.10749 -0.305924,-0.10749 -0.132292,0 -0.32246,0.0165 0.0248,-0.12402 0.0248,-0.16536 0,-0.0165 -0.06615,-0.81856 -0.0083,-0.0992 -0.157097,-0.1819 z m 0.148828,-3.33209 v -0.008 q -0.01654,-0.28939 0.421679,-0.62839 0.09922,-0.0744 0.214974,-0.21497 0.0083,-0.008 0.165364,-0.13229 0.305924,-0.45476 0.380338,-0.50436 0.124023,-0.091 0.206705,-0.091 0.03307,0 0.190169,0.12403 0.157096,0.11575 0.157096,0.28112 0,0.13229 -0.148828,0.23151 -0.380338,0.27285 -0.727603,0.59531 l -0.23151,0.14883 -0.289387,0.19843 q -0.23151,0.12403 -0.264583,0.12403 -0.07441,0 -0.07441,-0.12403 z m 8.226872,2.87734 0.264582,-0.16536 q 0.124024,0.14883 0.173633,0.19017 0.01654,0.0165 0.173632,0.0827 0.08268,0.0413 0.711067,0.69453 0.198437,0.2067 0.272851,0.3886 0.06615,0.1571 0.140559,0.38034 0.04961,0.11576 0.115755,0.29766 l -0.05788,0.0579 q -0.09095,-0.0165 -0.248047,-0.0744 l -0.314192,0.11576 -0.281119,-0.0496 -0.248046,0.0661 q -0.51263,-0.3638 -0.537434,-0.3638 -0.04961,0 -0.388606,0.339 -0.529166,-0.0992 -0.562239,-0.0992 -0.132291,0 -0.314192,0.0248 l -0.04134,-0.0331 q -0.132291,0.0165 -0.719334,0.0165 l -0.305924,0.0331 -0.380338,0.0331 -0.388606,0.0662 -0.347265,-0.008 q -0.479556,0.14883 -0.653189,0.17363 -0.04134,0.28112 -0.08268,0.38861 -0.04961,0.12402 -0.198437,0.27285 0.264583,0.1819 0.281119,0.25631 0.08268,0.52917 0.157096,0.71107 l 0.148828,0.0827 -0.04134,0.30593 0.256315,0.0661 q 0.08268,0.339 0.214973,0.45475 0.124023,0.10749 0.413411,0.14883 0.04134,0.25632 0.132291,0.30593 0.06615,0.0496 0.297656,0.0661 l 0.14056,0.21498 q 0.09095,-0.0165 0.157096,-0.0165 0.04961,0 0.496092,0.2067 0.09922,0.0496 0.214974,0.0496 0.107487,0 0.421679,-0.0992 l 0.529165,-0.0579 0.405143,-0.11576 q 0.289387,-0.0165 0.388606,-0.0496 0.140559,-0.0579 0.512629,-0.28938 0.363801,-0.22325 0.421679,-0.30593 0.148828,-0.17363 0.281119,-0.39687 0.06615,-0.0992 0.23151,-0.0992 0.07441,0 0.214974,0.10749 -0.05788,0.29765 -0.107487,0.3886 -0.347265,0.58705 -0.438215,0.77721 -0.107487,-0.0496 -0.181901,-0.0496 -0.04961,0 -0.272851,0.16537 -0.148828,0.0992 -0.37207,0.11575 -0.512629,0.14056 -0.711066,0.16537 -0.338997,0.0331 -0.429947,0.0579 -0.256315,0.0827 -0.264583,0.0827 l -0.487825,-0.0744 -0.289387,0.0496 -0.14056,0.008 q -0.198437,0.0248 -0.305923,0.0248 -0.107487,0 -0.60358,-0.0579 -0.157096,-0.0165 -0.157096,-0.0165 l -0.173633,-0.10748 q -0.620115,-0.19017 -0.686261,-0.22325 -0.04134,-0.0248 -0.281119,-0.24804 -0.01654,-0.0165 -0.289388,-0.1819 -0.23151,-0.14056 -0.248046,-0.21498 l -0.148828,-0.26458 q -0.03307,-0.0661 -0.281119,-0.31419 0.08268,-0.13229 0.08268,-0.19844 0,-0.0248 -0.214974,-0.46302 -0.05788,-0.11575 -0.05788,-0.7028 0,-0.1819 0.115755,-0.59531 0.09922,-0.32246 0.140559,-0.37207 l 0.28112,-0.33073 0.1819,-0.3886 q 0.28112,-0.26459 0.644921,-0.59531 l 0.603579,-0.37207 0.611848,-0.42168 0.223242,-0.0413 0.628384,-0.19844 0.405143,-0.0331 q 0.487824,-0.1819 0.537433,-0.1819 0.46302,0 0.628385,0.43821 z m -0.959113,1.24023 0.140559,0.17364 q 0.165365,-0.0331 0.223242,-0.0414 0.223242,-0.0331 0.446484,-0.11575 l 0.471288,0.0413 q 0.0083,0 0.04134,-0.0827 0.0083,-0.0496 0.0083,-0.0827 0,-0.0744 -0.09922,-0.1819 -0.01654,-0.0165 -0.08268,-0.0992 -0.198437,-0.26459 -0.248046,-0.24805 l -0.272851,-0.13229 q -0.04961,-0.0248 -0.157096,-0.19017 -0.239778,-0.0331 -0.818553,-0.0331 l -0.165364,-0.008 -0.28112,0.16536 q -0.01654,0.0165 -0.454751,0.11576 -0.347265,0.12402 -0.611848,0.23978 -0.05788,0.0413 -0.32246,0.28112 -0.04961,0.0413 -0.190169,0.14882 v 0.0496 l 0.01654,0.0165 0.60358,0.23978 0.1819,0.1819 0.322461,-0.38861 q 0.04134,-0.0331 0.09095,-0.0331 0.02481,0 0.405143,0.10749 0.0083,0 0.01654,0 0.107487,0 0.471288,-0.0827 0.08268,-0.0248 0.264583,-0.0413 z m 4.95266,-0.70279 q 0.06615,-0.28939 0.421679,-0.44649 0.380338,-0.30592 0.562238,-0.30592 0.190169,0 0.239778,0.0992 0.01654,0.0248 0.02481,0.47955 0,0.11576 0.190169,0.44649 0.330728,-0.42168 0.388606,-0.41341 l 0.289387,-0.1819 q 0.330729,-0.27286 0.421679,-0.27286 0.107487,0 0.214974,0.1819 0.454751,-0.33072 0.901235,-0.33072 0.09095,0 0.157096,0.0248 0.165364,0.0496 0.165364,0.0496 0.322461,-0.11575 0.388606,-0.11575 0.09095,0 0.46302,0.0909 0.223242,0.0496 0.413411,0.0661 0.115755,0.14056 0.165364,0.14883 l 0.190169,0.0331 q 0.214974,0.0331 0.504361,0.46302 0.173632,0.27285 0.181901,1.20716 -0.198437,0 -0.405143,0.0744 -0.206705,0.0744 -0.206705,0.14056 0,0.008 0.55397,0.30593 0.06615,0.0331 0.06615,0.16536 0,0.14056 -0.157096,0.50436 -0.0083,0.0165 -0.0083,0.0496 0,0.0992 0.173632,0.26459 -0.02481,0.17363 -0.02481,0.29765 0,0.0827 0.124024,0.42168 l 0.01654,0.45475 0.02481,0.39688 -0.02481,0.34726 q 0,0.0827 0.08268,0.30592 -0.223242,0.16537 -0.314192,0.21498 -0.04134,0.0248 -0.372069,0.15709 -0.06615,0.0331 -0.363802,0.23151 -0.23151,-0.23977 -0.23151,-0.40514 0,-0.0579 0.148828,-0.64492 0.0083,-0.0413 0.01654,-0.19017 0.0083,-0.0744 0.0083,-0.12402 l 0.165364,-0.0579 q 0.413411,-0.0579 0.421679,-0.0992 0,0 -0.09095,-0.0579 -0.198437,-0.12403 -0.620115,-0.21498 0.04961,-0.35553 0.124023,-0.42994 l 0.248046,-0.23151 q 0.198437,-0.19017 0.198437,-0.34727 0,-0.0331 -0.545702,-0.23978 l 0.0248,-0.29765 -0.04134,-0.43822 q 0,-0.008 0.0248,-0.0661 0.03307,-0.0827 0.06615,-0.23978 -0.132291,-0.14883 -0.132291,-0.19844 l 0.0083,-0.41341 q 0,-0.0827 -0.132292,-0.22324 -0.132291,-0.14056 -0.132291,-0.28112 l -0.04134,-0.0496 q -0.198437,-0.0579 -0.223242,-0.0909 l -0.23151,-0.39688 q -0.06615,-0.10748 -0.148828,-0.10748 -0.140559,0 -0.338996,0.16536 -0.305924,0.26458 -0.545702,0.26458 -0.04134,0 -0.338997,-0.0661 l -0.157096,0.1571 v 0.0413 q -0.173633,-0.41341 -0.347265,-0.41341 -0.0083,0 -0.09095,0.0331 -0.115755,0.0579 -0.256315,0.0909 -0.173632,0.0496 -0.446483,0.22324 -0.405143,0.22324 -0.471289,0.339 -0.132291,0.19843 -0.132291,0.3886 0,0.008 0.01654,0.52917 v 0.0248 0.008 q 0,0.14883 -0.06614,0.19017 l -0.37207,0.27285 q -0.05788,0.0413 -0.05788,0.0827 0,0.0827 0.148827,0.16537 0.330729,0.17363 0.380338,0.22324 0.04134,0.0496 0.04134,0.1571 0,0.0248 -0.01654,0.16536 l 0.01654,0.61185 q 0,0.0496 -0.148828,0.24804 -0.01654,0.0248 -0.01654,0.091 0,0.14883 0.173633,0.3142 l -0.02481,0.0248 q 0.01654,0.19844 0.01654,0.26458 0.03307,0.48783 0.132292,0.75241 -0.08268,0.17363 -0.165365,0.20671 -0.03307,0.0165 -0.272851,0.0496 -0.04134,0 -0.115755,0.0413 -0.09922,0.0413 -0.132291,0.0496 -0.05788,0.008 -0.124023,0.11575 -0.06615,0.0992 -0.190169,0.0992 -0.04961,0 -0.148828,-0.11575 -0.06615,-0.0662 -0.06615,-0.14056 0,-0.0661 0.01654,-0.14883 0.05788,-0.24805 0.05788,-0.28939 l 0.0083,-0.62838 q 0.07441,-0.23978 0.07441,-0.28112 0,-0.0827 -0.03307,-0.19844 -0.04134,-0.16536 -0.04134,-0.22324 0,-0.0331 0.01654,-0.16537 0.0083,-0.0827 0.0083,-0.14056 0,-0.10748 -0.0083,-0.31419 -0.0083,-0.0992 -0.0083,-0.19844 0,-0.10748 0.05788,-0.27285 l 0.23151,-0.10748 q -0.01654,-0.0744 -0.05788,-0.11576 -0.04961,-0.0248 -0.264583,-0.0413 -0.0083,-0.1571 -0.0083,-0.25631 0,-0.0744 0.03307,-0.24805 0.0083,-0.0413 0.0083,-0.0992 0,-0.19017 -0.09095,-0.7028 l 0.190169,-0.10748 q -0.157096,-0.23151 -0.173632,-0.27285 -0.01654,-0.0248 -0.03307,-0.19017 -0.0083,-0.13229 -0.198437,-0.3638 z m 8.425308,2.158 q 0.115755,-0.1819 0.37207,-0.73587 0.165364,-0.34727 0.23151,-0.3638 0.148828,-0.12403 0.297656,-0.25632 l 0.190168,-0.21497 0.272851,-0.23151 0.363802,-0.34727 0.206705,-0.12402 0.190169,-0.14056 0.181901,-0.0744 0.239778,-0.1819 0.43822,-0.1571 q 0.40514,-0.14056 0.50436,-0.1571 0.19843,-0.0248 0.34726,-0.0496 0.16537,0.16537 0.23978,0.17364 0.008,0 0.41341,-0.11576 0.0331,-0.008 0.0579,-0.008 0.008,0 0.3638,0.0909 0.0413,0.008 0.14056,0.0165 0.14883,0.008 0.21497,0.0248 0.38861,-0.11576 0.42995,-0.11576 0.16536,0 0.30592,0.10749 -0.0413,0.2067 -0.11575,0.27285 -0.0744,0.0744 -0.27285,0.13229 l -0.0496,0.22324 q -0.26459,0.12402 -0.34727,0.19844 -0.10748,0.0744 -0.14883,0.0827 0,0 -0.12402,-0.0165 -0.0248,0 -0.0331,0 l -0.29766,0.0165 h -0.008 l -0.23977,-0.0331 -0.19844,-0.0165 q -0.28112,-0.0909 -0.47129,-0.10749 -0.0579,0 -0.1819,-0.008 -0.14883,-0.0165 -0.24805,-0.0165 -0.0661,0 -0.61184,0.0992 -0.289391,0.0331 -0.380341,0.0744 -0.09095,0.0579 -0.355533,0.32246 -0.06615,0.0744 -0.289388,0.10749 -0.0248,0.19017 -0.09095,0.24805 -0.08268,0.0661 -0.297656,0.0992 0.01654,0.0909 0.01654,0.16537 0,0.0331 -0.223242,0.35553 -0.06615,0.0992 -0.06615,1.00872 0,0.19844 0.206706,0.73587 -0.132292,0.23151 -0.14056,0.339 0.04961,0.0413 0.281119,0.0992 0.363802,0.46302 0.46302,0.67799 l 0.198437,0.0248 q 0.124023,0.16536 0.165364,0.19844 l 0.314193,0.2067 0.223241,0.16536 q 0.31419,0.12403 0.38861,0.14056 0.0496,0.0165 0.38034,0.0331 l 0.30592,0.0661 0.28939,0.0165 0.21497,0.0248 q 0.16536,-0.0165 0.5457,-0.19016 l 0.14883,0.0413 q 0.10749,-0.0661 0.14056,-0.0909 0.0661,-0.0331 0.31419,-0.22325 0.21498,-0.0248 0.38034,-0.17363 0.12402,-0.13229 0.28112,-0.22324 0.0661,-0.0413 0.14056,-0.12402 0.19844,-0.23151 0.28939,-0.23151 0.0661,0 0.13229,0.0827 -0.0827,0.339 -0.0827,0.57051 -0.16536,0.15709 -0.27285,0.33072 -0.1819,0.0579 -0.49609,0.27286 -0.13229,0.0248 -0.23978,0.0992 -0.15709,0.10749 -0.26458,0.10749 l -0.28112,-0.0165 h -0.008 q -0.43821,0.091 -0.52089,0.11576 -0.0248,0.008 -0.22325,0.14883 -0.0413,0.0248 -0.0744,0.0248 l -0.83509,-0.008 q -0.0496,0 -0.23978,0.0248 -0.19844,-0.13229 -0.37207,-0.14883 -0.231509,-0.0248 -0.669724,-0.14883 l -0.198437,-0.0248 -0.23151,-0.0744 q -0.223242,-0.0496 -0.281119,-0.0661 -0.04961,-0.0248 -0.124023,-0.0992 -0.429947,-0.42168 -0.429947,-0.49609 0,-0.0661 0.0248,-0.1571 -0.0083,-0.0248 -0.0083,-0.0248 l -0.281119,0.0496 q 0,0 -0.01654,-0.0165 -0.148828,-0.30593 -0.214973,-0.38861 -0.132292,-0.19017 -0.14056,-0.30592 -0.0083,-0.0496 -0.03307,-0.29766 v -0.0248 l 0.04134,-0.23151 q -0.23151,-0.16537 -0.23151,-0.23151 0,-0.0248 0.388606,-0.24805 0.214974,-0.12402 0.214974,-0.37207 0,-0.23978 -0.529166,-0.30592 z m 12.85707,-2.69544 0.26458,-0.16536 q 0.12403,0.14883 0.17364,0.19017 0.0165,0.0165 0.17363,0.0827 0.0827,0.0413 0.71107,0.69453 0.19843,0.2067 0.27285,0.3886 0.0661,0.1571 0.14056,0.38034 0.0496,0.11576 0.11575,0.29766 l -0.0579,0.0579 q -0.091,-0.0165 -0.24804,-0.0744 l -0.3142,0.11576 -0.28111,-0.0496 -0.24805,0.0661 q -0.51263,-0.3638 -0.53743,-0.3638 -0.0496,0 -0.38861,0.339 -0.52917,-0.0992 -0.56224,-0.0992 -0.13229,0 -0.31419,0.0248 l -0.0413,-0.0331 q -0.13229,0.0165 -0.71934,0.0165 l -0.30592,0.0331 -0.38034,0.0331 -0.3886,0.0662 -0.34727,-0.008 q -0.47956,0.14883 -0.65319,0.17363 -0.0413,0.28112 -0.0827,0.38861 -0.0496,0.12402 -0.19844,0.27285 0.26459,0.1819 0.28112,0.25631 0.0827,0.52917 0.1571,0.71107 l 0.14883,0.0827 -0.0413,0.30593 0.25632,0.0661 q 0.0827,0.339 0.21497,0.45475 0.12403,0.10749 0.41341,0.14883 0.0413,0.25632 0.13229,0.30593 0.0662,0.0496 0.29766,0.0661 l 0.14056,0.21498 q 0.091,-0.0165 0.1571,-0.0165 0.0496,0 0.49609,0.2067 0.0992,0.0496 0.21497,0.0496 0.10749,0 0.42168,-0.0992 l 0.52917,-0.0579 0.40514,-0.11576 q 0.28939,-0.0165 0.38861,-0.0496 0.14055,-0.0579 0.51262,-0.28938 0.36381,-0.22325 0.42168,-0.30593 0.14883,-0.17363 0.28112,-0.39687 0.0661,-0.0992 0.23151,-0.0992 0.0744,0 0.21498,0.10749 -0.0579,0.29765 -0.10749,0.3886 -0.34727,0.58705 -0.43822,0.77721 -0.10748,-0.0496 -0.1819,-0.0496 -0.0496,0 -0.27285,0.16537 -0.14883,0.0992 -0.37207,0.11575 -0.51263,0.14056 -0.71106,0.16537 -0.339,0.0331 -0.42995,0.0579 -0.25632,0.0827 -0.26458,0.0827 l -0.48783,-0.0744 -0.28939,0.0496 -0.14055,0.008 q -0.19844,0.0248 -0.30593,0.0248 -0.10749,0 -0.60358,-0.0579 -0.15709,-0.0165 -0.15709,-0.0165 l -0.17364,-0.10748 q -0.62011,-0.19017 -0.68626,-0.22325 -0.0413,-0.0248 -0.28112,-0.24804 -0.0165,-0.0165 -0.28939,-0.1819 -0.23151,-0.14056 -0.24804,-0.21498 l -0.14883,-0.26458 q -0.0331,-0.0661 -0.28112,-0.31419 0.0827,-0.13229 0.0827,-0.19844 0,-0.0248 -0.21497,-0.46302 -0.0579,-0.11575 -0.0579,-0.7028 0,-0.1819 0.11576,-0.59531 0.0992,-0.32246 0.14056,-0.37207 l 0.28112,-0.33073 0.1819,-0.3886 q 0.28112,-0.26459 0.64492,-0.59531 l 0.60358,-0.37207 0.61184,-0.42168 0.22325,-0.0413 0.62838,-0.19844 0.40514,-0.0331 q 0.48783,-0.1819 0.53744,-0.1819 0.46302,0 0.62838,0.43821 z m -0.95911,1.24023 0.14056,0.17364 q 0.16536,-0.0331 0.22324,-0.0414 0.22324,-0.0331 0.44648,-0.11575 l 0.47129,0.0413 q 0.008,0 0.0413,-0.0827 0.008,-0.0496 0.008,-0.0827 0,-0.0744 -0.0992,-0.1819 -0.0165,-0.0165 -0.0827,-0.0992 -0.19844,-0.26459 -0.24805,-0.24805 l -0.27285,-0.13229 q -0.0496,-0.0248 -0.15709,-0.19017 -0.23978,-0.0331 -0.81856,-0.0331 l -0.16536,-0.008 -0.28112,0.16536 q -0.0165,0.0165 -0.45475,0.11576 -0.34727,0.12402 -0.61185,0.23978 -0.0579,0.0413 -0.32246,0.28112 -0.0496,0.0413 -0.19017,0.14882 v 0.0496 l 0.0165,0.0165 0.60358,0.23978 0.1819,0.1819 0.32246,-0.38861 q 0.0413,-0.0331 0.091,-0.0331 0.0248,0 0.40514,0.10749 0.008,0 0.0165,0 0.10748,0 0.47129,-0.0827 0.0827,-0.0248 0.26458,-0.0413 z"
       id="path12" />
    <path
       d="m 36.005154,171.94757 v -0.0824 q 0.09887,-0.0742 0.271907,-0.10711 0.131834,-0.1236 0.395501,-0.25543 0.362542,-0.18951 0.461417,-0.18951 0.06592,0 0.22247,0.10711 0.148312,-0.0906 0.19775,-0.13183 0.09887,-0.0659 0.189511,-0.0906 0.156552,0.15656 0.40374,0.21423 0.469657,0.10712 0.609731,0.10712 0.01648,0 0.03296,0 0.527334,-0.0494 0.527334,-0.0494 l 0.469658,0.41198 q 0.288386,-0.3543 0.329584,-0.3543 0.0824,0 0.247188,0.11535 0.0412,0.0247 0.09887,0.0247 l 0.19775,-0.008 0.527335,0.0906 0.346063,-0.033 0.346063,0.0659 0.346063,-0.008 0.543814,0.0165 q 0.238948,-0.0659 0.238948,-0.0659 l 0.469657,0.0165 0.20599,-0.008 h 0.238949 l 0.799241,-0.11536 q 0.576772,0.0494 0.692126,0.0494 0.271907,0 0.370782,-0.0577 0.123594,-0.0659 0.230709,-0.0906 l 1.334815,-0.27191 q 0.0082,0.0577 0.0082,0.0989 0,0.0412 -0.04944,0.14831 -0.09063,0.21423 -0.131833,0.27191 -0.0412,0.0577 -0.197751,0.18951 -0.329584,0.2719 -0.527334,0.51909 -0.131834,-0.18127 -0.21423,-0.18127 h -0.181271 q -0.01648,0 -0.263667,-0.29662 -0.0082,-0.008 -0.0082,-0.008 -0.05768,0.008 -0.164792,0.32958 v 0.13183 q -0.222469,-0.0824 -0.255427,-0.13183 -0.107115,-0.14831 -0.22247,-0.30487 -0.0082,-0.0165 -0.01648,-0.0165 l -0.510855,0.37902 q -0.02472,0.0247 -0.107115,0.0247 -0.189511,0 -0.502615,-0.033 -0.115355,-0.008 -0.346064,-0.0247 -0.115354,-0.17303 -0.247188,-0.16479 h -0.0412 q -0.164791,-0.008 -0.205989,-0.008 -0.107115,0 -0.379022,0.0824 -0.156552,0.0494 -0.436699,0.0494 -0.115354,0 -0.494376,-0.14007 l -0.222469,0.0247 h -0.238948 q -0.20599,0.0824 -0.21423,0.0824 -0.0082,0 -0.782762,-0.17303 l -0.20599,-0.24719 -0.255428,0.35431 -0.453178,-0.41198 q 0,0 -0.131833,0.24718 -0.123594,0.23895 -0.370782,0.23895 h -0.01648 q -0.0824,0.008 -0.20599,-0.14007 -0.247188,-0.29663 -0.379022,-0.29663 -0.164792,0 -0.238948,0.4367 0.02472,0.033 0.02472,0.033 l -0.766282,0.81572 0.725084,0.21423 -0.0082,0.24719 v 0.13183 q -0.0082,0.0824 -0.140073,0.24719 l 0.164792,0.16479 0.03296,0.79924 q 0.222469,-0.0165 0.329584,-0.0165 0.173032,0 0.840439,0.11536 l 1.013471,0.0412 0.20599,0.0824 0.271907,-0.0989 q 0.362542,0.0659 0.428459,0.0659 0.09887,0 0.247188,-0.0824 0.02472,-0.008 0.04944,-0.008 0.04944,0 0.181271,0.0742 l 0.0412,-0.0906 q 0.0824,-0.0165 0.09063,-0.0165 l 0.552054,0.0659 q 0.362542,0.008 0.379021,0.008 0.02472,0 0.181271,-0.15656 l 0.07416,0.30487 q 0.02472,0.0577 0.0824,0.0577 0.04944,0 0.560292,-0.32135 0.09888,-0.0659 0.148313,-0.0659 0.0082,0 0.321345,0.0906 0.03296,0.008 0.05768,0.008 0.123594,0 0.288386,-0.0577 0.255427,-0.0906 1.013471,-0.18127 0.519094,-0.15655 0.725084,-0.18951 0,0.0577 0,0.0824 0,0.15655 -0.0412,0.23071 -0.0412,0.0824 -0.222469,0.16479 l 0.0412,0.2719 q -0.230709,0.14008 -0.444938,0.33783 -0.247188,-0.008 -0.321345,-0.008 -0.428459,-0.0165 -0.60973,-0.0906 -0.20599,-0.0824 -0.379022,-0.14831 -0.214229,0.14007 -0.337823,0.17303 -0.04944,0.008 -0.642689,0.0165 l -0.181271,0.008 q -0.321344,-0.0742 -0.395501,-0.0742 -0.07416,0 -0.148313,0.008 -0.41198,0.0659 -0.461417,0.0659 -0.0082,0 -0.337824,-0.0412 -0.05768,-0.008 -0.09063,-0.008 -0.09888,0 -0.313105,0.0165 -0.07416,0.008 -0.148313,0.008 -0.05768,0 -0.313105,-0.0659 l -0.494376,0.0989 -0.280146,-0.0247 -0.280147,0.0247 h -0.222469 l -0.329584,0.0247 q -0.288386,-0.10712 -0.461417,-0.14007 l -0.03296,0.0412 -0.02472,0.18128 -0.436698,-0.0494 q -0.02472,0.0247 -0.0412,0.23071 -0.0412,0.18127 -0.0412,0.19775 0,0.0824 0.02472,0.28838 0.02472,0.59325 0.03296,0.81572 -0.09887,0.0742 -0.197751,0.0824 -0.09063,0.0989 -0.09063,0.18127 0,0.18951 0.247188,0.32134 -0.395501,0.1236 -0.527335,0.28015 -0.09888,0.1236 -0.09888,0.44494 0,0.3543 0.271907,0.4779 0.370782,0.17303 0.370782,0.23071 0,0 -0.0082,0.0165 -0.131833,0.23071 -0.131833,0.34607 0,0.0742 0.02472,0.18951 l 0.140073,0.10711 0.02472,0.0824 -0.05768,0.0577 q -0.115354,0.008 -0.173031,0.0494 0.03296,0.0906 0.156552,0.17304 0,0.0989 0,0.12359 l 0.01648,1.25242 q 0,0.0906 -0.05768,0.15655 -0.0082,0.0165 -0.238948,0.23071 -0.03296,0.0247 -0.03296,0.0824 0,0.16479 0.321345,0.19775 l 0.01648,0.71684 0.01648,1.33482 q 0.04944,0.28838 0.04944,0.3131 0,0.18951 -0.247188,0.37078 0.09887,0.53558 0.321344,0.50262 0,0.23895 0.0082,0.3131 0.03296,0.51086 0.03296,0.60973 0,0.24719 -0.148313,0.24719 -0.0824,0 -0.18951,-0.0412 -0.0082,0.21423 -0.06592,0.26367 -0.01648,0.0165 -0.173032,0.0659 l -0.238948,0.10711 -0.346063,0.10712 q -0.288386,0.0989 -0.288386,0.0989 -0.06592,0 -0.21423,-0.12359 0.03296,-0.0824 0.03296,-0.10712 0,-0.0906 -0.115354,-0.23894 0.09064,-0.14832 0.20599,-0.41198 0.131834,-0.19775 0.140073,-0.23895 0.0082,-0.0247 0.0082,-0.21423 0.107115,-0.5603 0.107115,-1.07115 0,-0.0494 -0.02472,-0.22247 0.04944,-0.0412 0.0824,-0.0412 0.0824,0 0.189511,0.0494 l -0.06592,-0.14831 q -0.09064,-0.033 -0.123594,-0.033 -0.115355,-0.0247 -0.140073,-0.0577 -0.03296,-0.0412 -0.03296,-0.37902 0,-0.51909 0.0082,-0.54381 0.01648,-0.0659 0.156552,-0.17303 -0.01648,-0.0577 -0.01648,-0.11536 0,-0.0659 0.107115,-0.11535 l 0.02472,0.0247 0.06592,-0.0494 v -0.21423 l -0.05768,0.0247 -0.0412,-0.17303 q -0.0412,0.008 -0.07416,0.008 -0.148313,0 -0.148313,-0.14007 v -0.0165 q 0,-0.12359 0.0082,-0.24719 0.01648,-0.13183 0.01648,-0.60973 0.0824,-0.17303 0.0824,-0.19775 0,-0.0577 -0.04944,-0.15655 0.140073,-0.16479 0.140073,-0.28015 0,-0.0906 -0.140073,-0.18951 -0.0082,-0.21423 -0.0082,-0.32134 0,-0.13183 0.0082,-0.23895 0.01648,-0.13183 0.01648,-0.18951 0,-0.033 -0.06592,-0.28015 -0.03296,-0.0989 -0.03296,-0.23894 0,-0.18128 0.164792,-0.25543 v -0.16479 h 0.03296 l 0.131833,-0.1236 -0.0824,-0.28014 -0.140073,-0.0412 q -0.0824,-0.20599 -0.09887,-0.26367 -0.01648,-0.0412 -0.01648,-0.67565 l -0.05768,-0.32134 -0.02472,-0.26367 q -0.02472,-0.28838 -0.02472,-0.32958 0,-0.17303 0.02472,-0.4367 0.181271,0.008 0.19775,-0.0494 0.01648,-0.0247 0.04944,-0.20599 l -0.263668,-0.53557 q 0.06592,-0.20599 0.06592,-0.27191 0,-0.0412 -0.07416,-0.37902 l -0.04944,-0.44494 -0.09063,-0.40374 -0.03296,-0.48614 -0.06592,-0.2719 0.0412,-0.26367 v -0.0165 q -0.0082,-0.0906 -0.156552,-0.38726 -0.05768,-0.10712 -0.05768,-0.32135 0,-0.0906 0.0082,-0.25542 l -0.296625,0.0494 z m 12.367639,10.39837 q 0,-0.54381 0.06592,-0.791 0.06592,-0.21423 0.230709,-0.65093 0.337823,-0.62621 0.387261,-0.7086 0.04944,-0.0742 0.379022,-0.28839 0.0082,-0.008 0.123594,-0.24719 0.07416,-0.13183 0.123594,-0.15655 0.09063,-0.0742 0.634449,-0.33782 0.173031,-0.0824 0.395501,-0.31311 0.03296,-0.033 0.988752,-0.38726 0.494376,-0.18951 1.44193,-0.18951 0.18951,0 0.494376,0.0659 l 0.03296,0.17303 q 0.115354,0.0494 0.19775,0.11535 0.123594,-0.0412 0.197751,-0.21423 0.453178,0.0989 0.791001,0.32959 0.255428,0.15655 0.288386,0.19775 0.01648,0.0247 0.164792,0.28838 0.164792,0.25543 0.560293,0.26367 0.197751,0.32959 0.247188,0.48614 0.05768,0.15655 0.107115,0.52733 0.04944,0.37902 0.07416,0.59325 h -0.131833 v 0.0989 l -0.164792,0.18951 q 0.03296,0.14007 0.230708,0.26367 -0.02472,0.36254 -0.04944,0.49437 -0.01648,0.0577 -0.123594,0.28839 -0.304865,0.71684 -0.428459,0.91459 -0.436699,0.52734 -0.799241,0.64269 l -0.444939,0.22247 -0.420219,0.19775 q -0.329584,0.18127 -0.387262,0.19775 -0.05768,0.008 -0.799241,0.0494 l -0.576772,0.12359 h -0.585011 l -0.263668,0.033 q -0.725084,-0.12359 -0.906356,-0.13183 -0.115354,-0.13183 -0.173031,-0.15655 -0.01648,-0.008 -0.321345,-0.0577 -0.164792,-0.033 -0.650928,-0.3543 -0.07416,-0.0412 -0.296626,-0.1648 -0.04944,-0.14831 -0.06592,-0.20599 -0.03296,-0.0906 -0.06592,-0.12359 -0.0082,0 -0.173032,-0.11535 -0.0082,0 -0.05768,-0.0742 -0.181271,-0.28839 -0.181271,-0.57677 0,-0.14007 0.173031,-0.26367 -0.07416,-0.13183 -0.255427,-0.21423 z m 0.906356,-0.16479 v 0.0824 l 0.07416,0.0742 q 0.0824,-0.0742 0.164792,-0.0824 0.06592,0.28014 0.115354,0.42846 0.0412,0.0906 0.428459,0.71684 0.0082,0.0165 0.0082,0.0494 0,0.0742 -0.0824,0.23895 0.03296,0.11535 0.222469,0.12359 0.0824,-0.0824 0.140073,-0.0824 0.04944,0 0.725085,0.34606 0.288386,0.14007 0.585012,0.14007 h 0.486136 l 0.247188,0.0577 q 0.156552,0.0412 0.271907,0.0412 0.189511,0 0.428459,-0.0577 0.156552,-0.0412 0.453178,-0.0989 0.0824,-0.0247 0.560293,-0.3543 0.321344,-0.10711 0.362542,-0.14831 0.05768,-0.0659 0.313105,-0.48614 l 0.20599,-0.41198 q 0.20599,-0.19775 0.238948,-0.24718 0.03296,-0.0577 0.03296,-0.15656 -0.131834,-0.19775 -0.123594,-0.26366 v -0.008 l 0.03296,-0.1648 q 0.01648,-0.37902 0.09887,-0.61797 -0.06592,-0.15655 -0.156552,-0.49437 l -0.131834,-0.42846 q -0.01648,-0.0824 -0.02472,-0.33782 l -0.03296,-0.033 h -0.19775 q -0.09064,-0.17303 -0.370782,-0.5191 -0.164792,-0.20599 -0.189511,-0.22247 -0.01648,-0.0247 -0.156552,-0.0824 -0.115355,-0.0494 -0.41198,-0.1648 -0.0824,-0.28838 -0.263668,-0.28838 -0.04944,0 -0.255427,0.0824 -0.255428,-0.0659 -0.288386,-0.0659 -0.428459,0 -0.560293,0.0165 -0.140073,0.008 -0.428459,0.18951 l -0.173032,-0.1236 q -0.123594,0.1648 -0.189511,0.19775 l -0.354302,0.18128 -0.05768,0.0659 -0.988752,0.8322 -0.07416,0.0577 q -0.01648,0.23071 -0.04944,0.28839 l -0.164792,0.28838 q -0.0824,0.23071 -0.20599,0.38726 0.0082,0.0659 0.0082,0.11536 0,0.18951 -0.288386,0.30486 0,0.0247 0.06592,0.18951 0.222469,0.15656 0.222469,0.20599 0,0.0906 -0.271907,0.23895 z m 10.291259,-1.05467 -0.247188,0.14008 q 0.04944,0.21423 0.06592,0.28014 0.01648,0.0824 0.01648,0.10712 0,0.0494 -0.0412,0.21423 -0.0412,0.18951 -0.0412,0.64269 0,0.0659 0.107115,0.28838 l -0.02472,0.27191 0.02472,0.32134 q 0.02472,0.42846 0.296626,0.60149 0.107115,0.0659 0.832199,0.28015 0.288386,0.0824 0.436699,0.0824 0.428459,0 0.543814,-0.11536 l 0.337823,-0.32134 q 0.03296,-0.0412 0.20599,-0.11536 0.140074,0.11536 0.247188,0.11536 0.04944,0 0.107115,-0.008 0.0824,-0.17303 0.140073,-0.23071 0.01648,-0.0165 0.230709,-0.14008 0.03296,-0.0329 0.304865,-0.44493 0.247188,-0.20599 0.255428,-0.22247 0.03296,-0.0494 0.131833,-0.32959 0.07416,-0.21423 0.0824,-0.34606 0,0 0,-0.0165 -0.01648,-0.17303 -0.01648,-0.23895 v -0.0165 q 0,-0.0494 0.06592,-0.28838 l -0.131834,-0.0742 -0.04944,-0.11535 v -1.19475 q 0,-0.18951 -0.0824,-0.65916 0,-0.0165 0,-0.0412 0,-0.10712 0.164792,-0.26367 -0.02472,-0.0989 -0.06592,-0.11535 l -0.107115,-0.0412 q -0.02472,-0.0165 -0.02472,-0.23071 0,-0.0247 0.01648,-0.10711 0.03296,-0.14832 0.04944,-0.29663 0.140073,0.0494 0.189511,0.0494 0.0824,0 0.486136,-0.17303 0.107115,-0.0494 0.329584,-0.10712 0.140074,0.41198 0.131834,0.53558 l -0.05768,0.93107 v 0.54381 q -0.06592,0.62621 -0.107115,0.77453 l -0.164792,-0.0577 q -0.0824,0.18127 -0.0824,0.26367 0,0.0494 0.0082,0.12359 l 0.263667,-0.0247 q 0.02472,0.14831 0.02472,0.22247 l -0.0082,0.21423 v 0.0824 0.26366 0.1236 q 0,0.29662 -0.07416,0.60973 0.115354,0.12359 0.140073,0.17303 0.01648,0.0659 0.03296,0.41198 0.0082,0.21423 0.09888,0.34606 0.05768,0.0742 0.230709,0.15655 -0.04944,0.1236 -0.131833,0.18952 -0.0412,0.0247 -0.444939,0.18951 -0.379021,0.22247 -0.453178,0.22247 -0.0824,0 -0.156552,-0.0906 -0.107115,-0.14007 -0.107115,-0.36254 0,-0.0989 0.0082,-0.24719 -0.156553,-0.033 -0.271907,-0.033 -0.05768,0 -0.115355,0.0247 -0.01648,0.008 -0.214229,0.19775 l -0.164792,0.0742 -0.271907,0.15655 -0.255427,0.0906 q -0.519095,0.25543 -1.104107,0.28015 -0.288386,0.0824 -0.346063,0.0824 -0.04944,0 -0.321344,-0.10712 -0.02472,-0.008 -0.04944,-0.008 -0.07416,0 -0.296626,0.11536 l -0.238948,-0.28839 q -0.01648,-0.008 -0.01648,-0.008 -0.01648,0 -0.346063,0.10712 -0.05768,0.0165 -0.115355,0.0165 -0.115354,0 -0.502615,-0.21423 -0.173032,-0.0989 -0.296626,-0.30487 -0.173032,-0.3131 -0.173032,-0.56853 0,-0.0824 0.115355,-0.23071 l -0.181271,-0.0824 v -0.93931 q 0.164792,-0.16479 0.164792,-0.27191 0,-0.033 -0.123594,-0.2719 V 181.11 l -0.02472,-0.40374 q 0.0082,-0.0989 0.140073,-0.23071 v -0.11535 l -0.20599,0.0659 q 0.04944,-0.46966 0.04944,-0.68389 0,-0.13183 -0.0082,-0.24719 l -0.01648,-0.18127 q -0.0082,-0.23071 -0.03296,-0.28015 -0.09063,-0.2307 -0.09063,-0.2307 0.01648,-0.0824 0.247188,-0.15656 0.148313,-0.0494 0.560293,-0.19775 l 0.07416,-0.0247 q 0.156552,-0.10711 0.20599,-0.10711 0.09064,0 0.148313,0.0577 0.03296,0.0412 0.123594,0.32134 0,0.0165 -0.06592,0.18951 -0.06592,0.18951 -0.06592,0.64269 0,0.0824 0.04944,0.37078 -0.140073,0.4779 -0.140073,0.57677 0,0.24719 0.18951,0.65093 z m 7.432119,-2.03518 q 0.06592,-0.28838 0.42022,-0.44494 0.379021,-0.30486 0.560292,-0.30486 0.189511,0 0.238949,0.0989 0.01648,0.0247 0.02472,0.4779 0,0.11535 0.18951,0.44494 0.329584,-0.42022 0.387262,-0.41198 l 0.288386,-0.18127 q 0.329584,-0.27191 0.420219,-0.27191 0.107115,0 0.21423,0.18127 0.453178,-0.32958 0.898116,-0.32958 0.09064,0 0.156553,0.0247 0.164792,0.0494 0.164792,0.0494 0.321344,-0.11535 0.387261,-0.11535 0.09063,0 0.461417,0.0906 0.22247,0.0494 0.41198,0.0659 0.115355,0.14007 0.164792,0.14831 l 0.189511,0.033 q 0.21423,0.033 0.502616,0.46142 0.173031,0.27191 0.181271,1.20298 -0.19775,0 -0.40374,0.0742 -0.20599,0.0742 -0.20599,0.14007 0,0.008 0.552053,0.30487 0.06592,0.033 0.06592,0.16479 0,0.14007 -0.156553,0.50261 -0.0082,0.0165 -0.0082,0.0494 0,0.0989 0.173031,0.26367 -0.02472,0.17303 -0.02472,0.29662 0,0.0824 0.123594,0.42022 l 0.01648,0.45318 0.02472,0.3955 -0.02472,0.34607 q 0,0.0824 0.0824,0.30486 -0.22247,0.16479 -0.313105,0.21423 -0.0412,0.0247 -0.370782,0.15655 -0.06592,0.033 -0.362543,0.23071 -0.230708,-0.23895 -0.230708,-0.40374 0,-0.0577 0.148312,-0.64269 0.0082,-0.0412 0.01648,-0.18951 0.0082,-0.0742 0.0082,-0.12359 l 0.164792,-0.0577 q 0.41198,-0.0577 0.42022,-0.0989 0,0 -0.09064,-0.0577 -0.19775,-0.1236 -0.61797,-0.21423 0.04944,-0.3543 0.123594,-0.42846 l 0.247188,-0.23071 q 0.197751,-0.18951 0.197751,-0.34606 0,-0.033 -0.543814,-0.23895 l 0.02472,-0.29663 -0.0412,-0.43669 q 0,-0.008 0.02472,-0.0659 0.03296,-0.0824 0.06592,-0.23895 -0.131833,-0.14831 -0.131833,-0.19775 l 0.0082,-0.41198 q 0,-0.0824 -0.131833,-0.22247 -0.131834,-0.14007 -0.131834,-0.28015 l -0.0412,-0.0494 q -0.19775,-0.0577 -0.222469,-0.0906 l -0.230709,-0.3955 q -0.06592,-0.10711 -0.148313,-0.10711 -0.140073,0 -0.337823,0.16479 -0.304865,0.26366 -0.543814,0.26366 -0.0412,0 -0.337823,-0.0659 l -0.156553,0.15655 v 0.0412 q -0.173031,-0.41198 -0.346063,-0.41198 -0.0082,0 -0.09064,0.033 -0.115354,0.0577 -0.255427,0.0906 -0.173032,0.0494 -0.444939,0.22247 -0.40374,0.22247 -0.469657,0.33782 -0.131833,0.19776 -0.131833,0.38727 0,0.008 0.01648,0.52733 v 0.0247 0.008 q 0,0.14831 -0.06592,0.18951 l -0.370782,0.27191 q -0.05768,0.0412 -0.05768,0.0824 0,0.0824 0.148313,0.16479 0.329584,0.17304 0.379021,0.22247 0.0412,0.0494 0.0412,0.15656 0,0.0247 -0.01648,0.16479 l 0.01648,0.60973 q 0,0.0494 -0.148313,0.24719 -0.01648,0.0247 -0.01648,0.0906 0,0.14831 0.173032,0.31311 l -0.02472,0.0247 q 0.01648,0.19775 0.01648,0.26366 0.03296,0.48614 0.131834,0.74981 -0.0824,0.17303 -0.164792,0.20599 -0.03296,0.0165 -0.271907,0.0494 -0.0412,0 -0.115354,0.0412 -0.09888,0.0412 -0.131834,0.0494 -0.05768,0.008 -0.123594,0.11535 -0.06592,0.0989 -0.189511,0.0989 -0.04944,0 -0.148313,-0.11536 -0.06592,-0.0659 -0.06592,-0.14007 0,-0.0659 0.01648,-0.14831 0.05768,-0.24719 0.05768,-0.28839 l 0.0082,-0.62621 q 0.07416,-0.23895 0.07416,-0.28014 0,-0.0824 -0.03296,-0.19775 -0.0412,-0.1648 -0.0412,-0.22247 0,-0.033 0.01648,-0.16479 0.0082,-0.0824 0.0082,-0.14008 0,-0.10711 -0.0082,-0.3131 -0.0082,-0.0989 -0.0082,-0.19775 0,-0.10712 0.05768,-0.27191 l 0.230709,-0.10711 q -0.01648,-0.0742 -0.05768,-0.11536 -0.04944,-0.0247 -0.263667,-0.0412 -0.0082,-0.15655 -0.0082,-0.25542 0,-0.0742 0.03296,-0.24719 0.0082,-0.0412 0.0082,-0.0989 0,-0.18951 -0.09063,-0.70036 l 0.18951,-0.10712 q -0.156552,-0.23071 -0.173031,-0.27191 -0.01648,-0.0247 -0.03296,-0.18951 -0.0082,-0.13183 -0.19775,-0.36254 z m 9.220113,1.07939 0.288386,0.0577 0.05768,-0.0577 -0.0824,-0.42846 q 0.164792,-0.10712 0.21423,-0.13183 0.03296,-0.0165 0.469657,-0.46966 l 0.222469,-0.15655 q 0.164792,-0.14008 0.255428,-0.14008 0.07416,0 0.288386,0.0412 l 0.115354,0.0906 q 0.156552,-0.11536 0.370782,-0.18951 v -0.21423 q 0.06592,-0.0577 0.379022,-0.1648 l 0.379021,-0.13183 0.280147,-0.0247 q 0.19775,-0.0659 0.230708,-0.0659 0.06592,0 0.197751,0.0906 0.238948,0.16479 0.313105,0.20599 l 0.164792,-0.20599 q 0.247188,0.0742 0.329584,0.0824 0.535574,0.0906 0.576772,0.11535 l 0.19775,0.1236 q 0.03296,0.0247 0.09064,0.0247 0.123594,0 0.304865,-0.14007 -0.115355,-0.14831 -0.123594,-0.18127 l -0.04944,-0.51086 -0.0412,-0.16479 q 0.502616,-0.34606 0.502616,-0.38726 0,-0.0659 -0.296626,-0.36254 -0.189511,-0.20599 -0.189511,-0.70861 l 0.20599,-0.10711 q -0.07416,-0.11536 -0.09888,-0.31311 -0.123594,-0.37902 -0.131833,-0.51909 l -0.02472,-0.23071 q 0.0082,-0.24719 0.01648,-0.63445 0,-0.13183 0.06592,-0.3955 l -0.09064,-0.46966 q 0,-0.0412 0.04944,-0.15655 l 0.148313,-0.0906 q -0.06592,-0.14007 -0.09064,-0.12359 -0.03296,-0.0494 -0.222469,-0.0494 l -0.04944,-0.0247 -0.02472,-0.0165 0.667408,-0.4367 -0.173032,-0.20599 -0.05768,-0.38726 q -0.01648,-0.14008 -0.271907,-0.22247 -0.3955,-0.14008 -0.3955,-0.19775 0,-0.0494 0.09064,-0.13184 0.06592,-0.0577 0.609731,-0.16479 0.156552,-0.22247 0.791001,-0.30487 0.05768,0.11536 0.06592,0.37903 l 0.01648,0.15655 v 0.008 q 0,0.008 -0.05768,0.36254 v 0.23895 l -0.01648,0.14007 v 0.34607 0.23894 0.34607 q 0,0.0659 -0.03296,0.16479 -0.07416,0.23895 -0.07416,0.25543 l 0.03296,0.60973 -0.164792,0.30486 q 0.07416,0.27191 0.20599,0.48614 l -0.07416,0.30486 0.03296,0.23895 q -0.05768,0.18951 -0.05768,0.22247 0,0.14007 0.05768,0.36254 0.01648,0.0906 0.01648,0.15656 0,0.0577 -0.04944,0.14007 l -0.181271,0.033 q -0.09064,0.18951 -0.09064,0.28014 0,0.0494 0.0082,0.1236 0.280146,0.17303 0.296625,0.32134 0,0.0247 -0.0412,0.48614 -0.0082,0.0412 -0.0082,0.0742 0,0.22246 0.03296,0.46965 0.01648,0.0906 0.01648,0.14832 0,0.0165 -0.0082,0.0494 -0.01648,0.14832 -0.01648,0.14832 l 0.0082,0.19775 q -0.107115,0.18951 -0.107115,0.21423 0,0 0.01648,0.43669 l 0.0082,0.14008 0.01648,0.48613 0.05768,0.55206 0.0082,0.17303 0.03296,0.38726 -0.02472,0.40374 0.123594,0.71685 -0.0082,0.32134 q 0.115355,0.46142 0.123594,0.60149 0.0082,0.18951 0.01648,0.3543 0.140074,0.13184 0.140074,0.27191 0,0.0494 0,0.10712 -0.09888,0.0494 -0.585012,0.0989 -0.370782,0.0824 -0.60973,0.10712 l -0.115355,-0.0989 q -0.214229,0.14831 -0.387261,0.19775 -0.07416,0.0247 -0.692126,0.14007 -0.889877,0.22247 -1.268899,0.22247 -0.593251,0.0906 -0.741564,0.0906 -0.758043,0 -1.186502,-0.10712 l -0.148313,-0.23894 q -0.238948,0.13183 -0.304865,0.13183 -0.04944,0 -0.09064,-0.0989 -0.0082,-0.0247 -0.03296,-0.14831 -0.0082,-0.0494 -0.09064,-0.13183 -0.156552,0.0742 -0.247188,0.0742 -0.115354,0 -0.20599,-0.0824 -0.329584,-0.28015 -0.477897,-0.37902 0.02472,-0.1236 0.02472,-0.21423 0,-0.1648 -0.148313,-0.29663 -0.18951,-0.16479 -0.19775,-0.18951 l -0.02472,-0.15655 q -0.123594,-0.60149 -0.123594,-0.65093 0,-0.14007 0.04944,-0.32958 0.0412,-0.13184 0.0412,-0.38727 l 0.140073,-0.25542 q 0.313105,-0.791 0.379022,-0.86516 0.0824,-0.0824 0.263667,-0.20599 z m 0.461417,2.68611 q 0.173032,0.0989 0.197751,0.15655 l 0.07416,0.18127 q 0.21423,0.28839 0.271907,0.37078 0.05768,0.0742 0.321344,0.28839 l 0.20599,0.20599 0.22247,0.11535 q 0.271906,0.20599 0.296625,0.20599 0.148313,0 0.238949,-0.42022 0.296625,0.17304 0.527334,0.17304 l 0.708606,-0.0247 h 0.337823 l 0.725085,-0.16479 q 0.42022,-0.0742 0.502616,-0.14832 0.19775,-0.29662 0.329584,-0.4367 -0.06592,-0.13183 -0.05768,-0.16479 l 0.0412,-0.22247 v -0.64269 l 0.0082,-0.52733 q -0.04944,-0.22247 -0.06592,-0.3955 l 0.280147,-0.10712 q -0.04944,-0.14007 -0.04944,-0.2307 0,-0.0659 0.0082,-0.1648 l -0.181272,-0.0494 0.502616,-0.41198 -0.494376,-0.56854 0.0082,-0.16479 q 0,-0.0247 -0.05768,-0.0989 v -0.28015 q -0.140073,-0.0577 -0.18951,-0.0577 -0.03296,0 -0.247188,0.0906 -0.0082,0.008 -0.09064,0.008 -0.255428,0 -0.346063,-0.0824 l -0.288386,-0.26367 -0.560293,-0.17303 -0.321344,-0.21423 q -0.337824,0.42846 -0.362543,0.4367 h -0.03296 -0.05768 q -0.131834,0 -0.41198,0.1236 l -0.22247,-0.0165 q -0.19775,0 -0.469657,0.30486 l -0.271907,-0.0412 q -0.131833,0.1648 -0.18951,0.19775 l -0.271907,0.15656 q -0.321345,0.28014 -0.304865,0.51085 -0.238949,0.16479 -0.387262,0.38726 -0.222469,0.33783 -0.222469,0.33783 -0.0412,0.10711 -0.0412,0.40374 0,0.12359 0.05768,0.32134 l 0.03296,0.18127 0.07416,0.20599 0.07416,0.21423 q 0.156552,0.25543 0.156552,0.32959 0,0.0742 -0.0082,0.16479 z m 9.862801,-1.12883 q 0.09888,-0.15655 0.189511,-0.21423 0.06592,-0.0412 0.494376,-0.13183 0.313105,-0.15655 0.42022,-0.18951 0.07416,-0.0165 0.494376,-0.0577 l 0.263667,-0.0906 0.156552,-0.0165 0.148313,-0.0165 h 0.321345 l 0.650928,-0.0824 q 0.288386,-0.0247 0.362542,-0.0742 0.148313,-0.10712 0.148313,-0.31311 0,-0.0412 -0.06592,-0.26367 l 0.42846,-0.53557 q 0,-0.008 -0.510856,-0.16479 -0.0412,-0.0165 -0.247188,-0.0165 -0.354302,-0.45318 -0.420219,-0.50262 -0.0824,-0.033 -0.62621,-0.11535 h -0.263667 q -0.181271,-0.0494 -0.238948,-0.0494 -0.06592,0 -0.189511,0.0165 l -0.156553,-0.19775 q -0.181271,0.0659 -0.280146,0.18127 -0.0824,0.0906 -0.255428,0.15655 -0.428459,0.18127 -0.708605,0.40374 l -0.115355,0.0742 q -0.107114,0.15655 -0.140073,0.17303 -0.09887,0.0577 -0.230709,0.0577 -0.04944,0 -0.304865,-0.0906 -0.280146,-0.0659 -0.346063,-0.10711 -0.07416,-0.0494 -0.189511,-0.20599 0.140073,-0.10712 0.197751,-0.15655 0.140073,-0.1236 0.18951,-0.13184 l 0.387262,-0.0906 0.247188,-0.13184 0.527334,-0.16479 0.329584,-0.14007 h 0.337824 l 0.370782,-0.10712 0.156552,-0.008 0.288386,-0.0494 q 0.40374,0.008 0.510855,0.008 0.115355,0.008 0.444939,0.11535 l 0.19775,0.0247 q 0.321344,0.0577 0.453178,0.0824 0.115354,0.008 0.296626,0.18128 -0.140074,0.12359 -0.140074,0.20599 0,0.11535 0.09888,0.11535 0.06592,0 0.18951,-0.0659 0.0824,-0.033 0.230709,-0.0742 0.107115,0.10711 0.115355,0.28014 l 0.20599,0.14832 q 0.01648,0.0906 0.01648,0.11535 l -0.02472,0.32135 q 0.09064,0.36254 0.181271,0.45317 h 0.03296 q 0.02472,0.18127 0.06592,0.3955 0.02472,0.4779 0.03296,0.63445 -0.189511,0.11536 -0.189511,0.22247 0,0.1236 0.222469,0.22247 0.0082,0.10712 0.0082,0.18127 0,0.0742 -0.03296,0.28839 -0.0082,0.0906 -0.0082,0.18127 0,0.27191 0.09064,0.67565 -0.148312,0.14831 -0.148312,0.29662 0,0.1236 0.140073,0.32135 0.01648,0.033 0.05768,0.15655 0.02472,0.0577 0.09064,0.22247 -0.09064,0.10711 -0.131834,0.20599 -0.06592,0.0577 -0.255428,0.13183 l -0.313104,0.14008 -0.197751,0.0577 q -0.304865,0.10712 -0.337823,0.10712 -0.0824,0 -0.181272,-0.0906 l 0.123594,-0.55205 q -0.238948,0.0577 -0.692126,0.25543 l -0.238948,0.0494 q -0.21423,0.0494 -0.22247,0.0494 l -0.304865,-0.033 -0.304865,0.15656 -0.164792,0.0165 -0.667408,0.14008 -0.346063,-0.0247 q -0.255427,0.0906 -0.346063,0.0906 -0.115354,0 -0.642689,-0.10711 l -0.346063,-0.033 -0.255428,-0.10711 q -0.288386,-0.10712 -0.428459,-0.21423 -0.123594,-0.0906 -0.19775,-0.31311 l -0.189511,-0.0659 q -0.03296,-0.0824 -0.07416,-0.29663 l -0.0824,-0.3543 v -0.008 q -0.0082,-0.0742 0.107114,-0.23895 0.09064,-0.12359 0.230709,-0.42022 0.403741,-0.3955 0.535574,-0.51086 0.115355,-0.0906 0.519095,-0.25542 0.230709,-0.14832 0.288386,-0.14832 0.06592,0 0.156552,0.0165 z m -0.510855,1.7468 q -0.06592,0.10711 -0.123594,0.22247 -0.09063,0.14831 -0.0824,0.19775 v 0 l 0.0824,0.15655 0.230709,-0.19775 q 0.280146,0.19775 0.387261,0.21423 0.304865,0.0824 0.329584,0.0906 0.04944,0.033 0.140073,0.17304 0.189511,0.0247 0.255428,0.0329 0.06592,0.008 0.107115,0.008 0.09064,0 0.222469,-0.11535 0.115354,0.0824 0.19775,0.0824 0.01648,0 0.181272,-0.10712 l 0.230708,0.0494 q 0,0 0.444939,-0.15655 l 0.214229,-0.0989 0.181272,0.033 0.313104,-0.13183 0.362543,-0.14008 q 0.140073,-0.21423 0.173031,-0.24719 0.07416,-0.0742 0.288386,-0.13183 l 0.04944,-0.26367 q 0.148313,-0.0824 0.181271,-0.2307 -0.115354,-0.0824 -0.164792,-0.17304 0.0082,-0.14007 0.0082,-0.20599 v -0.13183 q -0.0082,-0.22247 -0.01648,-0.37902 -0.0082,-0.0494 -0.0082,-0.0906 0,-0.0989 0.06592,-0.28838 -0.07416,-0.008 -0.189511,-0.0989 l -0.354303,0.008 -0.321344,-0.0165 -0.247188,0.008 h -0.156553 q -0.03296,0 -0.247188,-0.13183 l -0.181271,0.0577 q -0.329584,0 -0.486136,0.0494 -0.09887,0.0412 -0.164792,0.0412 -0.01648,0 -0.189511,-0.0494 -0.0082,0 -0.01648,0 -0.0412,0 -0.263667,0.14832 -0.03296,0.0247 -0.42846,0.16479 -0.527334,0.23071 -0.758043,0.4367 -0.02472,0.0247 -0.181271,0.24719 -0.04944,0.0742 -0.288386,0.14007 -0.03296,0.0577 -0.03296,0.0906 0,0.0247 0.06592,0.0989 l 0.05768,0.44494 q 0.01648,0.0577 0.131833,0.18951 z m 7.275567,-4.6389 q 0.06592,-0.32134 0.222469,-0.32134 h 0.0082 l 0.40374,0.0247 h 0.01648 q 0.461418,-0.0659 0.527335,-0.0742 0,-0.14831 0,-0.19775 0,-0.77452 -0.03296,-1.2689 -0.01648,-0.21423 -0.09887,-0.38726 l -0.0824,-0.17303 q -0.03296,-0.0659 -0.03296,-0.14007 0,-0.1236 0.19775,-0.29663 0.304865,-0.28015 0.774523,-0.37078 0.107114,-0.22247 0.230708,-0.22247 0.04944,0 0.0824,0.0412 0.115355,0.12359 0.115355,0.32134 0,0.008 -0.07416,1.30186 -0.09888,0.33782 -0.123594,0.3955 -0.03296,0.11535 -0.18951,0.23895 0,0.16479 0.04944,0.32134 h 0.189511 l -0.04944,0.42022 q 0.20599,0.0165 0.856919,0.19775 0.0412,0.008 0.280146,0.008 0.148313,0 0.486137,-0.0989 l 0.543813,-0.0494 q 0.42022,-0.16479 0.494376,-0.16479 0.107115,0 0.263667,0.0247 -0.01648,0.23071 -0.04944,0.32958 -0.03296,0.12359 -0.519095,0.42022 -0.115354,0.0659 -0.164792,0.12359 -0.123594,0.14832 -0.131834,0.14832 -0.0412,0.033 -0.19775,0.033 -0.123594,0 -0.181271,-0.033 l -0.337824,-0.18127 -0.20599,-0.0494 -0.247188,-0.18127 -0.420219,0.32134 -0.362543,-0.0494 q -0.0412,0 -0.164792,0.0824 0.06592,0.3955 0.06592,0.66741 0,0.13183 -0.0082,0.38726 -0.304865,0.0494 -0.304865,0.24719 0,0.0741 0.03296,0.18127 0.181271,0.0165 0.304865,0.0494 l -0.01648,1.02995 q -0.123594,-0.033 -0.20599,-0.033 -0.148313,0 -0.148313,0.12359 0,0.0989 0.07416,0.23895 0.115355,-0.0742 0.197751,-0.0742 0.123594,0 0.123594,0.15656 l -0.02472,0.32958 v 0.0165 q 0.01648,0.33782 0.02472,0.48613 0.01648,0.15656 0.09888,0.31311 l 0.09887,0.17303 q 0.01648,0.033 0.01648,0.0989 0,0.0742 -0.01648,0.18951 0.255428,0.14831 0.568532,0.14831 0.263668,0 0.527335,-0.13183 0.214229,-0.11536 0.230709,-0.13184 l 0.453178,-0.41198 q 0.337823,-0.28014 0.41198,-0.28014 0.07416,0 0.20599,0.0742 -0.02472,0.15656 -0.03296,0.21423 -0.05768,0.42846 -0.115354,0.50262 -0.05768,0.0659 -0.502616,0.20599 -0.337823,0.17303 -1.02171,0.40374 l -0.280147,0.0906 q -0.280146,0.15656 -0.321344,0.15656 -0.07416,0 -0.164792,-0.14832 l -0.148313,-0.0412 -0.09064,0.20599 q -0.115355,0.0165 -0.197751,0.0165 -0.214229,0 -0.510855,-0.28014 -0.131834,-0.13184 -0.21423,-0.27191 -0.0082,-0.008 -0.06592,-0.21423 -0.09064,-0.27191 -0.09064,-0.3131 0,-0.0742 0.01648,-0.23895 0.01648,-0.13183 0.01648,-0.55205 0.0082,-0.27191 0.148313,-0.41198 -0.04944,-0.15656 -0.04944,-0.37903 -0.0412,-0.37902 -0.04944,-1.44193 0.19775,-0.12359 0.19775,-0.23894 0,-0.0659 -0.01648,-0.15656 l -0.238948,-0.0577 -0.01648,-0.0742 v -0.008 q 0,-0.0412 0.02472,-0.17303 0.04944,-0.21423 0.04944,-0.74157 -0.337824,-0.0742 -0.494376,-0.0742 -0.04944,0 -0.428459,0.0494 l -0.173032,0.0165 q -0.230709,0.0742 -0.247188,0.0742 -0.115354,0 -0.115354,-0.10711 0,-0.1648 0.346063,-0.35431 z m 6.19618,0.17304 q 0,-0.11536 0.247188,-0.31311 0.543812,-0.42022 0.939312,-0.55205 l 0.24719,0.25542 q -0.0824,0.20599 -0.13183,0.57678 -0.0494,0.30486 -0.0494,0.37078 v 0.30486 l -0.14007,0.19775 q 0,0.20599 0.18127,0.39551 -0.0494,0.0906 -0.0494,0.10711 l 0.0165,0.40374 q 0,0 -0.008,0.0906 -0.008,0.0577 -0.008,0.18951 l -0.0412,1.57376 q 0.008,0.12359 0.10712,0.56853 l 0.0165,0.34607 q 0.0494,0.24718 0.0494,0.28838 0,0.17303 -0.14831,0.31311 -0.0412,0.0412 -0.3131,0.21423 -0.41198,0.32134 -0.469661,0.34606 -0.0824,0.033 -0.148313,0.033 -0.09888,0 -0.19775,-0.0989 0.03296,-0.20599 0.0412,-0.2719 0.0082,-0.0989 0.09064,-0.36255 l 0.0082,-0.40374 0.05768,-0.80748 -0.0082,-0.14831 q 0.0082,-0.13183 0.131834,-0.13183 0.03296,0 0.0824,0.008 0.0412,-0.13184 0.0412,-0.18128 0,-0.0659 -0.0494,-0.25542 -0.02472,-0.0824 -0.04944,-0.23071 l -0.140073,-0.10712 q 0.02472,-0.18127 0.02472,-0.2719 0,-0.0412 -0.0082,-0.1236 0,-0.0659 0,-0.11535 0,-0.10712 0.0824,-0.23895 -0.0824,-0.0989 -0.0824,-0.20599 v -0.0659 -0.0577 l -0.01648,-0.18952 q 0.535574,-0.0989 0.535574,-0.17303 0,-0.008 -0.0165,-0.0247 -0.12359,-0.10711 -0.30486,-0.10711 -0.131838,0 -0.321349,0.0165 0.02472,-0.1236 0.02472,-0.16479 0,-0.0165 -0.06592,-0.81572 -0.0082,-0.0989 -0.156553,-0.18127 z m 0.148313,-3.32056 v -0.008 q -0.01648,-0.28839 0.420217,-0.62621 0.0989,-0.0742 0.21423,-0.21423 0.008,-0.008 0.16479,-0.13184 0.30487,-0.45317 0.37903,-0.50261 0.12359,-0.0906 0.20599,-0.0906 0.0329,0 0.18951,0.1236 0.15655,0.11535 0.15655,0.28014 0,0.13184 -0.14831,0.23071 -0.37903,0.27191 -0.72509,0.59325 l -0.23071,0.14832 -0.288383,0.19775 q -0.230709,0.12359 -0.263667,0.12359 -0.07416,0 -0.07416,-0.12359 z m 3.213437,6.65759 q 0,-0.54381 0.0659,-0.791 0.0659,-0.21423 0.23071,-0.65093 0.33782,-0.62621 0.38726,-0.7086 0.0494,-0.0742 0.37902,-0.28839 0.008,-0.008 0.12359,-0.24719 0.0742,-0.13183 0.1236,-0.15655 0.0906,-0.0742 0.63445,-0.33782 0.17303,-0.0824 0.3955,-0.31311 0.033,-0.033 0.98875,-0.38726 0.49438,-0.18951 1.44193,-0.18951 0.18951,0 0.49438,0.0659 l 0.0329,0.17303 q 0.11536,0.0494 0.19776,0.11535 0.12359,-0.0412 0.19775,-0.21423 0.45317,0.0989 0.791,0.32959 0.25542,0.15655 0.28838,0.19775 0.0165,0.0247 0.1648,0.28838 0.16479,0.25543 0.56029,0.26367 0.19775,0.32959 0.24719,0.48614 0.0577,0.15655 0.10711,0.52733 0.0494,0.37902 0.0742,0.59325 h -0.13184 v 0.0989 l -0.16479,0.18951 q 0.033,0.14007 0.23071,0.26367 -0.0247,0.36254 -0.0494,0.49437 -0.0165,0.0577 -0.12359,0.28839 -0.30487,0.71684 -0.42846,0.91459 -0.4367,0.52734 -0.79924,0.64269 l -0.44494,0.22247 -0.42022,0.19775 q -0.32958,0.18127 -0.38726,0.19775 -0.0577,0.008 -0.79924,0.0494 l -0.57677,0.12359 h -0.58502 l -0.26366,0.033 q -0.72509,-0.12359 -0.90636,-0.13183 -0.11535,-0.13183 -0.17303,-0.15655 -0.0165,-0.008 -0.32134,-0.0577 -0.1648,-0.033 -0.65093,-0.3543 -0.0742,-0.0412 -0.29663,-0.1648 -0.0494,-0.14831 -0.0659,-0.20599 -0.0329,-0.0906 -0.0659,-0.12359 -0.008,0 -0.17303,-0.11535 -0.008,0 -0.0577,-0.0742 -0.18127,-0.28839 -0.18127,-0.57677 0,-0.14007 0.17303,-0.26367 -0.0742,-0.13183 -0.25543,-0.21423 z m 0.90636,-0.16479 v 0.0824 l 0.0742,0.0742 q 0.0824,-0.0742 0.1648,-0.0824 0.0659,0.28014 0.11535,0.42846 0.0412,0.0906 0.42846,0.71684 0.008,0.0165 0.008,0.0494 0,0.0742 -0.0824,0.23895 0.033,0.11535 0.22247,0.12359 0.0824,-0.0824 0.14008,-0.0824 0.0494,0 0.72508,0.34606 0.28839,0.14007 0.58501,0.14007 h 0.48614 l 0.24719,0.0577 q 0.15655,0.0412 0.2719,0.0412 0.18951,0 0.42846,-0.0577 0.15656,-0.0412 0.45318,-0.0989 0.0824,-0.0247 0.56029,-0.3543 0.32135,-0.10711 0.36255,-0.14831 0.0577,-0.0659 0.3131,-0.48614 l 0.20599,-0.41198 q 0.20599,-0.19775 0.23895,-0.24718 0.033,-0.0577 0.033,-0.15656 -0.13184,-0.19775 -0.1236,-0.26366 v -0.008 l 0.033,-0.1648 q 0.0165,-0.37902 0.0989,-0.61797 -0.0659,-0.15655 -0.15656,-0.49437 l -0.13183,-0.42846 q -0.0165,-0.0824 -0.0247,-0.33782 l -0.033,-0.033 h -0.19775 q -0.0906,-0.17303 -0.37078,-0.5191 -0.16479,-0.20599 -0.18951,-0.22247 -0.0165,-0.0247 -0.15655,-0.0824 -0.11536,-0.0494 -0.41198,-0.1648 -0.0824,-0.28838 -0.26367,-0.28838 -0.0494,0 -0.25543,0.0824 -0.25542,-0.0659 -0.28838,-0.0659 -0.42846,0 -0.5603,0.0165 -0.14007,0.008 -0.42845,0.18951 l -0.17304,-0.1236 q -0.12359,0.1648 -0.18951,0.19775 l -0.3543,0.18128 -0.0577,0.0659 -0.98875,0.8322 -0.0742,0.0577 q -0.0165,0.23071 -0.0494,0.28839 l -0.16479,0.28838 q -0.0824,0.23071 -0.20599,0.38726 0.008,0.0659 0.008,0.11536 0,0.18951 -0.28838,0.30486 0,0.0247 0.0659,0.18951 0.22246,0.15656 0.22246,0.20599 0,0.0906 -0.2719,0.23895 z m 8.93173,-3.08985 q 0.0659,-0.28838 0.42022,-0.44494 0.37902,-0.30486 0.56029,-0.30486 0.18951,0 0.23895,0.0989 0.0165,0.0247 0.0247,0.4779 0,0.11535 0.18951,0.44494 0.32958,-0.42022 0.38726,-0.41198 l 0.28838,-0.18127 q 0.32959,-0.27191 0.42022,-0.27191 0.10712,0 0.21423,0.18127 0.45318,-0.32958 0.89812,-0.32958 0.0906,0 0.15655,0.0247 0.16479,0.0494 0.16479,0.0494 0.32135,-0.11535 0.38726,-0.11535 0.0906,0 0.46142,0.0906 0.22247,0.0494 0.41198,0.0659 0.11536,0.14007 0.16479,0.14831 l 0.18952,0.033 q 0.21422,0.033 0.50261,0.46142 0.17303,0.27191 0.18127,1.20298 -0.19775,0 -0.40374,0.0742 -0.20599,0.0742 -0.20599,0.14007 0,0.008 0.55205,0.30487 0.0659,0.033 0.0659,0.16479 0,0.14007 -0.15655,0.50261 -0.008,0.0165 -0.008,0.0494 0,0.0989 0.17303,0.26367 -0.0247,0.17303 -0.0247,0.29662 0,0.0824 0.1236,0.42022 l 0.0165,0.45318 0.0247,0.3955 -0.0247,0.34607 q 0,0.0824 0.0824,0.30486 -0.22247,0.16479 -0.3131,0.21423 -0.0412,0.0247 -0.37079,0.15655 -0.0659,0.033 -0.36254,0.23071 -0.23071,-0.23895 -0.23071,-0.40374 0,-0.0577 0.14832,-0.64269 0.008,-0.0412 0.0165,-0.18951 0.008,-0.0742 0.008,-0.12359 l 0.16479,-0.0577 q 0.41198,-0.0577 0.42022,-0.0989 0,0 -0.0906,-0.0577 -0.19775,-0.1236 -0.61797,-0.21423 0.0494,-0.3543 0.1236,-0.42846 l 0.24718,-0.23071 q 0.19775,-0.18951 0.19775,-0.34606 0,-0.033 -0.54381,-0.23895 l 0.0247,-0.29663 -0.0412,-0.43669 q 0,-0.008 0.0247,-0.0659 0.033,-0.0824 0.0659,-0.23895 -0.13184,-0.14831 -0.13184,-0.19775 l 0.008,-0.41198 q 0,-0.0824 -0.13183,-0.22247 -0.13183,-0.14007 -0.13183,-0.28015 l -0.0412,-0.0494 q -0.19775,-0.0577 -0.22247,-0.0906 l -0.23071,-0.3955 q -0.0659,-0.10711 -0.14831,-0.10711 -0.14008,0 -0.33783,0.16479 -0.30486,0.26366 -0.54381,0.26366 -0.0412,0 -0.33782,-0.0659 l -0.15656,0.15655 v 0.0412 q -0.17303,-0.41198 -0.34606,-0.41198 -0.008,0 -0.0906,0.033 -0.11535,0.0577 -0.25542,0.0906 -0.17303,0.0494 -0.44494,0.22247 -0.40374,0.22247 -0.46966,0.33782 -0.13183,0.19776 -0.13183,0.38727 0,0.008 0.0165,0.52733 v 0.0247 0.008 q 0,0.14831 -0.0659,0.18951 l -0.37078,0.27191 q -0.0577,0.0412 -0.0577,0.0824 0,0.0824 0.14831,0.16479 0.32959,0.17304 0.37903,0.22247 0.0412,0.0494 0.0412,0.15656 0,0.0247 -0.0165,0.16479 l 0.0165,0.60973 q 0,0.0494 -0.14831,0.24719 -0.0165,0.0247 -0.0165,0.0906 0,0.14831 0.17303,0.31311 l -0.0247,0.0247 q 0.0165,0.19775 0.0165,0.26366 0.033,0.48614 0.13184,0.74981 -0.0824,0.17303 -0.1648,0.20599 -0.0329,0.0165 -0.2719,0.0494 -0.0412,0 -0.11536,0.0412 -0.0989,0.0412 -0.13183,0.0494 -0.0577,0.008 -0.12359,0.11535 -0.0659,0.0989 -0.18951,0.0989 -0.0494,0 -0.14832,-0.11536 -0.0659,-0.0659 -0.0659,-0.14007 0,-0.0659 0.0165,-0.14831 0.0577,-0.24719 0.0577,-0.28839 l 0.008,-0.62621 q 0.0742,-0.23895 0.0742,-0.28014 0,-0.0824 -0.033,-0.19775 -0.0412,-0.1648 -0.0412,-0.22247 0,-0.033 0.0165,-0.16479 0.008,-0.0824 0.008,-0.14008 0,-0.10711 -0.008,-0.3131 -0.008,-0.0989 -0.008,-0.19775 0,-0.10712 0.0577,-0.27191 l 0.23071,-0.10711 q -0.0165,-0.0742 -0.0577,-0.11536 -0.0494,-0.0247 -0.26367,-0.0412 -0.008,-0.15655 -0.008,-0.25542 0,-0.0742 0.033,-0.24719 0.008,-0.0412 0.008,-0.0989 0,-0.18951 -0.0906,-0.70036 l 0.18951,-0.10712 q -0.15656,-0.23071 -0.17304,-0.27191 -0.0165,-0.0247 -0.0329,-0.18951 -0.008,-0.13183 -0.19775,-0.36254 z"
       id="text2"
       style="font-size:16.8747px;line-height:1;font-family:Papyrus;-inkscape-font-specification:Papyrus;text-align:center;letter-spacing:0px;text-anchor:middle;fill:#000080;stroke-width:1.43355;stroke-linecap:round;stroke-linejoin:round;paint-order:markers stroke fill"
       aria-label="Foundation" />
  </g>
</svg>
