<?xml version="1.0" encoding="UTF-8" standalone="no"?>
<!-- Created with Inkscape (http://www.inkscape.org/) -->

<svg
   width="210mm"
   height="297mm"
   viewBox="0 0 210 297"
   version="1.1"
   id="svg1"
   xml:space="preserve"
   sodipodi:docname="desing-ideas.svg"
   inkscape:version="1.4.2 (f4327f4, 2025-05-13)"
   xmlns:inkscape="http://www.inkscape.org/namespaces/inkscape"
   xmlns:sodipodi="http://sodipodi.sourceforge.net/DTD/sodipodi-0.dtd"
   xmlns="http://www.w3.org/2000/svg"
   xmlns:svg="http://www.w3.org/2000/svg"><sodipodi:namedview
     id="namedview1"
     pagecolor="#ffffff"
     bordercolor="#000000"
     borderopacity="0.25"
     inkscape:showpageshadow="2"
     inkscape:pageopacity="0.0"
     inkscape:pagecheckerboard="0"
     inkscape:deskcolor="#d1d1d1"
     inkscape:document-units="mm"
     showguides="true"
     showgrid="true"
     inkscape:zoom="1.4142136"
     inkscape:cx="439.46686"
     inkscape:cy="1021.0622"
     inkscape:window-width="1920"
     inkscape:window-height="1057"
     inkscape:window-x="-8"
     inkscape:window-y="131"
     inkscape:window-maximized="1"
     inkscape:current-layer="layer1"><inkscape:grid
       id="grid599"
       units="mm"
       originx="0"
       originy="0"
       spacingx="0.99999998"
       spacingy="1"
       empcolor="#0099e5"
       empopacity="0.30196078"
       color="#0099e5"
       opacity="0.14901961"
       empspacing="5"
       enabled="true"
       visible="true" /><sodipodi:guide
       position="114.00099,76.490279"
       orientation="1,0"
       id="guide699"
       inkscape:locked="false" /></sodipodi:namedview><defs
     id="defs1"><inkscape:path-effect
       effect="fillet_chamfer"
       id="path-effect522"
       is_visible="true"
       lpeversion="1"
       nodesatellites_param="F,0,0,1,0,3.8678007,0,1 @ F,0,0,1,0,5.37487,0,1 @ F,0,0,1,0,5.37487,0,1"
       radius="0"
       unit="px"
       method="auto"
       mode="F"
       chamfer_steps="1"
       flexible="false"
       use_knot_distance="true"
       apply_no_radius="true"
       apply_with_radius="true"
       only_selected="false"
       hide_knots="false" /><inkscape:path-effect
       effect="fillet_chamfer"
       id="path-effect522-4"
       is_visible="true"
       lpeversion="1"
       nodesatellites_param="F,0,0,1,0,3.8678007,0,1 @ F,0,0,1,0,5.37487,0,1 @ F,0,0,1,0,5.37487,0,1"
       radius="0"
       unit="px"
       method="auto"
       mode="F"
       chamfer_steps="1"
       flexible="false"
       use_knot_distance="true"
       apply_no_radius="true"
       apply_with_radius="true"
       only_selected="false"
       hide_knots="false" /></defs><g
     inkscape:label="Layer 1"
     inkscape:groupmode="layer"
     id="layer1"><text
       xml:space="preserve"
       style="font-style:normal;font-variant:normal;font-weight:normal;font-stretch:normal;font-size:11.1237px;line-height:1;font-family:poppins;-inkscape-font-specification:poppins;text-align:center;letter-spacing:0px;writing-mode:lr-tb;direction:ltr;text-anchor:middle;fill:#2141ca;fill-opacity:1;stroke:#7df184;stroke-width:0.264584;stroke-linecap:round;stroke-linejoin:round;paint-order:markers stroke fill"
       x="100.80441"
       y="86.770691"
       id="text443"
       transform="scale(0.9842543,1.0159976)"
       inkscape:export-filename="sample9.svg"
       inkscape:export-xdpi="96"
       inkscape:export-ydpi="96"><tspan
         sodipodi:role="line"
         id="tspan443"
         style="stroke-width:0.264584"
         x="100.80441"
         y="86.770691">Community Science Museum</tspan></text><g
       id="g598"
       transform="translate(91.210468,5.0136812)"
       inkscape:export-filename="sample1.svg"
       inkscape:export-xdpi="96"
       inkscape:export-ydpi="96"><path
         d="m 55.573171,19.447654 c -1.31781,0 -2.46352,0.283545 -3.43648,0.850077 -0.97296,0.554217 -1.72403,1.336204 -2.253611,2.34611 -0.517269,1.009906 -0.775661,2.161398 -0.775661,3.45457 0,1.293173 0.258392,2.444663 0.775661,3.454569 0.529581,1.009907 1.280651,1.798181 2.253611,2.364714 0.97296,0.554217 2.11867,0.831473 3.43648,0.831473 0.37867,0 0.74385,-0.02297 1.09503,-0.06976 V 28.65433 c -0.341,0.205107 -0.73075,0.307475 -1.16892,0.307475 -0.68969,0 -1.23793,-0.258394 -1.64435,-0.775664 -0.39411,-0.517269 -0.59118,-1.213295 -0.59118,-2.087727 0,-0.874432 0.19707,-1.570458 0.59118,-2.087728 0.40642,-0.517268 0.95466,-0.775664 1.64435,-0.775664 0.43817,0 0.82792,0.108096 1.16892,0.324012 0.003,0.0021 0.007,0.0041 0.01,0.0062 0.0198,0.01272 0.0394,0.02582 0.0589,0.03927 0.36948,0.234003 0.65251,0.566297 0.84956,0.997355 h 4.32325 c -0.0394,-0.220452 -0.0875,-0.434669 -0.14418,-0.643372 -0.002,-0.0079 -0.004,-0.01587 -0.006,-0.02377 -0.20969,-0.76115 -0.53546,-1.444162 -0.97668,-2.048453 -0.40057,-0.560793 -0.8911,-1.027865 -1.47175,-1.401982 -0.006,-0.0037 -0.0113,-0.0077 -0.017,-0.01137 -0.21762,-0.139091 -0.44813,-0.26519 -0.69092,-0.378271 -0.0808,-0.03929 -0.16259,-0.07643 -0.24546,-0.112138 -0.51958,-0.223888 -1.07943,-0.377744 -1.67948,-0.460954 -0.35423,-0.04912 -0.72259,-0.0739 -1.10485,-0.0739 z"
         style="font-size:18.4739px;line-height:1;font-family:poppins;-inkscape-font-specification:poppins;text-align:center;letter-spacing:0px;text-anchor:middle;fill:#2c2c2c;stroke-width:0.264583;stroke-linecap:round;stroke-linejoin:round;paint-order:markers stroke fill"
         id="path479" /><path
         d="m 70.186231,20.132366 c 0.0148,0.134574 0.0248,0.271888 0.03,0.411861 a 0.28252825,0.28252825 0 0 1 -0.28319,0.293005 h -2.4877 l -0.31626,0.885218 c 0.41782,0.176994 0.78593,0.35038 1.10587,0.521415 l 0.002,0.0016 c 0.57703,0.302082 1.07757,0.724294 1.49397,1.257805 0.43666,0.559477 0.6506,1.264293 0.6506,2.076359 0,0.846779 -0.21133,1.62517 -0.63303,2.310453 a 0.28252825,0.28252825 0 0 1 0,0.0021 c -0.28772,0.458545 -0.66617,0.84979 -1.12707,1.171505 v 4.148067 h 4.08244 V 20.132366 Z"
         style="font-size:18.4739px;line-height:1;font-family:poppins;-inkscape-font-specification:poppins;text-align:center;letter-spacing:0px;text-anchor:middle;fill:#2c2c2c;stroke-width:0.264583;stroke-linecap:round;stroke-linejoin:round;paint-order:markers stroke fill"
         id="path469" /><path
         d="m 67.737291,29.55298 c -0.75805,0.32572 -1.63516,0.483691 -2.62568,0.483691 -1.21085,0 -2.27943,-0.213333 -3.1936,-0.645955 l 1.17977,3.820955 h 3.50986 z"
         style="font-size:18.4739px;line-height:1;font-family:poppins;-inkscape-font-specification:poppins;text-align:center;letter-spacing:0px;text-anchor:middle;fill:#2c2c2c;stroke-width:0.264583;stroke-linecap:round;stroke-linejoin:round;paint-order:markers stroke fill"
         id="path468" /><path
         d="m 62.174321,24.222556 c 0.0232,0.105614 0.0447,0.212659 0.0641,0.32091 a 0.33253326,0.33253326 0 0 1 -0.32608,0.390674 h -4.32428 a 0.33253326,0.33253326 0 0 1 -0.30283,-0.19327 c -0.0853,-0.186497 -0.18567,-0.348165 -0.30282,-0.487825 v 4.292244 a 0.33253326,0.33253326 0 0 1 0.0186,0.109554 v 4.025077 a 0.33253326,0.33253326 0 0 1 -0.0186,0.107487 v 0.424264 h 4.10104 l 5.2e-4,-4.306714 c -0.005,-0.0035 -0.0101,-0.0073 -0.015,-0.01085 a 0.28252825,0.28252825 0 0 1 -0.004,-0.0021 c -1.07621,-0.787471 -1.66949,-1.963039 -1.75959,-3.443201 a 0.28252825,0.28252825 0 0 1 0.28319,-0.298689 h 4.26072 l -0.11951,-0.327598 c -0.0437,-0.01567 -0.0886,-0.03114 -0.13384,-0.04703 a 0.28252825,0.28252825 0 0 1 -0.002,0 c -0.52739,-0.186136 -1.0002,-0.370201 -1.41955,-0.552937 z"
         style="font-size:18.4739px;line-height:1;font-family:poppins;-inkscape-font-specification:poppins;text-align:center;letter-spacing:0px;text-anchor:middle;fill:#2c2c2c;stroke-width:0.264583;stroke-linecap:round;stroke-linejoin:round;paint-order:markers stroke fill"
         id="path489" /><path
         d="m 64.631021,16.32433 c -0.94834,0 -1.80421,0.153573 -2.5678,0.46147 -0.75127,0.307899 -1.34876,0.763878 -1.79214,1.367359 -0.42757,0.586387 -0.6425,1.3001 -0.64596,2.140954 0.55772,0.381038 1.03584,0.848981 1.42937,1.399915 0.46432,0.636847 0.80815,1.35672 1.02733,2.152323 a 0.33253326,0.33253326 0 0 1 0.002,0.0078 c 0.002,0.0062 0.003,0.01187 0.004,0.01757 l 5.2e-4,0.0021 c 0,0 5.1e-4,0 5.1e-4,0 0.45879,0.208088 0.99183,0.419457 1.59991,0.634069 0.70201,0.246319 1.2188,0.468021 1.55132,0.665076 0.33254,0.18474 0.4992,0.431075 0.4992,0.738973 0,0.221686 -0.0802,0.388351 -0.2403,0.499194 -0.1478,0.09853 -0.33281,0.147795 -0.55449,0.147795 -0.60344,0 -0.93574,-0.375791 -0.99735,-1.127063 h -4.35994 c 0.0862,1.416332 0.63443,2.493922 1.64434,3.232878 1.02222,0.726641 2.31521,1.089856 3.87935,1.089856 1.03452,0 1.92764,-0.178206 2.67891,-0.535368 0.75128,-0.357161 1.32413,-0.849833 1.71824,-1.477946 0.3941,-0.640428 0.59066,-1.361088 0.59066,-2.161625 0,-0.763586 -0.19656,-1.397774 -0.59066,-1.902727 -0.39411,-0.504953 -0.86214,-0.899089 -1.40405,-1.182356 -0.52959,-0.283266 -1.20727,-0.57887 -2.03243,-0.886768 -0.71433,-0.270951 -1.23791,-0.498941 -1.57045,-0.683679 -0.3202,-0.197055 -0.48007,-0.443391 -0.48007,-0.738973 0,-0.209372 0.0556,-0.36923 0.16639,-0.480074 0.11085,-0.123158 0.25236,-0.185002 0.42478,-0.185002 0.24633,0 0.45546,0.08019 0.62787,0.240296 0.1724,0.160107 0.26515,0.424789 0.27751,0.794266 h 4.41523 c -0.0492,-1.342437 -0.54822,-2.382817 -1.49655,-3.121773 -0.93601,-0.738955 -2.20438,-1.108459 -3.80545,-1.108459 z"
         style="font-size:18.4739px;line-height:1;font-family:poppins;-inkscape-font-specification:poppins;text-align:center;letter-spacing:0px;text-anchor:middle;fill:#2c2c2c;stroke-width:0.264583;stroke-linecap:round;stroke-linejoin:round;paint-order:markers stroke fill"
         id="path488" /></g><g
       id="g597"
       transform="translate(-63.417487,92.671297)"
       inkscape:export-filename="sample2.svg"
       inkscape:export-xdpi="96"
       inkscape:export-ydpi="96"><g
         id="g596"><g
           id="g522"
           transform="translate(-30.920332,-136.33452)"><path
             d="m 136.98494,152.96073 v 5.78621 0.87799 c 0.92729,0.39181 1.69911,0.76977 2.32131,1.13946 l 0.002,0.002 c 0.70631,0.4107 1.31571,0.98235 1.82211,1.70326 0.52786,0.75146 0.7829,1.68901 0.7829,2.77915 0,1.13804 -0.25227,2.17901 -0.76326,3.10162 a 0.33253326,0.33253326 0 0 1 -0.002,0.004 c -0.51377,0.90979 -1.26894,1.62875 -2.23862,2.14096 -0.17948,0.0948 -0.36478,0.1808 -0.55604,0.25786 h 3.65301 v -8.87079 l 2.46496,8.87078 h 4.29742 l 2.46548,-8.87078 v 8.87078 h 4.99866 v -17.7922 h -6.12986 l -3.43751,10.68049 -3.52847,-10.68049 h -4.88187 z"
             style="font-size:23.841px;line-height:1;font-family:poppins;-inkscape-font-specification:poppins;text-align:center;letter-spacing:0px;text-anchor:middle;fill:#2c2c2c;stroke-width:0.665;stroke-linecap:round;stroke-linejoin:round;paint-order:markers stroke fill"
             id="path516" /><path
             d="m 134.88688,152.65894 c -1.16104,0 -2.20913,0.20955 -3.144,0.62839 -0.44265,0.20157 -0.84154,0.44992 -1.19682,0.74466 -0.38297,0.31769 -0.71525,0.68932 -0.99684,1.11517 -0.52775,0.80418 -0.79168,1.78387 -0.79168,2.93987 -0.0101,0.77428 0.0912,1.45473 0.30437,2.04122 0.10509,0.28916 0.23754,0.5555 0.39687,0.79892 0.48252,0.73716 1.05531,1.29829 1.71876,1.68362 0.53339,0.30291 1.17412,0.6108 1.92185,0.92397 h 0.28732 a 0.33253326,0.33253326 0 0 1 0.32091,0.2465 c 0.009,0.003 0.0172,0.007 0.0258,0.0103 0.85948,0.33507 1.49251,0.6368 1.89963,0.90485 0.40712,0.25131 0.61081,0.58627 0.61081,1.00511 0,0.30157 -0.098,0.52773 -0.29404,0.67851 -0.18094,0.13403 -0.40709,0.20102 -0.67851,0.20102 -0.73884,0 -1.14623,-0.51075 -1.22163,-1.53272 h -0.57516 c -0.26574,0.99186 -0.66165,1.89206 -1.18959,2.69544 -0.42682,0.66342 -0.93668,1.24071 -1.52601,1.72858 1.24622,0.97093 2.8181,1.45676 4.716,1.45676 0.4158,0 0.81273,-0.0261 1.19114,-0.0786 0.77425,-0.10725 1.47041,-0.32425 2.08824,-0.65061 0.91979,-0.48585 1.62124,-1.15577 2.10375,-2.01021 0.48251,-0.87119 0.72347,-1.8514 0.72347,-2.94039 0,-1.03873 -0.24096,-1.90157 -0.72347,-2.58847 -0.48251,-0.6869 -1.05582,-1.22284 -1.71928,-1.60817 -0.64826,-0.38527 -1.47716,-0.78788 -2.48718,-1.20665 h -5.2e-4 c -0.87455,-0.36858 -1.51576,-0.67835 -1.92288,-0.92966 -0.39204,-0.26805 -0.58756,-0.60301 -0.58756,-1.0051 0,-0.28481 0.0674,-0.50241 0.20309,-0.65319 0.1357,-0.16754 0.30928,-0.25167 0.52038,-0.25167 0.30157,0 0.55785,0.1088 0.76894,0.3266 0.21113,0.2178 0.32447,0.57846 0.33952,1.08107 h 0.67903 v -5.45342 a 0.33253326,0.33253326 0 0 1 0.031,-0.14004 c -0.55483,-0.10792 -1.15351,-0.16175 -1.79576,-0.16175 z"
             style="font-size:23.841px;line-height:1;font-family:poppins;-inkscape-font-specification:poppins;text-align:center;letter-spacing:0px;text-anchor:middle;fill:#2c2c2c;stroke-width:0.665;stroke-linecap:round;stroke-linejoin:round;paint-order:markers stroke fill"
             id="path520" /><path
             d="m 125.62853,152.78452 c -1.6134,0 -3.01578,0.38533 -4.20698,1.156 -1.1912,0.75391 -2.11063,1.81773 -2.75901,3.19153 -0.63329,1.3738 -0.94981,2.94033 -0.94981,4.69946 0,1.75913 0.31652,3.32565 0.94981,4.69945 0.64838,1.3738 1.56781,2.44619 2.75901,3.21686 1.1912,0.75392 2.59358,1.13068 4.20698,1.13068 1.38722,0 2.62368,-0.28459 3.70933,-0.85421 0.31651,-0.16861 0.61548,-0.35638 0.8971,-0.56379 0.69779,-0.5139 1.28857,-1.14713 1.77199,-1.89911 0.5505,-0.8377 0.95367,-1.78645 1.20974,-2.84582 0.0562,-0.23249 0.10527,-0.46997 0.14728,-0.71313 0.008,-0.0449 0.0155,-0.0902 0.0227,-0.1354 h -0.35347 -4.93923 c -0.24126,0.58638 -0.58789,1.04727 -1.04025,1.38235 -0.43727,0.31832 -0.94268,0.47749 -1.51567,0.47749 -0.84439,0 -1.5152,-0.35158 -2.01279,-1.05523 -0.48251,-0.70366 -0.72399,-1.65063 -0.72399,-2.84014 0,-1.18951 0.24148,-2.13597 0.72399,-2.83962 0.49759,-0.70365 1.1684,-1.05523 2.01279,-1.05523 0.57299,0 1.0784,0.16722 1.51567,0.50229 0.45236,0.31832 0.79899,0.77065 1.04025,1.35702 h 0.51831 c -0.1336,-0.51816 -0.19483,-1.0895 -0.18706,-1.70945 v -0.002 c 1e-5,-8.5e-4 -1e-5,-8.2e-4 0,-0.002 6.5e-4,-1.20484 0.27828,-2.25343 0.84542,-3.11764 a 0.33253326,0.33253326 0 0 1 0,-0.002 c 0.21838,-0.33025 0.46672,-0.63064 0.74414,-0.90072 -0.21607,-0.14404 -0.4416,-0.27715 -0.67696,-0.39894 -1.08565,-0.58638 -2.32211,-0.87954 -3.70933,-0.87954 z"
             style="font-size:23.841px;line-height:1;font-family:poppins;-inkscape-font-specification:poppins;text-align:center;letter-spacing:0px;text-anchor:middle;fill:#2c2c2c;stroke-width:0.665;stroke-linecap:round;stroke-linejoin:round;paint-order:markers stroke fill"
             id="path512" /></g></g><path
         id="rect520"
         style="fill:#2c2c2c;stroke:none;stroke-width:0.780516;stroke-linecap:round;stroke-linejoin:round;paint-order:markers stroke fill"
         d="m 141.16053,145.21298 15.3631,5.26954 a 0.89616447,0.89616447 99.465981 0 1 -0.29076,1.74385 h -37.46181 a 0.89616483,0.89616483 80.534015 0 1 -0.29076,-1.74385 l 15.36309,-5.26954 a 11.276388,11.276388 180 0 1 7.31714,0 z"
         sodipodi:nodetypes="cccc"
         inkscape:path-effect="#path-effect522"
         inkscape:original-d="m 137.50196,143.95809 24.10578,8.26828 h -48.21155 z"
         transform="matrix(1.2281903,0,0,1,-62.296942,-136.33452)" /><rect
         style="fill:#2c2c2c;fill-opacity:1;stroke:none;stroke-width:0.865001;stroke-linecap:round;stroke-linejoin:round;paint-order:markers stroke fill"
         id="rect522"
         width="48.211552"
         height="4.3943882"
         x="82.475853"
         y="35.032059"
         ry="1.3890646"
         rx="1.3890646" /></g><g
       id="g595"
       transform="matrix(0.78639046,0,0,0.78639046,-33.107876,13.051996)"
       style="stroke-width:1.27163"
       inkscape:export-filename="sample6.svg"
       inkscape:export-xdpi="96"
       inkscape:export-ydpi="96"><path
         d="m 175.76996,123.28227 h 3.57291 a 3.5902479,3.5902483 0 0 1 -3.57291,-3.57446 z"
         style="fill:#ff634d;stroke:#2c2c2c;stroke-width:0.134805;stroke-linecap:round;stroke-linejoin:round;paint-order:markers stroke fill"
         id="path587" /><path
         d="m 184.61283,118.01747 a 5.2887908,5.2887915 0 0 1 -5.26428,5.2648 h 5.26428 z"
         style="fill:#03b1a8;stroke:#2c2c2c;stroke-width:0.134805;stroke-linecap:round;stroke-linejoin:round;paint-order:markers stroke fill"
         id="path586" /><path
         d="m 177.46081,119.70781 h -1.69085 a 3.5902479,3.5902483 0 0 0 3.57291,3.57446 h 0.002 v -3.57446 z"
         style="fill:#24906e;stroke:#2c2c2c;stroke-width:0.134805;stroke-linecap:round;stroke-linejoin:round;paint-order:markers stroke fill"
         id="path585" /><path
         d="m 175.76996,118.01644 v 1.69137 a 1.6985408,1.698541 0 0 1 1.69085,-1.69137 z"
         style="fill:#2c2c2c;stroke:#2c2c2c;stroke-width:0.134805;stroke-linecap:round;stroke-linejoin:round;paint-order:markers stroke fill"
         id="path584" /><path
         d="m 177.46081,118.01644 a 1.6985408,1.698541 0 0 0 -1.69085,1.69137 h 1.69085 z"
         style="fill:#feec06;stroke:#2c2c2c;stroke-width:0.134805;stroke-linecap:round;stroke-linejoin:round;paint-order:markers stroke fill"
         id="path583" /><path
         d="m 179.34442,119.70781 v -1.69137 h -1.88258 a 1.8917061,1.698538 0 0 1 1.88258,1.69137 z"
         style="fill:#6c5e5d;stroke:#2c2c2c;stroke-width:0.134805;stroke-linecap:round;stroke-linejoin:round;paint-order:markers stroke fill"
         id="path582" /><path
         d="m 177.46081,118.01644 v 1.69137 h 1.88361 a 1.8917061,1.698538 0 0 0 -1.88361,-1.69137 z"
         style="fill:#ffb395;stroke:#2c2c2c;stroke-width:0.134805;stroke-linecap:round;stroke-linejoin:round;paint-order:markers stroke fill"
         id="path581" /><path
         d="m 179.347,118.01644 v 5.26583 h 0.002 a 5.2887908,5.2887915 0 0 0 5.26428,-5.26583 z"
         style="fill:#7df184;stroke:#2c2c2c;stroke-width:0.134805;stroke-linecap:round;stroke-linejoin:round;paint-order:markers stroke fill"
         id="path580" /><path
         d="m 175.76996,109.17357 v 8.84287 h 1.69085 a 1.8917061,1.698538 0 0 1 0.001,0 h 1.88258 0.003 5.26583 a 8.8816214,8.8816224 0 0 0 -8.84287,-8.84287 z"
         style="fill:#fcba59;stroke:#2c2c2c;stroke-width:0.134805;stroke-linecap:round;stroke-linejoin:round;paint-order:markers stroke fill"
         id="path579" /><path
         d="m 175.76996,109.17357 a 8.8816214,8.8816224 0 0 1 8.84287,8.84235 v -8.84235 z"
         style="fill:#7b45a5;stroke:#2c2c2c;stroke-width:0.134805;stroke-linecap:round;stroke-linejoin:round;paint-order:markers stroke fill"
         id="path578" /><path
         d="m 161.66074,109.17357 v 14.1087 a 14.170413,14.170415 0 0 1 14.10922,-14.1087 z"
         style="fill:#fb882d;stroke:#2c2c2c;stroke-width:0.134805;stroke-linecap:round;stroke-linejoin:round;paint-order:markers stroke fill"
         id="path577" /><path
         d="m 175.76996,109.17357 a 14.170413,14.170415 0 0 0 -14.10922,14.1087 h 8.84184 a 8.8816232,8.8816214 0 0 1 0.002,0 5.2887919,5.2887908 0 0 1 0.002,0 h 5.26428 v -3.57446 -1.69137 z"
         style="fill:#cf3046;stroke:#2c2c2c;stroke-width:0.134805;stroke-linecap:round;stroke-linejoin:round;paint-order:markers stroke fill"
         id="path576" /><path
         d="m 175.76996,128.55171 a 3.5902486,3.5902479 0 0 1 -3.57498,3.57343 h 3.57498 z"
         style="fill:#03b1a8;stroke:#2c2c2c;stroke-width:0.134805;stroke-linecap:round;stroke-linejoin:round;paint-order:markers stroke fill"
         id="path595" /><path
         d="m 175.76996,128.55068 h -3.57498 v 1.88361 1.69085 a 3.5902486,3.5902479 0 0 0 3.57498,-3.57446 z"
         style="fill:#4f4e53;stroke:#2c2c2c;stroke-width:0.134805;stroke-linecap:round;stroke-linejoin:round;paint-order:markers stroke fill"
         id="path594" /><path
         d="m 172.19498,132.12514 a 1.6985411,1.6985408 0 0 1 -1.69085,-1.69085 v 1.69085 z"
         style="fill:#3b5fcf;stroke:#2c2c2c;stroke-width:0.134805;stroke-linecap:round;stroke-linejoin:round;paint-order:markers stroke fill"
         id="path593" /><path
         d="m 172.19498,132.12514 v -1.69085 h -1.69085 a 1.6985411,1.6985408 0 0 0 1.69085,1.69085 z"
         style="fill:#ffb395;stroke:#2c2c2c;stroke-width:0.134805;stroke-linecap:round;stroke-linejoin:round;paint-order:markers stroke fill"
         id="path592" /><path
         d="m 170.50413,130.43429 h 1.69085 v -1.88361 a 1.6985381,1.8917061 0 0 0 -1.69085,1.88361 z"
         style="fill:#ff634d;stroke:#2c2c2c;stroke-width:0.134805;stroke-linecap:round;stroke-linejoin:round;paint-order:markers stroke fill"
         id="path591" /><path
         d="m 170.50413,130.43274 a 1.6985381,1.8917061 0 0 1 1.69085,-1.88206 h -1.69085 z"
         style="fill:#cf3046;stroke:#2c2c2c;stroke-width:0.134805;stroke-linecap:round;stroke-linejoin:round;paint-order:markers stroke fill"
         id="path590" /><path
         d="m 170.50413,123.28227 v 5.26583 h 5.26583 a 5.2887919,5.2887908 0 0 0 -5.26583,-5.26583 z"
         style="fill:#029dd5;stroke:#2c2c2c;stroke-width:0.134805;stroke-linecap:round;stroke-linejoin:round;paint-order:markers stroke fill"
         id="path589" /><path
         d="m 170.50568,123.28227 a 5.2887919,5.2887908 0 0 1 5.26428,5.26531 v -5.26531 z"
         style="fill:#5d8acd;stroke:#2c2c2c;stroke-width:0.134805;stroke-linecap:round;stroke-linejoin:round;paint-order:markers stroke fill"
         id="path588" /><path
         d="m 198.72153,123.28227 a 23.052038,23.052033 0 0 1 -14.1087,21.14651 23.052038,23.052033 0 0 1 -4.42144,1.35754 23.052038,23.052033 0 0 1 -4.42143,0.44752 h 8.84235 5.2e-4 14.1087 z"
         style="fill:#fa9bed;stroke:#2c2c2c;stroke-width:0.134805;stroke-linecap:round;stroke-linejoin:round;paint-order:markers stroke fill"
         id="path575" /><path
         d="m 175.76996,123.28227 v 5.26531 a 5.2887919,5.2887908 0 0 1 0,5.2e-4 v 0.003 a 3.5902486,3.5902479 0 0 1 0,0.001 v 3.57343 12.30364 1.80506 a 23.052038,23.052033 0 0 0 4.42092,-0.44752 23.052033,23.052036 0 0 0 5.1e-4,0 23.052038,23.052033 0 0 0 4.42144,-1.35754 23.052038,23.052033 0 0 0 14.1087,-21.14651 h -14.1087 z"
         style="fill:#fcfd0c;stroke:#2c2c2c;stroke-width:0.134805;stroke-linecap:round;stroke-linejoin:round;paint-order:markers stroke fill"
         id="path574" /><path
         d="m 161.66074,132.12514 a 14.170416,14.170413 0 0 0 14.10922,14.1087 v -1.80506 -12.30364 h -3.57498 -1.69085 -7.03781 z"
         style="fill:#d93490;stroke:#2c2c2c;stroke-width:0.134805;stroke-linecap:round;stroke-linejoin:round;paint-order:markers stroke fill"
         id="path573" /><path
         d="m 170.50413,123.28227 a 8.8816232,8.8816214 0 0 0 -8.14007,5.42602 8.8816232,8.8816214 0 0 0 -0.70332,3.41685 h 1.80558 7.03781 v -1.69085 a 1.6985381,1.8917061 0 0 1 0,-0.002 v -1.88206 -0.003 z"
         style="fill:#7df184;stroke:#2c2c2c;stroke-width:0.134805;stroke-linecap:round;stroke-linejoin:round;paint-order:markers stroke fill"
         id="path572" /><path
         d="m 161.66074,123.28227 v 8.84287 a 8.8816232,8.8816214 0 0 1 0.70332,-3.41685 8.8816232,8.8816214 0 0 1 8.13852,-5.42602 z"
         style="fill:#f16a7b;stroke:#2c2c2c;stroke-width:0.134805;stroke-linecap:round;stroke-linejoin:round;paint-order:markers stroke fill"
         id="path571" /><path
         d="m 175.76996,146.23384 a 14.170416,14.170413 0 0 1 -14.10922,-14.1087 v 14.1087 z"
         style="fill:#824080;stroke:#2c2c2c;stroke-width:0.134805;stroke-linecap:round;stroke-linejoin:round;paint-order:markers stroke fill"
         id="path570" /><path
         style="opacity:1;fill:none;fill-opacity:1;stroke:#2c2c2c;stroke-width:1.09996;stroke-linecap:round;stroke-linejoin:round;paint-order:markers stroke fill"
         d="m 167.63504,143.6233 -3.72275,6.11626 0.89296,1.85208"
         id="path569"
         sodipodi:nodetypes="ccc" /><path
         style="opacity:1;fill:none;fill-opacity:1;stroke:#2c2c2c;stroke-width:1.09996;stroke-linecap:round;stroke-linejoin:round;paint-order:markers stroke fill"
         d="m 162.73831,137.48366 -4.1177,0.24789"
         id="path568" /><path
         d="m 160.15282,125.01188 a 4.8490546,6.7258897 59.664394 0 0 -5.44566,2.15284 4.8490546,6.7258897 59.664394 0 0 -1.2547,7.54734 4.8490546,6.7258897 59.664394 0 0 0.15658,0.12713 l 3.52691,-3.52692 1.55443,1.55443 -2.86184,2.86184 a 4.8490546,6.7258897 59.664394 0 0 5.8322,-1.61024 4.8490546,6.7258897 59.664394 0 0 0.13591,-0.0987 14.170416,14.170413 0 0 0 13.97331,12.21424 23.052038,23.052033 0 0 0 4.42143,-0.44752 23.052033,23.052036 0 0 1 -4.42143,-1.35754 23.052033,23.052036 0 0 1 -12.23181,-12.13414 4.8490546,6.7258897 59.664394 0 0 0.1235,-0.1695 4.8490546,6.7258897 59.664394 0 0 0.154,-5.76037 4.8490546,6.7258897 59.664394 0 0 -0.28732,-0.27337 4.8490546,6.7258897 59.664394 0 0 -1.77974,-0.89762 4.8490546,6.7258897 59.664394 0 0 -0.0879,-0.0217 4.8490546,6.7258897 59.664394 0 0 -1.50792,-0.1602 z m -1.40921,2.99568 a 1.2628485,0.61973119 0 0 1 1.26297,0.6196 1.2628485,0.61973119 0 0 1 -1.26297,0.6196 1.2628485,0.61973119 0 0 1 -1.26298,-0.6196 1.2628485,0.61973119 0 0 1 1.26298,-0.6196 z"
         style="fill:#20ba34;stroke:none;stroke-width:0.134805;stroke-linecap:round;stroke-linejoin:round;paint-order:markers stroke fill"
         id="path565" /><path
         style="opacity:1;fill:none;fill-opacity:1;stroke:#2c2c2c;stroke-width:1.09996;stroke-linecap:round;stroke-linejoin:round;paint-order:markers stroke fill"
         d="m 169.93155,143.38957 -4.11654,7.13005 2.24539,3.88912"
         id="path566" /><path
         style="opacity:1;fill:none;fill-opacity:1;stroke:#2c2c2c;stroke-width:1.09996;stroke-linecap:round;stroke-linejoin:round;paint-order:markers stroke fill"
         d="m 165.03676,138.16405 -3.37577,2.84427 -4.03256,-0.1323"
         id="path567" /><text
         xml:space="preserve"
         style="font-style:normal;font-variant:normal;font-weight:normal;font-stretch:normal;font-size:16.5255px;line-height:1;font-family:poppins;-inkscape-font-specification:poppins;text-align:center;letter-spacing:0px;writing-mode:lr-tb;direction:ltr;text-anchor:middle;fill:#2c2c2c;fill-opacity:1;stroke:none;stroke-width:1.09996;stroke-linecap:round;stroke-linejoin:round;paint-order:markers stroke fill"
         x="180.19141"
         y="123.28246"
         id="text522"><tspan
           sodipodi:role="line"
           id="tspan522"
           style="stroke-width:1.09996"
           x="180.19141"
           y="123.28246">CSM</tspan></text></g><g
       id="g610"
       transform="translate(-120,-109.99999)"><path
         style="opacity:1;fill:none;fill-opacity:1;stroke:#2c2c2c;stroke-width:0.865;stroke-linecap:round;stroke-linejoin:round;paint-order:markers stroke fill"
         d="m 145,174.99999 v -20 h 10 l 5,-5 h 10 v -5 V 135 h -10 -5 l -5,4.99999 h -5 V 135 h -10"
         id="path600" /><path
         style="opacity:1;fill:none;fill-opacity:1;stroke:#2c2c2c;stroke-width:0.865;stroke-linecap:round;stroke-linejoin:round;paint-order:markers stroke fill"
         d="m 150,174.99999 v -15 l 10,1e-5 5,-5 10,-1e-5 V 130 h -20 l -5,5 v -5 h -15"
         id="path601"
         sodipodi:nodetypes="cccccccccc" /><path
         style="opacity:1;fill:none;fill-opacity:1;stroke:#2c2c2c;stroke-width:0.865;stroke-linecap:round;stroke-linejoin:round;paint-order:markers stroke fill"
         d="m 155,174.99999 v -10 h 10 l 5,-5 h 10 v -35 h -25 -20"
         id="path602" /><path
         style="opacity:1;fill:none;fill-opacity:1;stroke:#2c2c2c;stroke-width:0.865;stroke-linecap:round;stroke-linejoin:round;paint-order:markers stroke fill"
         d="m 160,174.99999 v -5 h 10 l 5,-5 h 10 v -45 L 135,120"
         id="path603" /><path
         style="opacity:1;fill:none;fill-opacity:1;stroke:#2c2c2c;stroke-width:0.865;stroke-linecap:round;stroke-linejoin:round;paint-order:markers stroke fill"
         d="m 140,174.99999 v -25 h 10 l 5,-5 h 10 v -5 h -10 l -5,5 h -10 v -5 h -5"
         id="path604" /><circle
         style="opacity:1;fill:#2c2c2c;fill-opacity:1;stroke:none;stroke-width:0.865;stroke-linecap:round;stroke-linejoin:round;paint-order:markers stroke fill"
         id="path605"
         cx="160"
         cy="170"
         r="1.1651582" /><circle
         style="fill:#2c2c2c;fill-opacity:1;stroke:none;stroke-width:0.865;stroke-linecap:round;stroke-linejoin:round;paint-order:markers stroke fill"
         id="path605-3"
         cx="170"
         cy="170"
         r="1.1651582" /><circle
         style="fill:#2c2c2c;fill-opacity:1;stroke:none;stroke-width:0.865;stroke-linecap:round;stroke-linejoin:round;paint-order:markers stroke fill"
         id="path605-0"
         cx="175"
         cy="165"
         r="1.1651582" /><circle
         style="fill:#2c2c2c;fill-opacity:1;stroke:none;stroke-width:0.865;stroke-linecap:round;stroke-linejoin:round;paint-order:markers stroke fill"
         id="path605-6"
         cx="185"
         cy="165"
         r="1.1651582" /><circle
         style="fill:#2c2c2c;fill-opacity:1;stroke:none;stroke-width:0.865;stroke-linecap:round;stroke-linejoin:round;paint-order:markers stroke fill"
         id="path605-9"
         cx="185"
         cy="120"
         r="1.1651582" /><circle
         style="fill:#2c2c2c;fill-opacity:1;stroke:none;stroke-width:0.865;stroke-linecap:round;stroke-linejoin:round;paint-order:markers stroke fill"
         id="path605-8"
         cx="155"
         cy="165"
         r="1.1651582" /><circle
         style="fill:#2c2c2c;fill-opacity:1;stroke:none;stroke-width:0.865;stroke-linecap:round;stroke-linejoin:round;paint-order:markers stroke fill"
         id="path605-5"
         cx="165"
         cy="165"
         r="1.1651582" /><circle
         style="fill:#2c2c2c;fill-opacity:1;stroke:none;stroke-width:0.865;stroke-linecap:round;stroke-linejoin:round;paint-order:markers stroke fill"
         id="path605-7"
         cx="170.16516"
         cy="160"
         r="1.1651582" /><circle
         style="fill:#2c2c2c;fill-opacity:1;stroke:none;stroke-width:0.865;stroke-linecap:round;stroke-linejoin:round;paint-order:markers stroke fill"
         id="path605-88"
         cx="180"
         cy="160"
         r="1.1651582" /><circle
         style="fill:#2c2c2c;fill-opacity:1;stroke:none;stroke-width:0.865;stroke-linecap:round;stroke-linejoin:round;paint-order:markers stroke fill"
         id="path605-98"
         cx="180"
         cy="125"
         r="1.1651582" /><circle
         style="fill:#2c2c2c;fill-opacity:1;stroke:none;stroke-width:0.865;stroke-linecap:round;stroke-linejoin:round;paint-order:markers stroke fill"
         id="path605-82"
         cx="150"
         cy="160"
         r="1.1651582" /><circle
         style="fill:#2c2c2c;fill-opacity:1;stroke:none;stroke-width:0.865;stroke-linecap:round;stroke-linejoin:round;paint-order:markers stroke fill"
         id="path605-81"
         cx="160"
         cy="160"
         r="1.1651582" /><circle
         style="fill:#2c2c2c;fill-opacity:1;stroke:none;stroke-width:0.865;stroke-linecap:round;stroke-linejoin:round;paint-order:markers stroke fill"
         id="path605-2"
         cx="165.16516"
         cy="155"
         r="1.1651582" /><circle
         style="fill:#2c2c2c;fill-opacity:1;stroke:none;stroke-width:0.865;stroke-linecap:round;stroke-linejoin:round;paint-order:markers stroke fill"
         id="path605-62"
         cx="175"
         cy="155"
         r="1.1651582" /><circle
         style="fill:#2c2c2c;fill-opacity:1;stroke:none;stroke-width:0.865;stroke-linecap:round;stroke-linejoin:round;paint-order:markers stroke fill"
         id="path605-24"
         cx="175"
         cy="130"
         r="1.1651582" /><circle
         style="fill:#2c2c2c;fill-opacity:1;stroke:none;stroke-width:0.865;stroke-linecap:round;stroke-linejoin:round;paint-order:markers stroke fill"
         id="path605-1"
         cx="155"
         cy="130"
         r="1.1651582" /><circle
         style="fill:#2c2c2c;fill-opacity:1;stroke:none;stroke-width:0.865;stroke-linecap:round;stroke-linejoin:round;paint-order:markers stroke fill"
         id="path605-29"
         cx="149.83484"
         cy="135"
         r="1.1651582" /><circle
         style="fill:#2c2c2c;fill-opacity:1;stroke:none;stroke-width:0.865;stroke-linecap:round;stroke-linejoin:round;paint-order:markers stroke fill"
         id="path605-39"
         cx="149.83484"
         cy="130"
         r="1.1651582" /><circle
         style="fill:#2c2c2c;fill-opacity:1;stroke:none;stroke-width:0.865;stroke-linecap:round;stroke-linejoin:round;paint-order:markers stroke fill"
         id="path605-53"
         cx="144.83484"
         cy="135"
         r="1.1651582" /><circle
         style="fill:#2c2c2c;fill-opacity:1;stroke:none;stroke-width:0.865;stroke-linecap:round;stroke-linejoin:round;paint-order:markers stroke fill"
         id="path605-86"
         cx="144.83484"
         cy="140"
         r="1.1651582" /><circle
         style="fill:#2c2c2c;fill-opacity:1;stroke:none;stroke-width:0.865;stroke-linecap:round;stroke-linejoin:round;paint-order:markers stroke fill"
         id="path605-94"
         cx="149.83484"
         cy="140"
         r="1.1651582" /><circle
         style="fill:#2c2c2c;fill-opacity:1;stroke:none;stroke-width:0.865;stroke-linecap:round;stroke-linejoin:round;paint-order:markers stroke fill"
         id="path605-825"
         cx="154.83484"
         cy="135"
         r="1.1651582" /><circle
         style="fill:#2c2c2c;fill-opacity:1;stroke:none;stroke-width:0.865;stroke-linecap:round;stroke-linejoin:round;paint-order:markers stroke fill"
         id="path605-25"
         cx="169.83484"
         cy="135"
         r="1.1651582" /><circle
         style="fill:#2c2c2c;fill-opacity:1;stroke:none;stroke-width:0.865;stroke-linecap:round;stroke-linejoin:round;paint-order:markers stroke fill"
         id="path605-396"
         cx="165"
         cy="140"
         r="1.1651582" /><circle
         style="fill:#2c2c2c;fill-opacity:1;stroke:none;stroke-width:0.865;stroke-linecap:round;stroke-linejoin:round;paint-order:markers stroke fill"
         id="path605-69"
         cx="165"
         cy="145"
         r="1.1651582" /><circle
         style="fill:#2c2c2c;fill-opacity:1;stroke:none;stroke-width:0.865;stroke-linecap:round;stroke-linejoin:round;paint-order:markers stroke fill"
         id="path605-65"
         cx="154.83484"
         cy="145"
         r="1.1651582" /><circle
         style="fill:#2c2c2c;fill-opacity:1;stroke:none;stroke-width:0.865;stroke-linecap:round;stroke-linejoin:round;paint-order:markers stroke fill"
         id="path605-4"
         cx="150"
         cy="150"
         r="1.1651582" /><circle
         style="fill:#2c2c2c;fill-opacity:1;stroke:none;stroke-width:0.865;stroke-linecap:round;stroke-linejoin:round;paint-order:markers stroke fill"
         id="path605-33"
         cx="140"
         cy="150"
         r="1.1651582" /><circle
         style="fill:#2c2c2c;fill-opacity:1;stroke:none;stroke-width:0.865;stroke-linecap:round;stroke-linejoin:round;paint-order:markers stroke fill"
         id="path605-8253"
         cx="145"
         cy="155"
         r="1.1651582" /><circle
         style="fill:#2c2c2c;fill-opacity:1;stroke:none;stroke-width:0.865;stroke-linecap:round;stroke-linejoin:round;paint-order:markers stroke fill"
         id="path605-21"
         cx="155.08258"
         cy="155"
         r="1.1651582" /><circle
         style="fill:#2c2c2c;fill-opacity:1;stroke:none;stroke-width:0.865;stroke-linecap:round;stroke-linejoin:round;paint-order:markers stroke fill"
         id="path605-15"
         cx="160"
         cy="150"
         r="1.1651582" /><circle
         style="fill:#2c2c2c;fill-opacity:1;stroke:none;stroke-width:0.865;stroke-linecap:round;stroke-linejoin:round;paint-order:markers stroke fill"
         id="path605-92"
         cx="170"
         cy="150"
         r="1.1651582" /></g><g
       id="g725"
       inkscape:export-filename="sample4.svg"
       inkscape:export-xdpi="96"
       inkscape:export-ydpi="96"><g
         id="g686"
         transform="matrix(0.70318183,0,0,0.70318183,57.775672,-1.7645065)"
         style="stroke-width:1.42211"><path
           id="rect520-8"
           style="fill:#2c2c2c;stroke:none;stroke-width:1.10998;stroke-linecap:round;stroke-linejoin:round;paint-order:markers stroke fill"
           d="m 141.16053,145.21298 15.3631,5.26954 a 0.89616447,0.89616447 99.465981 0 1 -0.29076,1.74385 h -37.46181 a 0.89616483,0.89616483 80.534015 0 1 -0.29076,-1.74385 l 15.36309,-5.26954 a 11.276388,11.276388 180 0 1 7.31714,0 z"
           sodipodi:nodetypes="cccc"
           inkscape:path-effect="#path-effect522-4"
           inkscape:original-d="m 137.50196,143.95809 24.10578,8.26828 h -48.21155 z"
           transform="matrix(1.2281903,0,0,1,-105.09329,-123.46124)" /><rect
           style="fill:#2c2c2c;fill-opacity:1;stroke:none;stroke-width:1.23012;stroke-linecap:round;stroke-linejoin:round;paint-order:markers stroke fill"
           id="rect522-8"
           width="48.211552"
           height="4.3943882"
           x="39.679508"
           y="60.802803"
           ry="1.9753988"
           rx="1.9753988" /></g><ellipse
         style="fill:#4f4e53;fill-opacity:1;stroke:none;stroke-width:0.865022;stroke-linecap:round;stroke-linejoin:round;paint-order:markers stroke fill"
         id="path599"
         cx="103.19946"
         cy="-25.305824"
         transform="matrix(0.86855321,0.49559592,-0.50441705,0.86346016,0,0)"
         rx="10.294829"
         ry="10.234468" /><path
         d="m 102.63376,25.623525 v 2.62415 0.398184 c 0.42054,0.177692 0.77058,0.349104 1.05276,0.516765 l 9e-4,9.07e-4 c 0.32033,0.18626 0.5967,0.445513 0.82636,0.772459 0.2394,0.3408 0.35506,0.765996 0.35506,1.260395 0,0.516122 -0.11441,0.98822 -0.34615,1.40664 a 0.15080977,0.15080977 0 0 1 -9.1e-4,0.0018 c -0.233,0.412606 -0.57548,0.738667 -1.01525,0.970963 -0.0814,0.04299 -0.16543,0.082 -0.25217,0.116944 h 1.6567 v -4.023063 l 1.1179,4.023059 h 1.94896 l 1.11814,-4.023059 v 4.023059 h 2.26698 v -8.069082 h -2.78 l -1.55897,4.843793 -1.60023,-4.843793 h -2.21401 z"
         style="font-size:23.841px;line-height:1;font-family:poppins;-inkscape-font-specification:poppins;text-align:center;letter-spacing:0px;text-anchor:middle;fill:#feec06;stroke-width:0.665002;stroke-linecap:round;stroke-linejoin:round;paint-order:markers stroke fill"
         id="path516-3" /><path
         d="m 101.68225,25.486658 c -0.52655,0 -1.00188,0.09504 -1.42586,0.284986 -0.20075,0.09142 -0.381649,0.204047 -0.542775,0.337717 -0.173683,0.144078 -0.324378,0.312618 -0.452084,0.505749 -0.239344,0.36471 -0.359041,0.809017 -0.359041,1.333284 -0.0046,0.351149 0.04136,0.659746 0.138037,0.925729 0.04766,0.131139 0.107728,0.251929 0.179987,0.362325 0.218832,0.334315 0.478602,0.588797 0.779486,0.763551 0.2419,0.137376 0.53249,0.277009 0.8716,0.419037 h 0.1303 a 0.15080977,0.15080977 0 0 1 0.14554,0.111792 c 0.004,0.0014 0.008,0.0032 0.0117,0.0047 0.38979,0.15196 0.67688,0.2888 0.86152,0.410365 0.18463,0.113974 0.27701,0.265886 0.27701,0.455837 0,0.136767 -0.0444,0.239335 -0.13335,0.307716 -0.0821,0.06078 -0.18463,0.09117 -0.30772,0.09117 -0.33508,0 -0.51984,-0.231635 -0.55403,-0.695118 h -0.26085 c -0.12051,0.449828 -0.30007,0.858085 -0.5395,1.222432 -0.19357,0.300873 -0.4248,0.562684 -0.692069,0.783942 0.565179,0.440334 1.278059,0.660666 2.138789,0.660666 0.18857,0 0.36859,-0.01184 0.5402,-0.03565 0.35114,-0.04864 0.66686,-0.147053 0.94706,-0.295063 0.41714,-0.220342 0.73526,-0.524163 0.95409,-0.911666 0.21882,-0.395101 0.3281,-0.839643 0.3281,-1.33352 0,-0.471084 -0.10928,-0.862397 -0.3281,-1.173919 -0.21883,-0.311521 -0.47884,-0.554579 -0.77973,-0.729333 -0.29399,-0.174727 -0.66992,-0.357318 -1.12798,-0.547238 h -2.3e-4 c -0.39663,-0.167157 -0.68743,-0.307643 -0.87206,-0.421617 -0.1778,-0.121565 -0.26647,-0.273476 -0.26647,-0.455831 0,-0.129166 0.0306,-0.227852 0.0921,-0.296233 0.0615,-0.07598 0.14027,-0.114137 0.236,-0.114137 0.13677,0 0.253,0.04934 0.34873,0.148119 0.0957,0.09878 0.14715,0.262342 0.15398,0.490284 h 0.30795 v -2.473223 a 0.15080977,0.15080977 0 0 1 0.0141,-0.06351 c -0.25162,-0.04894 -0.52314,-0.07336 -0.81441,-0.07336 z"
         style="font-size:23.841px;line-height:1;font-family:poppins;-inkscape-font-specification:poppins;text-align:center;letter-spacing:0px;text-anchor:middle;fill:#feec06;stroke-width:0.665002;stroke-linecap:round;stroke-linejoin:round;paint-order:markers stroke fill"
         id="path520-4" /><path
         d="m 93.917912,29.09177 c -0.01626,0.179976 -0.02437,0.364863 -0.02437,0.554735 0,0.797796 0.143548,1.508242 0.430757,2.131286 0.294052,0.623043 0.711027,1.109391 1.251257,1.458903 0.540231,0.341916 1.176235,0.512784 1.90794,0.512784 0.629129,0 1.189888,-0.129067 1.68225,-0.3874 0.143542,-0.07647 0.279132,-0.161624 0.406852,-0.255689 0.05571,-0.04104 0.109941,-0.08358 0.162647,-0.127964 0.246661,-0.20772 0.460335,-0.452321 0.640975,-0.733316 0.24966,-0.379912 0.43251,-0.810187 0.54864,-1.290631 0.008,-0.03385 0.0159,-0.06786 0.0234,-0.102182 0.0159,-0.0726 0.0304,-0.146357 0.0434,-0.221237 0.004,-0.02036 0.007,-0.0409 0.0103,-0.0614 h -0.1603 -0.35951 -1.880521 c -0.109416,0.265934 -0.266617,0.474952 -0.47177,0.62692 -0.19831,0.144364 -0.427523,0.21655 -0.687384,0.21655 -0.109889,0 -0.213366,-0.01311 -0.310295,-0.03937 -0.211141,-0.05721 -0.391442,-0.176654 -0.541141,-0.358574 -0.940367,-0.631291 -1.836344,-1.275889 -2.673132,-1.923408 z"
         style="font-size:23.841px;line-height:1;font-family:poppins;-inkscape-font-specification:poppins;text-align:center;letter-spacing:0px;text-anchor:middle;fill:#feec06;stroke-width:0.665002;stroke-linecap:round;stroke-linejoin:round;paint-order:markers stroke fill"
         id="path678" /><path
         d="m 95.307912,26.25646 c 0.480684,0.569171 1.044852,1.14555 1.678734,1.714592 0.136992,-0.06058 0.288957,-0.09093 0.455834,-0.09093 0.259861,0 0.489073,0.07584 0.687383,0.227799 0.205153,0.144364 0.362354,0.349505 0.47177,0.615435 h 0.235065 c -0.06059,-0.234995 -0.08836,-0.494111 -0.08484,-0.77527 v -9.52e-4 c 5e-6,-3.86e-4 -4e-6,-1.68e-4 0,-6.8e-4 2.95e-4,-0.546417 0.126208,-1.021971 0.383416,-1.413905 a 0.15080977,0.15080977 0 0 1 0,-9.53e-4 c 0.09904,-0.149774 0.211666,-0.286007 0.337481,-0.408493 -0.09799,-0.06532 -0.200274,-0.125693 -0.307014,-0.180927 -0.492361,-0.265934 -1.05312,-0.398884 -1.682249,-0.398884 v 2.34e-4 c -0.731706,0 -1.36771,0.174755 -1.90794,0.524268 -0.09279,0.05873 -0.182117,0.121637 -0.267641,0.188661 z"
         style="font-size:23.841px;line-height:1;font-family:poppins;-inkscape-font-specification:poppins;text-align:center;letter-spacing:0px;text-anchor:middle;fill:#feec06;stroke-width:0.665002;stroke-linecap:round;stroke-linejoin:round;paint-order:markers stroke fill"
         id="path677" /><path
         d="m 103.11263,33.745024 c -0.1896,0.06487 -0.39081,0.111924 -0.60301,0.141321 -0.1791,0.02485 -0.36572,0.03728 -0.5606,0.03728 -0.0361,0 -0.0719,-4.13e-4 -0.10757,-0.0014 a 16.742441,4.7819058 29.657214 0 0 7.24202,3.149119 16.742441,4.7819058 29.657214 0 0 8.08759,0.126087 16.742441,4.7819058 29.657214 0 0 -3.16881,-5.953025 16.742441,4.7819058 29.657214 0 0 -1.3075,-1.184464 10.204151,10.324879 89.999987 0 1 -1.2222,4.103441 11.652256,4.7818777 29.590854 0 1 -3.88712,-0.319903 h -1.55663 a 0.15080977,0.15080977 0 0 1 -0.14531,-0.110617 l -0.11671,-0.419745 a 11.652256,4.7818777 29.590854 0 1 -0.7052,-0.253811 v 0.633714 a 0.15080977,0.15080977 0 0 1 -0.15069,0.150459 h -1.65647 a 0.15080977,0.15080977 0 0 1 -0.14179,-0.09867 z"
         style="fill:#3b5fcf;stroke-width:0.865004;stroke-linecap:round;stroke-linejoin:round;paint-order:markers stroke fill"
         id="path669" /><path
         d="m 90.915736,19.638785 a 16.742441,4.7819058 29.657214 0 0 -2.828044,0.96393 16.742441,4.7819058 29.657214 0 0 4.154298,6.859068 16.742441,4.7819058 29.657214 0 0 5.066669,3.792911 c 0.04309,0.0053 0.08779,0.008 0.134289,0.008 0.231935,0 0.424908,-0.06205 0.597857,-0.187957 0.181151,-0.13447 0.321138,-0.318253 0.421617,-0.562468 a 0.15080977,0.15080977 0 0 1 0.138977,-0.09374 h 1.276334 a 11.652256,4.7818777 29.590854 0 1 -6.282069,-6.45551 10.204151,10.324879 89.999987 0 1 2.984364,-3.097795 16.742441,4.7819058 29.657214 0 0 -1.69139,-0.526846 16.742441,4.7819058 29.657214 0 0 -3.972902,-0.69957 z"
         style="fill:#3b5fcf;stroke-width:0.865004;stroke-linecap:round;stroke-linejoin:round;paint-order:markers stroke fill"
         id="path685" /></g><g
       id="g689"
       inkscape:export-filename="sample3.svg"
       inkscape:export-xdpi="96"
       inkscape:export-ydpi="96"><circle
         style="opacity:1;fill:#3b5fcf;fill-opacity:1;stroke:none;stroke-width:1;stroke-linecap:round;stroke-linejoin:round;stroke-opacity:1;paint-order:markers stroke fill"
         id="path687"
         cx="135.13139"
         cy="124.05444"
         r="13.967873"
         transform="rotate(30)" /><path
         d="m 48.3935,162.69324 a 34.671652,7.8283154 30 0 0 -23.420122,-5.02927 34.671652,7.8283154 30 0 0 16.065277,17.76824 34.671652,7.8283154 30 0 0 10.046685,6.34704 34.671652,7.8283154 30 0 0 10.520949,5.52769 34.671652,7.8283154 30 0 0 23.420384,5.02881 34.671652,7.8283154 30 0 0 -16.065539,-17.76778 13.967873,13.967873 0 0 1 -0.342971,3.53856 22.603613,5.1035414 30 0 1 5.95687,8.19496 22.603613,5.1035414 30 0 1 -10.07574,-1.06087 22.603613,5.1035414 30 0 1 -12.051503,-5.8212 22.603613,5.1035414 30 0 1 -11.065714,-7.52553 22.603613,5.1035414 30 0 1 -5.957506,-8.19593 22.603613,5.1035414 30 0 1 10.076376,1.06184 13.967873,13.967873 0 0 1 2.892554,-2.06656 z"
         style="opacity:1;fill:#2c2c2c;stroke-linecap:round;stroke-linejoin:round;paint-order:markers stroke fill"
         id="path689" /></g><text
       xml:space="preserve"
       style="font-style:normal;font-variant:normal;font-weight:normal;font-stretch:normal;font-size:8.30052px;line-height:1;font-family:poppins;-inkscape-font-specification:poppins;text-align:center;letter-spacing:0px;writing-mode:lr-tb;direction:ltr;text-anchor:middle;opacity:1;fill:#24906e;fill-opacity:1;stroke:none;stroke-width:0.999998;stroke-linecap:round;stroke-linejoin:round;stroke-opacity:1;paint-order:markers stroke fill"
       x="145.80186"
       y="165.38313"
       id="text695"
       inkscape:export-filename="sample8.svg"
       inkscape:export-xdpi="96"
       inkscape:export-ydpi="96"><tspan
         sodipodi:role="line"
         id="tspan695"
         style="text-align:center;text-anchor:middle;stroke-width:0.999998"
         x="145.80186"
         y="165.38313">COMMUNITY</tspan><tspan
         sodipodi:role="line"
         style="text-align:center;text-anchor:middle;stroke-width:0.999998"
         x="145.80186"
         y="173.68365"
         id="tspan696">SCIENCE</tspan><tspan
         sodipodi:role="line"
         style="text-align:center;text-anchor:middle;stroke-width:0.999998"
         x="145.80186"
         y="181.98418"
         id="tspan697">MUSEUM</tspan></text><g
       id="g778"
       transform="translate(3.7965408e-6,-25.743597)"
       inkscape:export-filename="sample7.svg"
       inkscape:export-xdpi="96"
       inkscape:export-ydpi="96"><rect
         style="fill:#20ba34;fill-opacity:1;stroke:none;stroke-width:0.25;stroke-linecap:round;stroke-linejoin:round;stroke-opacity:1;paint-order:markers stroke fill"
         id="rect742"
         width="8.9306889"
         height="7.7435918"
         x="124.81192"
         y="219.1282" /><rect
         style="fill:#03b1a8;fill-opacity:1;stroke:none;stroke-width:0.25;stroke-linecap:round;stroke-linejoin:round;stroke-opacity:1;paint-order:markers stroke fill"
         id="rect742-2"
         width="8.9306889"
         height="7.7435918"
         x="133.7426"
         y="219.1282" /><rect
         style="fill:#2278ef;fill-opacity:1;stroke:none;stroke-width:0.25;stroke-linecap:round;stroke-linejoin:round;stroke-opacity:1;paint-order:markers stroke fill"
         id="rect742-4"
         width="8.9306889"
         height="7.7435918"
         x="142.67328"
         y="219.1282" /><rect
         style="fill:#cf3046;fill-opacity:1;stroke:none;stroke-width:0.25;stroke-linecap:round;stroke-linejoin:round;stroke-opacity:1;paint-order:markers stroke fill"
         id="rect742-2-5"
         width="8.9306889"
         height="7.7435918"
         x="151.60397"
         y="219.1282" /><rect
         style="fill:#fa9bed;fill-opacity:1;stroke:none;stroke-width:0.25;stroke-linecap:round;stroke-linejoin:round;stroke-opacity:1;paint-order:markers stroke fill"
         id="rect742-0"
         width="8.9306889"
         height="7.7435918"
         x="160.53465"
         y="219.1282" /><rect
         style="fill:#fcba59;fill-opacity:1;stroke:none;stroke-width:0.25;stroke-linecap:round;stroke-linejoin:round;stroke-opacity:1;paint-order:markers stroke fill"
         id="rect742-2-2"
         width="8.9306889"
         height="7.7435918"
         x="169.46533"
         y="219.1282" /><rect
         style="fill:#fcfd0c;fill-opacity:1;stroke:none;stroke-width:0.25;stroke-linecap:round;stroke-linejoin:round;stroke-opacity:1;paint-order:markers stroke fill"
         id="rect742-2-5-1"
         width="8.9306889"
         height="7.7435918"
         x="178.39601"
         y="219.1282" /><rect
         style="fill:#ff634d;fill-opacity:1;stroke:none;stroke-width:0.25;stroke-linecap:round;stroke-linejoin:round;stroke-opacity:1;paint-order:markers stroke fill"
         id="rect742-0-5"
         width="8.9306889"
         height="7.7435918"
         x="187.32669"
         y="219.1282" /><rect
         style="fill:#5d8acd;fill-opacity:1;stroke:none;stroke-width:0.25;stroke-linecap:round;stroke-linejoin:round;stroke-opacity:1;paint-order:markers stroke fill"
         id="rect742-2-2-5"
         width="8.9306889"
         height="7.7435918"
         x="196.25737"
         y="219.1282" /><rect
         style="fill:#5c6063;fill-opacity:1;stroke:none;stroke-width:0.25;stroke-linecap:round;stroke-linejoin:round;stroke-opacity:1;paint-order:markers stroke fill"
         id="rect742-4-1"
         width="8.9306889"
         height="7.7435918"
         x="133.7426"
         y="226.8718" /><rect
         style="fill:#03c356;fill-opacity:1;stroke:none;stroke-width:0.25;stroke-linecap:round;stroke-linejoin:round;stroke-opacity:1;paint-order:markers stroke fill"
         id="rect742-2-5-17"
         width="8.9306889"
         height="7.7435918"
         x="142.67329"
         y="226.8718" /><rect
         style="fill:#3b5fcf;fill-opacity:1;stroke:none;stroke-width:0.25;stroke-linecap:round;stroke-linejoin:round;stroke-opacity:1;paint-order:markers stroke fill"
         id="rect742-0-3"
         width="8.9306889"
         height="7.7435918"
         x="151.60397"
         y="226.8718" /><rect
         style="fill:#029dd5;fill-opacity:1;stroke:none;stroke-width:0.25;stroke-linecap:round;stroke-linejoin:round;stroke-opacity:1;paint-order:markers stroke fill"
         id="rect742-2-2-0"
         width="8.9306889"
         height="7.7435918"
         x="160.53465"
         y="226.8718" /><rect
         style="fill:#7b45a5;fill-opacity:1;stroke:none;stroke-width:0.25;stroke-linecap:round;stroke-linejoin:round;stroke-opacity:1;paint-order:markers stroke fill"
         id="rect742-2-5-1-0"
         width="8.9306889"
         height="7.7435918"
         x="169.46533"
         y="226.8718" /><rect
         style="fill:#cf3046;fill-opacity:1;stroke:none;stroke-width:0.25;stroke-linecap:round;stroke-linejoin:round;stroke-opacity:1;paint-order:markers stroke fill"
         id="rect742-0-5-4"
         width="8.9306889"
         height="7.7435918"
         x="178.39601"
         y="226.8718" /><rect
         style="fill:#f16a7b;fill-opacity:1;stroke:none;stroke-width:0.25;stroke-linecap:round;stroke-linejoin:round;stroke-opacity:1;paint-order:markers stroke fill"
         id="rect742-2-2-5-8"
         width="8.9306889"
         height="7.7435918"
         x="187.32669"
         y="226.8718" /><rect
         style="fill:#f16a7b;fill-opacity:1;stroke:none;stroke-width:0.25;stroke-linecap:round;stroke-linejoin:round;stroke-opacity:1;paint-order:markers stroke fill"
         id="rect742-2-5-8"
         width="8.9306889"
         height="7.7435918"
         x="138.20795"
         y="-242.35898"
         transform="scale(1,-1)" /><rect
         style="fill:#fa9bed;fill-opacity:1;stroke:none;stroke-width:0.25;stroke-linecap:round;stroke-linejoin:round;stroke-opacity:1;paint-order:markers stroke fill"
         id="rect742-0-8"
         width="8.9306889"
         height="7.7435918"
         x="147.13863"
         y="-242.35898"
         transform="scale(1,-1)" /><rect
         style="fill:#ff634d;fill-opacity:1;stroke:none;stroke-width:0.25;stroke-linecap:round;stroke-linejoin:round;stroke-opacity:1;paint-order:markers stroke fill"
         id="rect742-2-2-57"
         width="8.9306889"
         height="7.7435918"
         x="156.06931"
         y="-242.35898"
         transform="scale(1,-1)" /><rect
         style="fill:#feec06;fill-opacity:1;stroke:none;stroke-width:0.25;stroke-linecap:round;stroke-linejoin:round;stroke-opacity:1;paint-order:markers stroke fill"
         id="rect742-2-5-1-7"
         width="8.9306889"
         height="7.7435918"
         x="164.99998"
         y="-242.35898"
         transform="scale(1,-1)" /><rect
         style="fill:#5d8acd;fill-opacity:1;stroke:none;stroke-width:0.25;stroke-linecap:round;stroke-linejoin:round;stroke-opacity:1;paint-order:markers stroke fill"
         id="rect742-0-5-0"
         width="8.9306889"
         height="7.7435918"
         x="173.93066"
         y="-242.35898"
         transform="scale(1,-1)" /><rect
         style="fill:#24906e;fill-opacity:1;stroke:none;stroke-width:0.25;stroke-linecap:round;stroke-linejoin:round;stroke-opacity:1;paint-order:markers stroke fill"
         id="rect742-2-2-5-89"
         width="8.9306889"
         height="7.7435918"
         x="182.86134"
         y="-242.35898"
         transform="scale(1,-1)" /><path
         d="m 183.79486,235.54886 v 5.87665 h 1.84278 v -2.93006 l 0.90485,2.93006 h 1.57717 l 0.90485,-2.93006 v 2.93006 h 1.834 v -5.87665 h -2.24948 l -1.26142,3.52744 -1.29501,-3.52744 z"
         id="path767" /><path
         d="m 175.79384,235.51992 v 3.31195 c 0,0.56443 0.10769,1.04267 0.3235,1.43557 0.21581,0.39289 0.51476,0.6891 0.89658,0.88831 0.38736,0.19922 0.83006,0.29869 1.32809,0.29869 0.49803,0 0.94893,-0.0995 1.35289,-0.29869 0.40396,-0.19921 0.72257,-0.49542 0.95498,-0.88831 0.23241,-0.39843 0.3483,-0.87667 0.3483,-1.43557 v -3.31195 h -1.83452 v 3.31195 c 0,0.27115 -0.0634,0.48651 -0.19068,0.64698 -0.12727,0.15495 -0.32402,0.23255 -0.58963,0.23255 -0.26562,0 -0.4591,-0.0776 -0.58084,-0.23255 -0.11621,-0.16047 -0.17415,-0.37583 -0.17415,-0.64698 v -3.31195 z"
         id="path766" /><path
         d="m 167.50628,235.54886 v 5.87665 h 3.9181 v -1.46916 h -2.07532 v -0.82993 h 1.82624 v -1.38648 h -1.82624 v -0.72192 h 2.07532 v -1.46916 z"
         id="path765" /><path
         d="m 160.43904,235.47004 c -0.42609,0 -0.81084,0.0694 -1.15393,0.20774 -0.33756,0.13834 -0.60591,0.34276 -0.80512,0.61391 -0.19368,0.26562 -0.29042,0.58918 -0.29042,0.971 -0.006,0.38183 0.0803,0.69497 0.25735,0.93845 0.17708,0.24348 0.38748,0.42876 0.63096,0.55604 0.24902,0.12728 0.56164,0.25735 0.93793,0.39015 0.31542,0.11068 0.54771,0.21015 0.69712,0.29869 0.14941,0.083 0.22427,0.19342 0.22427,0.33176 0,0.0996 -0.0361,0.17448 -0.108,0.22428 -0.0664,0.0443 -0.14947,0.0667 -0.24908,0.0667 -0.27115,0 -0.42037,-0.16887 -0.44804,-0.50643 h -1.95905 c 0.0387,0.63638 0.28521,1.1206 0.73897,1.45263 0.4593,0.32649 1.04027,0.48937 1.74305,0.48937 0.46483,0 0.86599,-0.0798 1.20354,-0.24029 0.33756,-0.16047 0.59498,-0.38182 0.77205,-0.66404 0.17708,-0.28776 0.26562,-0.61183 0.26562,-0.97152 0,-0.34309 -0.0885,-0.62784 -0.26562,-0.85473 -0.17707,-0.22688 -0.38748,-0.40396 -0.63097,-0.53123 -0.23795,-0.12728 -0.54237,-0.26009 -0.91312,-0.39843 -0.32096,-0.12174 -0.55597,-0.22395 -0.70539,-0.30696 -0.14387,-0.0885 -0.216,-0.19947 -0.216,-0.33227 0,-0.0941 0.0251,-0.16621 0.0749,-0.21601 0.0498,-0.0553 0.11321,-0.0827 0.19068,-0.0827 0.11068,0 0.20469,0.0361 0.28216,0.108 0.0777,0.0719 0.1192,0.19055 0.12454,0.35657 h 1.98386 c -0.0221,-0.60318 -0.24622,-1.07048 -0.67232,-1.4025 -0.42056,-0.33202 -0.99059,-0.49816 -1.70997,-0.49816 z"
         id="path764" /><path
         d="m 149.0018,235.51992 v 3.31195 c 0,0.56443 0.1082,1.04267 0.32402,1.43557 0.21581,0.39289 0.51424,0.6891 0.89606,0.88831 0.38736,0.19922 0.83006,0.29869 1.32809,0.29869 0.49803,0 0.94945,-0.0995 1.3534,-0.29869 0.40396,-0.19921 0.72206,-0.49542 0.95447,-0.88831 0.23242,-0.39843 0.3483,-0.87667 0.3483,-1.43557 v -3.31195 h -1.834 v 3.31195 c 0,0.27115 -0.0639,0.48651 -0.1912,0.64698 -0.12728,0.15495 -0.32349,0.23255 -0.58911,0.23255 -0.26562,0 -0.45962,-0.0776 -0.58136,-0.23255 -0.11622,-0.16047 -0.17415,-0.37583 -0.17415,-0.64698 v -3.31195 z"
         id="path763" /><path
         d="m 139.14147,235.54886 v 5.87665 h 1.84278 v -2.93006 l 0.90486,2.93006 h 1.57716 l 0.90434,-2.93006 v 2.93006 h 1.83451 v -5.87665 h -2.24947 l -1.26142,3.52744 -1.29501,-3.52744 z"
         id="path762" /><path
         d="m 138.11234,227.72625 c -0.4261,0 -0.81033,0.0694 -1.15342,0.20774 -0.33755,0.13834 -0.60591,0.34328 -0.80512,0.61443 -0.19368,0.26562 -0.29094,0.58918 -0.29094,0.971 -0.006,0.38183 0.0803,0.69445 0.25735,0.93793 0.17707,0.24348 0.38748,0.42877 0.63097,0.55604 0.24901,0.12728 0.56163,0.25735 0.93793,0.39016 0.31542,0.11067 0.54771,0.21015 0.69711,0.29869 0.14941,0.083 0.22428,0.19393 0.22428,0.33228 0,0.0996 -0.0361,0.17447 -0.10801,0.22427 -0.0664,0.0443 -0.14947,0.0661 -0.24908,0.0661 -0.27115,0 -0.42036,-0.16887 -0.44803,-0.50643 h -1.95905 c 0.0387,0.63637 0.2852,1.1206 0.73897,1.45262 0.45929,0.32649 1.04027,0.4899 1.74305,0.4899 0.46482,0 0.86599,-0.0803 1.20354,-0.24082 0.33755,-0.16047 0.59497,-0.38182 0.77205,-0.66404 0.17708,-0.28775 0.26561,-0.61131 0.26561,-0.971 0,-0.34309 -0.0885,-0.62836 -0.26561,-0.85524 -0.17708,-0.22688 -0.38749,-0.40396 -0.63097,-0.53124 -0.23795,-0.12727 -0.54237,-0.26008 -0.91313,-0.39842 -0.32095,-0.12174 -0.55597,-0.22395 -0.70538,-0.30696 -0.14387,-0.0885 -0.21601,-0.19896 -0.21601,-0.33176 0,-0.0941 0.0251,-0.16621 0.0749,-0.21601 0.0498,-0.0553 0.11322,-0.0832 0.19069,-0.0832 0.11067,0 0.20468,0.0361 0.28215,0.108 0.0777,0.0719 0.11921,0.19107 0.12454,0.35709 h 1.98386 c -0.0221,-0.60318 -0.24622,-1.071 -0.67231,-1.40302 -0.42056,-0.33202 -0.99059,-0.49816 -1.70997,-0.49816 z"
         id="path761" /><path
         d="m 147.16758,227.7554 c -0.59211,0 -1.10642,0.12734 -1.54358,0.38189 -0.43716,0.24902 -0.77491,0.60044 -1.01285,1.0542 -0.23242,0.45376 -0.34882,0.9708 -0.34882,1.55184 0,0.58103 0.1164,1.0986 0.34882,1.55236 0.23794,0.45377 0.57569,0.80792 1.01285,1.06247 0.43716,0.24901 0.95147,0.37362 1.54358,0.37362 0.5091,0 0.96325,-0.094 1.36167,-0.28215 0.40396,-0.19368 0.73025,-0.46477 0.97927,-0.81339 0.25455,-0.34863 0.42342,-0.75577 0.50643,-1.2206 h -1.94252 c -0.0885,0.19368 -0.21587,0.34615 -0.38189,0.45682 -0.16047,0.10514 -0.34575,0.15761 -0.55603,0.15761 -0.30989,0 -0.55636,-0.1164 -0.73898,-0.34881 -0.17708,-0.23242 -0.26561,-0.54504 -0.26561,-0.93793 0,-0.39289 0.0885,-0.70551 0.26561,-0.93793 0.18262,-0.23241 0.42909,-0.3483 0.73898,-0.3483 0.21028,0 0.39556,0.0552 0.55603,0.16589 0.16602,0.10514 0.29335,0.25435 0.38189,0.44803 h 1.94252 c -0.083,-0.46483 -0.25188,-0.87146 -0.50643,-1.22008 -0.24902,-0.34862 -0.57531,-0.61697 -0.97927,-0.80512 -0.39842,-0.19368 -0.85257,-0.29042 -1.36167,-0.29042 z"
         id="path760" /><path
         d="m 155.14793,227.80527 v 5.87664 h 1.84278 v -5.87664 z"
         id="path759" /><path
         d="m 163.0412,227.80527 v 5.87664 h 3.91759 v -1.46916 h -2.07481 v -0.82992 h 1.82573 v -1.38597 h -1.82573 v -0.72243 h 2.07481 v -1.46916 z"
         id="path758" /><path
         d="m 171.11276,227.80527 v 5.87664 h 1.84226 v -2.95486 l 1.95079,2.95486 h 1.84278 v -5.87664 h -1.84278 v 3.00498 l -1.95079,-3.00498 z"
         id="path757" /><path
         d="m 182.89055,227.7554 c -0.5921,0 -1.10692,0.12734 -1.54409,0.38189 -0.43716,0.24902 -0.77439,0.60044 -1.01234,1.0542 -0.23241,0.45376 -0.34882,0.9708 -0.34882,1.55184 0,0.58103 0.11641,1.0986 0.34882,1.55236 0.23795,0.45377 0.57518,0.80792 1.01234,1.06247 0.43717,0.24901 0.95199,0.37362 1.54409,0.37362 0.5091,0 0.96273,-0.094 1.36116,-0.28215 0.40395,-0.19368 0.73025,-0.46477 0.97927,-0.81339 0.25454,-0.34863 0.42342,-0.75577 0.50643,-1.2206 h -1.942 c -0.0885,0.19368 -0.21588,0.34615 -0.38189,0.45682 -0.16048,0.10514 -0.34576,0.15761 -0.55604,0.15761 -0.30989,0 -0.55636,-0.1164 -0.73897,-0.34881 -0.17708,-0.23242 -0.26562,-0.54504 -0.26562,-0.93793 0,-0.39289 0.0885,-0.70551 0.26562,-0.93793 0.18261,-0.23241 0.42908,-0.3483 0.73897,-0.3483 0.21028,0 0.39556,0.0552 0.55604,0.16589 0.16601,0.10514 0.29335,0.25435 0.38189,0.44803 h 1.942 c -0.083,-0.46483 -0.25189,-0.87146 -0.50643,-1.22008 -0.24902,-0.34862 -0.57532,-0.61697 -0.97927,-0.80512 -0.39843,-0.19368 -0.85206,-0.29042 -1.36116,-0.29042 z"
         id="path756" /><path
         d="m 189.83298,227.80527 v 5.87664 h 3.91811 v -1.46916 h -2.07533 v -0.82992 h 1.82625 v -1.38597 h -1.82625 v -0.72243 h 2.07533 v -1.46916 z"
         id="path755" /><path
         d="m 197.69292,220.06168 2.1084,4.09226 v 1.78438 h 1.84278 v -1.78438 l 2.1084,-4.09226 h -2.07533 l -0.93792,2.08308 -0.93793,-2.08308 z"
         id="path754" /><path
         d="m 189.31855,220.06168 v 1.46089 h 1.54409 v 4.41575 h 1.84278 v -4.41575 h 1.56011 v -1.46089 z"
         id="path753" /><path
         d="m 181.94022,220.06168 v 5.87664 h 1.84227 v -5.87664 z"
         id="path752" /><path
         d="m 171.11276,220.06168 v 5.87664 h 1.84278 v -2.95486 l 1.95027,2.95486 h 1.84278 v -5.87664 h -1.84278 v 3.00447 l -1.95027,-3.00447 z"
         id="path751" /><path
         d="m 162.39783,220.03274 v 3.31194 c 0,0.56443 0.10768,1.04268 0.32349,1.43557 0.21581,0.3929 0.51476,0.68911 0.89659,0.88832 0.38735,0.19921 0.83005,0.29869 1.32808,0.29869 0.49803,0 0.94893,-0.0995 1.35289,-0.29869 0.40395,-0.19921 0.72205,-0.49542 0.95446,-0.88832 0.23242,-0.39842 0.34882,-0.87667 0.34882,-1.43557 v -3.31194 h -1.83451 v 3.31194 c 0,0.27115 -0.0634,0.48703 -0.19069,0.64751 -0.12727,0.15494 -0.32401,0.23202 -0.58963,0.23202 -0.26561,0 -0.4591,-0.0771 -0.58084,-0.23202 -0.11621,-0.16048 -0.17415,-0.37636 -0.17415,-0.64751 v -3.31194 z"
         id="path750" /><path
         d="m 152.53749,220.06168 v 5.87664 h 1.84227 v -2.93005 l 0.90485,2.93005 h 1.57717 l 0.90485,-2.93005 v 2.93005 h 1.83451 v -5.87664 h -2.24947 l -1.26194,3.52743 -1.29449,-3.52743 z"
         id="path749" /><path
         d="m 143.6068,220.06168 v 5.87664 h 1.84278 v -2.93005 l 0.90486,2.93005 h 1.57716 l 0.90486,-2.93005 v 2.93005 h 1.83399 v -5.87664 h -2.24947 l -1.26142,3.52743 -1.29502,-3.52743 z"
         id="path748" /><path
         d="m 138.21596,219.98287 c -0.55337,0 -1.06221,0.13008 -1.52704,0.39016 -0.4593,0.25455 -0.82439,0.61144 -1.09554,1.07074 -0.27115,0.45929 -0.4067,0.97685 -0.4067,1.55236 0,0.5755 0.13555,1.09255 0.4067,1.55184 0.27115,0.4593 0.63624,0.81892 1.09554,1.079 0.46483,0.26009 0.97367,0.39016 1.52704,0.39016 0.54783,0 1.05172,-0.13007 1.51102,-0.39016 0.46483,-0.26008 0.82992,-0.6197 1.09554,-1.079 0.27115,-0.45929 0.40669,-0.97634 0.40669,-1.55184 0,-0.57551 -0.13554,-1.09307 -0.40669,-1.55236 -0.26562,-0.4593 -0.62798,-0.81619 -1.08728,-1.07074 -0.45929,-0.26008 -0.96592,-0.39016 -1.51928,-0.39016 z m 0,1.70171 c 0.36522,0 0.64776,0.11861 0.84697,0.35657 0.19922,0.23241 0.29869,0.55102 0.29869,0.95498 0,0.39842 -0.0995,0.71651 -0.29869,0.95446 -0.19921,0.23241 -0.48175,0.3483 -0.84697,0.3483 -0.37076,0 -0.65552,-0.11589 -0.85473,-0.3483 -0.19921,-0.23795 -0.29869,-0.55604 -0.29869,-0.95446 0,-0.40396 0.0995,-0.72257 0.29869,-0.95498 0.19921,-0.23796 0.48397,-0.35657 0.85473,-0.35657 z"
         id="path747" /><path
         d="m 129.30594,220.01181 c -0.5921,0 -1.10641,0.12735 -1.54357,0.38189 -0.43716,0.24902 -0.77491,0.60044 -1.01286,1.0542 -0.23241,0.45376 -0.3483,0.97132 -0.3483,1.55236 0,0.58104 0.11589,1.09808 0.3483,1.55185 0.23795,0.45376 0.5757,0.80792 1.01286,1.06246 0.43716,0.24902 0.95147,0.37362 1.54357,0.37362 0.5091,0 0.96325,-0.094 1.36168,-0.28215 0.40396,-0.19368 0.73025,-0.46477 0.97926,-0.81339 0.25456,-0.34862 0.42343,-0.75525 0.50643,-1.22008 h -1.94251 c -0.0885,0.19368 -0.21588,0.34563 -0.38189,0.45631 -0.16048,0.10514 -0.34577,0.15761 -0.55604,0.15761 -0.30989,0 -0.55584,-0.11589 -0.73846,-0.3483 -0.17708,-0.23242 -0.26561,-0.54504 -0.26561,-0.93793 0,-0.39289 0.0885,-0.70551 0.26561,-0.93792 0.18262,-0.23242 0.42857,-0.34882 0.73846,-0.34882 0.21027,0 0.39556,0.0552 0.55604,0.16588 0.16601,0.10514 0.29335,0.25487 0.38189,0.44855 h 1.94251 c -0.083,-0.46483 -0.25187,-0.87146 -0.50643,-1.22008 -0.24901,-0.34862 -0.5753,-0.61749 -0.97926,-0.80563 -0.39843,-0.19368 -0.85258,-0.29043 -1.36168,-0.29043 z"
         id="path746" /></g><path
       d="m 42.246,169.30439 a 13.967873,13.967873 0 0 0 -0.86403,2.58951 22.603613,5.1035414 30 0 0 11.065991,7.52564 22.603613,5.1035414 30 0 0 12.050944,5.82083 13.967873,13.967873 0 0 0 1.733745,-1.93838 22.603613,5.1035414 30 0 1 -0.163815,-0.0615 22.603613,5.1035414 30 0 1 -12.05146,-5.82135 22.603613,5.1035414 30 0 1 -11.065475,-7.52512 22.603613,5.1035414 30 0 1 -0.7059,-0.58963 z"
       style="opacity:1;fill:#2141ca;stroke-linecap:round;stroke-linejoin:round;paint-order:markers stroke fill"
       id="path699" /><g
       id="g724"
       transform="translate(-0.18598535,8.0354586)"
       inkscape:export-filename="sample5.svg"
       inkscape:export-xdpi="96"
       inkscape:export-ydpi="96"><path
         d="m 42.945719,213.58289 a 24.035676,5.4268788 30 0 1 -6.334685,-8.71515 24.035676,5.4268788 30 0 1 10.71478,1.12924 14.852815,14.852815 0 0 1 1.45454,-1.18583 14.852815,14.852815 0 0 1 0.43961,-0.2764 14.852815,14.852815 0 0 1 1.14516,-0.71271 14.852815,14.852815 0 0 1 0.0363,-0.0225 36.868292,8.3242822 30 0 0 -24.904083,-5.34778 36.868292,8.3242822 30 0 0 17.083538,18.8936 14.852815,14.852815 0 0 1 0.36487,-3.76245 z"
         style="fill:#2c2c2c;stroke-width:1;stroke-linecap:round;stroke-linejoin:round;paint-order:markers stroke fill"
         id="path709" /><path
         d="m 57.426254,220.05384 v -18.02098 a 14.852815,14.852815 0 0 0 -7.06113,1.78918 14.852815,14.852815 0 0 0 -1.14516,0.71271 14.852815,14.852815 0 0 0 -0.43961,0.2764 14.852815,14.852815 0 0 0 -1.45454,1.18583 24.035676,5.4268788 30 0 1 -5.5e-4,0 14.852815,14.852815 0 0 0 -2.76181,3.46243 14.852815,14.852815 0 0 0 -0.69896,1.36991 24.035676,5.4268788 30 0 0 0.75062,0.62698 24.035676,5.4268788 30 0 0 11.76653,8.00188 24.035676,5.4268788 30 0 0 1.04461,0.59566 z"
         style="fill:#3b5fcf;stroke-width:1;stroke-linecap:round;stroke-linejoin:round;paint-order:markers stroke fill"
         id="path707" /><path
         d="m 57.426254,226.4171 v -3.31735 a 24.035676,5.4268788 30 0 1 -2.71345,-1.51443 24.035676,5.4268788 30 0 1 -11.767085,-8.00243 14.852815,14.852815 0 0 0 -0.364869,3.76245 36.868292,8.3242822 30 0 0 10.682904,6.74901 36.868292,8.3242822 30 0 0 4.1625,2.32275 z"
         style="fill:#2c2c2c;stroke-width:1;stroke-linecap:round;stroke-linejoin:round;paint-order:markers stroke fill"
         id="path706" /><path
         d="m 57.426254,231.7385 v -5.3214 a 36.868292,8.3242822 30 0 1 -4.1625,-2.32275 36.868292,8.3242822 30 0 1 -10.682904,-6.74901 14.852815,14.852815 0 0 0 7.419404,12.40341 14.852815,14.852815 0 0 0 7.426,1.98975 z"
         style="fill:#3b5fcf;stroke-width:1;stroke-linecap:round;stroke-linejoin:round;paint-order:markers stroke fill"
         id="path705" /><path
         d="m 57.426254,223.09975 v -3.04591 a 24.035676,5.4268788 30 0 1 -1.04461,-0.59566 24.035676,5.4268788 30 0 1 -11.76653,-8.00188 24.035676,5.4268788 30 0 1 -0.75062,-0.62698 14.852815,14.852815 0 0 0 -0.918775,2.75357 24.035676,5.4268788 30 0 0 11.767085,8.00243 24.035676,5.4268788 30 0 0 2.71345,1.51443 z"
         style="fill:#2141ca;stroke-width:1;stroke-linecap:round;stroke-linejoin:round;paint-order:markers stroke fill"
         id="path708" /><path
         d="m 57.426254,231.7385 a 14.852815,14.852815 0 0 0 7.02486,-1.76611 36.868292,8.3242822 30 0 1 -7.02486,-3.55529 z"
         style="opacity:0.25;fill:#3b5fcf;fill-opacity:1;stroke-width:1;stroke-linecap:round;stroke-linejoin:round;paint-order:markers stroke fill"
         id="path704" /><path
         d="m 72.272214,216.42656 a 14.852815,14.852815 0 0 1 -0.0763,1.98042 14.852815,14.852815 0 0 1 -0.10166,0.62863 14.852815,14.852815 0 0 1 -0.18683,1.15341 24.035676,5.4268788 30 0 1 6.33414,8.71459 24.035676,5.4268788 30 0 1 -10.71368,-1.12813 24.035676,5.4268788 30 0 1 -5.5e-4,0 24.035676,5.4268788 30 0 1 -2.38265,-0.95284 24.035676,5.4268788 30 0 1 -7.71834,-3.72289 v 3.31735 a 36.868292,8.3242822 30 0 0 7.02487,3.55529 36.868292,8.3242822 30 0 0 24.90462,5.34778 36.868292,8.3242822 30 0 0 -17.08353,-18.89361 z"
         style="opacity:0.25;fill:#2c2c2c;stroke-width:1;stroke-linecap:round;stroke-linejoin:round;paint-order:markers stroke fill"
         id="path710" /><path
         d="m 57.426254,223.09975 a 24.035676,5.4268788 30 0 0 10.10099,4.67518 14.852815,14.852815 0 0 0 0.0802,-0.0819 14.852815,14.852815 0 0 0 0.91932,-0.9424 14.852815,14.852815 0 0 0 0.32036,-0.39344 14.852815,14.852815 0 0 0 0.51544,-0.64677 24.035676,5.4268788 30 0 1 -0.16595,-0.0621 24.035676,5.4268788 30 0 1 -11.77039,-5.5945 z"
         style="opacity:0.25;fill:#2141ca;stroke-width:1;stroke-linecap:round;stroke-linejoin:round;paint-order:markers stroke fill"
         id="path702" /><path
         d="m 57.426254,220.05384 a 24.035676,5.4268788 30 0 0 11.77038,5.5945 24.035676,5.4268788 30 0 0 0.16595,0.0621 14.852815,14.852815 0 0 0 0.92701,-1.39794 14.852815,14.852815 0 0 0 1.80457,-5.27689 14.852815,14.852815 0 0 0 0.10166,-0.62863 14.852815,14.852815 0 0 0 -7.34302,-14.38382 14.852815,14.852815 0 0 0 -7.42655,-1.9903 z"
         style="opacity:0.25;fill:#3b5fcf;fill-opacity:1;stroke-width:1;stroke-linecap:round;stroke-linejoin:round;paint-order:markers stroke fill"
         id="path701" /><path
         d="m 82.427274,210.39281 c -0.52359,0 -0.97721,0.33125 -1.16169,0.79323 h -8.83822 a 0.50005,0.50005 0 0 0 -0.49971,0.49972 v 4.49998 h -14.26166 a 0.5,0.5 0 0 0 -0.23874,0.0605 v 0.87953 a 0.5,0.5 0 0 0 0.23874,0.06 h 14.76137 a 0.50005,0.50005 0 0 0 0.50023,-0.49971 v -4.49999 h 8.37572 c 0.20398,0.41655 0.63345,0.70694 1.12396,0.70694 0.68443,0 1.25005,-0.56563 1.25005,-1.25006 1e-5,-0.68444 -0.56562,-1.25005 -1.25005,-1.25005 z"
         style="baseline-shift:baseline;display:inline;overflow:visible;vector-effect:none;fill:#03c356;stroke-linecap:round;stroke-linejoin:round;paint-order:markers stroke fill;enable-background:accumulate;stop-color:#000000"
         id="path722" /><path
         d="m 57.427254,226.18616 v 0.11524 0.8847 h 9.50019 v 4.49998 a 0.50005,0.50005 0 0 0 0.50023,0.49972 h 3.85558 c 0.19485,0.4394 0.6369,0.75034 1.14411,0.75034 0.68444,0 1.25006,-0.56562 1.25006,-1.25006 0,-0.68444 -0.56562,-1.25005 -1.25006,-1.25005 -0.50721,0 -0.94926,0.31042 -1.14411,0.74983 h -3.35587 v -4.49999 a 0.50005,0.50005 0 0 0 -0.49971,-0.49971 z"
         style="baseline-shift:baseline;display:inline;overflow:visible;vector-effect:none;fill:#03c356;stroke-linecap:round;stroke-linejoin:round;paint-order:markers stroke fill;enable-background:accumulate;stop-color:#000000"
         id="path720" /><path
         d="m 87.398034,215.43591 c -0.50722,0 -0.94875,0.31043 -1.1436,0.74983 h -3.82716 -4.99969 a 0.50005,0.50005 0 0 0 -0.50023,0.50023 v 4.49998 h -4.49947 a 0.5,0.5 0 0 0 -5.2e-4,0 h -15.00011 v 0.99994 h 14.5004 v 4.49998 a 0.50005,0.50005 0 0 0 0.49971,0.50023 h 8.85631 c 0.19485,0.4394 0.63639,0.74983 1.1436,0.74983 0.68443,0 1.25006,-0.56562 1.25005,-1.25006 1e-5,-0.68444 -0.56562,-1.25005 -1.25005,-1.25005 -0.50721,0 -0.94875,0.31094 -1.1436,0.75034 h -8.35608 v -4.00027 h 4.49999 a 0.50005,0.50005 0 0 0 0.49971,-0.50023 v -4.49998 h 4.49998 3.82716 c 0.19485,0.4394 0.63638,0.75034 1.1436,0.75034 0.68443,0 1.25005,-0.56561 1.25005,-1.25005 0,-0.68444 -0.56562,-1.25006 -1.25005,-1.25006 z"
         style="baseline-shift:baseline;display:inline;overflow:visible;vector-effect:none;fill:#03c356;stroke-linecap:round;stroke-linejoin:round;paint-order:markers stroke fill;enable-background:accumulate;stop-color:#000000"
         id="path721" /><path
         d="m 72.427364,200.38102 c -0.52801,0 -0.9849,0.33702 -1.16633,0.80512 h -3.83336 a 0.50005,0.50005 0 0 0 -0.50023,0.49971 v 4.99969 a 0.50005,0.50005 0 0 0 0,5.2e-4 v 4.49998 h -9.50019 v 0.99994 h 10.00042 a 0.50005,0.50005 0 0 0 0.49971,-0.50022 v -4.49999 h 13.35112 c 0.19215,0.44559 0.63706,0.76171 1.14877,0.76171 0.68443,0 1.25005,-0.56562 1.25005,-1.25005 1e-5,-0.68444 -0.56562,-1.25005 -1.25005,-1.25005 -0.50269,0 -0.94096,0.30526 -1.13843,0.73845 h -13.36146 v -3.99975 h 3.38222 c 0.20625,0.41026 0.63187,0.69504 1.11776,0.69504 0.68443,0 1.25005,-0.56562 1.25006,-1.25005 0,-0.68443 -0.56562,-1.25005 -1.25006,-1.25005 z"
         style="baseline-shift:baseline;display:inline;overflow:visible;vector-effect:none;fill:#03c356;stroke-linecap:round;stroke-linejoin:round;paint-order:markers stroke fill;enable-background:accumulate;stop-color:#000000"
         id="path723" /><path
         d="m 77.427584,195.4361 c -0.50721,0 -0.94926,0.31043 -1.14412,0.74983 h -13.856 a 0.50005,0.50005 0 0 0 -0.49971,0.50022 v 9.50537 l -4.5005,0.047 v 0.99994 a 0.5,0.5 0 0 0 0.006,0 l 4.99969,-0.0527 a 0.50005,0.50005 0 0 0 0.49454,-0.49971 v -9.50019 h 13.35578 c 0.19485,0.4394 0.6369,0.74982 1.14411,0.74982 0.68444,0 1.25006,-0.5651 1.25006,-1.24954 -1e-5,-0.68443 -0.56563,-1.25005 -1.25006,-1.25005 z"
         style="baseline-shift:baseline;display:inline;overflow:visible;vector-effect:none;fill:#03c356;stroke-linecap:round;stroke-linejoin:round;paint-order:markers stroke fill;enable-background:accumulate;stop-color:#000000"
         id="path724" /></g><g
       id="g742"
       transform="translate(16.595204,-139.04677)"><text
         xml:space="preserve"
         style="font-style:normal;font-variant:normal;font-weight:normal;font-stretch:normal;font-size:4.56036px;line-height:1;font-family:poppins;-inkscape-font-specification:poppins;text-align:center;letter-spacing:0px;writing-mode:lr-tb;direction:ltr;text-anchor:middle;fill:#24906e;fill-opacity:1;stroke:none;stroke-width:0.999998;stroke-linecap:round;stroke-linejoin:round;stroke-opacity:1;paint-order:markers stroke fill"
         x="149.93027"
         y="266.87198"
         id="text695-4"><tspan
           sodipodi:role="line"
           id="tspan695-8"
           style="text-align:center;text-anchor:middle;stroke-width:0.999998"
           x="149.93027"
           y="266.87198">COMMUNITY</tspan><tspan
           sodipodi:role="line"
           style="text-align:center;text-anchor:middle;stroke-width:0.999998"
           x="149.93027"
           y="271.43234"
           id="tspan696-2">SCIENCE</tspan><tspan
           sodipodi:role="line"
           style="text-align:center;text-anchor:middle;stroke-width:0.999998"
           x="149.93027"
           y="275.99271"
           id="tspan697-1">MUSEUM</tspan></text><path
         d="m 152.08994,258.93717 c -0.19047,-0.90197 -0.28733,-1.84172 -0.28732,-2.79053 -3e-5,-1.81618 0.35479,-3.59383 1.03508,-5.13095 0.49321,-1.11424 1.14228,-2.06084 1.89859,-2.78588 a 6.1025973,9.0094715 0 0 0 -4.57181,-3.04116 6.1025973,9.0094715 0 0 0 -5.10873,4.08089 6.1025973,9.0094715 0 0 0 -0.18966,0.45785 c 0.92904,0.75859 1.72163,1.83503 2.30012,3.14193 0.68029,1.53711 1.03719,3.31426 1.03715,5.13044 0,0.3121 -0.0105,0.62358 -0.0315,0.93276 a 11.75315,5.1231983 0 0 0 1.99265,0.0739 11.75315,5.1231983 0 0 0 1.92546,-0.0692 z"
         style="opacity:1;fill:#2c2c2c;stroke-width:0.999997;stroke-linecap:round;stroke-linejoin:round;paint-order:markers stroke fill"
         id="path737" /><path
         d="m 150.16448,236.81139 a 3.158237,3.7903905 0 0 0 -3.15847,3.78994 3.158237,3.7903905 0 0 0 3.15847,3.79047 3.158237,3.7903905 0 0 0 3.15846,-3.79047 3.158237,3.7903905 0 0 0 -3.15846,-3.78994 z"
         style="opacity:1;fill:#2c2c2c;stroke-width:0.999997;stroke-linecap:round;stroke-linejoin:round;paint-order:markers stroke fill"
         id="path738" /><path
         d="m 158.4048,247.13789 a 6.1025973,9.0094715 0 0 0 -3.41581,1.54305 6.1025973,9.0094715 0 0 0 -1.69292,2.53783 6.1025973,9.0094715 0 0 0 -0.99374,4.92839 6.1025973,9.0094715 0 0 0 0.29094,2.74867 6.1025973,9.0094715 0 0 0 0.42685,1.49086 11.75315,5.1231983 0 0 0 5.38468,0.56896 11.75315,5.1231983 0 0 0 5.38469,-0.56896 6.1025973,9.0094715 0 0 0 0.71778,-4.23953 6.1025973,9.0094715 0 0 0 -0.99374,-4.92839 6.1025973,9.0094715 0 0 0 -5.10873,-4.08088 z"
         style="baseline-shift:baseline;display:inline;overflow:visible;vector-effect:none;fill:#2c2c2c;stroke-linecap:round;stroke-linejoin:round;paint-order:markers stroke fill;enable-background:accumulate;stop-color:#000000;stop-opacity:1"
         id="path739" /><path
         d="m 158.4048,238.76062 a 3.158237,3.7903905 0 0 0 -3.15846,3.78995 3.158237,3.7903905 0 0 0 3.15846,3.79047 3.158237,3.7903905 0 0 0 3.15846,-3.79047 3.158237,3.7903905 0 0 0 -3.15846,-3.78995 z"
         style="baseline-shift:baseline;display:inline;overflow:visible;vector-effect:none;fill:#2c2c2c;stroke-linecap:round;stroke-linejoin:round;paint-order:markers stroke fill;enable-background:accumulate;stop-color:#000000;stop-opacity:1"
         id="path740" /><path
         d="m 141.60014,248.991 a 6.1025973,9.0094715 0 0 0 -5.10873,4.08141 6.1025973,9.0094715 0 0 0 -0.99425,4.92786 6.1025973,9.0094715 0 0 0 0.71778,4.23954 11.75315,5.1231983 0 0 0 5.3852,0.56947 11.75315,5.1231983 0 0 0 5.38469,-0.56947 6.1025973,9.0094715 0 0 0 0.68781,-3.34967 6.1025973,9.0094715 0 0 0 0.03,-0.88987 6.1025973,9.0094715 0 0 0 -0.99374,-4.92786 6.1025973,9.0094715 0 0 0 -2.02261,-2.84427 6.1025973,9.0094715 0 0 0 -3.08612,-1.23714 z"
         style="baseline-shift:baseline;display:inline;overflow:visible;vector-effect:none;fill:#2c2c2c;stroke-linecap:round;stroke-linejoin:round;paint-order:markers stroke fill;enable-background:accumulate;stop-color:#000000;stop-opacity:1"
         id="path742" /><path
         d="m 141.60014,240.61374 a 3.158237,3.7903905 0 0 0 -3.15846,3.79046 3.158237,3.7903905 0 0 0 3.15846,3.79047 3.158237,3.7903905 0 0 0 3.15795,-3.79047 3.158237,3.7903905 0 0 0 -3.15795,-3.79046 z"
         style="baseline-shift:baseline;display:inline;overflow:visible;vector-effect:none;fill:#2c2c2c;stroke-linecap:round;stroke-linejoin:round;paint-order:markers stroke fill;enable-background:accumulate;stop-color:#000000;stop-opacity:1"
         id="path741" /></g><g
       id="g779"
       transform="matrix(1,0,0,0.84622252,-84.837739,55.596003)"
       style="stroke-width:1.08707"
       inkscape:export-filename="logo-with-name.svg"
       inkscape:export-xdpi="96"
       inkscape:export-ydpi="96"><path
         d="m 163.68514,259.8904 c -0.19047,-0.90197 -0.28733,-1.84172 -0.28732,-2.79053 -3e-5,-1.81618 0.35479,-3.59383 1.03508,-5.13095 0.49321,-1.11424 1.14228,-2.06084 1.89859,-2.78588 a 6.1025973,9.0094715 0 0 0 -4.57181,-3.04116 6.1025973,9.0094715 0 0 0 -5.10873,4.08089 6.1025973,9.0094715 0 0 0 -0.18966,0.45785 c 0.92904,0.75859 1.72163,1.83503 2.30012,3.14193 0.68029,1.53711 1.03719,3.31426 1.03715,5.13044 0,0.3121 -0.0105,0.62358 -0.0315,0.93276 a 11.75315,5.1231983 0 0 0 1.99265,0.0739 11.75315,5.1231983 0 0 0 1.92546,-0.0692 z"
         style="fill:#2c2c2c;stroke-width:1.08707;stroke-linecap:round;stroke-linejoin:round;paint-order:markers stroke fill"
         id="path737-0" /><path
         d="m 161.75968,237.76462 a 3.158237,3.7903905 0 0 0 -3.15847,3.78994 3.158237,3.7903905 0 0 0 3.15847,3.79047 3.158237,3.7903905 0 0 0 3.15846,-3.79047 3.158237,3.7903905 0 0 0 -3.15846,-3.78994 z"
         style="fill:#2c2c2c;stroke-width:1.08707;stroke-linecap:round;stroke-linejoin:round;paint-order:markers stroke fill"
         id="path738-0" /><path
         d="m 170,248.09112 a 6.1025973,9.0094715 0 0 0 -3.41581,1.54305 6.1025973,9.0094715 0 0 0 -1.69292,2.53783 6.1025973,9.0094715 0 0 0 -0.99374,4.92839 6.1025973,9.0094715 0 0 0 0.29094,2.74867 6.1025973,9.0094715 0 0 0 0.42685,1.49086 11.75315,5.1231983 0 0 0 5.38468,0.56896 11.75315,5.1231983 0 0 0 5.38469,-0.56896 6.1025973,9.0094715 0 0 0 0.71778,-4.23953 A 6.1025973,9.0094715 0 0 0 175.10873,252.172 6.1025973,9.0094715 0 0 0 170,248.09112 Z"
         style="baseline-shift:baseline;display:inline;overflow:visible;vector-effect:none;fill:#2c2c2c;stroke-width:1.08707;stroke-linecap:round;stroke-linejoin:round;paint-order:markers stroke fill;enable-background:accumulate;stop-color:#000000"
         id="path739-8" /><path
         d="M 170,239.71385 A 3.158237,3.7903905 0 0 0 166.84154,243.5038 3.158237,3.7903905 0 0 0 170,247.29427 3.158237,3.7903905 0 0 0 173.15846,243.5038 3.158237,3.7903905 0 0 0 170,239.71385 Z"
         style="baseline-shift:baseline;display:inline;overflow:visible;vector-effect:none;fill:#2c2c2c;stroke-width:1.08707;stroke-linecap:round;stroke-linejoin:round;paint-order:markers stroke fill;enable-background:accumulate;stop-color:#000000"
         id="path740-3" /><path
         d="m 153.19534,249.94423 a 6.1025973,9.0094715 0 0 0 -5.10873,4.08141 6.1025973,9.0094715 0 0 0 -0.99425,4.92786 6.1025973,9.0094715 0 0 0 0.71778,4.23954 11.75315,5.1231983 0 0 0 5.3852,0.56947 11.75315,5.1231983 0 0 0 5.38469,-0.56947 6.1025973,9.0094715 0 0 0 0.68781,-3.34967 6.1025973,9.0094715 0 0 0 0.03,-0.88987 6.1025973,9.0094715 0 0 0 -0.99374,-4.92786 6.1025973,9.0094715 0 0 0 -2.02261,-2.84427 6.1025973,9.0094715 0 0 0 -3.08612,-1.23714 z"
         style="baseline-shift:baseline;display:inline;overflow:visible;vector-effect:none;fill:#2c2c2c;stroke-width:1.08707;stroke-linecap:round;stroke-linejoin:round;paint-order:markers stroke fill;enable-background:accumulate;stop-color:#000000"
         id="path742-4" /><path
         d="m 153.19534,241.56697 a 3.158237,3.7903905 0 0 0 -3.15846,3.79046 3.158237,3.7903905 0 0 0 3.15846,3.79047 3.158237,3.7903905 0 0 0 3.15795,-3.79047 3.158237,3.7903905 0 0 0 -3.15795,-3.79046 z"
         style="baseline-shift:baseline;display:inline;overflow:visible;vector-effect:none;fill:#2c2c2c;stroke-width:1.08707;stroke-linecap:round;stroke-linejoin:round;paint-order:markers stroke fill;enable-background:accumulate;stop-color:#000000"
         id="path741-5" /></g><text
       xml:space="preserve"
       style="font-style:normal;font-variant:normal;font-weight:normal;font-stretch:normal;font-size:4.56036px;line-height:1;font-family:poppins;-inkscape-font-specification:poppins;text-align:center;letter-spacing:0px;writing-mode:lr-tb;direction:ltr;text-anchor:middle;fill:#2c2c2c;fill-opacity:1;stroke:none;stroke-width:0.999998;stroke-linecap:round;stroke-linejoin:round;stroke-opacity:1;paint-order:markers stroke fill"
       x="76.691269"
       y="282.84229"
       id="text695-4-8"
       inkscape:export-filename="name.svg"
       inkscape:export-xdpi="96"
       inkscape:export-ydpi="96"><tspan
         sodipodi:role="line"
         id="tspan695-8-3"
         style="text-align:center;text-anchor:middle;fill:#2c2c2c;fill-opacity:1;stroke-width:0.999998"
         x="76.691269"
         y="282.84229">COMMUNITY</tspan><tspan
         sodipodi:role="line"
         style="text-align:center;text-anchor:middle;fill:#2c2c2c;fill-opacity:1;stroke-width:0.999998"
         x="76.691269"
         y="287.40265"
         id="tspan696-2-7">SCIENCE</tspan><tspan
         sodipodi:role="line"
         style="text-align:center;text-anchor:middle;fill:#2c2c2c;fill-opacity:1;stroke-width:0.999998"
         x="76.691269"
         y="291.96301"
         id="tspan697-1-1">MUSEUM</tspan></text><g
       id="g1"
       transform="matrix(1,0,0,0.84622252,0,38.869504)"
       style="stroke-width:1.08707"
       inkscape:export-filename="pictorial.svg"
       inkscape:export-xdpi="96"
       inkscape:export-ydpi="96"><path
         d="m 143.68514,274.89039 c -0.19047,-0.90197 -0.28733,-1.84172 -0.28732,-2.79053 -3e-5,-1.81618 0.35479,-3.59383 1.03508,-5.13095 0.49321,-1.11424 1.14228,-2.06084 1.89859,-2.78588 a 6.1025973,9.0094715 0 0 0 -4.57181,-3.04116 6.1025973,9.0094715 0 0 0 -5.10873,4.08089 6.1025973,9.0094715 0 0 0 -0.18966,0.45785 c 0.92904,0.75859 1.72163,1.83503 2.30012,3.14193 0.68029,1.53711 1.03719,3.31426 1.03715,5.13044 0,0.3121 -0.0105,0.62358 -0.0315,0.93276 a 11.75315,5.1231983 0 0 0 1.99265,0.0739 11.75315,5.1231983 0 0 0 1.92546,-0.0692 z"
         style="fill:#2c2c2c;stroke-width:1.08707;stroke-linecap:round;stroke-linejoin:round;paint-order:markers stroke fill"
         id="path737-0-6" /><path
         d="m 141.75968,252.76461 a 3.158237,3.7903905 0 0 0 -3.15847,3.78994 3.158237,3.7903905 0 0 0 3.15847,3.79047 3.158237,3.7903905 0 0 0 3.15846,-3.79047 3.158237,3.7903905 0 0 0 -3.15846,-3.78994 z"
         style="fill:#2c2c2c;stroke-width:1.08707;stroke-linecap:round;stroke-linejoin:round;paint-order:markers stroke fill"
         id="path738-0-7" /><path
         d="m 150,263.09111 a 6.1025973,9.0094715 0 0 0 -3.41581,1.54305 6.1025973,9.0094715 0 0 0 -1.69292,2.53783 6.1025973,9.0094715 0 0 0 -0.99374,4.92839 6.1025973,9.0094715 0 0 0 0.29094,2.74867 6.1025973,9.0094715 0 0 0 0.42685,1.49086 11.75315,5.1231983 0 0 0 5.38468,0.56896 11.75315,5.1231983 0 0 0 5.38469,-0.56896 6.1025973,9.0094715 0 0 0 0.71778,-4.23953 6.1025973,9.0094715 0 0 0 -0.99374,-4.92839 A 6.1025973,9.0094715 0 0 0 150,263.09111 Z"
         style="baseline-shift:baseline;display:inline;overflow:visible;vector-effect:none;fill:#2c2c2c;stroke-width:1.08707;stroke-linecap:round;stroke-linejoin:round;paint-order:markers stroke fill;enable-background:accumulate;stop-color:#000000"
         id="path739-8-7" /><path
         d="m 150,254.71384 a 3.158237,3.7903905 0 0 0 -3.15846,3.78995 3.158237,3.7903905 0 0 0 3.15846,3.79047 3.158237,3.7903905 0 0 0 3.15846,-3.79047 A 3.158237,3.7903905 0 0 0 150,254.71384 Z"
         style="baseline-shift:baseline;display:inline;overflow:visible;vector-effect:none;fill:#2c2c2c;stroke-width:1.08707;stroke-linecap:round;stroke-linejoin:round;paint-order:markers stroke fill;enable-background:accumulate;stop-color:#000000"
         id="path740-3-1" /><path
         d="m 133.19534,264.94422 a 6.1025973,9.0094715 0 0 0 -5.10873,4.08141 6.1025973,9.0094715 0 0 0 -0.99425,4.92786 6.1025973,9.0094715 0 0 0 0.71778,4.23954 11.75315,5.1231983 0 0 0 5.3852,0.56947 11.75315,5.1231983 0 0 0 5.38469,-0.56947 6.1025973,9.0094715 0 0 0 0.68781,-3.34967 6.1025973,9.0094715 0 0 0 0.03,-0.88987 6.1025973,9.0094715 0 0 0 -0.99374,-4.92786 6.1025973,9.0094715 0 0 0 -2.02261,-2.84427 6.1025973,9.0094715 0 0 0 -3.08612,-1.23714 z"
         style="baseline-shift:baseline;display:inline;overflow:visible;vector-effect:none;fill:#2c2c2c;stroke-width:1.08707;stroke-linecap:round;stroke-linejoin:round;paint-order:markers stroke fill;enable-background:accumulate;stop-color:#000000"
         id="path742-4-9" /><path
         d="m 133.19534,256.56696 a 3.158237,3.7903905 0 0 0 -3.15846,3.79046 3.158237,3.7903905 0 0 0 3.15846,3.79047 3.158237,3.7903905 0 0 0 3.15795,-3.79047 3.158237,3.7903905 0 0 0 -3.15795,-3.79046 z"
         style="baseline-shift:baseline;display:inline;overflow:visible;vector-effect:none;fill:#2c2c2c;stroke-width:1.08707;stroke-linecap:round;stroke-linejoin:round;paint-order:markers stroke fill;enable-background:accumulate;stop-color:#000000"
         id="path741-5-1" /></g><path
       d="m 26.343605,264.94422 a 6.1025973,9.0094715 0 0 0 -5.10873,4.08141 6.1025973,9.0094715 0 0 0 -0.99425,4.92786 6.1025973,9.0094715 0 0 0 0.71778,4.23954 11.75315,5.1231983 0 0 0 5.3852,0.56947 11.75315,5.1231983 0 0 0 5.38469,-0.56947 6.1025973,9.0094715 0 0 0 0.68781,-3.34967 6.1025973,9.0094715 0 0 0 0.03,-0.88987 6.1025973,9.0094715 0 0 0 -0.99374,-4.92786 6.1025973,9.0094715 0 0 0 -2.02261,-2.84427 6.1025973,9.0094715 0 0 0 -3.08612,-1.23714 z"
       style="baseline-shift:baseline;display:inline;overflow:visible;vector-effect:none;fill:#2c2c2c;stroke-linecap:round;stroke-linejoin:round;paint-order:markers stroke fill;enable-background:accumulate;stop-color:#000000"
       id="path742-4-9-3" /><path
       d="m 26.343605,256.56696 a 3.158237,3.7903905 0 0 0 -3.15846,3.79046 3.158237,3.7903905 0 0 0 3.15846,3.79047 3.158237,3.7903905 0 0 0 3.15795,-3.79047 3.158237,3.7903905 0 0 0 -3.15795,-3.79046 z"
       style="baseline-shift:baseline;display:inline;overflow:visible;vector-effect:none;fill:#2c2c2c;stroke-linecap:round;stroke-linejoin:round;paint-order:markers stroke fill;enable-background:accumulate;stop-color:#000000"
       id="path741-5-1-9" /></g></svg>
