<?xml version="1.0" encoding="UTF-8" standalone="no"?>
<!-- Created with Inkscape (http://www.inkscape.org/) -->

<svg
   width="36.645065mm"
   height="36.058006mm"
   viewBox="0 0 36.645065 36.058006"
   version="1.1"
   id="svg1"
   xml:space="preserve"
   xmlns="http://www.w3.org/2000/svg"
   xmlns:svg="http://www.w3.org/2000/svg"><defs
     id="defs1" /><g
     id="layer1"
     transform="translate(-86.57278,-98.85205)"><g
       id="g595"
       transform="matrix(0.78639046,0,0,0.78639046,-33.107876,13.051996)"
       style="stroke-width:1.27163"><path
         d="m 175.76996,123.28227 h 3.57291 a 3.5902479,3.5902483 0 0 1 -3.57291,-3.57446 z"
         style="fill:#ff634d;stroke:#2c2c2c;stroke-width:0.134805;stroke-linecap:round;stroke-linejoin:round;paint-order:markers stroke fill"
         id="path587" /><path
         d="m 184.61283,118.01747 a 5.2887908,5.2887915 0 0 1 -5.26428,5.2648 h 5.26428 z"
         style="fill:#03b1a8;stroke:#2c2c2c;stroke-width:0.134805;stroke-linecap:round;stroke-linejoin:round;paint-order:markers stroke fill"
         id="path586" /><path
         d="m 177.46081,119.70781 h -1.69085 a 3.5902479,3.5902483 0 0 0 3.57291,3.57446 h 0.002 v -3.57446 z"
         style="fill:#24906e;stroke:#2c2c2c;stroke-width:0.134805;stroke-linecap:round;stroke-linejoin:round;paint-order:markers stroke fill"
         id="path585" /><path
         d="m 175.76996,118.01644 v 1.69137 a 1.6985408,1.698541 0 0 1 1.69085,-1.69137 z"
         style="fill:#2c2c2c;stroke:#2c2c2c;stroke-width:0.134805;stroke-linecap:round;stroke-linejoin:round;paint-order:markers stroke fill"
         id="path584" /><path
         d="m 177.46081,118.01644 a 1.6985408,1.698541 0 0 0 -1.69085,1.69137 h 1.69085 z"
         style="fill:#feec06;stroke:#2c2c2c;stroke-width:0.134805;stroke-linecap:round;stroke-linejoin:round;paint-order:markers stroke fill"
         id="path583" /><path
         d="m 179.34442,119.70781 v -1.69137 h -1.88258 a 1.8917061,1.698538 0 0 1 1.88258,1.69137 z"
         style="fill:#6c5e5d;stroke:#2c2c2c;stroke-width:0.134805;stroke-linecap:round;stroke-linejoin:round;paint-order:markers stroke fill"
         id="path582" /><path
         d="m 177.46081,118.01644 v 1.69137 h 1.88361 a 1.8917061,1.698538 0 0 0 -1.88361,-1.69137 z"
         style="fill:#ffb395;stroke:#2c2c2c;stroke-width:0.134805;stroke-linecap:round;stroke-linejoin:round;paint-order:markers stroke fill"
         id="path581" /><path
         d="m 179.347,118.01644 v 5.26583 h 0.002 a 5.2887908,5.2887915 0 0 0 5.26428,-5.26583 z"
         style="fill:#7df184;stroke:#2c2c2c;stroke-width:0.134805;stroke-linecap:round;stroke-linejoin:round;paint-order:markers stroke fill"
         id="path580" /><path
         d="m 175.76996,109.17357 v 8.84287 h 1.69085 a 1.8917061,1.698538 0 0 1 0.001,0 h 1.88258 0.003 5.26583 a 8.8816214,8.8816224 0 0 0 -8.84287,-8.84287 z"
         style="fill:#fcba59;stroke:#2c2c2c;stroke-width:0.134805;stroke-linecap:round;stroke-linejoin:round;paint-order:markers stroke fill"
         id="path579" /><path
         d="m 175.76996,109.17357 a 8.8816214,8.8816224 0 0 1 8.84287,8.84235 v -8.84235 z"
         style="fill:#7b45a5;stroke:#2c2c2c;stroke-width:0.134805;stroke-linecap:round;stroke-linejoin:round;paint-order:markers stroke fill"
         id="path578" /><path
         d="m 161.66074,109.17357 v 14.1087 a 14.170413,14.170415 0 0 1 14.10922,-14.1087 z"
         style="fill:#fb882d;stroke:#2c2c2c;stroke-width:0.134805;stroke-linecap:round;stroke-linejoin:round;paint-order:markers stroke fill"
         id="path577" /><path
         d="m 175.76996,109.17357 a 14.170413,14.170415 0 0 0 -14.10922,14.1087 h 8.84184 a 8.8816232,8.8816214 0 0 1 0.002,0 5.2887919,5.2887908 0 0 1 0.002,0 h 5.26428 v -3.57446 -1.69137 z"
         style="fill:#cf3046;stroke:#2c2c2c;stroke-width:0.134805;stroke-linecap:round;stroke-linejoin:round;paint-order:markers stroke fill"
         id="path576" /><path
         d="m 175.76996,128.55171 a 3.5902486,3.5902479 0 0 1 -3.57498,3.57343 h 3.57498 z"
         style="fill:#03b1a8;stroke:#2c2c2c;stroke-width:0.134805;stroke-linecap:round;stroke-linejoin:round;paint-order:markers stroke fill"
         id="path595" /><path
         d="m 175.76996,128.55068 h -3.57498 v 1.88361 1.69085 a 3.5902486,3.5902479 0 0 0 3.57498,-3.57446 z"
         style="fill:#4f4e53;stroke:#2c2c2c;stroke-width:0.134805;stroke-linecap:round;stroke-linejoin:round;paint-order:markers stroke fill"
         id="path594" /><path
         d="m 172.19498,132.12514 a 1.6985411,1.6985408 0 0 1 -1.69085,-1.69085 v 1.69085 z"
         style="fill:#3b5fcf;stroke:#2c2c2c;stroke-width:0.134805;stroke-linecap:round;stroke-linejoin:round;paint-order:markers stroke fill"
         id="path593" /><path
         d="m 172.19498,132.12514 v -1.69085 h -1.69085 a 1.6985411,1.6985408 0 0 0 1.69085,1.69085 z"
         style="fill:#ffb395;stroke:#2c2c2c;stroke-width:0.134805;stroke-linecap:round;stroke-linejoin:round;paint-order:markers stroke fill"
         id="path592" /><path
         d="m 170.50413,130.43429 h 1.69085 v -1.88361 a 1.6985381,1.8917061 0 0 0 -1.69085,1.88361 z"
         style="fill:#ff634d;stroke:#2c2c2c;stroke-width:0.134805;stroke-linecap:round;stroke-linejoin:round;paint-order:markers stroke fill"
         id="path591" /><path
         d="m 170.50413,130.43274 a 1.6985381,1.8917061 0 0 1 1.69085,-1.88206 h -1.69085 z"
         style="fill:#cf3046;stroke:#2c2c2c;stroke-width:0.134805;stroke-linecap:round;stroke-linejoin:round;paint-order:markers stroke fill"
         id="path590" /><path
         d="m 170.50413,123.28227 v 5.26583 h 5.26583 a 5.2887919,5.2887908 0 0 0 -5.26583,-5.26583 z"
         style="fill:#029dd5;stroke:#2c2c2c;stroke-width:0.134805;stroke-linecap:round;stroke-linejoin:round;paint-order:markers stroke fill"
         id="path589" /><path
         d="m 170.50568,123.28227 a 5.2887919,5.2887908 0 0 1 5.26428,5.26531 v -5.26531 z"
         style="fill:#5d8acd;stroke:#2c2c2c;stroke-width:0.134805;stroke-linecap:round;stroke-linejoin:round;paint-order:markers stroke fill"
         id="path588" /><path
         d="m 198.72153,123.28227 a 23.052038,23.052033 0 0 1 -14.1087,21.14651 23.052038,23.052033 0 0 1 -4.42144,1.35754 23.052038,23.052033 0 0 1 -4.42143,0.44752 h 8.84235 5.2e-4 14.1087 z"
         style="fill:#fa9bed;stroke:#2c2c2c;stroke-width:0.134805;stroke-linecap:round;stroke-linejoin:round;paint-order:markers stroke fill"
         id="path575" /><path
         d="m 175.76996,123.28227 v 5.26531 a 5.2887919,5.2887908 0 0 1 0,5.2e-4 v 0.003 a 3.5902486,3.5902479 0 0 1 0,0.001 v 3.57343 12.30364 1.80506 a 23.052038,23.052033 0 0 0 4.42092,-0.44752 23.052033,23.052036 0 0 0 5.1e-4,0 23.052038,23.052033 0 0 0 4.42144,-1.35754 23.052038,23.052033 0 0 0 14.1087,-21.14651 h -14.1087 z"
         style="fill:#fcfd0c;stroke:#2c2c2c;stroke-width:0.134805;stroke-linecap:round;stroke-linejoin:round;paint-order:markers stroke fill"
         id="path574" /><path
         d="m 161.66074,132.12514 a 14.170416,14.170413 0 0 0 14.10922,14.1087 v -1.80506 -12.30364 h -3.57498 -1.69085 -7.03781 z"
         style="fill:#d93490;stroke:#2c2c2c;stroke-width:0.134805;stroke-linecap:round;stroke-linejoin:round;paint-order:markers stroke fill"
         id="path573" /><path
         d="m 170.50413,123.28227 a 8.8816232,8.8816214 0 0 0 -8.14007,5.42602 8.8816232,8.8816214 0 0 0 -0.70332,3.41685 h 1.80558 7.03781 v -1.69085 a 1.6985381,1.8917061 0 0 1 0,-0.002 v -1.88206 -0.003 z"
         style="fill:#7df184;stroke:#2c2c2c;stroke-width:0.134805;stroke-linecap:round;stroke-linejoin:round;paint-order:markers stroke fill"
         id="path572" /><path
         d="m 161.66074,123.28227 v 8.84287 a 8.8816232,8.8816214 0 0 1 0.70332,-3.41685 8.8816232,8.8816214 0 0 1 8.13852,-5.42602 z"
         style="fill:#f16a7b;stroke:#2c2c2c;stroke-width:0.134805;stroke-linecap:round;stroke-linejoin:round;paint-order:markers stroke fill"
         id="path571" /><path
         d="m 175.76996,146.23384 a 14.170416,14.170413 0 0 1 -14.10922,-14.1087 v 14.1087 z"
         style="fill:#824080;stroke:#2c2c2c;stroke-width:0.134805;stroke-linecap:round;stroke-linejoin:round;paint-order:markers stroke fill"
         id="path570" /><path
         style="opacity:1;fill:none;fill-opacity:1;stroke:#2c2c2c;stroke-width:1.09996;stroke-linecap:round;stroke-linejoin:round;paint-order:markers stroke fill"
         d="m 167.63504,143.6233 -3.72275,6.11626 0.89296,1.85208"
         id="path569" /><path
         style="opacity:1;fill:none;fill-opacity:1;stroke:#2c2c2c;stroke-width:1.09996;stroke-linecap:round;stroke-linejoin:round;paint-order:markers stroke fill"
         d="m 162.73831,137.48366 -4.1177,0.24789"
         id="path568" /><path
         d="m 160.15282,125.01188 a 4.8490546,6.7258897 59.664394 0 0 -5.44566,2.15284 4.8490546,6.7258897 59.664394 0 0 -1.2547,7.54734 4.8490546,6.7258897 59.664394 0 0 0.15658,0.12713 l 3.52691,-3.52692 1.55443,1.55443 -2.86184,2.86184 a 4.8490546,6.7258897 59.664394 0 0 5.8322,-1.61024 4.8490546,6.7258897 59.664394 0 0 0.13591,-0.0987 14.170416,14.170413 0 0 0 13.97331,12.21424 23.052038,23.052033 0 0 0 4.42143,-0.44752 23.052033,23.052036 0 0 1 -4.42143,-1.35754 23.052033,23.052036 0 0 1 -12.23181,-12.13414 4.8490546,6.7258897 59.664394 0 0 0.1235,-0.1695 4.8490546,6.7258897 59.664394 0 0 0.154,-5.76037 4.8490546,6.7258897 59.664394 0 0 -0.28732,-0.27337 4.8490546,6.7258897 59.664394 0 0 -1.77974,-0.89762 4.8490546,6.7258897 59.664394 0 0 -0.0879,-0.0217 4.8490546,6.7258897 59.664394 0 0 -1.50792,-0.1602 z m -1.40921,2.99568 a 1.2628485,0.61973119 0 0 1 1.26297,0.6196 1.2628485,0.61973119 0 0 1 -1.26297,0.6196 1.2628485,0.61973119 0 0 1 -1.26298,-0.6196 1.2628485,0.61973119 0 0 1 1.26298,-0.6196 z"
         style="fill:#20ba34;stroke:none;stroke-width:0.134805;stroke-linecap:round;stroke-linejoin:round;paint-order:markers stroke fill"
         id="path565" /><path
         style="opacity:1;fill:none;fill-opacity:1;stroke:#2c2c2c;stroke-width:1.09996;stroke-linecap:round;stroke-linejoin:round;paint-order:markers stroke fill"
         d="m 169.93155,143.38957 -4.11654,7.13005 2.24539,3.88912"
         id="path566" /><path
         style="opacity:1;fill:none;fill-opacity:1;stroke:#2c2c2c;stroke-width:1.09996;stroke-linecap:round;stroke-linejoin:round;paint-order:markers stroke fill"
         d="m 165.03676,138.16405 -3.37577,2.84427 -4.03256,-0.1323"
         id="path567" /><text
         xml:space="preserve"
         style="font-style:normal;font-variant:normal;font-weight:normal;font-stretch:normal;font-size:16.5255px;line-height:1;font-family:poppins;-inkscape-font-specification:poppins;text-align:center;letter-spacing:0px;writing-mode:lr-tb;direction:ltr;text-anchor:middle;fill:#2c2c2c;fill-opacity:1;stroke:none;stroke-width:1.09996;stroke-linecap:round;stroke-linejoin:round;paint-order:markers stroke fill"
         x="180.19141"
         y="123.28246"
         id="text522"><tspan
           id="tspan522"
           style="stroke-width:1.09996"
           x="180.19141"
           y="123.28246">CSM</tspan></text></g></g></svg>
