<?xml version="1.0" encoding="UTF-8" standalone="no"?>
<!-- Created with Inkscape (http://www.inkscape.org/) -->

<svg
   width="80.376129mm"
   height="23.230768mm"
   viewBox="0 0 80.376129 23.230768"
   version="1.1"
   id="svg1"
   xml:space="preserve"
   xmlns="http://www.w3.org/2000/svg"
   xmlns:svg="http://www.w3.org/2000/svg"><defs
     id="defs1" /><g
     id="layer1"
     transform="translate(-124.81191,-193.38462)"><g
       id="g778"
       transform="translate(3.7965408e-6,-25.743597)"><rect
         style="fill:#20ba34;fill-opacity:1;stroke:none;stroke-width:0.25;stroke-linecap:round;stroke-linejoin:round;stroke-opacity:1;paint-order:markers stroke fill"
         id="rect742"
         width="8.9306889"
         height="7.7435918"
         x="124.81192"
         y="219.1282" /><rect
         style="fill:#03b1a8;fill-opacity:1;stroke:none;stroke-width:0.25;stroke-linecap:round;stroke-linejoin:round;stroke-opacity:1;paint-order:markers stroke fill"
         id="rect742-2"
         width="8.9306889"
         height="7.7435918"
         x="133.7426"
         y="219.1282" /><rect
         style="fill:#2278ef;fill-opacity:1;stroke:none;stroke-width:0.25;stroke-linecap:round;stroke-linejoin:round;stroke-opacity:1;paint-order:markers stroke fill"
         id="rect742-4"
         width="8.9306889"
         height="7.7435918"
         x="142.67328"
         y="219.1282" /><rect
         style="fill:#cf3046;fill-opacity:1;stroke:none;stroke-width:0.25;stroke-linecap:round;stroke-linejoin:round;stroke-opacity:1;paint-order:markers stroke fill"
         id="rect742-2-5"
         width="8.9306889"
         height="7.7435918"
         x="151.60397"
         y="219.1282" /><rect
         style="fill:#fa9bed;fill-opacity:1;stroke:none;stroke-width:0.25;stroke-linecap:round;stroke-linejoin:round;stroke-opacity:1;paint-order:markers stroke fill"
         id="rect742-0"
         width="8.9306889"
         height="7.7435918"
         x="160.53465"
         y="219.1282" /><rect
         style="fill:#fcba59;fill-opacity:1;stroke:none;stroke-width:0.25;stroke-linecap:round;stroke-linejoin:round;stroke-opacity:1;paint-order:markers stroke fill"
         id="rect742-2-2"
         width="8.9306889"
         height="7.7435918"
         x="169.46533"
         y="219.1282" /><rect
         style="fill:#fcfd0c;fill-opacity:1;stroke:none;stroke-width:0.25;stroke-linecap:round;stroke-linejoin:round;stroke-opacity:1;paint-order:markers stroke fill"
         id="rect742-2-5-1"
         width="8.9306889"
         height="7.7435918"
         x="178.39601"
         y="219.1282" /><rect
         style="fill:#ff634d;fill-opacity:1;stroke:none;stroke-width:0.25;stroke-linecap:round;stroke-linejoin:round;stroke-opacity:1;paint-order:markers stroke fill"
         id="rect742-0-5"
         width="8.9306889"
         height="7.7435918"
         x="187.32669"
         y="219.1282" /><rect
         style="fill:#5d8acd;fill-opacity:1;stroke:none;stroke-width:0.25;stroke-linecap:round;stroke-linejoin:round;stroke-opacity:1;paint-order:markers stroke fill"
         id="rect742-2-2-5"
         width="8.9306889"
         height="7.7435918"
         x="196.25737"
         y="219.1282" /><rect
         style="fill:#5c6063;fill-opacity:1;stroke:none;stroke-width:0.25;stroke-linecap:round;stroke-linejoin:round;stroke-opacity:1;paint-order:markers stroke fill"
         id="rect742-4-1"
         width="8.9306889"
         height="7.7435918"
         x="133.7426"
         y="226.8718" /><rect
         style="fill:#03c356;fill-opacity:1;stroke:none;stroke-width:0.25;stroke-linecap:round;stroke-linejoin:round;stroke-opacity:1;paint-order:markers stroke fill"
         id="rect742-2-5-17"
         width="8.9306889"
         height="7.7435918"
         x="142.67329"
         y="226.8718" /><rect
         style="fill:#3b5fcf;fill-opacity:1;stroke:none;stroke-width:0.25;stroke-linecap:round;stroke-linejoin:round;stroke-opacity:1;paint-order:markers stroke fill"
         id="rect742-0-3"
         width="8.9306889"
         height="7.7435918"
         x="151.60397"
         y="226.8718" /><rect
         style="fill:#029dd5;fill-opacity:1;stroke:none;stroke-width:0.25;stroke-linecap:round;stroke-linejoin:round;stroke-opacity:1;paint-order:markers stroke fill"
         id="rect742-2-2-0"
         width="8.9306889"
         height="7.7435918"
         x="160.53465"
         y="226.8718" /><rect
         style="fill:#7b45a5;fill-opacity:1;stroke:none;stroke-width:0.25;stroke-linecap:round;stroke-linejoin:round;stroke-opacity:1;paint-order:markers stroke fill"
         id="rect742-2-5-1-0"
         width="8.9306889"
         height="7.7435918"
         x="169.46533"
         y="226.8718" /><rect
         style="fill:#cf3046;fill-opacity:1;stroke:none;stroke-width:0.25;stroke-linecap:round;stroke-linejoin:round;stroke-opacity:1;paint-order:markers stroke fill"
         id="rect742-0-5-4"
         width="8.9306889"
         height="7.7435918"
         x="178.39601"
         y="226.8718" /><rect
         style="fill:#f16a7b;fill-opacity:1;stroke:none;stroke-width:0.25;stroke-linecap:round;stroke-linejoin:round;stroke-opacity:1;paint-order:markers stroke fill"
         id="rect742-2-2-5-8"
         width="8.9306889"
         height="7.7435918"
         x="187.32669"
         y="226.8718" /><rect
         style="fill:#f16a7b;fill-opacity:1;stroke:none;stroke-width:0.25;stroke-linecap:round;stroke-linejoin:round;stroke-opacity:1;paint-order:markers stroke fill"
         id="rect742-2-5-8"
         width="8.9306889"
         height="7.7435918"
         x="138.20795"
         y="-242.35898"
         transform="scale(1,-1)" /><rect
         style="fill:#fa9bed;fill-opacity:1;stroke:none;stroke-width:0.25;stroke-linecap:round;stroke-linejoin:round;stroke-opacity:1;paint-order:markers stroke fill"
         id="rect742-0-8"
         width="8.9306889"
         height="7.7435918"
         x="147.13863"
         y="-242.35898"
         transform="scale(1,-1)" /><rect
         style="fill:#ff634d;fill-opacity:1;stroke:none;stroke-width:0.25;stroke-linecap:round;stroke-linejoin:round;stroke-opacity:1;paint-order:markers stroke fill"
         id="rect742-2-2-57"
         width="8.9306889"
         height="7.7435918"
         x="156.06931"
         y="-242.35898"
         transform="scale(1,-1)" /><rect
         style="fill:#feec06;fill-opacity:1;stroke:none;stroke-width:0.25;stroke-linecap:round;stroke-linejoin:round;stroke-opacity:1;paint-order:markers stroke fill"
         id="rect742-2-5-1-7"
         width="8.9306889"
         height="7.7435918"
         x="164.99998"
         y="-242.35898"
         transform="scale(1,-1)" /><rect
         style="fill:#5d8acd;fill-opacity:1;stroke:none;stroke-width:0.25;stroke-linecap:round;stroke-linejoin:round;stroke-opacity:1;paint-order:markers stroke fill"
         id="rect742-0-5-0"
         width="8.9306889"
         height="7.7435918"
         x="173.93066"
         y="-242.35898"
         transform="scale(1,-1)" /><rect
         style="fill:#24906e;fill-opacity:1;stroke:none;stroke-width:0.25;stroke-linecap:round;stroke-linejoin:round;stroke-opacity:1;paint-order:markers stroke fill"
         id="rect742-2-2-5-89"
         width="8.9306889"
         height="7.7435918"
         x="182.86134"
         y="-242.35898"
         transform="scale(1,-1)" /><path
         d="m 183.79486,235.54886 v 5.87665 h 1.84278 v -2.93006 l 0.90485,2.93006 h 1.57717 l 0.90485,-2.93006 v 2.93006 h 1.834 v -5.87665 h -2.24948 l -1.26142,3.52744 -1.29501,-3.52744 z"
         id="path767" /><path
         d="m 175.79384,235.51992 v 3.31195 c 0,0.56443 0.10769,1.04267 0.3235,1.43557 0.21581,0.39289 0.51476,0.6891 0.89658,0.88831 0.38736,0.19922 0.83006,0.29869 1.32809,0.29869 0.49803,0 0.94893,-0.0995 1.35289,-0.29869 0.40396,-0.19921 0.72257,-0.49542 0.95498,-0.88831 0.23241,-0.39843 0.3483,-0.87667 0.3483,-1.43557 v -3.31195 h -1.83452 v 3.31195 c 0,0.27115 -0.0634,0.48651 -0.19068,0.64698 -0.12727,0.15495 -0.32402,0.23255 -0.58963,0.23255 -0.26562,0 -0.4591,-0.0776 -0.58084,-0.23255 -0.11621,-0.16047 -0.17415,-0.37583 -0.17415,-0.64698 v -3.31195 z"
         id="path766" /><path
         d="m 167.50628,235.54886 v 5.87665 h 3.9181 v -1.46916 h -2.07532 v -0.82993 h 1.82624 v -1.38648 h -1.82624 v -0.72192 h 2.07532 v -1.46916 z"
         id="path765" /><path
         d="m 160.43904,235.47004 c -0.42609,0 -0.81084,0.0694 -1.15393,0.20774 -0.33756,0.13834 -0.60591,0.34276 -0.80512,0.61391 -0.19368,0.26562 -0.29042,0.58918 -0.29042,0.971 -0.006,0.38183 0.0803,0.69497 0.25735,0.93845 0.17708,0.24348 0.38748,0.42876 0.63096,0.55604 0.24902,0.12728 0.56164,0.25735 0.93793,0.39015 0.31542,0.11068 0.54771,0.21015 0.69712,0.29869 0.14941,0.083 0.22427,0.19342 0.22427,0.33176 0,0.0996 -0.0361,0.17448 -0.108,0.22428 -0.0664,0.0443 -0.14947,0.0667 -0.24908,0.0667 -0.27115,0 -0.42037,-0.16887 -0.44804,-0.50643 h -1.95905 c 0.0387,0.63638 0.28521,1.1206 0.73897,1.45263 0.4593,0.32649 1.04027,0.48937 1.74305,0.48937 0.46483,0 0.86599,-0.0798 1.20354,-0.24029 0.33756,-0.16047 0.59498,-0.38182 0.77205,-0.66404 0.17708,-0.28776 0.26562,-0.61183 0.26562,-0.97152 0,-0.34309 -0.0885,-0.62784 -0.26562,-0.85473 -0.17707,-0.22688 -0.38748,-0.40396 -0.63097,-0.53123 -0.23795,-0.12728 -0.54237,-0.26009 -0.91312,-0.39843 -0.32096,-0.12174 -0.55597,-0.22395 -0.70539,-0.30696 -0.14387,-0.0885 -0.216,-0.19947 -0.216,-0.33227 0,-0.0941 0.0251,-0.16621 0.0749,-0.21601 0.0498,-0.0553 0.11321,-0.0827 0.19068,-0.0827 0.11068,0 0.20469,0.0361 0.28216,0.108 0.0777,0.0719 0.1192,0.19055 0.12454,0.35657 h 1.98386 c -0.0221,-0.60318 -0.24622,-1.07048 -0.67232,-1.4025 -0.42056,-0.33202 -0.99059,-0.49816 -1.70997,-0.49816 z"
         id="path764" /><path
         d="m 149.0018,235.51992 v 3.31195 c 0,0.56443 0.1082,1.04267 0.32402,1.43557 0.21581,0.39289 0.51424,0.6891 0.89606,0.88831 0.38736,0.19922 0.83006,0.29869 1.32809,0.29869 0.49803,0 0.94945,-0.0995 1.3534,-0.29869 0.40396,-0.19921 0.72206,-0.49542 0.95447,-0.88831 0.23242,-0.39843 0.3483,-0.87667 0.3483,-1.43557 v -3.31195 h -1.834 v 3.31195 c 0,0.27115 -0.0639,0.48651 -0.1912,0.64698 -0.12728,0.15495 -0.32349,0.23255 -0.58911,0.23255 -0.26562,0 -0.45962,-0.0776 -0.58136,-0.23255 -0.11622,-0.16047 -0.17415,-0.37583 -0.17415,-0.64698 v -3.31195 z"
         id="path763" /><path
         d="m 139.14147,235.54886 v 5.87665 h 1.84278 v -2.93006 l 0.90486,2.93006 h 1.57716 l 0.90434,-2.93006 v 2.93006 h 1.83451 v -5.87665 h -2.24947 l -1.26142,3.52744 -1.29501,-3.52744 z"
         id="path762" /><path
         d="m 138.11234,227.72625 c -0.4261,0 -0.81033,0.0694 -1.15342,0.20774 -0.33755,0.13834 -0.60591,0.34328 -0.80512,0.61443 -0.19368,0.26562 -0.29094,0.58918 -0.29094,0.971 -0.006,0.38183 0.0803,0.69445 0.25735,0.93793 0.17707,0.24348 0.38748,0.42877 0.63097,0.55604 0.24901,0.12728 0.56163,0.25735 0.93793,0.39016 0.31542,0.11067 0.54771,0.21015 0.69711,0.29869 0.14941,0.083 0.22428,0.19393 0.22428,0.33228 0,0.0996 -0.0361,0.17447 -0.10801,0.22427 -0.0664,0.0443 -0.14947,0.0661 -0.24908,0.0661 -0.27115,0 -0.42036,-0.16887 -0.44803,-0.50643 h -1.95905 c 0.0387,0.63637 0.2852,1.1206 0.73897,1.45262 0.45929,0.32649 1.04027,0.4899 1.74305,0.4899 0.46482,0 0.86599,-0.0803 1.20354,-0.24082 0.33755,-0.16047 0.59497,-0.38182 0.77205,-0.66404 0.17708,-0.28775 0.26561,-0.61131 0.26561,-0.971 0,-0.34309 -0.0885,-0.62836 -0.26561,-0.85524 -0.17708,-0.22688 -0.38749,-0.40396 -0.63097,-0.53124 -0.23795,-0.12727 -0.54237,-0.26008 -0.91313,-0.39842 -0.32095,-0.12174 -0.55597,-0.22395 -0.70538,-0.30696 -0.14387,-0.0885 -0.21601,-0.19896 -0.21601,-0.33176 0,-0.0941 0.0251,-0.16621 0.0749,-0.21601 0.0498,-0.0553 0.11322,-0.0832 0.19069,-0.0832 0.11067,0 0.20468,0.0361 0.28215,0.108 0.0777,0.0719 0.11921,0.19107 0.12454,0.35709 h 1.98386 c -0.0221,-0.60318 -0.24622,-1.071 -0.67231,-1.40302 -0.42056,-0.33202 -0.99059,-0.49816 -1.70997,-0.49816 z"
         id="path761" /><path
         d="m 147.16758,227.7554 c -0.59211,0 -1.10642,0.12734 -1.54358,0.38189 -0.43716,0.24902 -0.77491,0.60044 -1.01285,1.0542 -0.23242,0.45376 -0.34882,0.9708 -0.34882,1.55184 0,0.58103 0.1164,1.0986 0.34882,1.55236 0.23794,0.45377 0.57569,0.80792 1.01285,1.06247 0.43716,0.24901 0.95147,0.37362 1.54358,0.37362 0.5091,0 0.96325,-0.094 1.36167,-0.28215 0.40396,-0.19368 0.73025,-0.46477 0.97927,-0.81339 0.25455,-0.34863 0.42342,-0.75577 0.50643,-1.2206 h -1.94252 c -0.0885,0.19368 -0.21587,0.34615 -0.38189,0.45682 -0.16047,0.10514 -0.34575,0.15761 -0.55603,0.15761 -0.30989,0 -0.55636,-0.1164 -0.73898,-0.34881 -0.17708,-0.23242 -0.26561,-0.54504 -0.26561,-0.93793 0,-0.39289 0.0885,-0.70551 0.26561,-0.93793 0.18262,-0.23241 0.42909,-0.3483 0.73898,-0.3483 0.21028,0 0.39556,0.0552 0.55603,0.16589 0.16602,0.10514 0.29335,0.25435 0.38189,0.44803 h 1.94252 c -0.083,-0.46483 -0.25188,-0.87146 -0.50643,-1.22008 -0.24902,-0.34862 -0.57531,-0.61697 -0.97927,-0.80512 -0.39842,-0.19368 -0.85257,-0.29042 -1.36167,-0.29042 z"
         id="path760" /><path
         d="m 155.14793,227.80527 v 5.87664 h 1.84278 v -5.87664 z"
         id="path759" /><path
         d="m 163.0412,227.80527 v 5.87664 h 3.91759 v -1.46916 h -2.07481 v -0.82992 h 1.82573 v -1.38597 h -1.82573 v -0.72243 h 2.07481 v -1.46916 z"
         id="path758" /><path
         d="m 171.11276,227.80527 v 5.87664 h 1.84226 v -2.95486 l 1.95079,2.95486 h 1.84278 v -5.87664 h -1.84278 v 3.00498 l -1.95079,-3.00498 z"
         id="path757" /><path
         d="m 182.89055,227.7554 c -0.5921,0 -1.10692,0.12734 -1.54409,0.38189 -0.43716,0.24902 -0.77439,0.60044 -1.01234,1.0542 -0.23241,0.45376 -0.34882,0.9708 -0.34882,1.55184 0,0.58103 0.11641,1.0986 0.34882,1.55236 0.23795,0.45377 0.57518,0.80792 1.01234,1.06247 0.43717,0.24901 0.95199,0.37362 1.54409,0.37362 0.5091,0 0.96273,-0.094 1.36116,-0.28215 0.40395,-0.19368 0.73025,-0.46477 0.97927,-0.81339 0.25454,-0.34863 0.42342,-0.75577 0.50643,-1.2206 h -1.942 c -0.0885,0.19368 -0.21588,0.34615 -0.38189,0.45682 -0.16048,0.10514 -0.34576,0.15761 -0.55604,0.15761 -0.30989,0 -0.55636,-0.1164 -0.73897,-0.34881 -0.17708,-0.23242 -0.26562,-0.54504 -0.26562,-0.93793 0,-0.39289 0.0885,-0.70551 0.26562,-0.93793 0.18261,-0.23241 0.42908,-0.3483 0.73897,-0.3483 0.21028,0 0.39556,0.0552 0.55604,0.16589 0.16601,0.10514 0.29335,0.25435 0.38189,0.44803 h 1.942 c -0.083,-0.46483 -0.25189,-0.87146 -0.50643,-1.22008 -0.24902,-0.34862 -0.57532,-0.61697 -0.97927,-0.80512 -0.39843,-0.19368 -0.85206,-0.29042 -1.36116,-0.29042 z"
         id="path756" /><path
         d="m 189.83298,227.80527 v 5.87664 h 3.91811 v -1.46916 h -2.07533 v -0.82992 h 1.82625 v -1.38597 h -1.82625 v -0.72243 h 2.07533 v -1.46916 z"
         id="path755" /><path
         d="m 197.69292,220.06168 2.1084,4.09226 v 1.78438 h 1.84278 v -1.78438 l 2.1084,-4.09226 h -2.07533 l -0.93792,2.08308 -0.93793,-2.08308 z"
         id="path754" /><path
         d="m 189.31855,220.06168 v 1.46089 h 1.54409 v 4.41575 h 1.84278 v -4.41575 h 1.56011 v -1.46089 z"
         id="path753" /><path
         d="m 181.94022,220.06168 v 5.87664 h 1.84227 v -5.87664 z"
         id="path752" /><path
         d="m 171.11276,220.06168 v 5.87664 h 1.84278 v -2.95486 l 1.95027,2.95486 h 1.84278 v -5.87664 h -1.84278 v 3.00447 l -1.95027,-3.00447 z"
         id="path751" /><path
         d="m 162.39783,220.03274 v 3.31194 c 0,0.56443 0.10768,1.04268 0.32349,1.43557 0.21581,0.3929 0.51476,0.68911 0.89659,0.88832 0.38735,0.19921 0.83005,0.29869 1.32808,0.29869 0.49803,0 0.94893,-0.0995 1.35289,-0.29869 0.40395,-0.19921 0.72205,-0.49542 0.95446,-0.88832 0.23242,-0.39842 0.34882,-0.87667 0.34882,-1.43557 v -3.31194 h -1.83451 v 3.31194 c 0,0.27115 -0.0634,0.48703 -0.19069,0.64751 -0.12727,0.15494 -0.32401,0.23202 -0.58963,0.23202 -0.26561,0 -0.4591,-0.0771 -0.58084,-0.23202 -0.11621,-0.16048 -0.17415,-0.37636 -0.17415,-0.64751 v -3.31194 z"
         id="path750" /><path
         d="m 152.53749,220.06168 v 5.87664 h 1.84227 v -2.93005 l 0.90485,2.93005 h 1.57717 l 0.90485,-2.93005 v 2.93005 h 1.83451 v -5.87664 h -2.24947 l -1.26194,3.52743 -1.29449,-3.52743 z"
         id="path749" /><path
         d="m 143.6068,220.06168 v 5.87664 h 1.84278 v -2.93005 l 0.90486,2.93005 h 1.57716 l 0.90486,-2.93005 v 2.93005 h 1.83399 v -5.87664 h -2.24947 l -1.26142,3.52743 -1.29502,-3.52743 z"
         id="path748" /><path
         d="m 138.21596,219.98287 c -0.55337,0 -1.06221,0.13008 -1.52704,0.39016 -0.4593,0.25455 -0.82439,0.61144 -1.09554,1.07074 -0.27115,0.45929 -0.4067,0.97685 -0.4067,1.55236 0,0.5755 0.13555,1.09255 0.4067,1.55184 0.27115,0.4593 0.63624,0.81892 1.09554,1.079 0.46483,0.26009 0.97367,0.39016 1.52704,0.39016 0.54783,0 1.05172,-0.13007 1.51102,-0.39016 0.46483,-0.26008 0.82992,-0.6197 1.09554,-1.079 0.27115,-0.45929 0.40669,-0.97634 0.40669,-1.55184 0,-0.57551 -0.13554,-1.09307 -0.40669,-1.55236 -0.26562,-0.4593 -0.62798,-0.81619 -1.08728,-1.07074 -0.45929,-0.26008 -0.96592,-0.39016 -1.51928,-0.39016 z m 0,1.70171 c 0.36522,0 0.64776,0.11861 0.84697,0.35657 0.19922,0.23241 0.29869,0.55102 0.29869,0.95498 0,0.39842 -0.0995,0.71651 -0.29869,0.95446 -0.19921,0.23241 -0.48175,0.3483 -0.84697,0.3483 -0.37076,0 -0.65552,-0.11589 -0.85473,-0.3483 -0.19921,-0.23795 -0.29869,-0.55604 -0.29869,-0.95446 0,-0.40396 0.0995,-0.72257 0.29869,-0.95498 0.19921,-0.23796 0.48397,-0.35657 0.85473,-0.35657 z"
         id="path747" /><path
         d="m 129.30594,220.01181 c -0.5921,0 -1.10641,0.12735 -1.54357,0.38189 -0.43716,0.24902 -0.77491,0.60044 -1.01286,1.0542 -0.23241,0.45376 -0.3483,0.97132 -0.3483,1.55236 0,0.58104 0.11589,1.09808 0.3483,1.55185 0.23795,0.45376 0.5757,0.80792 1.01286,1.06246 0.43716,0.24902 0.95147,0.37362 1.54357,0.37362 0.5091,0 0.96325,-0.094 1.36168,-0.28215 0.40396,-0.19368 0.73025,-0.46477 0.97926,-0.81339 0.25456,-0.34862 0.42343,-0.75525 0.50643,-1.22008 h -1.94251 c -0.0885,0.19368 -0.21588,0.34563 -0.38189,0.45631 -0.16048,0.10514 -0.34577,0.15761 -0.55604,0.15761 -0.30989,0 -0.55584,-0.11589 -0.73846,-0.3483 -0.17708,-0.23242 -0.26561,-0.54504 -0.26561,-0.93793 0,-0.39289 0.0885,-0.70551 0.26561,-0.93792 0.18262,-0.23242 0.42857,-0.34882 0.73846,-0.34882 0.21027,0 0.39556,0.0552 0.55604,0.16588 0.16601,0.10514 0.29335,0.25487 0.38189,0.44855 h 1.94251 c -0.083,-0.46483 -0.25187,-0.87146 -0.50643,-1.22008 -0.24901,-0.34862 -0.5753,-0.61749 -0.97926,-0.80563 -0.39843,-0.19368 -0.85258,-0.29043 -1.36168,-0.29043 z"
         id="path746" /></g></g></svg>
