<?xml version="1.0" encoding="UTF-8" standalone="no"?>
<!-- Created with Inkscape (http://www.inkscape.org/) -->

<svg
   width="23.596445mm"
   height="16.887426mm"
   viewBox="0 0 23.596445 16.887426"
   version="1.1"
   id="svg1"
   xml:space="preserve"
   xmlns="http://www.w3.org/2000/svg"
   xmlns:svg="http://www.w3.org/2000/svg"><defs
     id="defs1" /><g
     id="layer1"
     transform="translate(-140.31789,-21.338011)"><g
       id="g598"
       transform="translate(91.210468,5.0136812)"><path
         d="m 55.573171,19.447654 c -1.31781,0 -2.46352,0.283545 -3.43648,0.850077 -0.97296,0.554217 -1.72403,1.336204 -2.253611,2.34611 -0.517269,1.009906 -0.775661,2.161398 -0.775661,3.45457 0,1.293173 0.258392,2.444663 0.775661,3.454569 0.529581,1.009907 1.280651,1.798181 2.253611,2.364714 0.97296,0.554217 2.11867,0.831473 3.43648,0.831473 0.37867,0 0.74385,-0.02297 1.09503,-0.06976 V 28.65433 c -0.341,0.205107 -0.73075,0.307475 -1.16892,0.307475 -0.68969,0 -1.23793,-0.258394 -1.64435,-0.775664 -0.39411,-0.517269 -0.59118,-1.213295 -0.59118,-2.087727 0,-0.874432 0.19707,-1.570458 0.59118,-2.087728 0.40642,-0.517268 0.95466,-0.775664 1.64435,-0.775664 0.43817,0 0.82792,0.108096 1.16892,0.324012 0.003,0.0021 0.007,0.0041 0.01,0.0062 0.0198,0.01272 0.0394,0.02582 0.0589,0.03927 0.36948,0.234003 0.65251,0.566297 0.84956,0.997355 h 4.32325 c -0.0394,-0.220452 -0.0875,-0.434669 -0.14418,-0.643372 -0.002,-0.0079 -0.004,-0.01587 -0.006,-0.02377 -0.20969,-0.76115 -0.53546,-1.444162 -0.97668,-2.048453 -0.40057,-0.560793 -0.8911,-1.027865 -1.47175,-1.401982 -0.006,-0.0037 -0.0113,-0.0077 -0.017,-0.01137 -0.21762,-0.139091 -0.44813,-0.26519 -0.69092,-0.378271 -0.0808,-0.03929 -0.16259,-0.07643 -0.24546,-0.112138 -0.51958,-0.223888 -1.07943,-0.377744 -1.67948,-0.460954 -0.35423,-0.04912 -0.72259,-0.0739 -1.10485,-0.0739 z"
         style="font-size:18.4739px;line-height:1;font-family:poppins;-inkscape-font-specification:poppins;text-align:center;letter-spacing:0px;text-anchor:middle;fill:#2c2c2c;stroke-width:0.264583;stroke-linecap:round;stroke-linejoin:round;paint-order:markers stroke fill"
         id="path479" /><path
         d="m 70.186231,20.132366 c 0.0148,0.134574 0.0248,0.271888 0.03,0.411861 a 0.28252825,0.28252825 0 0 1 -0.28319,0.293005 h -2.4877 l -0.31626,0.885218 c 0.41782,0.176994 0.78593,0.35038 1.10587,0.521415 l 0.002,0.0016 c 0.57703,0.302082 1.07757,0.724294 1.49397,1.257805 0.43666,0.559477 0.6506,1.264293 0.6506,2.076359 0,0.846779 -0.21133,1.62517 -0.63303,2.310453 a 0.28252825,0.28252825 0 0 1 0,0.0021 c -0.28772,0.458545 -0.66617,0.84979 -1.12707,1.171505 v 4.148067 h 4.08244 V 20.132366 Z"
         style="font-size:18.4739px;line-height:1;font-family:poppins;-inkscape-font-specification:poppins;text-align:center;letter-spacing:0px;text-anchor:middle;fill:#2c2c2c;stroke-width:0.264583;stroke-linecap:round;stroke-linejoin:round;paint-order:markers stroke fill"
         id="path469" /><path
         d="m 67.737291,29.55298 c -0.75805,0.32572 -1.63516,0.483691 -2.62568,0.483691 -1.21085,0 -2.27943,-0.213333 -3.1936,-0.645955 l 1.17977,3.820955 h 3.50986 z"
         style="font-size:18.4739px;line-height:1;font-family:poppins;-inkscape-font-specification:poppins;text-align:center;letter-spacing:0px;text-anchor:middle;fill:#2c2c2c;stroke-width:0.264583;stroke-linecap:round;stroke-linejoin:round;paint-order:markers stroke fill"
         id="path468" /><path
         d="m 62.174321,24.222556 c 0.0232,0.105614 0.0447,0.212659 0.0641,0.32091 a 0.33253326,0.33253326 0 0 1 -0.32608,0.390674 h -4.32428 a 0.33253326,0.33253326 0 0 1 -0.30283,-0.19327 c -0.0853,-0.186497 -0.18567,-0.348165 -0.30282,-0.487825 v 4.292244 a 0.33253326,0.33253326 0 0 1 0.0186,0.109554 v 4.025077 a 0.33253326,0.33253326 0 0 1 -0.0186,0.107487 v 0.424264 h 4.10104 l 5.2e-4,-4.306714 c -0.005,-0.0035 -0.0101,-0.0073 -0.015,-0.01085 a 0.28252825,0.28252825 0 0 1 -0.004,-0.0021 c -1.07621,-0.787471 -1.66949,-1.963039 -1.75959,-3.443201 a 0.28252825,0.28252825 0 0 1 0.28319,-0.298689 h 4.26072 l -0.11951,-0.327598 c -0.0437,-0.01567 -0.0886,-0.03114 -0.13384,-0.04703 a 0.28252825,0.28252825 0 0 1 -0.002,0 c -0.52739,-0.186136 -1.0002,-0.370201 -1.41955,-0.552937 z"
         style="font-size:18.4739px;line-height:1;font-family:poppins;-inkscape-font-specification:poppins;text-align:center;letter-spacing:0px;text-anchor:middle;fill:#2c2c2c;stroke-width:0.264583;stroke-linecap:round;stroke-linejoin:round;paint-order:markers stroke fill"
         id="path489" /><path
         d="m 64.631021,16.32433 c -0.94834,0 -1.80421,0.153573 -2.5678,0.46147 -0.75127,0.307899 -1.34876,0.763878 -1.79214,1.367359 -0.42757,0.586387 -0.6425,1.3001 -0.64596,2.140954 0.55772,0.381038 1.03584,0.848981 1.42937,1.399915 0.46432,0.636847 0.80815,1.35672 1.02733,2.152323 a 0.33253326,0.33253326 0 0 1 0.002,0.0078 c 0.002,0.0062 0.003,0.01187 0.004,0.01757 l 5.2e-4,0.0021 c 0,0 5.1e-4,0 5.1e-4,0 0.45879,0.208088 0.99183,0.419457 1.59991,0.634069 0.70201,0.246319 1.2188,0.468021 1.55132,0.665076 0.33254,0.18474 0.4992,0.431075 0.4992,0.738973 0,0.221686 -0.0802,0.388351 -0.2403,0.499194 -0.1478,0.09853 -0.33281,0.147795 -0.55449,0.147795 -0.60344,0 -0.93574,-0.375791 -0.99735,-1.127063 h -4.35994 c 0.0862,1.416332 0.63443,2.493922 1.64434,3.232878 1.02222,0.726641 2.31521,1.089856 3.87935,1.089856 1.03452,0 1.92764,-0.178206 2.67891,-0.535368 0.75128,-0.357161 1.32413,-0.849833 1.71824,-1.477946 0.3941,-0.640428 0.59066,-1.361088 0.59066,-2.161625 0,-0.763586 -0.19656,-1.397774 -0.59066,-1.902727 -0.39411,-0.504953 -0.86214,-0.899089 -1.40405,-1.182356 -0.52959,-0.283266 -1.20727,-0.57887 -2.03243,-0.886768 -0.71433,-0.270951 -1.23791,-0.498941 -1.57045,-0.683679 -0.3202,-0.197055 -0.48007,-0.443391 -0.48007,-0.738973 0,-0.209372 0.0556,-0.36923 0.16639,-0.480074 0.11085,-0.123158 0.25236,-0.185002 0.42478,-0.185002 0.24633,0 0.45546,0.08019 0.62787,0.240296 0.1724,0.160107 0.26515,0.424789 0.27751,0.794266 h 4.41523 c -0.0492,-1.342437 -0.54822,-2.382817 -1.49655,-3.121773 -0.93601,-0.738955 -2.20438,-1.108459 -3.80545,-1.108459 z"
         style="font-size:18.4739px;line-height:1;font-family:poppins;-inkscape-font-specification:poppins;text-align:center;letter-spacing:0px;text-anchor:middle;fill:#2c2c2c;stroke-width:0.264583;stroke-linecap:round;stroke-linejoin:round;paint-order:markers stroke fill"
         id="path488" /></g></g></svg>
