<?xml version="1.0" encoding="UTF-8" standalone="no"?>
<!-- Created with Inkscape (http://www.inkscape.org/) -->

<svg
   width="48.211563mm"
   height="31.157993mm"
   viewBox="0 0 48.211563 31.157993"
   version="1.1"
   id="svg1"
   xml:space="preserve"
   xmlns="http://www.w3.org/2000/svg"
   xmlns:svg="http://www.w3.org/2000/svg"><defs
     id="defs1" /><g
     id="layer1"
     transform="translate(-19.058365,-100.93977)"><g
       id="g597"
       transform="translate(-63.417487,92.671297)"><g
         id="g596"><g
           id="g522"
           transform="translate(-30.920332,-136.33452)"><path
             d="m 136.98494,152.96073 v 5.78621 0.87799 c 0.92729,0.39181 1.69911,0.76977 2.32131,1.13946 l 0.002,0.002 c 0.70631,0.4107 1.31571,0.98235 1.82211,1.70326 0.52786,0.75146 0.7829,1.68901 0.7829,2.77915 0,1.13804 -0.25227,2.17901 -0.76326,3.10162 a 0.33253326,0.33253326 0 0 1 -0.002,0.004 c -0.51377,0.90979 -1.26894,1.62875 -2.23862,2.14096 -0.17948,0.0948 -0.36478,0.1808 -0.55604,0.25786 h 3.65301 v -8.87079 l 2.46496,8.87078 h 4.29742 l 2.46548,-8.87078 v 8.87078 h 4.99866 v -17.7922 h -6.12986 l -3.43751,10.68049 -3.52847,-10.68049 h -4.88187 z"
             style="font-size:23.841px;line-height:1;font-family:poppins;-inkscape-font-specification:poppins;text-align:center;letter-spacing:0px;text-anchor:middle;fill:#2c2c2c;stroke-width:0.665;stroke-linecap:round;stroke-linejoin:round;paint-order:markers stroke fill"
             id="path516" /><path
             d="m 134.88688,152.65894 c -1.16104,0 -2.20913,0.20955 -3.144,0.62839 -0.44265,0.20157 -0.84154,0.44992 -1.19682,0.74466 -0.38297,0.31769 -0.71525,0.68932 -0.99684,1.11517 -0.52775,0.80418 -0.79168,1.78387 -0.79168,2.93987 -0.0101,0.77428 0.0912,1.45473 0.30437,2.04122 0.10509,0.28916 0.23754,0.5555 0.39687,0.79892 0.48252,0.73716 1.05531,1.29829 1.71876,1.68362 0.53339,0.30291 1.17412,0.6108 1.92185,0.92397 h 0.28732 a 0.33253326,0.33253326 0 0 1 0.32091,0.2465 c 0.009,0.003 0.0172,0.007 0.0258,0.0103 0.85948,0.33507 1.49251,0.6368 1.89963,0.90485 0.40712,0.25131 0.61081,0.58627 0.61081,1.00511 0,0.30157 -0.098,0.52773 -0.29404,0.67851 -0.18094,0.13403 -0.40709,0.20102 -0.67851,0.20102 -0.73884,0 -1.14623,-0.51075 -1.22163,-1.53272 h -0.57516 c -0.26574,0.99186 -0.66165,1.89206 -1.18959,2.69544 -0.42682,0.66342 -0.93668,1.24071 -1.52601,1.72858 1.24622,0.97093 2.8181,1.45676 4.716,1.45676 0.4158,0 0.81273,-0.0261 1.19114,-0.0786 0.77425,-0.10725 1.47041,-0.32425 2.08824,-0.65061 0.91979,-0.48585 1.62124,-1.15577 2.10375,-2.01021 0.48251,-0.87119 0.72347,-1.8514 0.72347,-2.94039 0,-1.03873 -0.24096,-1.90157 -0.72347,-2.58847 -0.48251,-0.6869 -1.05582,-1.22284 -1.71928,-1.60817 -0.64826,-0.38527 -1.47716,-0.78788 -2.48718,-1.20665 h -5.2e-4 c -0.87455,-0.36858 -1.51576,-0.67835 -1.92288,-0.92966 -0.39204,-0.26805 -0.58756,-0.60301 -0.58756,-1.0051 0,-0.28481 0.0674,-0.50241 0.20309,-0.65319 0.1357,-0.16754 0.30928,-0.25167 0.52038,-0.25167 0.30157,0 0.55785,0.1088 0.76894,0.3266 0.21113,0.2178 0.32447,0.57846 0.33952,1.08107 h 0.67903 v -5.45342 a 0.33253326,0.33253326 0 0 1 0.031,-0.14004 c -0.55483,-0.10792 -1.15351,-0.16175 -1.79576,-0.16175 z"
             style="font-size:23.841px;line-height:1;font-family:poppins;-inkscape-font-specification:poppins;text-align:center;letter-spacing:0px;text-anchor:middle;fill:#2c2c2c;stroke-width:0.665;stroke-linecap:round;stroke-linejoin:round;paint-order:markers stroke fill"
             id="path520" /><path
             d="m 125.62853,152.78452 c -1.6134,0 -3.01578,0.38533 -4.20698,1.156 -1.1912,0.75391 -2.11063,1.81773 -2.75901,3.19153 -0.63329,1.3738 -0.94981,2.94033 -0.94981,4.69946 0,1.75913 0.31652,3.32565 0.94981,4.69945 0.64838,1.3738 1.56781,2.44619 2.75901,3.21686 1.1912,0.75392 2.59358,1.13068 4.20698,1.13068 1.38722,0 2.62368,-0.28459 3.70933,-0.85421 0.31651,-0.16861 0.61548,-0.35638 0.8971,-0.56379 0.69779,-0.5139 1.28857,-1.14713 1.77199,-1.89911 0.5505,-0.8377 0.95367,-1.78645 1.20974,-2.84582 0.0562,-0.23249 0.10527,-0.46997 0.14728,-0.71313 0.008,-0.0449 0.0155,-0.0902 0.0227,-0.1354 h -0.35347 -4.93923 c -0.24126,0.58638 -0.58789,1.04727 -1.04025,1.38235 -0.43727,0.31832 -0.94268,0.47749 -1.51567,0.47749 -0.84439,0 -1.5152,-0.35158 -2.01279,-1.05523 -0.48251,-0.70366 -0.72399,-1.65063 -0.72399,-2.84014 0,-1.18951 0.24148,-2.13597 0.72399,-2.83962 0.49759,-0.70365 1.1684,-1.05523 2.01279,-1.05523 0.57299,0 1.0784,0.16722 1.51567,0.50229 0.45236,0.31832 0.79899,0.77065 1.04025,1.35702 h 0.51831 c -0.1336,-0.51816 -0.19483,-1.0895 -0.18706,-1.70945 v -0.002 c 1e-5,-8.5e-4 -1e-5,-8.2e-4 0,-0.002 6.5e-4,-1.20484 0.27828,-2.25343 0.84542,-3.11764 a 0.33253326,0.33253326 0 0 1 0,-0.002 c 0.21838,-0.33025 0.46672,-0.63064 0.74414,-0.90072 -0.21607,-0.14404 -0.4416,-0.27715 -0.67696,-0.39894 -1.08565,-0.58638 -2.32211,-0.87954 -3.70933,-0.87954 z"
             style="font-size:23.841px;line-height:1;font-family:poppins;-inkscape-font-specification:poppins;text-align:center;letter-spacing:0px;text-anchor:middle;fill:#2c2c2c;stroke-width:0.665;stroke-linecap:round;stroke-linejoin:round;paint-order:markers stroke fill"
             id="path512" /></g></g><path
         id="rect520"
         style="fill:#2c2c2c;stroke:none;stroke-width:0.780516;stroke-linecap:round;stroke-linejoin:round;paint-order:markers stroke fill"
         d="m 141.16053,145.21298 15.3631,5.26954 a 0.89616447,0.89616447 99.465981 0 1 -0.29076,1.74385 h -37.46181 a 0.89616483,0.89616483 80.534015 0 1 -0.29076,-1.74385 l 15.36309,-5.26954 a 11.276388,11.276388 180 0 1 7.31714,0 z"
         transform="matrix(1.2281903,0,0,1,-62.296942,-136.33452)" /><rect
         style="fill:#2c2c2c;fill-opacity:1;stroke:none;stroke-width:0.865001;stroke-linecap:round;stroke-linejoin:round;paint-order:markers stroke fill"
         id="rect522"
         width="48.211552"
         height="4.3943882"
         x="82.475853"
         y="35.032059"
         ry="1.3890646"
         rx="1.3890646" /></g></g></svg>
