<?xml version="1.0" encoding="UTF-8" standalone="no"?>
<!-- Created with Inkscape (http://www.inkscape.org/) -->

<svg
   width="64.398476mm"
   height="41.243656mm"
   viewBox="0 0 64.398476 41.243656"
   version="1.1"
   id="svg1"
   xml:space="preserve"
   xmlns="http://www.w3.org/2000/svg"
   xmlns:svg="http://www.w3.org/2000/svg"><defs
     id="defs1" /><g
     id="layer1"
     transform="translate(-25.041364,-203.47155)"><g
       id="g724"
       transform="translate(-0.18598535,8.0354586)"><path
         d="m 42.945719,213.58289 a 24.035676,5.4268788 30 0 1 -6.334685,-8.71515 24.035676,5.4268788 30 0 1 10.71478,1.12924 14.852815,14.852815 0 0 1 1.45454,-1.18583 14.852815,14.852815 0 0 1 0.43961,-0.2764 14.852815,14.852815 0 0 1 1.14516,-0.71271 14.852815,14.852815 0 0 1 0.0363,-0.0225 36.868292,8.3242822 30 0 0 -24.904083,-5.34778 36.868292,8.3242822 30 0 0 17.083538,18.8936 14.852815,14.852815 0 0 1 0.36487,-3.76245 z"
         style="fill:#2c2c2c;stroke-width:1;stroke-linecap:round;stroke-linejoin:round;paint-order:markers stroke fill"
         id="path709" /><path
         d="m 57.426254,220.05384 v -18.02098 a 14.852815,14.852815 0 0 0 -7.06113,1.78918 14.852815,14.852815 0 0 0 -1.14516,0.71271 14.852815,14.852815 0 0 0 -0.43961,0.2764 14.852815,14.852815 0 0 0 -1.45454,1.18583 24.035676,5.4268788 30 0 1 -5.5e-4,0 14.852815,14.852815 0 0 0 -2.76181,3.46243 14.852815,14.852815 0 0 0 -0.69896,1.36991 24.035676,5.4268788 30 0 0 0.75062,0.62698 24.035676,5.4268788 30 0 0 11.76653,8.00188 24.035676,5.4268788 30 0 0 1.04461,0.59566 z"
         style="fill:#3b5fcf;stroke-width:1;stroke-linecap:round;stroke-linejoin:round;paint-order:markers stroke fill"
         id="path707" /><path
         d="m 57.426254,226.4171 v -3.31735 a 24.035676,5.4268788 30 0 1 -2.71345,-1.51443 24.035676,5.4268788 30 0 1 -11.767085,-8.00243 14.852815,14.852815 0 0 0 -0.364869,3.76245 36.868292,8.3242822 30 0 0 10.682904,6.74901 36.868292,8.3242822 30 0 0 4.1625,2.32275 z"
         style="fill:#2c2c2c;stroke-width:1;stroke-linecap:round;stroke-linejoin:round;paint-order:markers stroke fill"
         id="path706" /><path
         d="m 57.426254,231.7385 v -5.3214 a 36.868292,8.3242822 30 0 1 -4.1625,-2.32275 36.868292,8.3242822 30 0 1 -10.682904,-6.74901 14.852815,14.852815 0 0 0 7.419404,12.40341 14.852815,14.852815 0 0 0 7.426,1.98975 z"
         style="fill:#3b5fcf;stroke-width:1;stroke-linecap:round;stroke-linejoin:round;paint-order:markers stroke fill"
         id="path705" /><path
         d="m 57.426254,223.09975 v -3.04591 a 24.035676,5.4268788 30 0 1 -1.04461,-0.59566 24.035676,5.4268788 30 0 1 -11.76653,-8.00188 24.035676,5.4268788 30 0 1 -0.75062,-0.62698 14.852815,14.852815 0 0 0 -0.918775,2.75357 24.035676,5.4268788 30 0 0 11.767085,8.00243 24.035676,5.4268788 30 0 0 2.71345,1.51443 z"
         style="fill:#2141ca;stroke-width:1;stroke-linecap:round;stroke-linejoin:round;paint-order:markers stroke fill"
         id="path708" /><path
         d="m 57.426254,231.7385 a 14.852815,14.852815 0 0 0 7.02486,-1.76611 36.868292,8.3242822 30 0 1 -7.02486,-3.55529 z"
         style="opacity:0.25;fill:#3b5fcf;fill-opacity:1;stroke-width:1;stroke-linecap:round;stroke-linejoin:round;paint-order:markers stroke fill"
         id="path704" /><path
         d="m 72.272214,216.42656 a 14.852815,14.852815 0 0 1 -0.0763,1.98042 14.852815,14.852815 0 0 1 -0.10166,0.62863 14.852815,14.852815 0 0 1 -0.18683,1.15341 24.035676,5.4268788 30 0 1 6.33414,8.71459 24.035676,5.4268788 30 0 1 -10.71368,-1.12813 24.035676,5.4268788 30 0 1 -5.5e-4,0 24.035676,5.4268788 30 0 1 -2.38265,-0.95284 24.035676,5.4268788 30 0 1 -7.71834,-3.72289 v 3.31735 a 36.868292,8.3242822 30 0 0 7.02487,3.55529 36.868292,8.3242822 30 0 0 24.90462,5.34778 36.868292,8.3242822 30 0 0 -17.08353,-18.89361 z"
         style="opacity:0.25;fill:#2c2c2c;stroke-width:1;stroke-linecap:round;stroke-linejoin:round;paint-order:markers stroke fill"
         id="path710" /><path
         d="m 57.426254,223.09975 a 24.035676,5.4268788 30 0 0 10.10099,4.67518 14.852815,14.852815 0 0 0 0.0802,-0.0819 14.852815,14.852815 0 0 0 0.91932,-0.9424 14.852815,14.852815 0 0 0 0.32036,-0.39344 14.852815,14.852815 0 0 0 0.51544,-0.64677 24.035676,5.4268788 30 0 1 -0.16595,-0.0621 24.035676,5.4268788 30 0 1 -11.77039,-5.5945 z"
         style="opacity:0.25;fill:#2141ca;stroke-width:1;stroke-linecap:round;stroke-linejoin:round;paint-order:markers stroke fill"
         id="path702" /><path
         d="m 57.426254,220.05384 a 24.035676,5.4268788 30 0 0 11.77038,5.5945 24.035676,5.4268788 30 0 0 0.16595,0.0621 14.852815,14.852815 0 0 0 0.92701,-1.39794 14.852815,14.852815 0 0 0 1.80457,-5.27689 14.852815,14.852815 0 0 0 0.10166,-0.62863 14.852815,14.852815 0 0 0 -7.34302,-14.38382 14.852815,14.852815 0 0 0 -7.42655,-1.9903 z"
         style="opacity:0.25;fill:#3b5fcf;fill-opacity:1;stroke-width:1;stroke-linecap:round;stroke-linejoin:round;paint-order:markers stroke fill"
         id="path701" /><path
         d="m 82.427274,210.39281 c -0.52359,0 -0.97721,0.33125 -1.16169,0.79323 h -8.83822 a 0.50005,0.50005 0 0 0 -0.49971,0.49972 v 4.49998 h -14.26166 a 0.5,0.5 0 0 0 -0.23874,0.0605 v 0.87953 a 0.5,0.5 0 0 0 0.23874,0.06 h 14.76137 a 0.50005,0.50005 0 0 0 0.50023,-0.49971 v -4.49999 h 8.37572 c 0.20398,0.41655 0.63345,0.70694 1.12396,0.70694 0.68443,0 1.25005,-0.56563 1.25005,-1.25006 1e-5,-0.68444 -0.56562,-1.25005 -1.25005,-1.25005 z"
         style="baseline-shift:baseline;display:inline;overflow:visible;vector-effect:none;fill:#03c356;stroke-linecap:round;stroke-linejoin:round;paint-order:markers stroke fill;enable-background:accumulate;stop-color:#000000"
         id="path722" /><path
         d="m 57.427254,226.18616 v 0.11524 0.8847 h 9.50019 v 4.49998 a 0.50005,0.50005 0 0 0 0.50023,0.49972 h 3.85558 c 0.19485,0.4394 0.6369,0.75034 1.14411,0.75034 0.68444,0 1.25006,-0.56562 1.25006,-1.25006 0,-0.68444 -0.56562,-1.25005 -1.25006,-1.25005 -0.50721,0 -0.94926,0.31042 -1.14411,0.74983 h -3.35587 v -4.49999 a 0.50005,0.50005 0 0 0 -0.49971,-0.49971 z"
         style="baseline-shift:baseline;display:inline;overflow:visible;vector-effect:none;fill:#03c356;stroke-linecap:round;stroke-linejoin:round;paint-order:markers stroke fill;enable-background:accumulate;stop-color:#000000"
         id="path720" /><path
         d="m 87.398034,215.43591 c -0.50722,0 -0.94875,0.31043 -1.1436,0.74983 h -3.82716 -4.99969 a 0.50005,0.50005 0 0 0 -0.50023,0.50023 v 4.49998 h -4.49947 a 0.5,0.5 0 0 0 -5.2e-4,0 h -15.00011 v 0.99994 h 14.5004 v 4.49998 a 0.50005,0.50005 0 0 0 0.49971,0.50023 h 8.85631 c 0.19485,0.4394 0.63639,0.74983 1.1436,0.74983 0.68443,0 1.25006,-0.56562 1.25005,-1.25006 1e-5,-0.68444 -0.56562,-1.25005 -1.25005,-1.25005 -0.50721,0 -0.94875,0.31094 -1.1436,0.75034 h -8.35608 v -4.00027 h 4.49999 a 0.50005,0.50005 0 0 0 0.49971,-0.50023 v -4.49998 h 4.49998 3.82716 c 0.19485,0.4394 0.63638,0.75034 1.1436,0.75034 0.68443,0 1.25005,-0.56561 1.25005,-1.25005 0,-0.68444 -0.56562,-1.25006 -1.25005,-1.25006 z"
         style="baseline-shift:baseline;display:inline;overflow:visible;vector-effect:none;fill:#03c356;stroke-linecap:round;stroke-linejoin:round;paint-order:markers stroke fill;enable-background:accumulate;stop-color:#000000"
         id="path721" /><path
         d="m 72.427364,200.38102 c -0.52801,0 -0.9849,0.33702 -1.16633,0.80512 h -3.83336 a 0.50005,0.50005 0 0 0 -0.50023,0.49971 v 4.99969 a 0.50005,0.50005 0 0 0 0,5.2e-4 v 4.49998 h -9.50019 v 0.99994 h 10.00042 a 0.50005,0.50005 0 0 0 0.49971,-0.50022 v -4.49999 h 13.35112 c 0.19215,0.44559 0.63706,0.76171 1.14877,0.76171 0.68443,0 1.25005,-0.56562 1.25005,-1.25005 1e-5,-0.68444 -0.56562,-1.25005 -1.25005,-1.25005 -0.50269,0 -0.94096,0.30526 -1.13843,0.73845 h -13.36146 v -3.99975 h 3.38222 c 0.20625,0.41026 0.63187,0.69504 1.11776,0.69504 0.68443,0 1.25005,-0.56562 1.25006,-1.25005 0,-0.68443 -0.56562,-1.25005 -1.25006,-1.25005 z"
         style="baseline-shift:baseline;display:inline;overflow:visible;vector-effect:none;fill:#03c356;stroke-linecap:round;stroke-linejoin:round;paint-order:markers stroke fill;enable-background:accumulate;stop-color:#000000"
         id="path723" /><path
         d="m 77.427584,195.4361 c -0.50721,0 -0.94926,0.31043 -1.14412,0.74983 h -13.856 a 0.50005,0.50005 0 0 0 -0.49971,0.50022 v 9.50537 l -4.5005,0.047 v 0.99994 a 0.5,0.5 0 0 0 0.006,0 l 4.99969,-0.0527 a 0.50005,0.50005 0 0 0 0.49454,-0.49971 v -9.50019 h 13.35578 c 0.19485,0.4394 0.6369,0.74982 1.14411,0.74982 0.68444,0 1.25006,-0.5651 1.25006,-1.24954 -1e-5,-0.68443 -0.56563,-1.25005 -1.25006,-1.25005 z"
         style="baseline-shift:baseline;display:inline;overflow:visible;vector-effect:none;fill:#03c356;stroke-linecap:round;stroke-linejoin:round;paint-order:markers stroke fill;enable-background:accumulate;stop-color:#000000"
         id="path724" /></g></g></svg>
