<?xml version="1.0" encoding="UTF-8" standalone="no"?>
<!-- Created with Inkscape (http://www.inkscape.org/) -->

<svg
   width="210mm"
   height="297mm"
   viewBox="0 0 210 297"
   version="1.1"
   id="svg1"
   xml:space="preserve"
   inkscape:version="1.4.2 (f4327f4, 2025-05-13)"
   sodipodi:docname="master.svg"
   xmlns:inkscape="http://www.inkscape.org/namespaces/inkscape"
   xmlns:sodipodi="http://sodipodi.sourceforge.net/DTD/sodipodi-0.dtd"
   xmlns="http://www.w3.org/2000/svg"
   xmlns:svg="http://www.w3.org/2000/svg"><sodipodi:namedview
     id="namedview1"
     pagecolor="#ffffff"
     bordercolor="#000000"
     borderopacity="0.25"
     inkscape:showpageshadow="2"
     inkscape:pageopacity="0.0"
     inkscape:pagecheckerboard="0"
     inkscape:deskcolor="#d1d1d1"
     inkscape:document-units="mm"
     inkscape:zoom="1.5319853"
     inkscape:cx="327.02663"
     inkscape:cy="420.36956"
     inkscape:window-width="3440"
     inkscape:window-height="1417"
     inkscape:window-x="1912"
     inkscape:window-y="-8"
     inkscape:window-maximized="1"
     inkscape:current-layer="layer1" /><defs
     id="defs1"><style
       id="style1">.cls-1{fill:none;}</style></defs><g
     inkscape:label="Layer 1"
     inkscape:groupmode="layer"
     id="layer1"><g
       id="g2"
       transform="matrix(2.1054742,0,0,2.1054742,107.24521,131.65621)"
       style="stroke-width:0.125664"><path
         id="rect1-1"
         style="fill:#ba0c2f;stroke-width:0.125664"
         d="M 0,0 H 22 V 16 H 0 Z" /><g
         id="path1-7"
         style="opacity:1;stroke-width:0.125664"><path
           style="baseline-shift:baseline;display:inline;overflow:visible;vector-effect:none;stroke-width:0.125664;enable-background:accumulate;stop-color:#000000;stop-opacity:1"
           d="M 0,8 H 22 M 8,0 v 16"
           id="path3" /><path
           style="baseline-shift:baseline;display:inline;overflow:visible;vector-effect:none;fill:#ffffff;stroke-width:0.125664;enable-background:accumulate;stop-color:#000000;stop-opacity:1"
           d="M 6,0 V 6 H 0 v 4 h 6 v 6 h 4 V 10 H 22 V 6 H 10 V 0 Z"
           id="path4" /></g><g
         id="path2"
         style="opacity:1;stroke-width:0.125664"><path
           style="baseline-shift:baseline;display:inline;overflow:visible;vector-effect:none;stroke-width:0.125664;enable-background:accumulate;stop-color:#000000;stop-opacity:1"
           d="M 0,8 H 22 M 8,0 v 16"
           id="path5" /><path
           style="baseline-shift:baseline;display:inline;overflow:visible;vector-effect:none;fill:#00205b;stroke-width:0.125664;enable-background:accumulate;stop-color:#000000;stop-opacity:1"
           d="M 7,0 V 7 H 0 v 2 h 7 v 7 H 9 V 9 H 22 V 7 H 9 V 0 Z"
           id="path6" /></g></g><g
       id="g6"
       transform="matrix(1.1524484,0,0,1.1524484,32.839539,138.81234)"
       style="stroke-width:4.59168"><path
         d="M 0,0 V 30 H 50 V 0 Z"
         fill="#012169"
         id="path2-1"
         style="stroke-width:4.59168" /><g
         id="path3-5"
         style="opacity:1;stroke-width:4.59168"><path
           style="baseline-shift:baseline;display:inline;overflow:visible;vector-effect:none;stroke-width:4.59168;enable-background:accumulate;stop-color:#000000;stop-opacity:1"
           d="M 0,0 50,30 M 50,0 0,30"
           id="path7" /><path
           style="baseline-shift:baseline;display:inline;overflow:visible;vector-effect:none;fill:#ffffff;stroke-width:4.59168;enable-background:accumulate;stop-color:#000000;stop-opacity:1"
           d="M 1.5429687,-2.5722656 -1.5429687,2.5722656 19.169922,15 -1.5429687,27.427734 1.5429687,32.572266 25,18.498047 48.457031,32.572266 51.542969,27.427734 30.830078,15 51.542969,2.5722656 48.457031,-2.5722656 25,11.501953 Z"
           id="path8" /></g><g
         id="path4-2"
         clip-path="url(#t)"
         style="opacity:1;stroke-width:4.59168"><path
           style="baseline-shift:baseline;display:inline;overflow:visible;vector-effect:none;stroke-width:4.59168;enable-background:accumulate;stop-color:#000000;stop-opacity:1"
           d="M 0,0 50,30 M 50,0 0,30"
           id="path9" /><path
           style="baseline-shift:baseline;display:inline;overflow:visible;vector-effect:none;fill:#c8102e;stroke-width:4.59168;enable-background:accumulate;stop-color:#000000;stop-opacity:1"
           d="M 1.0292969,-1.7148437 -1.0292969,1.7148437 21.113281,15 -1.0292969,28.285156 1.0292969,31.714844 25,17.332031 48.970703,31.714844 51.029297,28.285156 28.886719,15 51.029297,1.7148437 48.970703,-1.7148437 25,12.667969 Z"
           id="path10" /></g><g
         id="path5-7"
         style="opacity:1;stroke-width:4.59168"><path
           style="baseline-shift:baseline;display:inline;overflow:visible;vector-effect:none;fill:#c8102e;stroke-width:4.59168;enable-background:accumulate;stop-color:#000000;stop-opacity:1"
           d="M -1,11 H 21 V -1 h 8 v 12 h 22 v 8 H 29 V 31 H 21 V 19 H -1 Z"
           id="path11" /><path
           style="baseline-shift:baseline;display:inline;overflow:visible;vector-effect:none;fill:#ffffff;stroke-width:4.59168;enable-background:accumulate;stop-color:#000000;stop-opacity:1"
           d="M 20,-2 V 10 H -2 V 20 H 20 V 32 H 30 V 20 H 52 V 10 H 30 V -2 Z m 2,2 h 6 v 12 h 22 v 6 H 28 V 30 H 22 V 18 H 0 v -6 h 22 z"
           id="path12" /></g></g><g
       id="g65"
       transform="translate(47.993832,93.911595)"><path
         d="M 39.287008,95.750745 57.856417,106.8927 v 0.38241 H 54.014274 49.534961 L 34.807178,98.438953 v 1.343587 l 12.488126,7.49257 H 34.807178 v 1.1529 1.15238 h 16.330786 2.23914 4.479313 2.304769 v -1.30483 -1.34359 -11.181225 h -1.152385 -1.152384 v 9.798365 L 41.525631,95.750745 Z"
         style="baseline-shift:baseline;display:inline;overflow:visible;vector-effect:none;fill:#ffffff;stroke-width:4.59168;enable-background:accumulate;stop-color:#000000;stop-opacity:1"
         id="path65" /><path
         d="m 67.076009,95.750745 v 11.181225 1.34307 1.30535 h 2.304769 4.479313 2.23914 16.330786 v -1.15238 -1.1529 H 79.94189 l 12.488127,-7.49257 v -1.343587 l -14.727783,8.836157 h -4.479313 -3.842143 v -0.38293 L 87.950187,95.750745 h -2.238623 l -16.330786,9.798365 v -9.798365 h -1.152384 z"
         style="baseline-shift:baseline;display:inline;overflow:visible;vector-effect:none;fill:#ffffff;stroke-width:4.59168;enable-background:accumulate;stop-color:#000000;stop-opacity:1"
         id="path64" /><path
         d="m 67.076009,116.4947 v 1.30534 1.34308 11.18122 h 1.152385 1.152384 v -9.79836 l 16.330786,9.79836 h 2.238623 L 69.380778,119.18291 v -0.38293 h 3.842143 4.478796 l 14.7283,8.83667 v -1.3441 L 79.94189,118.79998 h 12.488127 v -1.15238 -1.1529 H 76.099231 73.859574 69.380778 Z"
         style="baseline-shift:baseline;display:inline;overflow:visible;vector-effect:none;fill:#ffffff;stroke-width:4.59168;enable-background:accumulate;stop-color:#000000;stop-opacity:1"
         id="path63" /><path
         d="m 34.807178,116.4947 v 1.1529 1.15238 h 12.488126 l -12.488126,7.49257 v 1.3441 l 14.7283,-8.83667 h 4.478796 3.842143 v 0.38241 l -18.569409,11.14195 h 2.238623 l 16.330786,-9.79836 v 9.79836 h 1.152384 1.152385 v -11.18122 -1.34359 -1.30483 H 57.856417 53.37762 51.137964 Z"
         style="baseline-shift:baseline;display:inline;overflow:visible;vector-effect:none;fill:#ffffff;stroke-width:4.59168;enable-background:accumulate;stop-color:#000000;stop-opacity:1"
         id="path62" /><path
         d="m 57.856417,130.32434 v -9.79836 l -16.330786,9.79836 z"
         style="fill:#012169;stroke-width:4.59168"
         id="path61" /><path
         d="m 34.807178,126.29255 12.488126,-7.49257 H 34.807178 Z"
         style="fill:#012169;stroke-width:4.59168"
         id="path60" /><path
         d="M 47.295304,107.27511 34.807178,99.78254 v 7.49257 z"
         style="fill:#012169;stroke-width:4.59168"
         id="path59" /><path
         d="m 41.525631,95.750745 16.330786,9.798365 v -9.798365 z"
         style="fill:#012169;stroke-width:4.59168"
         id="path58" /><path
         d="M 69.380778,105.54911 85.711564,95.750745 H 69.380778 Z"
         style="fill:#012169;stroke-width:4.59168"
         id="path57" /><path
         d="M 92.430017,99.78254 79.94189,107.27511 H 92.430017 Z"
         style="fill:#012169;stroke-width:4.59168"
         id="path56" /><path
         d="M 92.430017,118.79998 H 79.94189 l 12.488127,7.49257 z"
         style="fill:#012169;stroke-width:4.59168"
         id="path55" /><path
         d="m 85.711564,130.32434 -16.330786,-9.79836 v 9.79836 z"
         style="fill:#012169;stroke-width:4.59168"
         id="path54" /><path
         d="m 60.161186,95.750745 v 11.181225 1.34359 1.30483 h -2.304769 -4.479313 -2.23914 -16.330786 v 6.91431 h 16.330786 2.239656 4.478797 2.304769 v 1.30483 1.34359 11.18122 h 6.914823 v -11.18122 -1.34308 -1.30534 h 2.304769 4.478796 2.239657 16.330786 v -6.91431 h -16.330786 -2.23914 -4.479313 -2.304769 v -1.30535 -1.34307 -11.181225 z"
         style="baseline-shift:baseline;display:inline;overflow:visible;vector-effect:none;fill:#c8102e;stroke-width:4.59168;enable-background:accumulate;stop-color:#000000;stop-opacity:1"
         id="path53" /><path
         d="m 34.807694,95.750745 -5.16e-4,5.16e-4 v 2.687692 l 14.727783,8.836157 h 4.479313 3.842143 V 106.8927 L 39.287008,95.750745 Z"
         style="baseline-shift:baseline;display:inline;overflow:visible;vector-effect:none;fill:#c8102e;stroke-width:4.59168;enable-background:accumulate;stop-color:#000000;stop-opacity:1"
         id="path52" /><path
         d="m 69.380778,118.79998 v 0.38293 l 18.569409,11.14143 H 92.4295 l 5.17e-4,-5.1e-4 v -2.68718 l -14.7283,-8.83667 h -4.478796 z"
         style="baseline-shift:baseline;display:inline;overflow:visible;vector-effect:none;fill:#c8102e;stroke-width:4.59168;enable-background:accumulate;stop-color:#000000;stop-opacity:1"
         id="path51" /><path
         d="M 87.950187,95.750745 69.380778,106.89218 v 0.38293 h 3.842143 4.479313 l 14.727783,-8.836157 v -2.687692 l -5.17e-4,-5.16e-4 z"
         style="baseline-shift:baseline;display:inline;overflow:visible;vector-effect:none;fill:#c8102e;stroke-width:4.59168;enable-background:accumulate;stop-color:#000000;stop-opacity:1"
         id="path50" /><path
         d="m 49.535478,118.79998 -14.7283,8.83667 v 2.68718 5.1e-4 h 4.47983 l 18.569409,-11.14195 v -0.38241 h -3.842143 z"
         style="baseline-shift:baseline;display:inline;overflow:visible;vector-effect:none;fill:#c8102e;stroke-width:4.59168;enable-background:accumulate;stop-color:#000000;stop-opacity:1"
         id="path49" /></g><circle
       style="fill:none;stroke:#000000;stroke-width:2.00001;stroke-linecap:round;stroke-linejoin:round;stroke-dasharray:none;paint-order:markers stroke fill"
       id="path13"
       cx="61.650749"
       cy="156.09908"
       r="14.939084" /><g
       id="g136"
       transform="matrix(1.004091,0,0,1.0040909,-0.43571976,-0.34255174)"
       style="stroke-width:0.995926"
       inkscape:export-filename="country-flag-balls\norway.svg"
       inkscape:export-xdpi="96"
       inkscape:export-ydpi="96"><path
         d="m 136.23613,100.7799 h -16.51424 v 12.73358 a 14.939084,14.939084 0 0 0 1.72444,0.0997 14.939084,14.939084 0 0 0 0.38138,-0.005 V 102.8848 h 13.9516 a 14.939084,14.939084 0 0 0 0.45682,-2.10529 z"
         style="baseline-shift:baseline;display:inline;overflow:visible;vector-effect:none;fill:#ffffff;stroke-width:0.125152;enable-background:accumulate;stop-color:#000000;stop-opacity:1"
         id="path41" /><path
         d="m 136.38496,98.674597 h -18.76837 v 14.439433 a 14.939084,14.939084 0 0 0 2.1053,0.39945 V 100.7799 h 16.51424 a 14.939084,14.939084 0 0 0 0.14883,-2.105303 z"
         style="baseline-shift:baseline;display:inline;overflow:visible;vector-effect:none;fill:#00205b;stroke-width:0.125152;enable-background:accumulate;stop-color:#000000;stop-opacity:1"
         id="path40" /><path
         d="m 119.72189,83.835193 v 12.73359 h 16.51424 a 14.939084,14.939084 0 0 0 -0.45682,-2.105298 h -13.9516 V 83.740108 a 14.939084,14.939084 0 0 0 -0.38138,-0.0047 14.939084,14.939084 0 0 0 -1.72444,0.09974 z"
         style="baseline-shift:baseline;display:inline;overflow:visible;vector-effect:none;fill:#ffffff;stroke-width:0.125152;enable-background:accumulate;stop-color:#000000;stop-opacity:1"
         id="path39" /><path
         d="m 117.61659,84.234652 v 14.439945 h 18.76837 a 14.939084,14.939084 0 0 0 -0.14883,-2.105814 h -16.51424 v -12.73359 a 14.939084,14.939084 0 0 0 -2.1053,0.399459 z"
         style="baseline-shift:baseline;display:inline;overflow:visible;vector-effect:none;fill:#00205b;stroke-width:0.125152;enable-background:accumulate;stop-color:#000000;stop-opacity:1"
         id="path38" /><path
         d="m 107.11284,94.463485 a 14.939084,14.939084 0 0 0 -0.45682,2.105298 h 8.85528 V 84.96484 a 14.939084,14.939084 0 0 0 -2.10582,1.118794 v 8.379851 z"
         style="baseline-shift:baseline;display:inline;overflow:visible;vector-effect:none;fill:#ffffff;stroke-width:0.125152;enable-background:accumulate;stop-color:#000000;stop-opacity:1"
         id="path37" /><path
         d="m 115.5113,84.96484 v 11.603943 h -8.85528 a 14.939084,14.939084 0 0 0 -0.14883,2.105814 h 11.1094 V 84.234652 a 14.939084,14.939084 0 0 0 -2.10529,0.730188 z"
         style="baseline-shift:baseline;display:inline;overflow:visible;vector-effect:none;fill:#00205b;stroke-width:0.125152;enable-background:accumulate;stop-color:#000000;stop-opacity:1"
         id="path36" /><path
         d="M 117.61659,113.11403 V 98.674597 h -11.1094 a 14.939084,14.939084 0 0 0 0.14883,2.105303 h 8.85528 v 11.60394 a 14.939084,14.939084 0 0 0 2.10529,0.73019 z"
         style="baseline-shift:baseline;display:inline;overflow:visible;vector-effect:none;fill:#00205b;stroke-width:0.125152;enable-background:accumulate;stop-color:#000000;stop-opacity:1"
         id="path35" /><path
         d="M 115.5113,112.38384 V 100.7799 h -8.85528 a 14.939084,14.939084 0 0 0 0.45682,2.10529 h 6.29264 v 8.37985 a 14.939084,14.939084 0 0 0 2.10582,1.1188 z"
         style="baseline-shift:baseline;display:inline;overflow:visible;vector-effect:none;fill:#ffffff;stroke-width:0.125152;enable-background:accumulate;stop-color:#000000;stop-opacity:1"
         id="path34" /><path
         d="m 113.40548,111.26504 v -8.37985 h -6.29264 a 14.939084,14.939084 0 0 0 6.29264,8.37985 z"
         style="fill:#ba0c2f;stroke-width:0.125152"
         id="path33" /><path
         d="m 107.11284,94.463485 h 6.29264 v -8.379851 a 14.939084,14.939084 0 0 0 -6.29264,8.379851 z"
         style="fill:#ba0c2f;stroke-width:0.125152"
         id="path32" /><path
         d="m 121.82771,83.740108 v 10.723377 h 13.9516 a 14.939084,14.939084 0 0 0 -13.9516,-10.723377 z"
         style="fill:#ba0c2f;stroke-width:0.125152"
         id="path31" /><path
         d="m 135.77931,102.88519 h -13.9516 v 10.72338 a 14.939084,14.939084 0 0 0 13.9516,-10.72338 z"
         style="fill:#ba0c2f;stroke-width:0.125152"
         id="path30" /></g><g
       id="g135"
       transform="matrix(0.87523624,0,0,0.87524934,7.7292803,9.7112069)"
       style="stroke-width:1.14254"
       inkscape:export-filename="country-flag-balls\country-flag-balls\england.svg"
       inkscape:export-xdpi="96"
       inkscape:export-ydpi="96"><path
         d="m 63.573449,102.26102 2.079459,-1.51567 h -2.703711 a 17.13802,17.13802 0 0 0 0.624252,1.51567 z"
         style="fill:#012169;stroke-width:5.78228"
         id="path135" /><path
         d="m 66.631143,106.7517 7.715292,-5.62395 v -0.3824 h -3.162598 -3.687114 l -3.42408,2.49597 a 17.13802,17.13802 0 0 0 2.5585,3.51038 z"
         style="baseline-shift:baseline;display:inline;overflow:visible;vector-effect:none;fill:#c8102e;stroke-width:5.78228;enable-background:accumulate;stop-color:#000000;stop-opacity:1"
         id="path134" /><path
         d="m 74.346435,111.45167 v -8.98033 l -6.934978,5.05499 a 17.13802,17.13802 0 0 0 6.934978,3.92534 z"
         style="fill:#012169;stroke-width:5.78228"
         id="path133" /><path
         d="m 76.243476,111.88317 v -10.79469 -1.343595 -1.30483 h -1.897041 -3.687114 -1.843298 -6.512264 a 17.13802,17.13802 0 0 0 0.645438,2.305295 h 2.703711 l -2.079459,1.51567 a 17.13802,17.13802 0 0 0 0.499194,0.9803 l 3.42408,-2.49597 h 3.687114 3.162598 v 0.3824 l -7.715292,5.62395 a 17.13802,17.13802 0 0 0 0.780314,0.77463 l 6.934978,-5.05499 v 8.98033 a 17.13802,17.13802 0 0 0 1.897041,0.4315 z"
         style="baseline-shift:baseline;display:inline;overflow:visible;vector-effect:none;fill:#ffffff;stroke-width:5.78228;enable-background:accumulate;stop-color:#000000;stop-opacity:1"
         id="path132" /><path
         d="m 90.767654,107.52633 -6.934977,-5.05499 v 8.98033 a 17.13802,17.13802 0 0 0 6.934977,-3.92534 z"
         style="fill:#012169;stroke-width:5.78228"
         id="path131" /><path
         d="m 95.229914,100.74535 h -2.703711 l 2.07946,1.51567 a 17.13802,17.13802 0 0 0 0.624251,-1.51567 z"
         style="fill:#012169;stroke-width:5.78228"
         id="path130" /><path
         d="m 94.106469,103.24132 -3.424081,-2.49597 h -3.687113 -3.162598 v 0.38292 l 7.715292,5.62343 a 17.13802,17.13802 0 0 0 2.5585,-3.51038 z"
         style="baseline-shift:baseline;display:inline;overflow:visible;vector-effect:none;fill:#c8102e;stroke-width:5.78228;enable-background:accumulate;stop-color:#000000;stop-opacity:1"
         id="path129" /><path
         d="m 95.875353,98.440055 h -6.512264 -1.843298 -3.687114 -1.897042 v 1.30535 1.343075 10.79469 a 17.13802,17.13802 0 0 0 1.897042,-0.4315 v -8.98033 l 6.934977,5.05499 a 17.13802,17.13802 0 0 0 0.780315,-0.77463 l -7.715292,-5.62343 v -0.38292 h 3.162598 3.687113 l 3.424081,2.49597 a 17.13802,17.13802 0 0 0 0.499194,-0.9803 l -2.07946,-1.51567 h 2.703711 a 17.13802,17.13802 0 0 0 0.645439,-2.305295 z"
         style="baseline-shift:baseline;display:inline;overflow:visible;vector-effect:none;fill:#ffffff;stroke-width:5.78228;enable-background:accumulate;stop-color:#000000;stop-opacity:1"
         id="path128" /><path
         d="m 94.605663,87.704796 -2.07946,1.51567 h 2.703711 a 17.13802,17.13802 0 0 0 -0.624251,-1.51567 z"
         style="fill:#012169;stroke-width:5.78228"
         id="path127" /><path
         d="m 91.547969,83.214114 -7.715292,5.623429 v 0.382923 h 3.162598 3.68763 l 3.42408,-2.495455 a 17.13802,17.13802 0 0 0 -2.559016,-3.510897 z"
         style="baseline-shift:baseline;display:inline;overflow:visible;vector-effect:none;fill:#c8102e;stroke-width:5.78228;enable-background:accumulate;stop-color:#000000;stop-opacity:1"
         id="path126" /><path
         d="m 81.935635,78.083161 v 10.794173 1.343071 1.305346 h 1.897042 3.687114 1.843298 6.512264 a 17.13802,17.13802 0 0 0 -0.645439,-2.305285 h -2.703711 l 2.07946,-1.51567 a 17.13802,17.13802 0 0 0 -0.498678,-0.979785 l -3.42408,2.495455 h -3.68763 -3.162598 v -0.382923 l 7.715292,-5.623429 a 17.13802,17.13802 0 0 0 -0.780315,-0.774113 l -6.934977,5.054472 v -8.979814 a 17.13802,17.13802 0 0 0 -1.897042,-0.431498 z"
         style="baseline-shift:baseline;display:inline;overflow:visible;vector-effect:none;fill:#ffffff;stroke-width:5.78228;enable-background:accumulate;stop-color:#000000;stop-opacity:1"
         id="path125" /><path
         d="m 83.832677,78.514659 v 8.979814 l 6.934977,-5.054472 a 17.13802,17.13802 0 0 0 -6.934977,-3.925342 z"
         style="fill:#012169;stroke-width:5.78228"
         id="path124" /><path
         d="m 76.243476,78.083161 v 10.794173 1.343588 1.304829 h -1.897041 -3.687114 -1.843298 -6.512264 a 17.13802,17.13802 0 0 0 -0.352433,3.457154 17.13802,17.13802 0 0 0 0.352433,3.45715 h 6.512264 1.843298 3.687114 1.897041 v 1.30483 1.343595 10.79469 a 17.13802,17.13802 0 0 0 2.846338,0.23771 17.13802,17.13802 0 0 0 2.845821,-0.23771 v -10.79469 -1.343075 -1.30535 h 1.897042 3.687114 1.843298 6.512264 a 17.13802,17.13802 0 0 0 0.352433,-3.45715 17.13802,17.13802 0 0 0 -0.352433,-3.457154 H 89.363089 87.519791 83.832677 81.935635 V 90.220405 88.877334 78.083161 a 17.13802,17.13802 0 0 0 -2.845821,-0.238228 17.13802,17.13802 0 0 0 -2.846338,0.238228 z"
         style="baseline-shift:baseline;display:inline;overflow:visible;vector-effect:none;fill:#c8102e;stroke-width:5.78228;enable-background:accumulate;stop-color:#000000;stop-opacity:1"
         id="path123" /><path
         d="m 67.411457,82.440001 6.934978,5.054472 v -8.979814 a 17.13802,17.13802 0 0 0 -6.934978,3.925342 z"
         style="fill:#012169;stroke-width:5.78228"
         id="path122" /><path
         d="m 64.072126,86.725011 a 17.13802,17.13802 0 0 0 -0.498677,0.979785 l 2.079459,1.51567 h -2.703711 a 17.13802,17.13802 0 0 0 -0.645438,2.305285 h 6.512264 1.843298 3.687114 1.897041 V 90.220922 88.877334 78.083161 a 17.13802,17.13802 0 0 0 -1.897041,0.431498 v 8.979814 l -6.934978,-5.054472 a 17.13802,17.13802 0 0 0 -0.780314,0.77463 l 7.715292,5.623429 v 0.382406 h -3.162598 -3.68763 z"
         style="baseline-shift:baseline;display:inline;overflow:visible;vector-effect:none;fill:#ffffff;stroke-width:5.78228;enable-background:accumulate;stop-color:#000000;stop-opacity:1"
         id="path121" /><path
         d="m 64.072126,86.725011 3.424081,2.495455 h 3.68763 3.162598 V 88.83806 l -7.715292,-5.623429 a 17.13802,17.13802 0 0 0 -2.559017,3.51038 z"
         style="baseline-shift:baseline;display:inline;overflow:visible;vector-effect:none;fill:#c8102e;stroke-width:5.78228;enable-background:accumulate;stop-color:#000000;stop-opacity:1"
         id="path120" /><path
         d="m 62.949197,89.220466 h 2.703711 l -2.079459,-1.51567 a 17.13802,17.13802 0 0 0 -0.624252,1.51567 z"
         style="fill:#012169;stroke-width:5.78228"
         id="path119" /></g></g></svg>
