<?xml version="1.0" encoding="UTF-8" standalone="no"?>
<!-- Created with Inkscape (http://www.inkscape.org/) -->

<svg
   width="29.999992mm"
   height="30.000004mm"
   viewBox="0 0 29.999992 30.000004"
   version="1.1"
   id="svg1"
   xml:space="preserve"
   xmlns="http://www.w3.org/2000/svg"
   xmlns:svg="http://www.w3.org/2000/svg"><defs
     id="defs1"><style
       id="style1">.cls-1{fill:none;}</style></defs><g
     id="layer1"
     transform="translate(-106.50719,-83.735412)"><g
       id="g136"
       transform="matrix(1.004091,0,0,1.0040909,-0.43571976,-0.34255174)"
       style="stroke-width:0.995926"><path
         d="m 136.23613,100.7799 h -16.51424 v 12.73358 a 14.939084,14.939084 0 0 0 1.72444,0.0997 14.939084,14.939084 0 0 0 0.38138,-0.005 V 102.8848 h 13.9516 a 14.939084,14.939084 0 0 0 0.45682,-2.10529 z"
         style="baseline-shift:baseline;display:inline;overflow:visible;vector-effect:none;fill:#ffffff;stroke-width:0.125152;enable-background:accumulate;stop-color:#000000;stop-opacity:1"
         id="path41" /><path
         d="m 136.38496,98.674597 h -18.76837 v 14.439433 a 14.939084,14.939084 0 0 0 2.1053,0.39945 V 100.7799 h 16.51424 a 14.939084,14.939084 0 0 0 0.14883,-2.105303 z"
         style="baseline-shift:baseline;display:inline;overflow:visible;vector-effect:none;fill:#00205b;stroke-width:0.125152;enable-background:accumulate;stop-color:#000000;stop-opacity:1"
         id="path40" /><path
         d="m 119.72189,83.835193 v 12.73359 h 16.51424 a 14.939084,14.939084 0 0 0 -0.45682,-2.105298 h -13.9516 V 83.740108 a 14.939084,14.939084 0 0 0 -0.38138,-0.0047 14.939084,14.939084 0 0 0 -1.72444,0.09974 z"
         style="baseline-shift:baseline;display:inline;overflow:visible;vector-effect:none;fill:#ffffff;stroke-width:0.125152;enable-background:accumulate;stop-color:#000000;stop-opacity:1"
         id="path39" /><path
         d="m 117.61659,84.234652 v 14.439945 h 18.76837 a 14.939084,14.939084 0 0 0 -0.14883,-2.105814 h -16.51424 v -12.73359 a 14.939084,14.939084 0 0 0 -2.1053,0.399459 z"
         style="baseline-shift:baseline;display:inline;overflow:visible;vector-effect:none;fill:#00205b;stroke-width:0.125152;enable-background:accumulate;stop-color:#000000;stop-opacity:1"
         id="path38" /><path
         d="m 107.11284,94.463485 a 14.939084,14.939084 0 0 0 -0.45682,2.105298 h 8.85528 V 84.96484 a 14.939084,14.939084 0 0 0 -2.10582,1.118794 v 8.379851 z"
         style="baseline-shift:baseline;display:inline;overflow:visible;vector-effect:none;fill:#ffffff;stroke-width:0.125152;enable-background:accumulate;stop-color:#000000;stop-opacity:1"
         id="path37" /><path
         d="m 115.5113,84.96484 v 11.603943 h -8.85528 a 14.939084,14.939084 0 0 0 -0.14883,2.105814 h 11.1094 V 84.234652 a 14.939084,14.939084 0 0 0 -2.10529,0.730188 z"
         style="baseline-shift:baseline;display:inline;overflow:visible;vector-effect:none;fill:#00205b;stroke-width:0.125152;enable-background:accumulate;stop-color:#000000;stop-opacity:1"
         id="path36" /><path
         d="M 117.61659,113.11403 V 98.674597 h -11.1094 a 14.939084,14.939084 0 0 0 0.14883,2.105303 h 8.85528 v 11.60394 a 14.939084,14.939084 0 0 0 2.10529,0.73019 z"
         style="baseline-shift:baseline;display:inline;overflow:visible;vector-effect:none;fill:#00205b;stroke-width:0.125152;enable-background:accumulate;stop-color:#000000;stop-opacity:1"
         id="path35" /><path
         d="M 115.5113,112.38384 V 100.7799 h -8.85528 a 14.939084,14.939084 0 0 0 0.45682,2.10529 h 6.29264 v 8.37985 a 14.939084,14.939084 0 0 0 2.10582,1.1188 z"
         style="baseline-shift:baseline;display:inline;overflow:visible;vector-effect:none;fill:#ffffff;stroke-width:0.125152;enable-background:accumulate;stop-color:#000000;stop-opacity:1"
         id="path34" /><path
         d="m 113.40548,111.26504 v -8.37985 h -6.29264 a 14.939084,14.939084 0 0 0 6.29264,8.37985 z"
         style="fill:#ba0c2f;stroke-width:0.125152"
         id="path33" /><path
         d="m 107.11284,94.463485 h 6.29264 v -8.379851 a 14.939084,14.939084 0 0 0 -6.29264,8.379851 z"
         style="fill:#ba0c2f;stroke-width:0.125152"
         id="path32" /><path
         d="m 121.82771,83.740108 v 10.723377 h 13.9516 a 14.939084,14.939084 0 0 0 -13.9516,-10.723377 z"
         style="fill:#ba0c2f;stroke-width:0.125152"
         id="path31" /><path
         d="m 135.77931,102.88519 h -13.9516 v 10.72338 a 14.939084,14.939084 0 0 0 13.9516,-10.72338 z"
         style="fill:#ba0c2f;stroke-width:0.125152"
         id="path30" /></g></g></svg>
